<svg width="13" height="13" viewBox="0 0 13 13" fill="none" xmlns="http://www.w3.org/2000/svg">
<g clip-path="url(#clip0_1523_8785)">
<path d="M8.50224 11.3916H9.0836V12.5552H7.33815V11.3916H8.50224ZM5.01135 12.5552H6.17498V11.3916H4.42953V12.5552H5.01135ZM11.4113 10.2289V9.06427H10.2472V11.3907L9.08404 11.3902V10.2275H4.43185V11.3916H3.26507V9.06519L2.10235 9.06565V11.392L0.938721 11.3916V5.5733H2.10235V4.40965H3.26507V3.24506H4.42964V2.08232H5.59327V3.24506H7.9196V2.08232H9.08323V3.24506H10.2469L10.2464 4.40965H11.4105V5.5733H12.5741V11.3916H11.4114L11.4113 10.2289ZM9.08498 6.73836H7.92042V7.90202H9.08405L9.08498 6.73836ZM4.43279 7.90202H5.59642V6.73697H4.42965L4.43279 7.90202ZM10.2473 0.918701H9.08416V2.08235H10.2478L10.2473 0.918701ZM3.26509 0.918701V2.08235H4.42965V0.918701H3.26509Z" fill="white"/>
</g>
<defs>
<clipPath id="clip0_1523_8785">
<rect width="11.6363" height="11.6365" fill="white" transform="translate(0.940308 0.918701)"/>
</clipPath>
</defs>
</svg>
