<svg width="30" height="30" viewBox="0 0 30 30" fill="none" xmlns="http://www.w3.org/2000/svg">
<mask id="path-1-inside-1_516_26749" fill="white">
<path fill-rule="evenodd" clip-rule="evenodd" d="M21.3159 25C21.3159 25 20.4483 23.9762 19.7253 23.0714C22.8825 22.1905 24.0875 20.2381 24.0875 20.2381C23.0994 20.881 22.1595 21.3334 21.3159 21.6429C20.1109 22.1429 18.9541 22.4762 17.8213 22.6667C15.5076 23.0953 13.3868 22.9762 11.5792 22.6429C10.2054 22.381 9.02451 22 8.03637 21.6191C7.48205 21.4048 6.87953 21.1429 6.27701 20.8096C6.24086 20.7858 6.20471 20.7679 6.16856 20.75C6.13241 20.7322 6.09626 20.7143 6.06011 20.6905C6.0119 20.6667 5.9878 20.6429 5.9637 20.6191C5.52989 20.381 5.28888 20.2143 5.28888 20.2143C5.28888 20.2143 6.44572 22.1191 9.50653 23.0238C8.7835 23.9286 7.89177 25 7.89177 25C2.56549 24.8333 0.541016 21.381 0.541016 21.381C0.541016 13.7144 4.01154 7.50017 4.01154 7.50017C7.48205 4.92877 10.7839 5.0002 10.7839 5.0002L11.0249 5.28591C6.68673 6.52399 4.68636 8.40493 4.68636 8.40493C4.68636 8.40493 5.21658 8.11921 6.10831 7.71446C8.6871 6.59542 10.7357 6.2859 11.5792 6.21447L11.6332 6.20545C11.7548 6.185 11.8627 6.16685 11.9889 6.16685C13.4591 5.97638 15.122 5.92876 16.8573 6.11923C19.1469 6.38114 21.6051 7.0478 24.1116 8.40493C24.1116 8.40493 22.2077 6.61923 18.1105 5.38115L18.4479 5.0002C18.4479 5.0002 21.7497 4.92877 25.2203 7.50017C25.2203 7.50017 28.6908 13.7144 28.6908 21.381C28.6908 21.381 26.6422 24.8333 21.3159 25ZM10.7885 14.3151C9.42554 14.3151 8.34955 15.5408 8.34955 17.0362C8.34955 18.5315 9.44946 19.7572 10.7885 19.7572C12.1514 19.7572 13.2274 18.5315 13.2274 17.0362C13.2513 15.5408 12.1514 14.3151 10.7885 14.3151ZM17.0763 17.0362C17.0763 15.5408 18.1522 14.3151 19.5152 14.3151C20.8781 14.3151 21.9541 15.5408 21.9541 17.0362C21.9541 18.5315 20.8781 19.7572 19.5152 19.7572C18.1762 19.7572 17.0763 18.5315 17.0763 17.0362Z"/>
</mask>
<path fill-rule="evenodd" clip-rule="evenodd" d="M21.3159 25C21.3159 25 20.4483 23.9762 19.7253 23.0714C22.8825 22.1905 24.0875 20.2381 24.0875 20.2381C23.0994 20.881 22.1595 21.3334 21.3159 21.6429C20.1109 22.1429 18.9541 22.4762 17.8213 22.6667C15.5076 23.0953 13.3868 22.9762 11.5792 22.6429C10.2054 22.381 9.02451 22 8.03637 21.6191C7.48205 21.4048 6.87953 21.1429 6.27701 20.8096C6.24086 20.7858 6.20471 20.7679 6.16856 20.75C6.13241 20.7322 6.09626 20.7143 6.06011 20.6905C6.0119 20.6667 5.9878 20.6429 5.9637 20.6191C5.52989 20.381 5.28888 20.2143 5.28888 20.2143C5.28888 20.2143 6.44572 22.1191 9.50653 23.0238C8.7835 23.9286 7.89177 25 7.89177 25C2.56549 24.8333 0.541016 21.381 0.541016 21.381C0.541016 13.7144 4.01154 7.50017 4.01154 7.50017C7.48205 4.92877 10.7839 5.0002 10.7839 5.0002L11.0249 5.28591C6.68673 6.52399 4.68636 8.40493 4.68636 8.40493C4.68636 8.40493 5.21658 8.11921 6.10831 7.71446C8.6871 6.59542 10.7357 6.2859 11.5792 6.21447L11.6332 6.20545C11.7548 6.185 11.8627 6.16685 11.9889 6.16685C13.4591 5.97638 15.122 5.92876 16.8573 6.11923C19.1469 6.38114 21.6051 7.0478 24.1116 8.40493C24.1116 8.40493 22.2077 6.61923 18.1105 5.38115L18.4479 5.0002C18.4479 5.0002 21.7497 4.92877 25.2203 7.50017C25.2203 7.50017 28.6908 13.7144 28.6908 21.381C28.6908 21.381 26.6422 24.8333 21.3159 25ZM10.7885 14.3151C9.42554 14.3151 8.34955 15.5408 8.34955 17.0362C8.34955 18.5315 9.44946 19.7572 10.7885 19.7572C12.1514 19.7572 13.2274 18.5315 13.2274 17.0362C13.2513 15.5408 12.1514 14.3151 10.7885 14.3151ZM17.0763 17.0362C17.0763 15.5408 18.1522 14.3151 19.5152 14.3151C20.8781 14.3151 21.9541 15.5408 21.9541 17.0362C21.9541 18.5315 20.8781 19.7572 19.5152 19.7572C18.1762 19.7572 17.0763 18.5315 17.0763 17.0362Z" fill="#DBF0FF"/>
<path d="M19.7253 23.0714L19.5909 22.5898L18.8627 22.793L19.3347 23.3836L19.7253 23.0714ZM21.3159 25L20.9345 25.3233L21.0905 25.5073L21.3316 25.4998L21.3159 25ZM24.0875 20.2381L24.513 20.5008L23.8149 19.819L24.0875 20.2381ZM21.3159 21.6429L21.1437 21.1735L21.1339 21.1771L21.1243 21.1811L21.3159 21.6429ZM17.8213 22.6667L17.7384 22.1735L17.7302 22.1751L17.8213 22.6667ZM11.5792 22.6429L11.4856 23.134L11.4885 23.1346L11.5792 22.6429ZM8.03637 21.6191L7.85609 22.0854L7.85652 22.0856L8.03637 21.6191ZM6.27701 20.8096L6.002 21.2271L6.0181 21.2377L6.03497 21.2471L6.27701 20.8096ZM6.06011 20.6905L6.33512 20.2729L6.30928 20.2559L6.28154 20.2422L6.06011 20.6905ZM5.9637 20.6191L6.3151 20.2634L6.26545 20.2143L6.20427 20.1808L5.9637 20.6191ZM5.28888 20.2143L5.57327 19.8031L4.86152 20.4739L5.28888 20.2143ZM9.50653 23.0238L9.89712 23.336L10.3613 22.7551L9.64826 22.5443L9.50653 23.0238ZM7.89177 25L7.87613 25.4998L8.12 25.5074L8.27608 25.3199L7.89177 25ZM0.541016 21.381H0.0410156V21.5168L0.109704 21.6339L0.541016 21.381ZM4.01154 7.50017L3.71387 7.09843L3.62745 7.16247L3.575 7.25638L4.01154 7.50017ZM10.7839 5.0002L11.1661 4.67781L11.0205 4.5052L10.7947 4.50031L10.7839 5.0002ZM11.0249 5.28591L11.1621 5.76671L11.9056 5.55452L11.4071 4.96352L11.0249 5.28591ZM4.68636 8.40493L4.34385 8.04067L4.92354 8.84509L4.68636 8.40493ZM6.10831 7.71446L5.90924 7.25572L5.90165 7.25916L6.10831 7.71446ZM11.5792 6.21447L11.6214 6.71269L11.6416 6.71098L11.6616 6.70764L11.5792 6.21447ZM11.6332 6.20545L11.7156 6.69862L11.7162 6.69852L11.6332 6.20545ZM11.9889 6.16685V6.66685H12.0212L12.0532 6.66271L11.9889 6.16685ZM16.8573 6.11923L16.9141 5.62247L16.9118 5.62222L16.8573 6.11923ZM24.1116 8.40493L23.8736 8.84461L24.4537 8.04023L24.1116 8.40493ZM18.1105 5.38115L17.7362 5.04963L17.2187 5.63397L17.9659 5.85977L18.1105 5.38115ZM18.4479 5.0002L18.4371 4.50031L18.2186 4.50504L18.0736 4.66868L18.4479 5.0002ZM25.2203 7.50017L25.6568 7.25638L25.6044 7.16247L25.5179 7.09843L25.2203 7.50017ZM28.6908 21.381L29.1208 21.6361L29.1908 21.5182V21.381H28.6908ZM13.2274 17.0362L12.7274 17.0282V17.0362H13.2274ZM19.3347 23.3836C19.6992 23.8397 20.0993 24.3248 20.4075 24.6949C20.5618 24.8802 20.6934 25.0371 20.7865 25.1478C20.833 25.2031 20.8699 25.2469 20.8953 25.2769C20.9079 25.2919 20.9177 25.3034 20.9243 25.3112C20.9276 25.3151 20.9301 25.3181 20.9318 25.3201C20.9327 25.3212 20.9333 25.3219 20.9338 25.3224C20.934 25.3227 20.9342 25.3229 20.9343 25.323C20.9344 25.3231 20.9344 25.3232 20.9344 25.3232C20.9344 25.3232 20.9345 25.3232 20.9345 25.3232C20.9345 25.3233 20.9345 25.3233 21.3159 25C21.6974 24.6767 21.6974 24.6767 21.6974 24.6767C21.6974 24.6767 21.6974 24.6767 21.6974 24.6767C21.6973 24.6767 21.6973 24.6766 21.6973 24.6766C21.6972 24.6765 21.697 24.6763 21.6968 24.6761C21.6964 24.6756 21.6958 24.6749 21.695 24.6739C21.6934 24.672 21.6909 24.6691 21.6877 24.6653C21.6813 24.6577 21.6717 24.6464 21.6592 24.6316C21.6343 24.6021 21.5978 24.5588 21.5517 24.504C21.4595 24.3944 21.329 24.2388 21.176 24.0551C20.8696 23.6872 20.4744 23.2079 20.1159 22.7593L19.3347 23.3836ZM24.0875 20.2381C23.662 19.9755 23.6622 19.9753 23.6623 19.9751C23.6623 19.9751 23.6624 19.9749 23.6625 19.9748C23.6626 19.9746 23.6627 19.9744 23.6628 19.9743C23.663 19.974 23.6631 19.9738 23.6632 19.9737C23.6633 19.9736 23.6631 19.9739 23.6626 19.9746C23.6616 19.9762 23.6595 19.9795 23.6561 19.9845C23.6495 19.9946 23.6381 20.0114 23.6219 20.0343C23.5893 20.0802 23.5372 20.1503 23.4642 20.2388C23.318 20.416 23.0885 20.6667 22.7644 20.9453C22.1174 21.5015 21.0909 22.1713 19.5909 22.5898L19.8597 23.5531C21.5169 23.0906 22.6715 22.3438 23.4163 21.7036C23.7881 21.384 24.0572 21.0915 24.2356 20.8751C24.3249 20.7669 24.3916 20.6775 24.4373 20.6132C24.4601 20.581 24.4778 20.555 24.4903 20.536C24.4966 20.5266 24.5016 20.5188 24.5054 20.5129C24.5073 20.5099 24.5088 20.5074 24.5101 20.5054C24.5107 20.5044 24.5113 20.5035 24.5118 20.5027C24.512 20.5023 24.5122 20.502 24.5125 20.5017C24.5126 20.5015 24.5127 20.5013 24.5127 20.5012C24.5129 20.501 24.513 20.5008 24.0875 20.2381ZM21.4882 22.1123C22.3668 21.7899 23.3404 21.3207 24.3602 20.6573L23.8149 19.819C22.8584 20.4413 21.9521 20.8768 21.1437 21.1735L21.4882 22.1123ZM17.9042 23.1598C19.0768 22.9626 20.2701 22.6182 21.5076 22.1047L21.1243 21.1811C19.9517 21.6676 18.8313 21.9898 17.7384 22.1736L17.9042 23.1598ZM11.4885 23.1346C13.344 23.4767 15.5275 23.6001 17.9124 23.1583L17.7302 22.1751C15.4877 22.5904 13.4296 22.4757 11.6699 22.1512L11.4885 23.1346ZM7.85652 22.0856C8.86539 22.4746 10.0757 22.8652 11.4856 23.134L11.6728 22.1517C10.3352 21.8967 9.18362 21.5255 8.21623 21.1526L7.85652 22.0856ZM6.03497 21.2471C6.66342 21.5948 7.28813 21.8659 7.85609 22.0854L8.21666 21.1527C7.67598 20.9437 7.09565 20.691 6.51906 20.3721L6.03497 21.2471ZM5.94713 21.1983C5.96633 21.2078 5.97715 21.2132 5.98688 21.2184C5.9956 21.2231 5.99991 21.2258 6.002 21.2271L6.55203 20.392C6.48621 20.3486 6.42296 20.318 6.38999 20.3017L5.94713 21.1983ZM5.78509 21.1081C5.85091 21.1514 5.91415 21.182 5.94713 21.1983L6.38999 20.3017C6.37079 20.2923 6.35997 20.2869 6.35024 20.2817C6.34153 20.277 6.33721 20.2743 6.33512 20.2729L5.78509 21.1081ZM5.61231 20.9748C5.64692 21.009 5.717 21.0787 5.83867 21.1388L6.28154 20.2422C6.28447 20.2437 6.28926 20.2462 6.2953 20.25C6.30144 20.2539 6.30741 20.2582 6.31289 20.2625C6.32241 20.27 6.32858 20.2767 6.3151 20.2634L5.61231 20.9748ZM5.28888 20.2143C5.00449 20.6256 5.00453 20.6256 5.00456 20.6256C5.00458 20.6256 5.00461 20.6257 5.00464 20.6257C5.0047 20.6257 5.00475 20.6258 5.00481 20.6258C5.00494 20.6259 5.00507 20.626 5.00523 20.6261C5.00553 20.6263 5.0059 20.6265 5.00632 20.6268C5.00716 20.6274 5.00825 20.6282 5.00956 20.6291C5.0122 20.6309 5.01577 20.6333 5.02027 20.6363C5.02927 20.6424 5.04198 20.6509 5.0583 20.6617C5.09095 20.6832 5.13808 20.7137 5.19894 20.7516C5.32062 20.8275 5.49737 20.9335 5.72313 21.0574L6.20427 20.1808C5.99622 20.0666 5.83556 19.9702 5.72829 19.9032C5.67466 19.8698 5.63443 19.8437 5.60833 19.8265C5.59528 19.8179 5.58577 19.8116 5.5799 19.8076C5.57696 19.8056 5.57493 19.8042 5.57382 19.8035C5.57327 19.8031 5.57294 19.8029 5.57285 19.8028C5.5728 19.8028 5.57281 19.8028 5.57288 19.8028C5.57292 19.8028 5.57297 19.8029 5.57303 19.8029C5.57306 19.8029 5.5731 19.803 5.57314 19.803C5.57316 19.803 5.57319 19.803 5.5732 19.803C5.57323 19.8031 5.57327 19.8031 5.28888 20.2143ZM9.64826 22.5443C8.19518 22.1148 7.20356 21.4512 6.57961 20.9039C6.26712 20.6298 6.04622 20.3843 5.90581 20.2111C5.83562 20.1246 5.78565 20.0563 5.75448 20.0116C5.73891 19.9893 5.72804 19.973 5.72172 19.9633C5.71856 19.9584 5.71654 19.9552 5.71563 19.9538C5.71518 19.9531 5.715 19.9528 5.7151 19.9529C5.71516 19.953 5.71527 19.9532 5.71546 19.9535C5.71556 19.9537 5.71567 19.9539 5.7158 19.9541C5.71586 19.9542 5.71597 19.9543 5.716 19.9544C5.71612 19.9546 5.71623 19.9548 5.28888 20.2143C4.86152 20.4739 4.86165 20.4741 4.86178 20.4743C4.86183 20.4744 4.86197 20.4746 4.86207 20.4748C4.86227 20.4751 4.86248 20.4755 4.86272 20.4758C4.86319 20.4766 4.86374 20.4775 4.86435 20.4785C4.86559 20.4805 4.86712 20.483 4.86895 20.4859C4.87261 20.4917 4.87745 20.4993 4.88351 20.5086C4.89563 20.5272 4.91261 20.5527 4.93465 20.5842C4.97871 20.6473 5.04302 20.7349 5.12911 20.841C5.30126 21.0533 5.56087 21.3405 5.92019 21.6557C6.63986 22.2869 7.75706 23.0281 9.36479 23.5033L9.64826 22.5443ZM7.89177 25C8.27608 25.3199 8.27608 25.3198 8.27609 25.3198C8.2761 25.3198 8.27611 25.3198 8.27613 25.3198C8.27616 25.3198 8.2762 25.3197 8.27626 25.3196C8.27638 25.3195 8.27655 25.3193 8.27677 25.319C8.27721 25.3185 8.27787 25.3177 8.27874 25.3167C8.28048 25.3146 8.28306 25.3115 8.28644 25.3074C8.29321 25.2993 8.3032 25.2872 8.31616 25.2716C8.34208 25.2404 8.37988 25.1949 8.42748 25.1374C8.52267 25.0224 8.6571 24.8598 8.81418 24.6688C9.12811 24.2871 9.53348 23.791 9.89712 23.336L9.11593 22.7117C8.75654 23.1614 8.35454 23.6534 8.04184 24.0336C7.88561 24.2235 7.75192 24.3853 7.65732 24.4995C7.61002 24.5566 7.5725 24.6019 7.54683 24.6328C7.534 24.6482 7.52413 24.6601 7.51748 24.6681C7.51416 24.6721 7.51164 24.6751 7.50996 24.6771C7.50912 24.6782 7.50849 24.6789 7.50807 24.6794C7.50786 24.6797 7.5077 24.6799 7.5076 24.68C7.50755 24.68 7.50752 24.6801 7.50749 24.6801C7.50748 24.6801 7.50747 24.6801 7.50747 24.6801C7.50746 24.6801 7.50746 24.6801 7.89177 25ZM0.541016 21.381C0.109704 21.6339 0.109851 21.6342 0.110006 21.6344C0.110068 21.6345 0.110231 21.6348 0.110356 21.635C0.110605 21.6354 0.110886 21.6359 0.111198 21.6364C0.111824 21.6375 0.112577 21.6388 0.113458 21.6402C0.11522 21.6432 0.117495 21.647 0.120288 21.6515C0.125874 21.6607 0.133532 21.673 0.143305 21.6884C0.162849 21.7191 0.190864 21.7618 0.227677 21.8148C0.301282 21.9208 0.410212 22.0684 0.557107 22.2439C0.850747 22.5948 1.2973 23.059 1.91795 23.5272C3.16353 24.4667 5.09924 25.4129 7.87613 25.4998L7.90741 24.5002C5.35801 24.4205 3.61835 23.5572 2.52012 22.7288C1.96887 22.313 1.57641 21.9038 1.32402 21.6021C1.19789 21.4514 1.10705 21.3279 1.04914 21.2445C1.02019 21.2028 0.999511 21.1712 0.986798 21.1512C0.980443 21.1413 0.976084 21.1342 0.973683 21.1303C0.972483 21.1283 0.971773 21.1271 0.971549 21.1267C0.971436 21.1266 0.971446 21.1266 0.971576 21.1268C0.971641 21.1269 0.971736 21.1271 0.971861 21.1273C0.971924 21.1274 0.972041 21.1276 0.972072 21.1276C0.972196 21.1278 0.972328 21.1281 0.541016 21.381ZM4.01154 7.50017C3.575 7.25638 3.57492 7.25651 3.57483 7.25667C3.57479 7.25676 3.57469 7.25694 3.57459 7.25711C3.5744 7.25745 3.57416 7.25788 3.57387 7.25841C3.57328 7.25947 3.57248 7.26091 3.57148 7.26272C3.56947 7.26634 3.56665 7.27147 3.56302 7.27809C3.55578 7.29132 3.54535 7.3105 3.53195 7.33548C3.50515 7.38544 3.46646 7.45862 3.41758 7.55385C3.31983 7.7443 3.18129 8.02305 3.01558 8.38077C2.68425 9.09603 2.24381 10.1281 1.80367 11.4024C0.924388 13.948 0.0410156 17.4753 0.0410156 21.381H1.04102C1.04102 17.6201 1.8929 14.207 2.74888 11.7289C3.17637 10.4912 3.60356 9.49059 3.92295 8.8011C4.08261 8.45645 4.2152 8.18981 4.30724 8.01047C4.35326 7.92081 4.38913 7.853 4.41317 7.80819C4.42519 7.78578 4.43425 7.76913 4.44013 7.75838C4.44308 7.753 4.44523 7.7491 4.44656 7.74669C4.44723 7.74549 4.44769 7.74466 4.44794 7.74421C4.44807 7.74398 4.44814 7.74384 4.44816 7.7438C4.44817 7.74379 4.44815 7.74383 4.44816 7.74382C4.44812 7.74388 4.44807 7.74397 4.01154 7.50017ZM10.7839 5.0002C10.7947 4.50031 10.7945 4.50031 10.7943 4.50031C10.7942 4.5003 10.7939 4.5003 10.7937 4.5003C10.7934 4.50029 10.793 4.50028 10.7925 4.50027C10.7916 4.50025 10.7905 4.50023 10.7891 4.50021C10.7865 4.50017 10.783 4.50013 10.7788 4.50009C10.7702 4.50002 10.7586 4.49997 10.7439 4.50003C10.7144 4.50015 10.6727 4.50072 10.6194 4.5024C10.513 4.50577 10.3604 4.5136 10.1679 4.53132C9.78309 4.56674 9.23782 4.64173 8.58197 4.79983C7.27024 5.11605 5.51265 5.76567 3.71387 7.09843L4.3092 7.90192C5.98094 6.66328 7.60951 6.06291 8.81632 5.77199C9.41974 5.62652 9.91683 5.55866 10.2596 5.52711C10.4309 5.51134 10.5634 5.50467 10.651 5.5019C10.6948 5.50052 10.7274 5.50011 10.748 5.50002C10.7583 5.49998 10.7656 5.50001 10.7698 5.50005C10.7719 5.50007 10.7733 5.50009 10.7738 5.5001C10.7741 5.5001 10.7741 5.5001 10.774 5.5001C10.774 5.5001 10.7738 5.5001 10.7737 5.50009C10.7736 5.50009 10.7734 5.50009 10.7734 5.50009C10.7732 5.50008 10.7731 5.50008 10.7839 5.0002ZM11.4071 4.96352L11.1661 4.67781L10.4017 5.32259L10.6427 5.6083L11.4071 4.96352ZM4.68636 8.40493C5.02887 8.76919 5.02874 8.76931 5.02862 8.76942C5.0286 8.76945 5.02848 8.76955 5.02842 8.76961C5.02831 8.76972 5.02822 8.7698 5.02816 8.76985C5.02804 8.76996 5.02805 8.76996 5.02818 8.76984C5.02843 8.7696 5.02917 8.76892 5.03039 8.7678C5.03284 8.76555 5.03723 8.76155 5.04357 8.75586C5.05626 8.74449 5.07676 8.7264 5.10515 8.7022C5.16194 8.65379 5.25029 8.58094 5.37086 8.48853C5.61199 8.30372 5.98194 8.04071 6.48593 7.73852C7.49366 7.13429 9.03821 6.37286 11.1621 5.76671L10.8877 4.80511C8.67339 5.43705 7.04868 6.23512 5.97169 6.88088C5.43332 7.20368 5.03205 7.48828 4.76254 7.69484C4.62779 7.79811 4.52597 7.88189 4.45642 7.94118C4.42164 7.97082 4.39493 7.99435 4.37619 8.01114C4.36683 8.01953 4.35946 8.02624 4.35407 8.03119C4.35137 8.03366 4.34918 8.0357 4.34747 8.03728C4.34662 8.03807 4.34589 8.03875 4.34529 8.03931C4.34499 8.0396 4.34472 8.03985 4.34448 8.04008C4.34436 8.04019 4.3442 8.04034 4.34414 8.04039C4.34399 8.04053 4.34385 8.04067 4.68636 8.40493ZM5.90165 7.25916C5.44948 7.4644 5.08831 7.63976 4.83931 7.76427C4.71479 7.82654 4.61826 7.87612 4.55237 7.9104C4.51943 7.92754 4.49413 7.94086 4.47682 7.95003C4.46817 7.95461 4.46151 7.95816 4.45689 7.96063C4.45458 7.96186 4.45278 7.96283 4.45149 7.96352C4.45084 7.96386 4.45033 7.96414 4.44994 7.96435C4.44975 7.96445 4.44959 7.96454 4.44946 7.96461C4.4494 7.96464 4.44934 7.96467 4.44929 7.9647C4.44927 7.96471 4.44924 7.96473 4.44923 7.96473C4.4492 7.96475 4.44917 7.96476 4.68636 8.40493C4.92354 8.84509 4.92352 8.8451 4.9235 8.84511C4.9235 8.84511 4.92348 8.84512 4.92347 8.84513C4.92346 8.84514 4.92345 8.84514 4.92345 8.84514C4.92345 8.84514 4.92348 8.84512 4.92355 8.84509C4.92368 8.84502 4.92394 8.84488 4.92432 8.84467C4.9251 8.84425 4.92638 8.84357 4.92817 8.84261C4.93175 8.8407 4.93736 8.83771 4.94494 8.83369C4.96011 8.82566 4.98321 8.81349 5.0139 8.79752C5.0753 8.76558 5.16706 8.71844 5.28656 8.65868C5.5256 8.53915 5.87541 8.36927 6.31497 8.16975L5.90165 7.25916ZM11.537 5.71625C10.6469 5.79163 8.54432 6.11233 5.90927 7.25578L6.30735 8.17313C8.82987 7.07851 10.8244 6.78017 11.6214 6.71269L11.537 5.71625ZM11.5509 5.71228L11.4968 5.7213L11.6616 6.70764L11.7156 6.69862L11.5509 5.71228ZM11.9889 5.66685C11.8151 5.66685 11.668 5.69257 11.5503 5.71238L11.7162 6.69852C11.8416 6.67743 11.9103 6.66685 11.9889 6.66685V5.66685ZM16.9118 5.62222C15.1339 5.42706 13.431 5.47584 11.9247 5.671L12.0532 6.66271C13.4872 6.47692 15.1101 6.43046 16.8027 6.61625L16.9118 5.62222ZM24.3497 7.96524C21.7812 6.57453 19.2603 5.89085 16.9141 5.62247L16.8005 6.616C19.0334 6.87142 21.4291 7.52106 23.8736 8.84461L24.3497 7.96524ZM17.9659 5.85977C19.9709 6.46565 21.4327 7.20348 22.3876 7.78447C22.8652 8.07503 23.2162 8.32647 23.445 8.50272C23.5595 8.59084 23.6434 8.66015 23.6973 8.70615C23.7242 8.72915 23.7437 8.74631 23.7557 8.75708C23.7617 8.76246 23.7659 8.76625 23.7682 8.76836C23.7694 8.76942 23.77 8.77006 23.7703 8.77027C23.7704 8.77038 23.7704 8.77038 23.7703 8.77027C23.7702 8.77022 23.7701 8.77014 23.77 8.77003C23.77 8.76998 23.7698 8.76987 23.7698 8.76985C23.7697 8.76974 23.7696 8.76963 24.1116 8.40493C24.4537 8.04023 24.4535 8.0401 24.4534 8.03996C24.4533 8.03991 24.4532 8.03977 24.4531 8.03966C24.4528 8.03944 24.4526 8.0392 24.4523 8.03893C24.4517 8.03839 24.451 8.03774 24.4502 8.03698C24.4486 8.03547 24.4465 8.03353 24.4439 8.03117C24.4387 8.02645 24.4317 8.02006 24.4228 8.01206C24.4049 7.99607 24.3795 7.97366 24.3463 7.94541C24.2801 7.88891 24.1833 7.80905 24.0552 7.71042C23.799 7.51315 23.4179 7.24079 22.9074 6.93016C21.8861 6.30878 20.3473 5.53473 18.2552 4.90252L17.9659 5.85977ZM18.0736 4.66868L17.7362 5.04963L18.4848 5.71266L18.8222 5.33172L18.0736 4.66868ZM25.5179 7.09843C23.7192 5.76567 21.9616 5.11605 20.6498 4.79983C19.994 4.64173 19.4487 4.56674 19.0639 4.53132C18.8714 4.5136 18.7189 4.50577 18.6124 4.5024C18.5591 4.50072 18.5174 4.50015 18.488 4.50003C18.4732 4.49997 18.4616 4.50002 18.4531 4.50009C18.4488 4.50013 18.4453 4.50017 18.4427 4.50021C18.4413 4.50023 18.4402 4.50025 18.4393 4.50027C18.4388 4.50028 18.4384 4.50029 18.4381 4.5003C18.4379 4.5003 18.4376 4.5003 18.4375 4.50031C18.4373 4.50031 18.4371 4.50031 18.4479 5.0002C18.4587 5.50008 18.4586 5.50008 18.4584 5.50009C18.4584 5.50009 18.4582 5.50009 18.4581 5.50009C18.458 5.5001 18.4578 5.5001 18.4578 5.5001C18.4577 5.5001 18.4577 5.5001 18.458 5.5001C18.4585 5.50009 18.4599 5.50007 18.462 5.50005C18.4662 5.50001 18.4735 5.49998 18.4838 5.50002C18.5044 5.50011 18.537 5.50052 18.5808 5.5019C18.6684 5.50467 18.8009 5.51134 18.9722 5.52711C19.315 5.55866 19.8121 5.62652 20.4155 5.77199C21.6223 6.06291 23.2509 6.66328 24.9226 7.90192L25.5179 7.09843ZM29.1908 21.381C29.1908 17.4753 28.3074 13.948 27.4281 11.4024C26.988 10.1281 26.5476 9.09603 26.2162 8.38077C26.0505 8.02305 25.912 7.7443 25.8142 7.55385C25.7653 7.45862 25.7267 7.38544 25.6999 7.33548C25.6865 7.3105 25.676 7.29132 25.6688 7.27809C25.6652 7.27147 25.6623 7.26634 25.6603 7.26272C25.6593 7.26091 25.6585 7.25947 25.6579 7.25841C25.6576 7.25788 25.6574 7.25745 25.6572 7.25711C25.6571 7.25694 25.657 7.25676 25.657 7.25667C25.6569 7.25651 25.6568 7.25638 25.2203 7.50017C24.7837 7.74397 24.7837 7.74388 24.7836 7.74382C24.7837 7.74383 24.7836 7.74379 24.7836 7.7438C24.7837 7.74384 24.7837 7.74398 24.7839 7.74421C24.7841 7.74466 24.7846 7.74549 24.7852 7.74669C24.7866 7.7491 24.7887 7.753 24.7917 7.75838C24.7976 7.76913 24.8066 7.78578 24.8186 7.80819C24.8427 7.853 24.8785 7.92081 24.9246 8.01047C25.0166 8.18981 25.1492 8.45645 25.3088 8.8011C25.6282 9.49059 26.0554 10.4912 26.4829 11.7289C27.3389 14.207 28.1908 17.6201 28.1908 21.381H29.1908ZM21.3316 25.4998C24.1083 25.4129 26.0497 24.4668 27.3008 23.5279C27.9243 23.0601 28.3738 22.5961 28.6696 22.2455C28.8176 22.07 28.9275 21.9226 29.0018 21.8167C29.0389 21.7637 29.0672 21.7211 29.0869 21.6905C29.0968 21.6751 29.1045 21.6628 29.1101 21.6537C29.1129 21.6491 29.1152 21.6454 29.117 21.6424C29.1179 21.641 29.1187 21.6397 29.1193 21.6387C29.1196 21.6381 29.1199 21.6377 29.1201 21.6372C29.1203 21.637 29.1204 21.6368 29.1205 21.6367C29.1206 21.6364 29.1208 21.6361 28.6908 21.381C28.2608 21.1258 28.2609 21.1256 28.261 21.1254C28.2611 21.1254 28.2612 21.1252 28.2613 21.1251C28.2614 21.1248 28.2615 21.1247 28.2615 21.1246C28.2617 21.1244 28.2617 21.1244 28.2616 21.1245C28.2613 21.1249 28.2606 21.1261 28.2594 21.1281C28.2569 21.1321 28.2525 21.1391 28.2461 21.1491C28.2332 21.1692 28.2122 21.2009 28.183 21.2426C28.1244 21.3261 28.0326 21.4497 27.9053 21.6006C27.6506 21.9025 27.2551 22.312 26.7006 22.7281C25.5959 23.5571 23.8498 24.4205 21.3003 24.5002L21.3316 25.4998ZM8.84955 17.0362C8.84955 15.7609 9.75459 14.8151 10.7885 14.8151V13.8151C9.0965 13.8151 7.84955 15.3207 7.84955 17.0362H8.84955ZM10.7885 19.2572C9.77551 19.2572 8.84955 18.3081 8.84955 17.0362H7.84955C7.84955 18.755 9.1234 20.2572 10.7885 20.2572V19.2572ZM12.7274 17.0362C12.7274 18.3114 11.8223 19.2572 10.7885 19.2572V20.2572C12.4804 20.2572 13.7274 18.7516 13.7274 17.0362H12.7274ZM10.7885 14.8151C11.829 14.8151 12.7476 15.7669 12.7274 17.0282L13.7273 17.0442C13.755 15.3147 12.4738 13.8151 10.7885 13.8151V14.8151ZM19.5152 13.8151C17.8232 13.8151 16.5763 15.3207 16.5763 17.0362H17.5763C17.5763 15.7609 18.4813 14.8151 19.5152 14.8151V13.8151ZM22.4541 17.0362C22.4541 15.3207 21.2071 13.8151 19.5152 13.8151V14.8151C20.549 14.8151 21.4541 15.7609 21.4541 17.0362H22.4541ZM19.5152 20.2572C21.2071 20.2572 22.4541 18.7516 22.4541 17.0362H21.4541C21.4541 18.3114 20.549 19.2572 19.5152 19.2572V20.2572ZM16.5763 17.0362C16.5763 18.755 17.8501 20.2572 19.5152 20.2572V19.2572C18.5022 19.2572 17.5763 18.3081 17.5763 17.0362H16.5763Z" fill="url(#paint0_linear_516_26749)" mask="url(#path-1-inside-1_516_26749)"/>
<defs>
<linearGradient id="paint0_linear_516_26749" x1="14.6159" y1="5" x2="14.6159" y2="25" gradientUnits="userSpaceOnUse">
<stop stop-color="white" stop-opacity="0.46"/>
<stop offset="1" stop-color="white" stop-opacity="0"/>
</linearGradient>
</defs>
</svg>
