<svg width="30" height="30" viewBox="0 0 30 30" fill="none" xmlns="http://www.w3.org/2000/svg">
<path d="M15.2458 3.31274C8.7553 3.31274 3.49219 8.66461 3.49219 15.267C3.49219 20.5488 6.85995 25.0298 11.53 26.6105C12.1174 26.7212 12.3331 26.3512 12.3331 26.0355C12.3331 25.7504 12.3222 24.8087 12.3171 23.8098C9.04725 24.5329 8.35727 22.3993 8.35727 22.3993C7.82261 21.0176 7.05225 20.6501 7.05225 20.6501C5.98585 19.9082 7.13263 19.9234 7.13263 19.9234C8.3129 20.0076 8.93436 21.1553 8.93436 21.1553C9.98267 22.9829 11.684 22.4546 12.3547 22.1491C12.4602 21.3767 12.7648 20.8489 13.1009 20.5506C10.4903 20.2483 7.74593 19.2232 7.74593 14.6426C7.74593 13.3375 8.20507 12.2711 8.95694 11.4339C8.83491 11.1326 8.4326 9.91691 9.0708 8.27027C9.0708 8.27027 10.0578 7.94898 12.3039 9.49565C13.2414 9.23078 14.2469 9.09795 15.2458 9.09339C16.2446 9.09795 17.2509 9.23078 18.1902 9.49565C20.4336 7.94898 21.4192 8.27027 21.4192 8.27027C22.059 9.91691 21.6565 11.1326 21.5344 11.4339C22.288 12.2711 22.7441 13.3375 22.7441 14.6426C22.7441 19.2341 19.9945 20.2451 17.3772 20.5411C17.7988 20.912 18.1744 21.6396 18.1744 22.7549C18.1744 24.3542 18.1608 25.6415 18.1608 26.0355C18.1608 26.3536 18.3724 26.7263 18.9682 26.609C23.6357 25.0265 26.9992 20.547 26.9992 15.267C26.9992 8.66461 21.7368 3.31274 15.2458 3.31274Z" fill="#DBF0FF"/>
<path d="M15.2458 3.31274C8.7553 3.31274 3.49219 8.66461 3.49219 15.267C3.49219 20.5488 6.85995 25.0298 11.53 26.6105C12.1174 26.7212 12.3331 26.3512 12.3331 26.0355C12.3331 25.7504 12.3222 24.8087 12.3171 23.8098C9.04725 24.5329 8.35727 22.3993 8.35727 22.3993C7.82261 21.0176 7.05225 20.6501 7.05225 20.6501C5.98585 19.9082 7.13263 19.9234 7.13263 19.9234C8.3129 20.0076 8.93436 21.1553 8.93436 21.1553C9.98267 22.9829 11.684 22.4546 12.3547 22.1491C12.4602 21.3767 12.7648 20.8489 13.1009 20.5506C10.4903 20.2483 7.74593 19.2232 7.74593 14.6426C7.74593 13.3375 8.20507 12.2711 8.95694 11.4339C8.83491 11.1326 8.4326 9.91691 9.0708 8.27027C9.0708 8.27027 10.0578 7.94898 12.3039 9.49565C13.2414 9.23078 14.2469 9.09795 15.2458 9.09339C16.2446 9.09795 17.2509 9.23078 18.1902 9.49565C20.4336 7.94898 21.4192 8.27027 21.4192 8.27027C22.059 9.91691 21.6565 11.1326 21.5344 11.4339C22.288 12.2711 22.7441 13.3375 22.7441 14.6426C22.7441 19.2341 19.9945 20.2451 17.3772 20.5411C17.7988 20.912 18.1744 21.6396 18.1744 22.7549C18.1744 24.3542 18.1608 25.6415 18.1608 26.0355C18.1608 26.3536 18.3724 26.7263 18.9682 26.609C23.6357 25.0265 26.9992 20.547 26.9992 15.267C26.9992 8.66461 21.7368 3.31274 15.2458 3.31274" stroke="url(#paint0_linear_516_26753)" stroke-width="0.5"/>
<path d="M7.94393 20.4762C7.91804 20.5358 7.82617 20.5534 7.74248 20.5127C7.65723 20.4737 7.60935 20.3927 7.63699 20.3331C7.66229 20.2719 7.75435 20.2551 7.83941 20.2957C7.92485 20.3349 7.97351 20.4166 7.94393 20.4762Z" fill="#DBF0FF"/>
<path d="M8.4201 21.0165C8.36405 21.0694 8.25447 21.0448 8.18012 20.9613C8.10324 20.878 8.08883 20.7665 8.14567 20.7129C8.20347 20.66 8.30975 20.6848 8.38682 20.7681C8.4637 20.8524 8.47869 20.9631 8.4201 21.0165Z" fill="#DBF0FF"/>
<path d="M8.88352 21.7048C8.8115 21.7557 8.69375 21.708 8.62096 21.6017C8.54894 21.4954 8.54894 21.3679 8.62251 21.3168C8.6955 21.2657 8.8115 21.3117 8.88527 21.4172C8.95709 21.5251 8.95709 21.6527 8.88352 21.7048Z" fill="#DBF0FF"/>
<path d="M9.51825 22.3699C9.45383 22.4422 9.31661 22.4228 9.21618 22.3242C9.11341 22.2278 9.0848 22.091 9.14942 22.0187C9.21462 21.9463 9.35262 21.9666 9.45383 22.0644C9.55582 22.1607 9.58696 22.2984 9.51825 22.3699Z" fill="#DBF0FF"/>
<path d="M10.3942 22.7562C10.3658 22.8499 10.2337 22.8924 10.1005 22.8526C9.9676 22.8116 9.8806 22.702 9.90746 22.6074C9.9351 22.5131 10.0678 22.4688 10.2019 22.5113C10.3347 22.5521 10.4219 22.661 10.3942 22.7562Z" fill="#DBF0FF"/>
<path d="M11.3559 22.8278C11.3592 22.9264 11.2463 23.0081 11.1066 23.0097C10.9661 23.0131 10.8524 22.9333 10.8508 22.8363C10.8508 22.7367 10.9612 22.6558 11.1017 22.6534C11.2415 22.6506 11.3559 22.7298 11.3559 22.8278Z" fill="#DBF0FF"/>
<path d="M12.2511 22.6731C12.2679 22.7693 12.1707 22.8681 12.032 22.8942C11.8955 22.9197 11.7692 22.8603 11.7519 22.7649C11.735 22.6663 11.8338 22.5676 11.9701 22.542C12.109 22.5175 12.2334 22.5753 12.2511 22.6731Z" fill="#DBF0FF"/>
<defs>
<linearGradient id="paint0_linear_516_26753" x1="15.2457" y1="3.31274" x2="15.2457" y2="26.6311" gradientUnits="userSpaceOnUse">
<stop stop-color="white" stop-opacity="0.46"/>
<stop offset="1" stop-color="white" stop-opacity="0"/>
</linearGradient>
</defs>
</svg>
