<svg width="31" height="30" viewBox="0 0 31 30" fill="none" xmlns="http://www.w3.org/2000/svg">
<path fill-rule="evenodd" clip-rule="evenodd" d="M21.7609 14.4151C22.2173 14.0065 22.841 13.7544 23.5257 13.7544C24.9166 13.7544 26.0576 14.8014 26.0576 16.123C26.0576 17.0928 25.4339 17.9284 24.5624 18.2964C24.6037 18.5302 24.6254 18.7824 24.6254 19.0141C24.6254 22.684 20.0809 25.6341 14.4801 25.6341C8.87708 25.6341 4.33255 22.6637 4.33255 19.0141C4.33255 18.7641 4.35211 18.5302 4.39558 18.2964C3.86757 18.0747 3.4369 17.6902 3.17553 17.2071C2.91415 16.7241 2.8379 16.1717 2.95951 15.6424C3.08113 15.113 3.39324 14.6388 3.8437 14.2989C4.29417 13.9589 4.85569 13.7739 5.43445 13.7747C6.11689 13.7747 6.73848 14.0268 7.19489 14.4334C8.95967 13.2501 11.3895 12.4938 14.0845 12.4165L15.3711 6.74808C15.3788 6.69255 15.3995 6.63931 15.4319 6.5922C15.4642 6.54508 15.5073 6.50527 15.5581 6.47563C15.6068 6.44616 15.6612 6.42596 15.7183 6.41619C15.7753 6.40643 15.8339 6.40728 15.8906 6.4187L20.1026 7.2523C20.2499 6.968 20.4795 6.72809 20.7654 6.55987C21.0513 6.39165 21.3819 6.30189 21.7196 6.30078C22.0727 6.30115 22.4179 6.39844 22.7124 6.58059C23.007 6.76275 23.2379 7.02176 23.3765 7.32553C23.5152 7.62929 23.5555 7.96444 23.4925 8.28945C23.4295 8.61445 23.266 8.91501 23.0221 9.15387C22.7782 9.39272 22.4648 9.55938 22.1206 9.63317C21.7764 9.70697 21.4167 9.68466 21.086 9.569C20.7552 9.45335 20.4681 9.24944 20.26 8.98256C20.052 8.71567 19.9323 8.39754 19.9157 8.0676L16.1383 7.31126L14.9778 12.3962C17.6315 12.4938 20.02 13.2501 21.7609 14.4151ZM9.19897 16.6174C9.53714 16.3011 9.99564 16.1231 10.4739 16.1226C10.9418 16.1377 11.385 16.3223 11.7103 16.6373C12.0355 16.9523 12.2173 17.3731 12.2173 17.8111C12.2173 18.2491 12.0355 18.6699 11.7103 18.9849C11.385 19.2999 10.9418 19.4845 10.4739 19.4996C9.47848 19.5179 8.66998 18.7433 8.66998 17.8101C8.67056 17.3627 8.8608 16.9338 9.19897 16.6174ZM18.774 22.2952C17.5287 23.4602 15.164 23.5375 14.4794 23.5375V23.5355C13.7731 23.5355 11.4084 23.4399 10.1827 22.2952C10.1381 22.2549 10.1027 22.2065 10.0785 22.1531C10.0543 22.0996 10.0418 22.0422 10.0418 21.9842C10.0418 21.9261 10.0543 21.8687 10.0785 21.8152C10.1027 21.7618 10.1381 21.7135 10.1827 21.6731C10.2258 21.6314 10.2775 21.5983 10.3346 21.5756C10.3917 21.553 10.4531 21.5413 10.5152 21.5413C10.5772 21.5413 10.6386 21.553 10.6957 21.5756C10.7529 21.5983 10.8045 21.6314 10.8477 21.6731C11.6366 22.4111 13.2949 22.6632 14.4794 22.6632C15.6617 22.6632 17.3418 22.4111 18.109 21.6731C18.1521 21.6314 18.2038 21.5983 18.2609 21.5756C18.3181 21.553 18.3795 21.5413 18.4415 21.5413C18.5035 21.5413 18.5649 21.553 18.6221 21.5756C18.6792 21.5983 18.7309 21.6314 18.774 21.6731C18.8547 21.7591 18.8992 21.8697 18.8992 21.9842C18.8992 22.0986 18.8547 22.2092 18.774 22.2952ZM18.4415 19.5179C17.4461 19.5179 16.6354 18.7616 16.6354 17.8304H16.6376C16.6603 17.3972 16.8603 16.9887 17.1961 16.6896C17.5319 16.3905 17.9778 16.2237 18.4415 16.2237C18.9052 16.2237 19.3511 16.3905 19.6869 16.6896C20.0227 16.9887 20.2227 17.3972 20.2454 17.8304C20.2454 18.7433 19.4369 19.5179 18.4415 19.5179Z" fill="#CCDEEC"/>
</svg>
