<svg width="30" height="30" viewBox="0 0 30 30" fill="none" xmlns="http://www.w3.org/2000/svg">
<path d="M24.7239 6.42006L24.7244 6.42029L24.724 6.42019L20.8635 22.3311L20.8635 22.3311C20.7199 22.9233 20.0551 23.2288 19.5105 22.9476L19.5105 22.9475L14.6283 20.427L14.4216 20.3203L14.3003 20.5188L11.9917 24.2959L11.9916 24.2961C11.4944 25.1106 10.2372 24.7558 10.2372 23.8056V19.5971C10.2372 19.3421 10.3439 19.0961 10.5314 18.9143C10.5316 18.9142 10.5317 18.914 10.5319 18.9138L20.0453 9.83178L20.1299 9.75102L20.1221 9.63432C20.113 9.49823 20.0378 9.37118 19.9209 9.2996C19.7909 9.21999 19.6237 9.21835 19.4812 9.31627L19.4801 9.31708L8.24964 17.1335L4.56871 15.2346C4.56866 15.2345 4.56861 15.2345 4.56856 15.2345C4.56855 15.2345 4.56854 15.2345 4.56852 15.2345C3.86066 14.8684 3.8936 13.845 4.62164 13.5287L4.62191 13.5286L23.4317 5.3309L23.4319 5.33081C24.1433 5.01993 24.9094 5.66007 24.7239 6.42006Z" fill="#DBF0FF" stroke="url(#paint0_linear_516_26751)" stroke-width="0.5"/>
<defs>
<linearGradient id="paint0_linear_516_26751" x1="14.4043" y1="5" x2="14.4043" y2="25" gradientUnits="userSpaceOnUse">
<stop stop-color="white" stop-opacity="0.46"/>
<stop offset="1" stop-color="white" stop-opacity="0"/>
</linearGradient>
</defs>
</svg>
