<svg width="268" height="266" viewBox="0 0 268 266" fill="none" xmlns="http://www.w3.org/2000/svg">
<path fill-rule="evenodd" clip-rule="evenodd" d="M267.53 132.932L133.993 265.863L0.509766 132.877L133.993 0L267.53 132.932ZM218.378 172.62C224.022 166.288 235.804 150.893 235.804 132.932C235.804 114.916 223.913 99.4668 218.269 93.1887L189.391 64.4187L189.282 64.5279C177.72 75.7738 158.486 90.5683 136.623 91.7147C142.157 85.6004 154.322 70.0417 154.322 51.8079C154.322 33.5741 142.157 18.0154 136.623 11.9011L133.938 9.11689L131.253 11.9011C125.718 18.0154 113.554 33.5741 113.554 51.8079C113.554 70.0417 125.718 85.6004 131.253 91.7147C109.28 90.5683 89.9915 75.6646 78.4296 64.4187L48.8945 93.8438L48.8398 93.8984C42.9766 100.559 31.9627 115.517 31.9627 132.877C31.9627 150.292 43.0862 165.305 48.8945 171.911L78.3748 201.281L78.4844 201.172C90.0463 189.926 109.334 175.022 131.308 173.876C125.773 179.99 113.609 195.549 113.609 213.783C113.609 232.016 125.773 247.575 131.308 253.689L133.993 256.747L136.678 253.689C142.212 247.575 154.377 232.016 154.377 213.783C154.377 195.549 142.212 179.99 136.678 173.876C158.76 175.022 178.103 190.035 189.611 201.336L218.378 172.62ZM212.734 172.839C177.062 170.982 148.568 132.932 148.568 132.932C148.568 132.932 177.062 94.9357 212.734 93.0249C207.2 99.1938 195.09 114.753 195.09 132.932C195.09 151.111 207.2 166.67 212.734 172.839ZM55.0865 172.839C60.6209 166.67 72.7308 151.111 72.7308 132.932C72.7308 114.753 60.6209 99.1938 55.0865 93.0249C90.7587 94.8811 119.253 132.932 119.253 132.932C119.253 132.932 90.7587 170.982 55.0865 172.839Z" fill="url(#paint0_radial_805_22141)"/>
<defs>
<radialGradient id="paint0_radial_805_22141" cx="0" cy="0" r="1" gradientUnits="userSpaceOnUse" gradientTransform="translate(134.01 132.912) rotate(-44.9044) scale(113.035 113.034)">
<stop stop-color="#0A171F" stop-opacity="0.14"/>
<stop offset="0.571167" stop-color="#3BADFF" stop-opacity="0.09"/>
<stop offset="1" stop-color="#3BC4FF"/>
</radialGradient>
</defs>
</svg>
