<svg width="267" height="267" viewBox="0 0 267 267" fill="none" xmlns="http://www.w3.org/2000/svg">
<path fill-rule="evenodd" clip-rule="evenodd" d="M133.455 266.632L0.0273438 133.591L133.51 0.604248L266.884 133.591L133.455 266.632ZM93.6188 217.662C99.9751 223.285 115.428 235.023 133.455 235.023C151.538 235.023 167.045 223.176 173.347 217.553L202.224 188.783L202.115 188.674C190.827 177.155 175.977 157.993 174.826 136.211C180.964 141.725 196.58 153.844 214.882 153.844C233.184 153.844 248.801 141.725 254.938 136.211L257.733 133.536L254.938 130.861C248.801 125.347 233.184 113.228 214.882 113.228C196.58 113.228 180.964 125.347 174.826 130.861C175.977 108.97 190.936 89.7532 202.224 78.2342L172.689 48.8091L172.635 48.7545C165.949 42.9131 150.935 31.9401 133.51 31.9401C116.03 31.9401 100.961 43.0223 94.3312 48.8091L64.9057 78.125L65.0153 78.2342C76.3033 89.7532 91.2626 108.97 92.4133 130.861C86.2761 125.347 70.6593 113.228 52.3575 113.228C34.0556 113.228 18.4387 125.347 12.3016 130.861L9.23302 133.536L12.3016 136.211C18.4387 141.725 34.0556 153.844 52.3575 153.844C70.6593 153.844 86.2761 141.725 92.4133 136.211C91.2626 158.212 76.1937 177.483 64.8509 188.947L93.6188 217.662ZM93.3996 212.039C95.2626 176.5 133.455 148.112 133.455 148.112C133.455 148.112 171.593 176.5 173.511 212.039C167.319 206.526 151.703 194.461 133.455 194.461C115.208 194.461 99.5915 206.471 93.3996 212.039ZM93.3996 54.978C99.5915 60.4918 115.208 72.5566 133.455 72.5566C151.703 72.5566 167.319 60.4918 173.511 54.978C171.648 90.5174 133.455 118.905 133.455 118.905C133.455 118.905 95.2626 90.4628 93.3996 54.978Z" fill="url(#paint0_radial_516_26968)"/>
<defs>
<radialGradient id="paint0_radial_516_26968" cx="0" cy="0" r="1" gradientUnits="userSpaceOnUse" gradientTransform="translate(133.458 133.618) rotate(54.9487) scale(129.222 129.221)">
<stop offset="0.1276" stop-color="#3BDCFF"/>
<stop offset="0.420563" stop-color="#3BC4FF" stop-opacity="0.52"/>
<stop offset="0.7563" stop-color="#66D1FF" stop-opacity="0"/>
<stop offset="1" stop-color="#8CC1E8" stop-opacity="0.09"/>
</radialGradient>
</defs>
</svg>
