<svg width="506" height="17" viewBox="0 0 506 17" fill="none" xmlns="http://www.w3.org/2000/svg">
<line x1="1.58008" y1="8.89898" x2="488.972" y2="8.89902" stroke="#85D1FF" stroke-width="0.789938" stroke-dasharray="1.58 1.58"/>
<rect width="72.4793" height="15.1598" rx="1.57988" transform="matrix(-1 0 0 1 72.4795 0.924805)" fill="#85D1FF"/>
<path d="M5.33214 8.34197C5.33214 10.3058 6.33141 11.6178 8.01714 11.6178C9.70287 11.6178 10.7108 10.3058 10.7108 8.34197C10.7108 6.36949 9.64204 5.03134 8.01714 5.03134C6.39224 5.03134 5.33214 6.36949 5.33214 8.34197ZM6.427 8.34197C6.427 6.83872 7.01787 6.01323 8.01714 6.01323C9.0251 6.01323 9.61598 6.83872 9.61598 8.34197C9.61598 9.81047 9.0251 10.636 8.01714 10.636C7.01787 10.636 6.427 9.81047 6.427 8.34197ZM12.2286 11.6092C12.6109 11.6092 12.9325 11.2963 12.9325 10.9227C12.9325 10.5404 12.6109 10.2276 12.2286 10.2276C11.8463 10.2276 11.5248 10.5404 11.5248 10.9227C11.5248 11.2963 11.8463 11.6092 12.2286 11.6092ZM13.7545 8.34197C13.7545 10.3058 14.7538 11.6178 16.4395 11.6178C18.1253 11.6178 19.1332 10.3058 19.1332 8.34197C19.1332 6.36949 18.0645 5.03134 16.4395 5.03134C14.8146 5.03134 13.7545 6.36949 13.7545 8.34197ZM14.8494 8.34197C14.8494 6.83872 15.4403 6.01323 16.4395 6.01323C17.4475 6.01323 18.0384 6.83872 18.0384 8.34197C18.0384 9.81047 17.4475 10.636 16.4395 10.636C15.4403 10.636 14.8494 9.81047 14.8494 8.34197ZM20.0787 8.34197C20.0787 10.3058 21.078 11.6178 22.7637 11.6178C24.4494 11.6178 25.4574 10.3058 25.4574 8.34197C25.4574 6.36949 24.3886 5.03134 22.7637 5.03134C21.1388 5.03134 20.0787 6.36949 20.0787 8.34197ZM21.1735 8.34197C21.1735 6.83872 21.7644 6.01323 22.7637 6.01323C23.7716 6.01323 24.3625 6.83872 24.3625 8.34197C24.3625 9.81047 23.7716 10.636 22.7637 10.636C21.7644 10.636 21.1735 9.81047 21.1735 8.34197ZM26.4028 8.34197C26.4028 10.3058 27.4021 11.6178 29.0878 11.6178C30.7735 11.6178 31.7815 10.3058 31.7815 8.34197C31.7815 6.36949 30.7127 5.03134 29.0878 5.03134C27.4629 5.03134 26.4028 6.36949 26.4028 8.34197ZM27.4977 8.34197C27.4977 6.83872 28.0885 6.01323 29.0878 6.01323C30.0958 6.01323 30.6867 6.83872 30.6867 8.34197C30.6867 9.81047 30.0958 10.636 29.0878 10.636C28.0885 10.636 27.4977 9.81047 27.4977 8.34197ZM32.727 8.34197C32.727 10.3058 33.7262 11.6178 35.412 11.6178C37.0977 11.6178 38.1056 10.3058 38.1056 8.34197C38.1056 6.36949 37.0369 5.03134 35.412 5.03134C33.787 5.03134 32.727 6.36949 32.727 8.34197ZM33.8218 8.34197C33.8218 6.83872 34.4127 6.01323 35.412 6.01323C36.4199 6.01323 37.0108 6.83872 37.0108 8.34197C37.0108 9.81047 36.4199 10.636 35.412 10.636C34.4127 10.636 33.8218 9.81047 33.8218 8.34197ZM39.0511 8.34197C39.0511 10.3058 40.0504 11.6178 41.7361 11.6178C43.4218 11.6178 44.4298 10.3058 44.4298 8.34197C44.4298 6.36949 43.361 5.03134 41.7361 5.03134C40.1112 5.03134 39.0511 6.36949 39.0511 8.34197ZM40.1459 8.34197C40.1459 6.83872 40.7368 6.01323 41.7361 6.01323C42.744 6.01323 43.3349 6.83872 43.3349 8.34197C43.3349 9.81047 42.744 10.636 41.7361 10.636C40.7368 10.636 40.1459 9.81047 40.1459 8.34197ZM45.3752 8.34197C45.3752 10.3058 46.3745 11.6178 48.0602 11.6178C49.7459 11.6178 50.7539 10.3058 50.7539 8.34197C50.7539 6.36949 49.6851 5.03134 48.0602 5.03134C46.4353 5.03134 45.3752 6.36949 45.3752 8.34197ZM46.4701 8.34197C46.4701 6.83872 47.0609 6.01323 48.0602 6.01323C49.0682 6.01323 49.6591 6.83872 49.6591 8.34197C49.6591 9.81047 49.0682 10.636 48.0602 10.636C47.0609 10.636 46.4701 9.81047 46.4701 8.34197ZM56.1309 11.4962V10.4622H53.4894L54.6363 9.48027C55.6009 8.65479 56.0875 7.98571 56.0875 7.0994C56.0875 5.81338 55.2446 5.04003 53.8891 5.04003C52.5422 5.04003 51.6559 5.94372 51.6472 7.33401H52.7508C52.7595 6.51721 53.1939 6.03061 53.8891 6.03061C54.5581 6.03061 54.9492 6.43901 54.9492 7.16022C54.9492 7.76847 54.6624 8.18556 53.8022 8.91547L51.7254 10.6707V11.5049L56.1309 11.4962ZM61.8385 10.2971V9.32386H61.0652V5.15299H59.6662L56.79 9.32386V10.2971H60.0138V11.5049H61.0652V10.2971H61.8385ZM57.9718 9.32386L60.0138 6.35212V9.32386H57.9718ZM64.8741 11.6092C66.2905 11.6092 67.255 10.6707 67.255 9.2978C67.255 8.04653 66.4122 7.18629 65.1435 7.18629C64.709 7.18629 64.3267 7.29925 64.0226 7.49911L64.3615 6.17833H66.8727V5.15299H63.5621L62.78 8.481L63.7619 8.68954C63.9878 8.35935 64.431 8.11605 64.9176 8.11605C65.6822 8.11605 66.1254 8.62003 66.1254 9.35862C66.1254 10.132 65.6475 10.6186 64.9002 10.6186C64.1964 10.6186 63.7706 10.1928 63.7706 9.47158H62.6671C62.6671 10.7576 63.5447 11.6092 64.8741 11.6092Z" fill="#1C1A1F"/>
</svg>
