<svg width="730" height="284" viewBox="0 0 730 284" fill="none" xmlns="http://www.w3.org/2000/svg">
<g filter="url(#filter0_b_809_22147)">
<path opacity="0.6" fill-rule="evenodd" clip-rule="evenodd" d="M139.088 271.905H728.272C729.156 271.905 729.868 271.18 729.852 270.297L726.72 98.3601L719.161 119.853L711.729 147.476C711.646 147.786 711.47 148.063 711.225 148.271L704.857 153.67C704.364 154.087 703.668 154.163 703.097 153.862L697.124 150.707C696.716 150.491 696.423 150.109 696.321 149.66L688.953 117.226C688.933 117.137 688.905 117.051 688.87 116.967L682.472 101.655C681.991 100.505 680.431 100.338 679.718 101.361L675.368 107.601C674.673 108.599 673.158 108.47 672.641 107.369L668.012 97.4962C667.394 96.18 665.477 96.3257 665.066 97.7201L658.684 119.36L651.43 138.708C651.24 139.215 650.803 139.589 650.273 139.7L644.502 140.904C643.926 141.024 643.465 141.455 643.305 142.021L636.408 166.441C636.182 167.243 635.371 167.731 634.556 167.556L628.99 166.358C628.638 166.282 628.27 166.329 627.948 166.491L622.518 169.217C621.657 169.649 620.614 169.218 620.31 168.304L613.327 147.311L606.591 131.807C606.176 130.851 604.966 130.552 604.154 131.204L598.466 135.765C598.296 135.902 598.155 136.073 598.054 136.267L592.106 147.67C591.505 148.823 589.845 148.796 589.282 147.624L584.536 137.753C583.958 136.55 582.242 136.562 581.68 137.772L577.099 147.629C576.511 148.894 574.692 148.832 574.192 147.53L568.03 131.497C567.989 131.392 567.96 131.283 567.943 131.172L560.896 85.7682C560.696 84.4797 559.109 83.9745 558.201 84.9102L553.487 89.7673C553.093 90.1732 552.512 90.3375 551.964 90.1981L546.424 88.7893C545.751 88.618 545.044 88.9071 544.684 89.5015L537.878 100.73C537.781 100.89 537.713 101.067 537.677 101.252L530.872 136.885C530.61 138.257 528.828 138.639 528.027 137.495L522.783 130.006C522.67 129.845 522.588 129.663 522.541 129.472L516.442 104.296C516.061 102.724 513.846 102.672 513.391 104.223L508.846 119.722C508.417 121.186 506.368 121.252 505.846 119.818L499.986 103.731C499.951 103.634 499.925 103.534 499.909 103.432L492.602 56.3073C492.474 55.4793 491.721 54.8955 490.887 54.9771L485.716 55.4829C485.157 55.5375 484.669 55.8845 484.434 56.3944L479.323 67.4948C478.679 68.8922 476.621 68.6392 476.335 67.1275L470.962 38.7118C470.651 37.0665 468.33 36.972 467.886 38.5867L462.167 59.3995C462.145 59.4762 462.118 59.5513 462.086 59.6241L455.602 74.1698C455.127 75.2347 453.702 75.4362 452.951 74.5446L447.016 67.5008L439.673 56.1055C439.531 55.8842 439.335 55.7021 439.104 55.5756L432.48 51.9473C432.107 51.7428 431.832 51.3962 431.718 50.986L424.337 24.5146L417.077 3.25771C416.892 2.71614 416.429 2.31694 415.866 2.21415L410.389 1.21428C409.696 1.08763 409.002 1.43595 408.689 2.06795L401.658 16.2821L394.245 34.2655C394.149 34.4986 393.998 34.7054 393.806 34.8685L386.884 40.7366C386.658 40.9275 386.491 41.1778 386.401 41.4591L378.979 64.5923L371.985 91.1358C371.709 92.1864 370.479 92.6505 369.577 92.0448L365.375 89.2223C364.576 88.6857 363.487 88.982 363.07 89.8493L358.233 99.9107C357.588 101.252 355.615 101.039 355.272 99.5905L349.378 74.7233C349.096 73.5344 347.629 73.1016 346.747 73.9471L341.428 79.0457C341.266 79.2018 341.138 79.3909 341.054 79.6003L334.706 95.497C334.24 96.6635 332.665 96.8462 331.945 95.8173L328.432 90.8011C327.601 89.6135 325.742 90.0795 325.57 91.519L319.486 142.176C319.279 143.905 316.836 144.076 316.39 142.393L311.716 124.742C311.389 123.51 309.813 123.152 308.986 124.122L303.573 130.475C303.448 130.623 303.35 130.792 303.286 130.975L297.823 146.47C297.283 148.003 295.06 147.82 294.777 146.22L288.264 109.353L281.123 84.765C280.888 83.9577 280.063 83.4754 279.245 83.6676L273.44 85.0303C273.245 85.076 273.061 85.1583 272.897 85.2727L266.851 89.4914C266.147 89.9823 265.18 89.822 264.673 89.1303L258.026 80.0713L252.324 70.1061C251.63 68.8936 249.82 69.112 249.434 70.4546L244.457 87.7847C244.017 89.3185 241.839 89.3065 241.415 87.7679L235.382 65.8513C235.359 65.768 235.329 65.6867 235.293 65.6082L227.865 49.5281C227.814 49.4163 227.775 49.2988 227.751 49.1781L220.315 12.3265C220.258 12.0441 220.125 11.7826 219.93 11.5704L214.575 5.73913C213.741 4.82997 212.232 5.18642 211.893 6.37313L205.274 29.5062C205.168 29.879 204.928 30.1996 204.6 30.4069L198.15 34.4869C197.768 34.7285 197.508 35.1221 197.435 35.5682L189.99 81.3037L183.337 110.022C183.013 111.42 181.143 111.697 180.428 110.452L176.585 103.762C175.913 102.59 174.175 102.749 173.725 104.023L167.435 121.867C167.353 122.099 167.219 122.308 167.042 122.479L161.016 128.295C160.34 128.947 159.248 128.869 158.672 128.129L152.805 120.592C152.43 120.111 151.812 119.888 151.216 120.02L145.044 121.389C144.774 121.449 144.525 121.578 144.32 121.764L139.088 126.541V271.905Z" fill="url(#paint0_radial_809_22147)"/>
<path fill-rule="evenodd" clip-rule="evenodd" d="M138.281 127.277L137.484 128.005C137.218 128.248 137.043 128.575 136.988 128.931L130.785 169.096C130.519 170.82 128.066 170.904 127.682 169.202L122.631 146.77C122.348 145.514 120.762 145.106 119.908 146.069L114.62 152.034C114.471 152.202 114.359 152.4 114.293 152.615L106.834 176.74L99.3244 195.448C99.2913 195.53 99.2653 195.615 99.2465 195.702L92.921 224.905C92.582 226.471 90.3969 226.596 89.8812 225.079L84.1555 208.24L77.2235 189.617C76.8909 188.723 75.8482 188.325 75.005 188.771L69.605 191.623C69.2404 191.816 68.9655 192.143 68.8391 192.536L61.4768 215.388L54.887 243.363C54.5518 244.786 52.6302 245.03 51.9505 243.735L47.8972 236.017C47.2793 234.841 45.5733 234.906 45.0475 236.127L38.8852 250.432C38.8273 250.567 38.751 250.693 38.6585 250.806L31.4172 259.683C31.2989 259.828 31.2073 259.993 31.1467 260.17L25.8008 275.788C25.2635 277.358 22.9795 277.144 22.7424 275.502L17.0185 235.863C16.7837 234.237 14.5312 234.005 13.97 235.549L8.64404 250.206C8.58809 250.359 8.50853 250.504 8.40822 250.633L1.33081 259.771C1.11637 260.048 1 260.389 1 260.739V282.325C1 283.197 1.70733 283.904 2.57988 283.904H138.281V127.277Z" fill="url(#paint1_linear_809_22147)"/>
<path d="M1 260.199L8.48537 250.536C8.53553 250.471 8.57532 250.399 8.6033 250.322L15.0476 232.592C15.3282 231.82 16.4544 231.936 16.5718 232.749L23.215 278.746C23.3336 279.567 24.4755 279.674 24.7442 278.889L31.1984 260.037C31.2287 259.948 31.2745 259.866 31.3337 259.793L38.7356 250.721C38.7818 250.664 38.82 250.601 38.849 250.534L45.7114 234.606C45.9743 233.996 46.8272 233.963 47.1362 234.552L52.9442 245.609C53.284 246.256 54.2448 246.134 54.4124 245.422L61.4885 215.389L68.9509 192.23C69.0142 192.034 69.1516 191.87 69.3339 191.774L75.8152 188.351C76.2368 188.128 76.7581 188.327 76.9244 188.774L84.1717 208.241L90.8158 227.777C91.0737 228.535 92.1662 228.473 92.3357 227.69L99.2797 195.637C99.2891 195.594 99.3022 195.551 99.3187 195.51L106.855 176.741L114.366 152.453C114.399 152.345 114.455 152.246 114.529 152.162L120.954 144.915C121.381 144.434 122.174 144.638 122.316 145.266L128.623 173.268C128.814 174.119 130.041 174.077 130.174 173.215L137.057 128.656C137.084 128.478 137.172 128.315 137.305 128.193L144.504 121.622C144.606 121.529 144.731 121.464 144.866 121.434L151.734 119.912C152.031 119.846 152.341 119.957 152.528 120.198L159.243 128.822C159.531 129.192 160.077 129.231 160.414 128.905L167.209 122.349C167.297 122.264 167.365 122.159 167.405 122.043L174.332 102.399C174.557 101.762 175.425 101.682 175.762 102.268L181.465 112.195C181.822 112.817 182.757 112.679 182.919 111.98L190.027 81.3034L197.531 35.2172C197.567 34.9941 197.697 34.7973 197.888 34.6765L204.894 30.2456C205.058 30.142 205.178 29.9817 205.232 29.7953L212.322 5.01714C212.492 4.42384 213.246 4.24562 213.663 4.70012L220.122 11.7322C220.219 11.8384 220.286 11.9691 220.314 12.1103L227.814 49.2686C227.826 49.329 227.845 49.3877 227.871 49.4436L235.366 65.6668C235.384 65.7061 235.399 65.7467 235.41 65.7884L242.208 90.4762C242.42 91.2454 243.509 91.2514 243.729 90.4846L249.999 68.6566C250.192 67.9853 251.097 67.8761 251.444 68.4823L258.076 80.071L265.181 89.7521C265.435 90.0978 265.918 90.178 266.27 89.9326L273.074 85.1857C273.156 85.1285 273.248 85.0874 273.346 85.0646L280.029 83.4958C280.438 83.3998 280.851 83.6409 280.968 84.0445L288.32 109.353L295.358 149.181C295.5 149.981 296.611 150.073 296.881 149.307L303.394 130.836C303.426 130.745 303.475 130.66 303.538 130.587L310.025 122.973C310.438 122.488 311.227 122.667 311.39 123.283L317.508 146.381C317.731 147.222 318.953 147.137 319.056 146.272L325.879 89.467C325.966 88.7473 326.895 88.5143 327.311 89.108L332.848 97.0147C333.209 97.5291 333.996 97.4378 334.229 96.8546L341.184 79.4411C341.226 79.3364 341.29 79.2418 341.371 79.1638L347.812 72.991C348.253 72.5683 348.986 72.7847 349.127 73.3791L355.856 101.761C356.027 102.485 357.014 102.591 357.336 101.921L363.536 89.0267C363.744 88.5931 364.289 88.445 364.688 88.7132L370.571 92.6635C371.022 92.9664 371.636 92.7343 371.775 92.2091L379.053 64.592L386.545 41.2436C386.59 41.103 386.674 40.9778 386.787 40.8823L394.029 34.744C394.125 34.6625 394.2 34.5591 394.248 34.4425L401.736 16.2818L409.033 1.53373C409.19 1.21777 409.536 1.04363 409.883 1.10694L416.403 2.29707C416.684 2.34846 416.916 2.54804 417.008 2.81881L424.419 24.5142L431.891 51.3064C431.948 51.5115 432.086 51.6848 432.273 51.787L439.366 55.6716C439.481 55.7349 439.579 55.8259 439.65 55.9366L447.103 67.5004L453.852 75.5085C454.227 75.9543 454.94 75.8536 455.177 75.3212L462.2 59.5691C462.217 59.5327 462.23 59.4952 462.241 59.4568L468.882 35.2961C469.104 34.4888 470.264 34.5361 470.42 35.3587L476.888 69.5573C477.03 70.313 478.059 70.4396 478.381 69.7409L484.718 55.9824C484.836 55.7275 485.08 55.554 485.359 55.5267L491.726 54.904C492.143 54.8632 492.519 55.1551 492.584 55.5691L500.018 103.509C500.026 103.56 500.039 103.61 500.057 103.658L506.768 122.079C507.029 122.796 508.053 122.763 508.268 122.031L514.322 101.389C514.549 100.614 515.657 100.64 515.847 101.426L522.678 129.616C522.701 129.712 522.742 129.803 522.799 129.884L529.202 139.026C529.603 139.598 530.494 139.407 530.625 138.721L537.809 101.112C537.826 101.02 537.86 100.931 537.909 100.851L545.093 89.0008C545.273 88.7036 545.627 88.5591 545.963 88.6447L552.515 90.3105C552.789 90.3802 553.079 90.298 553.276 90.0951L559.414 83.7718C559.868 83.304 560.662 83.5566 560.762 84.2008L568.067 131.255C568.075 131.311 568.09 131.365 568.11 131.418L574.972 149.269C575.223 149.92 576.132 149.951 576.426 149.319L582.498 136.255C582.779 135.651 583.637 135.645 583.926 136.246L590.08 149.045C590.362 149.631 591.191 149.645 591.492 149.068L598.247 136.12C598.298 136.023 598.368 135.937 598.453 135.869L605.078 130.556C605.485 130.23 606.09 130.38 606.297 130.858L613.446 147.311L620.719 169.17C620.871 169.627 621.393 169.843 621.823 169.627L628.32 166.365C628.48 166.285 628.664 166.261 628.84 166.299L635.404 167.711C635.812 167.799 636.217 167.555 636.331 167.154L643.56 141.56C643.64 141.277 643.871 141.062 644.159 141.002L650.826 139.611C651.091 139.556 651.309 139.368 651.404 139.115L658.812 119.36L665.785 95.7225C665.99 95.0253 666.949 94.9525 667.257 95.6105L673.354 108.607C673.612 109.158 674.369 109.222 674.717 108.724L680.673 100.18C681.03 99.6691 681.81 99.7525 682.05 100.327L689.03 117.029C689.048 117.071 689.062 117.115 689.072 117.159L696.537 150.013C696.588 150.238 696.735 150.429 696.939 150.537L703.707 154.111C703.992 154.261 704.34 154.223 704.586 154.015L711.552 148.111C711.674 148.007 711.762 147.869 711.804 147.714L719.301 119.853L726.862 98.3598" stroke="url(#paint2_linear_809_22147)" stroke-width="1.57988"/>
</g>
<defs>
<filter id="filter0_b_809_22147" x="-19.6245" y="-19.6963" width="769.477" height="323.601" filterUnits="userSpaceOnUse" color-interpolation-filters="sRGB">
<feFlood flood-opacity="0" result="BackgroundImageFix"/>
<feGaussianBlur in="BackgroundImageFix" stdDeviation="10"/>
<feComposite in2="SourceAlpha" operator="in" result="effect1_backgroundBlur_809_22147"/>
<feBlend mode="normal" in="SourceGraphic" in2="effect1_backgroundBlur_809_22147" result="shape"/>
</filter>
<radialGradient id="paint0_radial_809_22147" cx="0" cy="0" r="1" gradientUnits="userSpaceOnUse" gradientTransform="translate(357.347 98.2479) rotate(91.2946) scale(177.045 374.41)">
<stop stop-color="#4FDFFF" stop-opacity="0.31"/>
<stop offset="1" stop-color="#376671" stop-opacity="0"/>
</radialGradient>
<linearGradient id="paint1_linear_809_22147" x1="299.517" y1="106.984" x2="308.517" y2="242.984" gradientUnits="userSpaceOnUse">
<stop stop-color="#FF4F84" stop-opacity="0.31"/>
<stop offset="1" stop-color="#FF4F84" stop-opacity="0"/>
</linearGradient>
<linearGradient id="paint2_linear_809_22147" x1="725.347" y1="211.262" x2="-1.98132" y2="211.262" gradientUnits="userSpaceOnUse">
<stop offset="0.00137495" stop-color="#85D1FF" stop-opacity="0"/>
<stop offset="0.0412469" stop-color="#85D1FF"/>
<stop offset="0.70418" stop-color="#85D1FF"/>
<stop offset="0.807988" stop-color="#F6297C"/>
<stop offset="0.933963" stop-color="#F6297C"/>
<stop offset="1" stop-color="#F6297C" stop-opacity="0"/>
</linearGradient>
</defs>
</svg>
