<svg width="31" height="31" viewBox="0 0 31 31" fill="none" xmlns="http://www.w3.org/2000/svg">
<path fill-rule="evenodd" clip-rule="evenodd" d="M1.06641 15.5005L15.5045 1.07605L29.9322 15.5042L15.5045 29.9239L1.06641 15.5005ZM24.0301 11.1711C23.4302 11.8409 22.1223 13.5277 22.1223 15.5005C22.1223 17.4733 23.4302 19.1601 24.0301 19.8299C20.1767 19.6261 17.0956 15.5005 17.0956 15.5005C17.0956 15.5005 20.1767 11.3749 24.0301 11.1711ZM6.98953 11.1711C10.8429 11.3749 13.9239 15.5005 13.9239 15.5005C13.9239 15.5005 10.8429 19.6261 6.98953 19.8299C7.58936 19.1601 8.89733 17.4733 8.89733 15.5005C8.89733 13.5277 7.58936 11.8409 6.98953 11.1711ZM6.37897 11.1966C5.76931 11.8824 4.49324 13.5519 4.49324 15.5005C4.49324 17.4567 5.77934 19.1317 6.38611 19.8124L9.50734 22.9341L9.52201 22.9198C10.7716 21.6987 12.8487 20.0938 15.2168 19.9715C14.6206 20.6358 13.3059 22.3248 13.3059 24.3013C13.3059 26.2778 14.6206 27.9667 15.2168 28.631L15.5045 28.9323L15.7921 28.631C16.3883 27.9667 17.703 26.2778 17.703 24.3013C17.703 22.3248 16.3883 20.6358 15.7921 19.9715C18.1695 20.0943 20.2536 21.7113 21.5016 22.9341L24.6964 19.7388L24.7038 19.7303C25.3355 19.0048 26.5264 17.3829 26.5264 15.5005C26.5264 13.6108 25.3262 11.9835 24.6964 11.2623L21.5165 8.08173L21.5018 8.09611C20.2535 9.31886 18.1694 10.9358 15.7921 11.0585C16.3883 10.3942 17.703 8.70531 17.703 6.72881C17.703 4.75232 16.3883 3.06335 15.7921 2.39908L15.5045 2.06871L15.2168 2.39908C14.6206 3.06335 13.3059 4.75232 13.3059 6.72881C13.3059 8.70531 14.6206 10.3942 15.2168 11.0585C12.8302 10.9353 10.7391 9.30617 9.49244 8.08173L6.37897 11.1966Z" fill="white"/>
</svg>
