<svg width="134" height="30" viewBox="0 0 134 30" fill="none" xmlns="http://www.w3.org/2000/svg">
<path fill-rule="evenodd" clip-rule="evenodd" d="M0.758789 14.9296L15.1968 0.505127L29.6246 14.9333L15.1968 29.353L0.758789 14.9296ZM23.7225 10.6002C23.1226 11.27 21.8147 12.9568 21.8147 14.9296C21.8147 16.9024 23.1226 18.5891 23.7225 19.259C19.869 19.0552 16.788 14.9296 16.788 14.9296C16.788 14.9296 19.869 10.804 23.7225 10.6002ZM6.68192 10.6002C10.5353 10.804 13.6163 14.9296 13.6163 14.9296C13.6163 14.9296 10.5353 19.0552 6.68192 19.259C7.28174 18.5891 8.58971 16.9024 8.58971 14.9296C8.58971 12.9568 7.28174 11.27 6.68192 10.6002ZM6.07135 10.6257C5.4617 11.3114 4.18563 12.981 4.18563 14.9296C4.18563 16.8858 5.47172 18.5608 6.07849 19.2415L9.19972 22.3632L9.21439 22.3489C10.4639 21.1278 12.5411 19.5229 14.9092 19.4006C14.313 20.0649 12.9983 21.7539 12.9983 23.7303C12.9983 25.7068 14.313 27.3958 14.9092 28.0601L15.1968 28.3613L15.4845 28.0601C16.0807 27.3958 17.3954 25.7068 17.3954 23.7303C17.3954 21.7539 16.0807 20.0649 15.4845 19.4006C17.8619 19.5233 19.946 21.1404 21.194 22.3632L24.3888 19.1678L24.3962 19.1593C25.0279 18.4339 26.2187 16.812 26.2187 14.9296C26.2187 13.0398 25.0186 11.4126 24.3888 10.6913L21.2089 7.51081L21.1942 7.52519C19.9459 8.74794 17.8618 10.3649 15.4845 10.4876C16.0807 9.82332 17.3954 8.13439 17.3954 6.15789C17.3954 4.18139 16.0807 2.49243 15.4845 1.82816L15.1968 1.49779L14.9092 1.82816C14.313 2.49243 12.9983 4.18139 12.9983 6.15789C12.9983 8.13439 14.313 9.82332 14.9092 10.4876C12.5226 10.3644 10.4315 8.73525 9.18483 7.51081L6.07135 10.6257Z" fill="white"/>
<path d="M33.8615 21.2643L34.8156 21.22L35.7698 21.2643L35.5257 15.7169L35.5479 14.6962H47.2418L47.264 15.7169L47.0199 21.2643L47.9741 21.22L48.9282 21.2643L48.6841 15.7169L48.9282 6.86325L47.9741 6.90763L47.0199 6.86325L47.1752 12.7657H35.6144L35.7698 6.86325L34.8156 6.90763L33.8615 6.86325L34.1055 15.7169L33.8615 21.2643Z" fill="white"/>
<path d="M57.4248 21.2643L58.3789 21.22L59.3331 21.2643L59.1556 15.7169V15.6725L61.5742 12.211L65.9456 6.84106H63.2163L60.3982 11.1015L58.3789 13.7864L56.3597 11.1459L53.475 6.84106H50.9898L55.1836 12.1444L57.5579 15.6725V15.7169L57.4248 21.2643Z" fill="white"/>
<path d="M67.9255 6.86325L68.1696 15.7169L67.9255 21.2643L69.8116 21.22L74.5824 21.2643C78.4434 21.3087 82.9479 19.822 82.9479 13.8752C82.9479 9.21536 79.6638 6.81887 75.1371 6.86325L69.8116 6.90763L67.9255 6.86325ZM69.5897 15.7169L69.7894 8.74937H75.1371C78.3102 8.74937 81.5721 9.90324 81.5721 13.8308C81.5721 19.1785 76.4241 19.356 74.8487 19.356H69.745L69.5897 15.7169Z" fill="white"/>
<path d="M97.3136 21.3309L99.5104 21.2643L95.9378 15.6725L95.605 15.0734C97.9349 14.785 99.7766 13.6755 99.7766 10.9683C99.7766 7.63989 97.1139 6.84106 94.1627 6.86325L87.9052 6.90763L86.0413 6.86325L86.2853 15.7169L86.0413 21.2643L86.9954 21.22L87.9496 21.2643L87.7277 15.1622H93.9186L94.6952 16.4048L97.3136 21.3309ZM93.6745 8.72718C96.8254 8.72718 98.4453 9.01565 98.4453 10.9905C98.4453 12.9432 96.8254 13.3648 93.6745 13.3648H87.7721L87.9052 8.72718H93.6745Z" fill="white"/>
<path d="M115.232 21.2643H117.052L113.568 14.3411L110.04 6.8632L108.953 6.90758L107.821 6.8632L104.537 13.8751L100.876 21.2643H103.006L104.626 17.5586H113.568L115.232 21.2643ZM108.953 8.46086L112.325 14.8293L112.725 15.6947H105.447L105.935 14.5852L108.953 8.46086Z" fill="white"/>
<path d="M124.189 13.0536V6.71722H123.556V6.08359H122.922V5.44995H117.853V14.3209H122.922V13.6872H123.556V13.0536H124.189ZM122.288 7.35086H122.922V12.42H122.288V13.0536H119.12V6.71722H122.288V7.35086Z" fill="white"/>
<path d="M127.36 8.61813H127.994V9.25177H128.627V10.519H127.994V11.1527H127.36V12.42H126.726V14.3209H127.994V13.0536H128.627V11.7863H129.261V11.1527H130.528V11.7863H131.162V13.0536H131.795V14.3209H133.063V12.42H132.429V11.1527H131.795V10.519H131.162V9.25177H131.795V8.61813H132.429V7.35086H133.063V5.44995H131.795V6.71722H131.162V7.9845H130.528V8.61813H129.261V7.9845H128.627V6.71722H127.994V5.44995H126.726V7.35086H127.36V8.61813Z" fill="white"/>
</svg>
