<svg width="201" height="44" viewBox="0 0 201 44" fill="none" xmlns="http://www.w3.org/2000/svg">
<path fill-rule="evenodd" clip-rule="evenodd" d="M34.7589 21.9293L49.1969 7.50488L63.6247 21.9331L49.1969 36.3528L34.7589 21.9293ZM57.7225 17.6C57.1227 18.2698 55.8147 19.9565 55.8147 21.9293C55.8147 23.9021 57.1227 25.5889 57.7225 26.2587C53.8691 26.0549 50.7881 21.9293 50.7881 21.9293C50.7881 21.9293 53.8691 17.8037 57.7225 17.6ZM40.682 17.6C44.5354 17.8037 47.6164 21.9293 47.6164 21.9293C47.6164 21.9293 44.5354 26.0549 40.682 26.2587C41.2818 25.5889 42.5898 23.9021 42.5898 21.9293C42.5898 19.9565 41.2818 18.2698 40.682 17.6ZM40.0714 17.6255C39.4618 18.3112 38.1857 19.9807 38.1857 21.9293C38.1857 23.8855 39.4718 25.5605 40.0786 26.2412L43.1998 29.363L43.2145 29.3486C44.464 28.1275 46.5412 26.5226 48.9092 26.4004C48.3131 27.0646 46.9983 28.7536 46.9983 30.7301C46.9983 32.7066 48.3131 34.3956 48.9092 35.0598L49.1969 35.3611L49.4846 35.0598C50.0807 34.3956 51.3955 32.7066 51.3955 30.7301C51.3955 28.7536 50.0807 27.0646 49.4846 26.4004C51.8619 26.5231 53.9461 28.1401 55.194 29.363L58.3889 26.1676L58.3963 26.1591C59.028 25.4337 60.2188 23.8117 60.2188 21.9293C60.2188 20.0396 59.0186 18.4123 58.3889 17.6911L55.2089 14.5106L55.1942 14.5249C53.946 15.7477 51.8618 17.3646 49.4846 17.4873C50.0807 16.8231 51.3955 15.1341 51.3955 13.1576C51.3955 11.1812 50.0807 9.49219 49.4846 8.82791L49.1969 8.49754L48.9092 8.82791C48.3131 9.49219 46.9983 11.1812 46.9983 13.1576C46.9983 15.1341 48.3131 16.8231 48.9092 17.4873C46.5226 17.3642 44.4315 15.735 43.1849 14.5106L40.0714 17.6255Z" fill="white"/>
<path d="M67.8616 28.2641L68.8157 28.2197L69.7699 28.2641L69.5258 22.7167L69.548 21.696H81.2419L81.2641 22.7167L81.02 28.2641L81.9742 28.2197L82.9283 28.2641L82.6843 22.7167L82.9283 13.863L81.9742 13.9074L81.02 13.863L81.1754 19.7655H69.6146L69.7699 13.863L68.8157 13.9074L67.8616 13.863L68.1057 22.7167L67.8616 28.2641Z" fill="white"/>
<path d="M91.4249 28.2641L92.379 28.2197L93.3332 28.2641L93.1557 22.7167V22.6723L95.5744 19.2107L99.9457 13.8408H97.2164L94.3983 18.1012L92.379 20.7862L90.3598 18.1456L87.4751 13.8408H84.9899L89.1837 19.1441L91.558 22.6723V22.7167L91.4249 28.2641Z" fill="white"/>
<path d="M101.926 13.863L102.17 22.7167L101.926 28.2641L103.812 28.2197L108.583 28.2641C112.444 28.3085 116.948 26.8218 116.948 20.8749C116.948 16.2151 113.664 13.8186 109.137 13.863L103.812 13.9074L101.926 13.863ZM103.59 22.7167L103.79 15.7491H109.137C112.31 15.7491 115.572 16.903 115.572 20.8306C115.572 26.1783 110.424 26.3558 108.849 26.3558H103.745L103.59 22.7167Z" fill="white"/>
<path d="M131.314 28.3307L133.51 28.2641L129.938 22.6723L129.605 22.0732C131.935 21.7847 133.777 20.6752 133.777 17.9681C133.777 14.6396 131.114 13.8408 128.163 13.863L121.905 13.9074L120.041 13.863L120.285 22.7167L120.041 28.2641L120.996 28.2197L121.95 28.2641L121.728 22.1619H127.919L128.695 23.4046L131.314 28.3307ZM127.675 15.7269C130.826 15.7269 132.445 16.0154 132.445 17.9903C132.445 19.943 130.826 20.3646 127.675 20.3646H121.772L121.905 15.7269H127.675Z" fill="white"/>
<path d="M149.232 28.2642H151.052L147.568 21.341L144.04 13.8631L142.953 13.9075L141.821 13.8631L138.537 20.875L134.876 28.2642H137.006L138.626 24.5585H147.568L149.232 28.2642ZM142.953 15.4607L146.326 21.8292L146.725 22.6946H139.447L139.935 21.5851L142.953 15.4607Z" fill="white"/>
<path d="M158.189 20.0533V13.717H157.556V13.0833H156.922V12.4497H151.853V21.3206H156.922V20.687H157.556V20.0533H158.189ZM156.288 14.3506H156.922V19.4197H156.288V20.0533H153.12V13.717H156.288V14.3506Z" fill="white"/>
<path d="M161.36 15.6179H161.994V16.2515H162.627V17.5188H161.994V18.1524H161.36V19.4197H160.726V21.3206H161.994V20.0533H162.627V18.7861H163.261V18.1524H164.528V18.7861H165.162V20.0533H165.795V21.3206H167.063V19.4197H166.429V18.1524H165.795V17.5188H165.162V16.2515H165.795V15.6179H166.429V14.3506H167.063V12.4497H165.795V13.717H165.162V14.9843H164.528V15.6179H163.261V14.9843H162.627V13.717H161.994V12.4497H160.726V14.3506H161.36V15.6179Z" fill="white"/>
</svg>
