<svg width="250" height="132" viewBox="0 0 250 132" fill="none" xmlns="http://www.w3.org/2000/svg">
<rect width="8.25" height="8.25" transform="matrix(1 0 0 -1 51 24.563)" fill="#9EA7BA" fill-opacity="0.06"/>
<rect width="8.25" height="8.25" transform="matrix(1 0 0 -1 59.25 24.563)" fill="#9EA7BA" fill-opacity="0.06"/>
<rect width="8.25" height="8.25" transform="matrix(1 0 0 -1 67.5 24.563)" fill="#9EA7BA" fill-opacity="0.06"/>
<rect width="8.25" height="8.25" transform="matrix(1 0 0 -1 75.75 24.563)" fill="#9EA7BA" fill-opacity="0.06"/>
<rect width="8.25" height="8.25" transform="matrix(1 0 0 -1 34.5 32.813)" fill="#9EA7BA" fill-opacity="0.06"/>
<rect width="8.25" height="8.25" transform="matrix(1 0 0 -1 42.75 32.813)" fill="#9EA7BA" fill-opacity="0.06"/>
<rect width="8.25" height="8.25" transform="matrix(1 0 0 -1 51 32.813)" fill="#9EA7BA" fill-opacity="0.06"/>
<rect width="8.25" height="8.25" transform="matrix(1 0 0 -1 59.25 32.813)" fill="#9EA7BA" fill-opacity="0.06"/>
<rect width="8.25" height="8.25" transform="matrix(1 0 0 -1 67.5 32.813)" fill="#9EA7BA" fill-opacity="0.06"/>
<rect width="8.25" height="8.25" transform="matrix(1 0 0 -1 75.75 32.813)" fill="#9EA7BA" fill-opacity="0.06"/>
<rect width="8.25" height="8.25" transform="matrix(1 0 0 -1 84 32.813)" fill="#9EA7BA" fill-opacity="0.06"/>
<rect width="8.25" height="8.25" transform="matrix(1 0 0 -1 92.25 32.813)" fill="#9EA7BA" fill-opacity="0.06"/>
<rect width="8.25" height="8.25" transform="matrix(1 0 0 -1 26.25 41.063)" fill="#9EA7BA" fill-opacity="0.06"/>
<rect width="8.25" height="8.25" transform="matrix(1 0 0 -1 34.5 41.063)" fill="#9EA7BA" fill-opacity="0.06"/>
<rect width="8.25" height="8.25" transform="matrix(1 0 0 -1 42.75 41.063)" fill="#9EA7BA" fill-opacity="0.06"/>
<rect width="8.25" height="8.25" transform="matrix(1 0 0 -1 51 41.063)" fill="#9EA7BA" fill-opacity="0.06"/>
<rect width="8.25" height="8.25" transform="matrix(1 0 0 -1 59.25 41.063)" fill="#9EA7BA" fill-opacity="0.06"/>
<rect width="8.25" height="8.25" transform="matrix(1 0 0 -1 67.5 41.063)" fill="#9EA7BA" fill-opacity="0.06"/>
<rect width="8.25" height="8.25" transform="matrix(1 0 0 -1 75.75 41.063)" fill="#9EA7BA" fill-opacity="0.06"/>
<rect width="8.25" height="8.25" transform="matrix(1 0 0 -1 84 41.063)" fill="#9EA7BA" fill-opacity="0.06"/>
<rect width="8.25" height="8.25" transform="matrix(1 0 0 -1 92.25 41.063)" fill="#9EA7BA" fill-opacity="0.06"/>
<rect width="8.25" height="8.25" transform="matrix(1 0 0 -1 100.5 41.063)" fill="#9EA7BA" fill-opacity="0.06"/>
<rect width="8.25" height="8.25" transform="matrix(1 0 0 -1 22.125 49.313)" fill="#9EA7BA" fill-opacity="0.06"/>
<rect width="8.25" height="8.25" transform="matrix(1 0 0 -1 30.375 49.313)" fill="#9EA7BA" fill-opacity="0.06"/>
<rect width="8.25" height="8.25" transform="matrix(1 0 0 -1 38.625 49.313)" fill="#9EA7BA" fill-opacity="0.06"/>
<rect width="8.25" height="8.25" transform="matrix(1 0 0 -1 46.875 49.313)" fill="#9EA7BA" fill-opacity="0.06"/>
<rect width="8.25" height="8.25" transform="matrix(1 0 0 -1 55.125 49.313)" fill="#9EA7BA" fill-opacity="0.06"/>
<rect width="8.25" height="8.25" transform="matrix(1 0 0 -1 63.375 49.313)" fill="#9EA7BA" fill-opacity="0.06"/>
<rect width="8.25" height="8.25" transform="matrix(1 0 0 -1 71.625 49.313)" fill="#9EA7BA" fill-opacity="0.06"/>
<rect width="8.25" height="8.25" transform="matrix(1 0 0 -1 79.875 49.313)" fill="#9EA7BA" fill-opacity="0.06"/>
<rect width="8.25" height="8.25" transform="matrix(1 0 0 -1 88.125 49.313)" fill="#9EA7BA" fill-opacity="0.06"/>
<rect width="8.25" height="8.25" transform="matrix(1 0 0 -1 96.375 49.313)" fill="#9EA7BA" fill-opacity="0.06"/>
<rect width="8.25" height="8.25" transform="matrix(1 0 0 -1 104.625 49.313)" fill="#9EA7BA" fill-opacity="0.06"/>
<rect width="8.25" height="8.25" transform="matrix(1 0 0 -1 18 57.563)" fill="#9EA7BA" fill-opacity="0.06"/>
<rect width="8.25" height="8.25" transform="matrix(1 0 0 -1 26.25 57.563)" fill="#9EA7BA" fill-opacity="0.06"/>
<rect width="8.25" height="8.25" transform="matrix(1 0 0 -1 34.5 57.563)" fill="#9EA7BA" fill-opacity="0.06"/>
<rect width="8.25" height="8.25" transform="matrix(1 0 0 -1 42.75 57.563)" fill="#9EA7BA" fill-opacity="0.06"/>
<rect width="8.25" height="8.25" transform="matrix(1 0 0 -1 51 57.563)" fill="#9EA7BA" fill-opacity="0.06"/>
<rect width="8.25" height="8.25" transform="matrix(1 0 0 -1 59.25 57.563)" fill="#9EA7BA" fill-opacity="0.06"/>
<rect width="8.25" height="8.25" transform="matrix(1 0 0 -1 67.5 57.563)" fill="#9EA7BA" fill-opacity="0.06"/>
<rect width="8.25" height="8.25" transform="matrix(1 0 0 -1 75.75 57.563)" fill="#9EA7BA" fill-opacity="0.06"/>
<rect width="8.25" height="8.25" transform="matrix(1 0 0 -1 84 57.563)" fill="#9EA7BA" fill-opacity="0.06"/>
<rect width="8.25" height="8.25" transform="matrix(1 0 0 -1 92.25 57.563)" fill="#9EA7BA" fill-opacity="0.06"/>
<rect width="8.25" height="8.25" transform="matrix(1 0 0 -1 100.5 57.563)" fill="#9EA7BA" fill-opacity="0.06"/>
<rect width="8.25" height="8.25" transform="matrix(1 0 0 -1 108.75 57.563)" fill="#9EA7BA" fill-opacity="0.06"/>
<rect x="18" y="57.563" width="8.25" height="8.25" fill="#9EA7BA" fill-opacity="0.06"/>
<rect x="26.25" y="57.563" width="8.25" height="8.25" fill="#9EA7BA" fill-opacity="0.06"/>
<rect x="34.5" y="57.563" width="8.25" height="8.25" fill="#9EA7BA" fill-opacity="0.06"/>
<rect x="42.75" y="57.563" width="8.25" height="8.25" fill="#9EA7BA" fill-opacity="0.06"/>
<rect x="51" y="57.563" width="8.25" height="8.25" fill="#9EA7BA" fill-opacity="0.06"/>
<rect x="59.25" y="57.563" width="8.25" height="8.25" fill="#9EA7BA" fill-opacity="0.06"/>
<rect x="67.5" y="57.563" width="8.25" height="8.25" fill="#9EA7BA" fill-opacity="0.06"/>
<rect x="75.75" y="57.563" width="8.25" height="8.25" fill="#9EA7BA" fill-opacity="0.06"/>
<rect x="84" y="57.563" width="8.25" height="8.25" fill="#9EA7BA" fill-opacity="0.06"/>
<rect x="92.25" y="57.563" width="8.25" height="8.25" fill="#9EA7BA" fill-opacity="0.06"/>
<rect x="100.5" y="57.563" width="8.25" height="8.25" fill="#9EA7BA" fill-opacity="0.06"/>
<rect x="108.75" y="57.563" width="8.25" height="8.25" fill="#9EA7BA" fill-opacity="0.06"/>
<rect x="18" y="65.813" width="8.25" height="8.25" fill="#9EA7BA" fill-opacity="0.06"/>
<rect x="26.25" y="65.813" width="8.25" height="8.25" fill="#9EA7BA" fill-opacity="0.06"/>
<rect x="34.5" y="65.813" width="8.25" height="8.25" fill="#9EA7BA" fill-opacity="0.06"/>
<rect x="42.75" y="65.813" width="8.25" height="8.25" fill="#9EA7BA" fill-opacity="0.06"/>
<rect x="51" y="65.813" width="8.25" height="8.25" fill="#9EA7BA" fill-opacity="0.06"/>
<rect x="59.25" y="65.813" width="8.25" height="8.25" fill="#9EA7BA" fill-opacity="0.06"/>
<rect x="67.5" y="65.813" width="8.25" height="8.25" fill="#9EA7BA" fill-opacity="0.06"/>
<rect x="75.75" y="65.813" width="8.25" height="8.25" fill="#9EA7BA" fill-opacity="0.06"/>
<rect x="84" y="65.813" width="8.25" height="8.25" fill="#9EA7BA" fill-opacity="0.06"/>
<rect x="92.25" y="65.813" width="8.25" height="8.25" fill="#9EA7BA" fill-opacity="0.06"/>
<rect x="100.5" y="65.813" width="8.25" height="8.25" fill="#9EA7BA" fill-opacity="0.06"/>
<rect x="108.75" y="65.813" width="8.25" height="8.25" fill="#9EA7BA" fill-opacity="0.06"/>
<rect x="18" y="74.063" width="8.25" height="8.25" fill="#9EA7BA" fill-opacity="0.06"/>
<rect x="26.25" y="74.063" width="8.25" height="8.25" fill="#9EA7BA" fill-opacity="0.06"/>
<rect x="34.5" y="74.063" width="8.25" height="8.25" fill="#9EA7BA" fill-opacity="0.06"/>
<rect x="42.75" y="74.063" width="8.25" height="8.25" fill="#9EA7BA" fill-opacity="0.06"/>
<rect x="51" y="74.063" width="8.25" height="8.25" fill="#9EA7BA" fill-opacity="0.06"/>
<rect x="59.25" y="74.063" width="8.25" height="8.25" fill="#9EA7BA" fill-opacity="0.06"/>
<rect x="67.5" y="74.063" width="8.25" height="8.25" fill="#9EA7BA" fill-opacity="0.06"/>
<rect x="75.75" y="74.063" width="8.25" height="8.25" fill="#9EA7BA" fill-opacity="0.06"/>
<rect x="84" y="74.063" width="8.25" height="8.25" fill="#9EA7BA" fill-opacity="0.06"/>
<rect x="92.25" y="74.063" width="8.25" height="8.25" fill="#9EA7BA" fill-opacity="0.06"/>
<rect x="100.5" y="74.063" width="8.25" height="8.25" fill="#9EA7BA" fill-opacity="0.06"/>
<rect x="108.75" y="74.063" width="8.25" height="8.25" fill="#9EA7BA" fill-opacity="0.06"/>
<rect x="22.125" y="82.313" width="8.25" height="8.25" fill="#9EA7BA" fill-opacity="0.06"/>
<rect x="30.375" y="82.313" width="8.25" height="8.25" fill="#9EA7BA" fill-opacity="0.06"/>
<rect x="38.625" y="82.313" width="8.25" height="8.25" fill="#9EA7BA" fill-opacity="0.06"/>
<rect x="46.875" y="82.313" width="8.25" height="8.25" fill="#9EA7BA" fill-opacity="0.06"/>
<rect x="55.125" y="82.313" width="8.25" height="8.25" fill="#9EA7BA" fill-opacity="0.06"/>
<rect x="63.375" y="82.313" width="8.25" height="8.25" fill="#9EA7BA" fill-opacity="0.06"/>
<rect x="71.625" y="82.313" width="8.25" height="8.25" fill="#9EA7BA" fill-opacity="0.06"/>
<rect x="79.875" y="82.313" width="8.25" height="8.25" fill="#9EA7BA" fill-opacity="0.06"/>
<rect x="88.125" y="82.313" width="8.25" height="8.25" fill="#9EA7BA" fill-opacity="0.06"/>
<rect x="96.375" y="82.313" width="8.25" height="8.25" fill="#9EA7BA" fill-opacity="0.06"/>
<rect x="104.625" y="82.313" width="8.25" height="8.25" fill="#9EA7BA" fill-opacity="0.06"/>
<rect x="26.25" y="90.563" width="8.25" height="8.25" fill="#9EA7BA" fill-opacity="0.06"/>
<rect x="34.5" y="90.563" width="8.25" height="8.25" fill="#9EA7BA" fill-opacity="0.06"/>
<rect x="42.75" y="90.563" width="8.25" height="8.25" fill="#9EA7BA" fill-opacity="0.06"/>
<rect x="51" y="90.563" width="8.25" height="8.25" fill="#9EA7BA" fill-opacity="0.06"/>
<rect x="59.25" y="90.563" width="8.25" height="8.25" fill="#9EA7BA" fill-opacity="0.06"/>
<rect x="67.5" y="90.563" width="8.25" height="8.25" fill="#9EA7BA" fill-opacity="0.06"/>
<rect x="75.75" y="90.563" width="8.25" height="8.25" fill="#9EA7BA" fill-opacity="0.06"/>
<rect x="84" y="90.563" width="8.25" height="8.25" fill="#9EA7BA" fill-opacity="0.06"/>
<rect x="92.25" y="90.563" width="8.25" height="8.25" fill="#9EA7BA" fill-opacity="0.06"/>
<rect x="100.5" y="90.563" width="8.25" height="8.25" fill="#9EA7BA" fill-opacity="0.06"/>
<rect x="34.5" y="98.813" width="8.25" height="8.25" fill="#9EA7BA" fill-opacity="0.06"/>
<rect x="42.75" y="98.813" width="8.25" height="8.25" fill="#9EA7BA" fill-opacity="0.06"/>
<rect x="51" y="98.813" width="8.25" height="8.25" fill="#9EA7BA" fill-opacity="0.06"/>
<rect x="59.25" y="98.813" width="8.25" height="8.25" fill="#9EA7BA" fill-opacity="0.06"/>
<rect x="67.5" y="98.813" width="8.25" height="8.25" fill="#9EA7BA" fill-opacity="0.06"/>
<rect x="75.75" y="98.813" width="8.25" height="8.25" fill="#9EA7BA" fill-opacity="0.06"/>
<rect x="84" y="98.813" width="8.25" height="8.25" fill="#9EA7BA" fill-opacity="0.06"/>
<rect x="92.25" y="98.813" width="8.25" height="8.25" fill="#9EA7BA" fill-opacity="0.06"/>
<rect x="51" y="107.063" width="8.25" height="8.25" fill="#9EA7BA" fill-opacity="0.06"/>
<rect x="59.25" y="107.063" width="8.25" height="8.25" fill="#9EA7BA" fill-opacity="0.06"/>
<rect x="67.5" y="107.063" width="8.25" height="8.25" fill="#9EA7BA" fill-opacity="0.06"/>
<rect x="75.75" y="107.063" width="8.25" height="8.25" fill="#9EA7BA" fill-opacity="0.06"/>
<rect width="8.25" height="8.25" transform="matrix(1 0 0 -1 117 57.5625)" fill="#9EA7BA" fill-opacity="0.06"/>
<rect width="8.72705" height="8.25" transform="matrix(1 0 0 -1 125.25 57.5625)" fill="#9EA7BA" fill-opacity="0.06"/>
<rect width="8.25" height="8.25" transform="matrix(1 0 0 -1 117 65.8125)" fill="#9EA7BA" fill-opacity="0.06"/>
<rect width="8.72705" height="8.25" transform="matrix(1 0 0 -1 125.25 65.8125)" fill="#9EA7BA" fill-opacity="0.06"/>
<rect width="8.25" height="8.25" transform="matrix(1 0 0 -1 117 74.0625)" fill="#9EA7BA" fill-opacity="0.06"/>
<rect width="8.72705" height="8.25" transform="matrix(1 0 0 -1 125.25 74.0625)" fill="#9EA7BA" fill-opacity="0.06"/>
<rect width="8.25" height="8.25" transform="matrix(1 0 0 -1 117 82.3125)" fill="#9EA7BA" fill-opacity="0.06"/>
<rect width="8.72705" height="8.25" transform="matrix(1 0 0 -1 125.25 82.3125)" fill="#9EA7BA" fill-opacity="0.06"/>
<rect width="8.25" height="8.25" transform="matrix(1 0 0 -1 167 24.563)" fill="#9EA7BA" fill-opacity="0.06"/>
<rect width="8.25" height="8.25" transform="matrix(1 0 0 -1 175.25 24.563)" fill="#9EA7BA" fill-opacity="0.06"/>
<rect width="8.25" height="8.25" transform="matrix(1 0 0 -1 183.5 24.563)" fill="#9EA7BA" fill-opacity="0.06"/>
<rect width="8.25" height="8.25" transform="matrix(1 0 0 -1 191.75 24.563)" fill="#9EA7BA" fill-opacity="0.06"/>
<rect width="8.25" height="8.25" transform="matrix(1 0 0 -1 150.5 32.813)" fill="#9EA7BA" fill-opacity="0.06"/>
<rect width="8.25" height="8.25" transform="matrix(1 0 0 -1 158.75 32.813)" fill="#9EA7BA" fill-opacity="0.06"/>
<rect width="8.25" height="8.25" transform="matrix(1 0 0 -1 167 32.813)" fill="#9EA7BA" fill-opacity="0.06"/>
<rect width="8.25" height="8.25" transform="matrix(1 0 0 -1 175.25 32.813)" fill="#9EA7BA" fill-opacity="0.06"/>
<rect width="8.25" height="8.25" transform="matrix(1 0 0 -1 183.5 32.813)" fill="#9EA7BA" fill-opacity="0.06"/>
<rect width="8.25" height="8.25" transform="matrix(1 0 0 -1 191.75 32.813)" fill="#9EA7BA" fill-opacity="0.06"/>
<rect width="8.25" height="8.25" transform="matrix(1 0 0 -1 200 32.813)" fill="#9EA7BA" fill-opacity="0.06"/>
<rect width="8.25" height="8.25" transform="matrix(1 0 0 -1 208.25 32.813)" fill="#9EA7BA" fill-opacity="0.06"/>
<rect width="8.25" height="8.25" transform="matrix(1 0 0 -1 142.25 41.063)" fill="#9EA7BA" fill-opacity="0.06"/>
<rect width="8.25" height="8.25" transform="matrix(1 0 0 -1 150.5 41.063)" fill="#9EA7BA" fill-opacity="0.06"/>
<rect width="8.25" height="8.25" transform="matrix(1 0 0 -1 158.75 41.063)" fill="#9EA7BA" fill-opacity="0.06"/>
<rect width="8.25" height="8.25" transform="matrix(1 0 0 -1 167 41.063)" fill="#9EA7BA" fill-opacity="0.06"/>
<rect width="8.25" height="8.25" transform="matrix(1 0 0 -1 175.25 41.063)" fill="#9EA7BA" fill-opacity="0.06"/>
<rect width="8.25" height="8.25" transform="matrix(1 0 0 -1 183.5 41.063)" fill="#9EA7BA" fill-opacity="0.06"/>
<rect width="8.25" height="8.25" transform="matrix(1 0 0 -1 191.75 41.063)" fill="#9EA7BA" fill-opacity="0.06"/>
<rect width="8.25" height="8.25" transform="matrix(1 0 0 -1 200 41.063)" fill="#9EA7BA" fill-opacity="0.06"/>
<rect width="8.25" height="8.25" transform="matrix(1 0 0 -1 208.25 41.063)" fill="#9EA7BA" fill-opacity="0.06"/>
<rect width="8.25" height="8.25" transform="matrix(1 0 0 -1 216.5 41.063)" fill="#9EA7BA" fill-opacity="0.06"/>
<rect width="8.25" height="8.25" transform="matrix(1 0 0 -1 138.125 49.313)" fill="#9EA7BA" fill-opacity="0.06"/>
<rect width="8.25" height="8.25" transform="matrix(1 0 0 -1 146.375 49.313)" fill="#9EA7BA" fill-opacity="0.06"/>
<rect width="8.25" height="8.25" transform="matrix(1 0 0 -1 154.625 49.313)" fill="#9EA7BA" fill-opacity="0.06"/>
<rect width="8.25" height="8.25" transform="matrix(1 0 0 -1 162.875 49.313)" fill="#9EA7BA" fill-opacity="0.06"/>
<rect width="8.25" height="8.25" transform="matrix(1 0 0 -1 171.125 49.313)" fill="#9EA7BA" fill-opacity="0.06"/>
<rect width="8.25" height="8.25" transform="matrix(1 0 0 -1 179.375 49.313)" fill="#9EA7BA" fill-opacity="0.06"/>
<rect width="8.25" height="8.25" transform="matrix(1 0 0 -1 187.625 49.313)" fill="#9EA7BA" fill-opacity="0.06"/>
<rect width="8.25" height="8.25" transform="matrix(1 0 0 -1 195.875 49.313)" fill="#9EA7BA" fill-opacity="0.06"/>
<rect width="8.25" height="8.25" transform="matrix(1 0 0 -1 204.125 49.313)" fill="#9EA7BA" fill-opacity="0.06"/>
<rect width="8.25" height="8.25" transform="matrix(1 0 0 -1 212.375 49.313)" fill="#9EA7BA" fill-opacity="0.06"/>
<rect width="8.25" height="8.25" transform="matrix(1 0 0 -1 220.625 49.313)" fill="#9EA7BA" fill-opacity="0.06"/>
<rect width="8.25" height="8.25" transform="matrix(1 0 0 -1 134 57.563)" fill="#9EA7BA" fill-opacity="0.06"/>
<rect width="8.25" height="8.25" transform="matrix(1 0 0 -1 142.25 57.563)" fill="#9EA7BA" fill-opacity="0.06"/>
<rect width="8.25" height="8.25" transform="matrix(1 0 0 -1 150.5 57.563)" fill="#9EA7BA" fill-opacity="0.06"/>
<rect width="8.25" height="8.25" transform="matrix(1 0 0 -1 158.75 57.563)" fill="#9EA7BA" fill-opacity="0.06"/>
<rect width="8.25" height="8.25" transform="matrix(1 0 0 -1 167 57.563)" fill="#9EA7BA" fill-opacity="0.06"/>
<rect width="8.25" height="8.25" transform="matrix(1 0 0 -1 175.25 57.563)" fill="#9EA7BA" fill-opacity="0.06"/>
<rect width="8.25" height="8.25" transform="matrix(1 0 0 -1 183.5 57.563)" fill="#9EA7BA" fill-opacity="0.06"/>
<rect width="8.25" height="8.25" transform="matrix(1 0 0 -1 191.75 57.563)" fill="#9EA7BA" fill-opacity="0.06"/>
<rect width="8.25" height="8.25" transform="matrix(1 0 0 -1 200 57.563)" fill="#9EA7BA" fill-opacity="0.06"/>
<rect width="8.25" height="8.25" transform="matrix(1 0 0 -1 208.25 57.563)" fill="#9EA7BA" fill-opacity="0.06"/>
<rect width="8.25" height="8.25" transform="matrix(1 0 0 -1 216.5 57.563)" fill="#9EA7BA" fill-opacity="0.06"/>
<rect width="8.25" height="8.25" transform="matrix(1 0 0 -1 224.75 57.563)" fill="#9EA7BA" fill-opacity="0.06"/>
<rect x="134" y="57.563" width="8.25" height="8.25" fill="#9EA7BA" fill-opacity="0.06"/>
<rect x="142.25" y="57.563" width="8.25" height="8.25" fill="#9EA7BA" fill-opacity="0.06"/>
<rect x="150.5" y="57.563" width="8.25" height="8.25" fill="#9EA7BA" fill-opacity="0.06"/>
<rect x="158.75" y="57.563" width="8.25" height="8.25" fill="#9EA7BA" fill-opacity="0.06"/>
<rect x="167" y="57.563" width="8.25" height="8.25" fill="#9EA7BA" fill-opacity="0.06"/>
<rect x="175.25" y="57.563" width="8.25" height="8.25" fill="#9EA7BA" fill-opacity="0.06"/>
<rect x="183.5" y="57.563" width="8.25" height="8.25" fill="#9EA7BA" fill-opacity="0.06"/>
<rect x="191.75" y="57.563" width="8.25" height="8.25" fill="#9EA7BA" fill-opacity="0.06"/>
<rect x="200" y="57.563" width="8.25" height="8.25" fill="#9EA7BA" fill-opacity="0.06"/>
<rect x="208.25" y="57.563" width="8.25" height="8.25" fill="#9EA7BA" fill-opacity="0.06"/>
<rect x="216.5" y="57.563" width="8.25" height="8.25" fill="#9EA7BA" fill-opacity="0.06"/>
<rect x="224.75" y="57.563" width="8.25" height="8.25" fill="#9EA7BA" fill-opacity="0.06"/>
<rect x="134" y="65.813" width="8.25" height="8.25" fill="#9EA7BA" fill-opacity="0.06"/>
<rect x="142.25" y="65.813" width="8.25" height="8.25" fill="#9EA7BA" fill-opacity="0.06"/>
<rect x="150.5" y="65.813" width="8.25" height="8.25" fill="#9EA7BA" fill-opacity="0.06"/>
<rect x="158.75" y="65.813" width="8.25" height="8.25" fill="#9EA7BA" fill-opacity="0.06"/>
<rect x="167" y="65.813" width="8.25" height="8.25" fill="#9EA7BA" fill-opacity="0.06"/>
<rect x="175.25" y="65.813" width="8.25" height="8.25" fill="#9EA7BA" fill-opacity="0.06"/>
<rect x="183.5" y="65.813" width="8.25" height="8.25" fill="#9EA7BA" fill-opacity="0.06"/>
<rect x="191.75" y="65.813" width="8.25" height="8.25" fill="#9EA7BA" fill-opacity="0.06"/>
<rect x="200" y="65.813" width="8.25" height="8.25" fill="#9EA7BA" fill-opacity="0.06"/>
<rect x="208.25" y="65.813" width="8.25" height="8.25" fill="#9EA7BA" fill-opacity="0.06"/>
<rect x="216.5" y="65.813" width="8.25" height="8.25" fill="#9EA7BA" fill-opacity="0.06"/>
<rect x="224.75" y="65.813" width="8.25" height="8.25" fill="#9EA7BA" fill-opacity="0.06"/>
<rect x="134" y="74.063" width="8.25" height="8.25" fill="#9EA7BA" fill-opacity="0.06"/>
<rect x="142.25" y="74.063" width="8.25" height="8.25" fill="#9EA7BA" fill-opacity="0.06"/>
<rect x="150.5" y="74.063" width="8.25" height="8.25" fill="#9EA7BA" fill-opacity="0.06"/>
<rect x="158.75" y="74.063" width="8.25" height="8.25" fill="#9EA7BA" fill-opacity="0.06"/>
<rect x="167" y="74.063" width="8.25" height="8.25" fill="#9EA7BA" fill-opacity="0.06"/>
<rect x="175.25" y="74.063" width="8.25" height="8.25" fill="#9EA7BA" fill-opacity="0.06"/>
<rect x="183.5" y="74.063" width="8.25" height="8.25" fill="#9EA7BA" fill-opacity="0.06"/>
<rect x="191.75" y="74.063" width="8.25" height="8.25" fill="#9EA7BA" fill-opacity="0.06"/>
<rect x="200" y="74.063" width="8.25" height="8.25" fill="#9EA7BA" fill-opacity="0.06"/>
<rect x="208.25" y="74.063" width="8.25" height="8.25" fill="#9EA7BA" fill-opacity="0.06"/>
<rect x="216.5" y="74.063" width="8.25" height="8.25" fill="#9EA7BA" fill-opacity="0.06"/>
<rect x="224.75" y="74.063" width="8.25" height="8.25" fill="#9EA7BA" fill-opacity="0.06"/>
<rect x="138.125" y="82.313" width="8.25" height="8.25" fill="#9EA7BA" fill-opacity="0.06"/>
<rect x="146.375" y="82.313" width="8.25" height="8.25" fill="#9EA7BA" fill-opacity="0.06"/>
<rect x="154.625" y="82.313" width="8.25" height="8.25" fill="#9EA7BA" fill-opacity="0.06"/>
<rect x="162.875" y="82.313" width="8.25" height="8.25" fill="#9EA7BA" fill-opacity="0.06"/>
<rect x="171.125" y="82.313" width="8.25" height="8.25" fill="#9EA7BA" fill-opacity="0.06"/>
<rect x="179.375" y="82.313" width="8.25" height="8.25" fill="#9EA7BA" fill-opacity="0.06"/>
<rect x="187.625" y="82.313" width="8.25" height="8.25" fill="#9EA7BA" fill-opacity="0.06"/>
<rect x="195.875" y="82.313" width="8.25" height="8.25" fill="#9EA7BA" fill-opacity="0.06"/>
<rect x="204.125" y="82.313" width="8.25" height="8.25" fill="#9EA7BA" fill-opacity="0.06"/>
<rect x="212.375" y="82.313" width="8.25" height="8.25" fill="#9EA7BA" fill-opacity="0.06"/>
<rect x="220.625" y="82.313" width="8.25" height="8.25" fill="#9EA7BA" fill-opacity="0.06"/>
<rect x="142.25" y="90.563" width="8.25" height="8.25" fill="#9EA7BA" fill-opacity="0.06"/>
<rect x="150.5" y="90.563" width="8.25" height="8.25" fill="#9EA7BA" fill-opacity="0.06"/>
<rect x="158.75" y="90.563" width="8.25" height="8.25" fill="#9EA7BA" fill-opacity="0.06"/>
<rect x="167" y="90.563" width="8.25" height="8.25" fill="#9EA7BA" fill-opacity="0.06"/>
<rect x="175.25" y="90.563" width="8.25" height="8.25" fill="#9EA7BA" fill-opacity="0.06"/>
<rect x="183.5" y="90.563" width="8.25" height="8.25" fill="#9EA7BA" fill-opacity="0.06"/>
<rect x="191.75" y="90.563" width="8.25" height="8.25" fill="#9EA7BA" fill-opacity="0.06"/>
<rect x="200" y="90.563" width="8.25" height="8.25" fill="#9EA7BA" fill-opacity="0.06"/>
<rect x="208.25" y="90.563" width="8.25" height="8.25" fill="#9EA7BA" fill-opacity="0.06"/>
<rect x="216.5" y="90.563" width="8.25" height="8.25" fill="#9EA7BA" fill-opacity="0.06"/>
<rect x="150.5" y="98.813" width="8.25" height="8.25" fill="#9EA7BA" fill-opacity="0.06"/>
<rect x="158.75" y="98.813" width="8.25" height="8.25" fill="#9EA7BA" fill-opacity="0.06"/>
<rect x="167" y="98.813" width="8.25" height="8.25" fill="#9EA7BA" fill-opacity="0.06"/>
<rect x="175.25" y="98.813" width="8.25" height="8.25" fill="#9EA7BA" fill-opacity="0.06"/>
<rect x="183.5" y="98.813" width="8.25" height="8.25" fill="#9EA7BA" fill-opacity="0.06"/>
<rect x="191.75" y="98.813" width="8.25" height="8.25" fill="#9EA7BA" fill-opacity="0.06"/>
<rect x="200" y="98.813" width="8.25" height="8.25" fill="#9EA7BA" fill-opacity="0.06"/>
<rect x="208.25" y="98.813" width="8.25" height="8.25" fill="#9EA7BA" fill-opacity="0.06"/>
<rect x="167" y="107.063" width="8.25" height="8.25" fill="#9EA7BA" fill-opacity="0.06"/>
<rect x="175.25" y="107.063" width="8.25" height="8.25" fill="#9EA7BA" fill-opacity="0.06"/>
<rect x="183.5" y="107.063" width="8.25" height="8.25" fill="#9EA7BA" fill-opacity="0.06"/>
<rect x="191.75" y="107.063" width="8.25" height="8.25" fill="#9EA7BA" fill-opacity="0.06"/>
<rect x="133.678" y="73.7524" width="2.79926" height="2.79934" transform="rotate(-90 133.678 73.7524)" fill="#A6DDFF"/>
<rect x="136.475" y="70.9507" width="2.79926" height="2.79934" transform="rotate(-90 136.475 70.9507)" fill="#A6DDFF"/>
<rect x="139.273" y="68.1548" width="2.79926" height="2.79934" transform="rotate(-90 139.273 68.1548)" fill="#A6DDFF"/>
<rect x="133.676" y="59.7524" width="2.79934" height="2.79926" fill="#A6DDFF"/>
<rect x="136.473" y="62.5542" width="2.79934" height="2.79926" fill="#A6DDFF"/>
<rect x="139.27" y="65.3501" width="2.79934" height="2.79926" fill="#A6DDFF"/>
<rect x="133.762" y="65.3501" width="2.79934" height="2.79926" fill="#A6DDFF"/>
<rect x="129.965" y="65.3501" width="2.79934" height="2.79926" fill="#A6DDFF"/>
<rect x="126.176" y="65.3501" width="2.79934" height="2.79926" fill="#A6DDFF"/>
<rect x="122.377" y="65.3501" width="2.79934" height="2.79926" fill="#A6DDFF"/>
<rect x="118.377" y="65.3501" width="2.79934" height="2.79926" fill="#A6DDFF"/>
<rect x="114.377" y="65.3501" width="2.79934" height="2.79926" fill="#A6DDFF"/>
<rect x="110.377" y="65.3501" width="2.79934" height="2.79926" fill="#A6DDFF"/>
<rect x="136.561" y="65.3501" width="2.79934" height="2.79926" fill="#A6DDFF"/>
<path d="M202.095 69.9103C202.576 69.4292 203.194 68.8108 203.811 68.1966C205.183 66.8265 205.183 64.6016 203.811 63.2294L202.357 61.7755C197.153 66.9789 189.369 68.0226 183.128 64.913C187.346 65.6926 191.718 65.0848 195.592 63.0017C198.184 61.608 198.676 58.0947 196.595 56.0137L188.016 47.4344C186.098 45.5167 182.991 45.5167 181.075 47.4344L171.828 56.6816C177.918 54.0938 185.233 55.2943 190.185 60.2808C182.63 56.6129 173.269 57.9143 166.996 64.1872C166.515 64.6682 165.894 65.2888 165.28 65.903C163.91 67.2753 163.91 69.498 165.28 70.8681L166.732 72.3198C171.935 67.1164 179.72 66.0727 185.961 69.1823C181.743 68.4027 177.371 69.0105 173.496 71.0936C170.904 72.4873 170.413 76.0006 172.494 78.0816L181.073 86.6609C182.991 88.5786 186.098 88.5786 188.014 86.6609L197.261 77.4137C191.17 80.0015 183.856 78.801 178.904 73.8145C186.459 77.4824 195.82 76.181 202.093 69.9081L202.095 69.9103Z" fill="white"/>
<path fill-rule="evenodd" clip-rule="evenodd" d="M44.7725 66.0002L65.793 44.9994L86.7986 66.0056L65.793 86.9994L44.7725 66.0002ZM78.2056 59.697C77.3323 60.6722 75.428 63.128 75.428 66.0002C75.428 68.8724 77.3323 71.3282 78.2056 72.3034C72.5953 72.0067 68.1096 66.0002 68.1096 66.0002C68.1096 66.0002 72.5953 59.9937 78.2056 59.697ZM53.396 59.697C59.0062 59.9937 63.4919 66.0002 63.4919 66.0002C63.4919 66.0002 59.0062 72.0067 53.396 72.3034C54.2693 71.3282 56.1736 68.8724 56.1736 66.0002C56.1736 63.128 54.2693 60.6722 53.396 59.697ZM52.5071 59.7341C51.6195 60.7325 49.7616 63.1632 49.7616 66.0002C49.7616 68.8483 51.6341 71.2869 52.5175 72.2779L57.0617 76.8229L57.0831 76.802C58.9023 75.0242 61.9265 72.6876 65.3742 72.5096C64.5062 73.4768 62.5921 75.9357 62.5921 78.8133C62.5921 81.691 64.5062 84.1499 65.3742 85.1171L65.793 85.5557L66.2118 85.1171C67.0798 84.1499 68.9939 81.691 68.9939 78.8133C68.9939 75.9357 67.0798 73.4768 66.2118 72.5096C69.673 72.6883 72.7074 75.0426 74.5243 76.8229L79.1758 72.1707L79.1865 72.1583C80.1062 71.1022 81.8399 68.7408 81.8399 66.0002C81.8399 63.2489 80.0926 60.8797 79.1758 59.8297L74.546 55.1991L74.5246 55.22C72.7072 57.0003 69.6729 59.3544 66.2118 59.533C67.0798 58.5659 68.9939 56.107 68.9939 53.2294C68.9939 50.3518 67.0798 47.8928 66.2118 46.9257L65.793 46.4447L65.3742 46.9257C64.5062 47.8928 62.5921 50.3518 62.5921 53.2294C62.5921 56.107 64.5062 58.5659 65.3742 59.533C61.8995 59.3537 58.855 56.9818 57.04 55.1991L52.5071 59.7341Z" fill="#999BA7"/>
<path d="M221.96 39.5292C213.225 40.0563 212.561 40.6434 212.049 49.4717C212.049 49.5094 211.957 49.5094 211.954 49.4717C211.442 40.6434 210.775 40.058 202.043 39.5292C201.986 39.5258 201.986 39.4725 202.043 39.4691C210.775 38.942 211.439 38.3548 211.951 29.5283C211.951 29.4906 212.043 29.4906 212.046 29.5283C212.558 38.3566 213.225 38.942 221.957 39.4708C222.014 39.4742 222.014 39.5275 221.957 39.5309L221.96 39.5292Z" fill="#E53E76"/>
<path d="M168.96 98.5292C160.225 99.0563 159.561 99.6434 159.049 108.472C159.049 108.509 158.957 108.509 158.954 108.472C158.442 99.6434 157.775 99.058 149.043 98.5292C148.986 98.5258 148.986 98.4725 149.043 98.4691C157.775 97.942 158.439 97.3548 158.951 88.5283C158.951 88.4906 159.043 88.4906 159.046 88.5283C159.558 97.3566 160.225 97.942 168.957 98.4708C169.014 98.4742 169.014 98.5275 168.957 98.5309L168.96 98.5292Z" fill="#E53E76"/>
</svg>
