<svg width="596" height="54" viewBox="0 0 596 54" fill="none" xmlns="http://www.w3.org/2000/svg">
<path d="M1.0752 10.6067H8.06828V27.1663H30.3343V10.6067H37.3273V50.1036H30.3343V33.2083H8.06828V50.1036H1.0752V10.6067Z" fill="white"/>
<path d="M56.918 32.9845L40.9178 10.6067H49.1417L60.3866 26.6069L71.6315 10.6067H79.7994L63.8551 32.9845V50.1036H56.918V32.9845Z" fill="white"/>
<path d="M83.3532 10.6067H101.2C106.085 10.6067 110.188 11.4832 113.507 13.2361C116.827 14.989 119.232 17.5625 120.724 20.9564C121.918 23.6418 122.514 26.7747 122.514 30.3551C122.514 34.0848 121.918 37.2177 120.724 39.7538C119.232 43.1478 116.808 45.7213 113.451 47.4742C110.132 49.2271 106.048 50.1036 101.2 50.1036H83.3532V10.6067ZM100.472 44.1175C107.297 44.1175 111.754 41.8425 113.843 37.2923C114.664 35.4275 115.074 33.1151 115.074 30.3551C115.074 27.5952 114.664 25.2828 113.843 23.418C111.754 18.8678 107.297 16.5928 100.472 16.5928H90.3463V44.1175H100.472Z" fill="white"/>
<path d="M140.735 34.1034H135.364V50.1036H128.371V10.6067H147.504C150.824 10.6067 153.583 11.1288 155.784 12.1731C158.022 13.2174 159.588 14.7839 160.483 16.8725C161.155 18.3271 161.49 20.0427 161.49 22.0194C161.49 24.2199 161.136 26.0847 160.427 27.6139C159.532 29.6279 158.134 31.1757 156.232 32.2573C154.367 33.3389 152.054 33.9356 149.294 34.0475L164.288 50.1036H155.336L140.735 34.1034ZM135.364 28.3971H145.77C148.008 28.3971 149.779 28.1547 151.085 27.6698C152.427 27.185 153.341 26.3831 153.826 25.2642C154.199 24.481 154.385 23.4553 154.385 22.1872C154.385 21.1056 154.218 20.2105 153.882 19.5019C153.36 18.3457 152.427 17.5252 151.085 17.0403C149.742 16.5555 147.97 16.313 145.77 16.313H135.364V28.3971Z" fill="white"/>
<path d="M197.657 40.649H176.622L172.706 50.1036H165.209L182.104 10.6067H192.118L208.958 50.1036H201.573L197.657 40.649ZM195.195 34.7748L187.139 15.306H187.027L179.027 34.7748H195.195Z" fill="white"/>
<path fill-rule="evenodd" clip-rule="evenodd" d="M222.625 0.121094H211.524V24.6064H222.625C225.58 24.6064 228.097 24.0725 230.159 22.9837C232.249 21.8923 233.766 20.2836 234.698 18.1659C235.444 16.5783 235.808 14.639 235.808 12.3637C235.808 10.1725 235.442 8.23656 234.7 6.56549C233.768 4.447 232.262 2.83684 230.194 1.74428C228.131 0.654951 225.602 0.121094 222.625 0.121094ZM230.159 22.9837C230.159 22.9835 230.16 22.9833 230.16 22.9832L229.976 22.6352L230.159 22.9837ZM235.414 12.3637C235.414 10.2155 235.056 8.33572 234.34 6.72451V18.003C235.056 16.4813 235.414 14.6015 235.414 12.3637ZM230.211 16.526C228.958 19.2561 226.284 20.6212 222.189 20.6212H216.113V4.1063H222.189C226.284 4.1063 228.958 5.47135 230.211 8.20145C230.703 9.32034 230.95 10.7078 230.95 12.3637C230.95 14.0197 230.703 15.4071 230.211 16.526ZM237.219 0.514654L246.785 11.6924L236.077 24.2128H241.347L249.37 14.7134L257.392 24.2128H262.595L251.955 11.726L261.488 0.514654H256.352L249.37 8.77209L242.388 0.514654H237.219ZM241.53 24.6064L249.37 15.3234L257.21 24.6064H263.448L252.471 11.7257L262.339 0.121094H256.169L249.37 8.16254L242.571 0.121094H236.364L246.267 11.6925L235.223 24.6064H241.53Z" fill="url(#paint0_linear_1739_34234)"/>
<path d="M211.917 0.514648H222.625C225.557 0.514648 228.018 1.04053 230.01 2.09229C232.001 3.14405 233.445 4.68812 234.34 6.7245C235.056 8.33571 235.414 10.2155 235.414 12.3637C235.414 14.6015 235.056 16.4812 234.34 18.0029C233.445 20.0393 231.99 21.5834 229.976 22.6352C227.985 23.6869 225.534 24.2128 222.625 24.2128H211.917V0.514648ZM222.189 20.6212C226.284 20.6212 228.958 19.2561 230.211 16.526C230.703 15.4071 230.95 14.0197 230.95 12.3637C230.95 10.7078 230.703 9.32034 230.211 8.20144C228.958 5.47134 226.284 4.10629 222.189 4.10629H216.113V20.6212H222.189Z" fill="url(#paint1_linear_1739_34234)"/>
<path d="M246.785 11.6924L237.219 0.514648H242.388L249.37 8.77208L256.352 0.514648H261.488L251.955 11.726L262.595 24.2128H257.392L249.37 14.7134L241.347 24.2128H236.077L246.785 11.6924Z" fill="url(#paint2_linear_1739_34234)"/>
<path d="M290.478 34.3294H285.107V50.3296H278.114V10.8327H297.247C300.566 10.8327 303.326 11.3548 305.527 12.3991C307.764 13.4434 309.331 15.0099 310.226 17.0985C310.897 18.5531 311.233 20.2687 311.233 22.2454C311.233 24.4459 310.879 26.3107 310.17 27.8399C309.275 29.8539 307.876 31.4017 305.974 32.4833C304.109 33.5649 301.797 34.1616 299.037 34.2735L314.03 50.3296H305.079L290.478 34.3294ZM285.107 28.6231H295.513C297.75 28.6231 299.522 28.3807 300.827 27.8958C302.17 27.411 303.084 26.6091 303.569 25.4902C303.942 24.707 304.128 23.6813 304.128 22.4132C304.128 21.3316 303.96 20.4365 303.625 19.7279C303.102 18.5717 302.17 17.7512 300.827 17.2663C299.485 16.7815 297.713 16.539 295.513 16.539H285.107V28.6231Z" fill="url(#paint3_linear_1739_34234)"/>
<path d="M337.654 51.3366C332.88 51.3366 328.833 50.5161 325.514 48.875C322.194 47.234 319.751 44.8843 318.185 41.826C317.253 40.3342 316.544 38.6372 316.059 36.7351C315.612 34.8329 315.388 32.7816 315.388 30.5811C315.388 26.9634 316.022 23.7186 317.29 20.8468C318.856 17.3409 321.374 14.6369 324.842 12.7348C328.311 10.7954 332.6 9.82568 337.71 9.82568C342.782 9.82568 347.052 10.7767 350.521 12.6789C353.99 14.581 356.488 17.2477 358.018 20.6789C359.323 23.6254 359.976 26.9261 359.976 30.5811C359.976 34.3481 359.304 37.6861 357.962 40.5952C356.395 44.0265 353.878 46.6746 350.409 48.5394C346.978 50.4042 342.726 51.3366 337.654 51.3366ZM337.71 45.1827C341.029 45.1827 343.826 44.5673 346.101 43.3365C348.414 42.0685 350.092 40.2782 351.136 37.9658C352.069 35.8399 352.535 33.3784 352.535 30.5811C352.535 27.7839 352.069 25.3224 351.136 23.1965C350.092 20.8841 348.414 19.1125 346.101 17.8817C343.826 16.6136 341.029 15.9796 337.71 15.9796C334.353 15.9796 331.518 16.6136 329.206 17.8817C326.931 19.1125 325.29 20.8841 324.283 23.1965C323.351 25.3224 322.884 27.7839 322.884 30.5811C322.884 33.3784 323.351 35.8399 324.283 37.9658C325.29 40.2782 326.931 42.0685 329.206 43.3365C331.518 44.5673 334.353 45.1827 337.71 45.1827Z" fill="url(#paint4_linear_1739_34234)"/>
<path d="M392.035 40.875H371L367.084 50.3296H359.587L376.482 10.8327H386.496L403.336 50.3296H395.951L392.035 40.875ZM389.573 35.0008L381.517 15.532H381.406L373.405 35.0008H389.573Z" fill="url(#paint5_linear_1739_34234)"/>
<path d="M407.213 10.8327H425.059C429.945 10.8327 434.047 11.7092 437.367 13.4621C440.686 15.215 443.092 17.7885 444.584 21.1824C445.777 23.8678 446.374 27.0007 446.374 30.5811C446.374 34.3108 445.777 37.4437 444.584 39.9798C443.092 43.3738 440.667 45.9473 437.311 47.7002C433.991 49.4531 429.907 50.3296 425.059 50.3296H407.213V10.8327ZM424.332 44.3435C431.157 44.3435 435.614 42.0684 437.702 37.5183C438.523 35.6535 438.933 33.3411 438.933 30.5811C438.933 27.8212 438.523 25.5088 437.702 23.644C435.614 19.0938 431.157 16.8188 424.332 16.8188H414.206V44.3435H424.332Z" fill="url(#paint6_linear_1739_34234)"/>
<path d="M452.231 10.8327H460.846L475.559 40.1477L490.553 10.8327H499V50.3296H492.343V20.2873L477.182 50.3296H473.993L458.888 20.2873V50.3296H452.231V10.8327Z" fill="url(#paint7_linear_1739_34234)"/>
<path d="M534.956 40.875H513.921L510.005 50.3296H502.508L519.403 10.8327H529.418L546.257 50.3296H538.872L534.956 40.875ZM532.495 35.0008L524.438 15.532H524.327L516.327 35.0008H532.495Z" fill="url(#paint8_linear_1739_34234)"/>
<path d="M550.134 10.8327H568.26C575.16 10.8327 579.542 12.9026 581.407 17.0425C582.115 18.5717 582.47 20.4552 582.47 22.693C582.47 25.0053 582.115 26.8888 581.407 28.3434C579.542 32.5206 575.16 34.6092 568.26 34.6092H557.127V50.3296H550.134V10.8327ZM566.749 28.735C569.062 28.735 570.852 28.5298 572.12 28.1196C573.425 27.672 574.339 26.8702 574.861 25.714C575.197 24.8561 575.365 23.8864 575.365 22.8048C575.365 21.5368 575.178 20.5111 574.805 19.7279C574.283 18.5717 573.369 17.7698 572.064 17.3223C570.759 16.8747 568.987 16.6509 566.749 16.6509H557.127V28.735H566.749Z" fill="url(#paint9_linear_1739_34234)"/>
<defs>
<linearGradient id="paint0_linear_1739_34234" x1="236.587" y1="0.212807" x2="236.587" y2="56.2128" gradientUnits="userSpaceOnUse">
<stop offset="0.111424" stop-color="white"/>
<stop offset="0.296159" stop-color="#B7CAFC" stop-opacity="0.18"/>
<stop offset="0.312723" stop-color="#BACDFF" stop-opacity="0.76"/>
<stop offset="0.491612" stop-color="#C7CFE4" stop-opacity="0"/>
<stop offset="0.757582" stop-color="#00164F" stop-opacity="0"/>
</linearGradient>
<linearGradient id="paint1_linear_1739_34234" x1="266.71" y1="-0.826172" x2="266.71" y2="25.517" gradientUnits="userSpaceOnUse">
<stop stop-color="white"/>
<stop offset="1" stop-color="#86AFCD" stop-opacity="0.32"/>
</linearGradient>
<linearGradient id="paint2_linear_1739_34234" x1="266.71" y1="-0.826172" x2="266.71" y2="25.517" gradientUnits="userSpaceOnUse">
<stop stop-color="white"/>
<stop offset="1" stop-color="#86AFCD" stop-opacity="0.32"/>
</linearGradient>
<linearGradient id="paint3_linear_1739_34234" x1="429.31" y1="19.3296" x2="429.31" y2="51.3296" gradientUnits="userSpaceOnUse">
<stop stop-color="#70B2FF"/>
<stop offset="1" stop-color="#127FFF"/>
</linearGradient>
<linearGradient id="paint4_linear_1739_34234" x1="429.31" y1="19.3296" x2="429.31" y2="51.3296" gradientUnits="userSpaceOnUse">
<stop stop-color="#70B2FF"/>
<stop offset="1" stop-color="#127FFF"/>
</linearGradient>
<linearGradient id="paint5_linear_1739_34234" x1="429.31" y1="19.3296" x2="429.31" y2="51.3296" gradientUnits="userSpaceOnUse">
<stop stop-color="#70B2FF"/>
<stop offset="1" stop-color="#127FFF"/>
</linearGradient>
<linearGradient id="paint6_linear_1739_34234" x1="429.31" y1="19.3296" x2="429.31" y2="51.3296" gradientUnits="userSpaceOnUse">
<stop stop-color="#70B2FF"/>
<stop offset="1" stop-color="#127FFF"/>
</linearGradient>
<linearGradient id="paint7_linear_1739_34234" x1="429.31" y1="19.3296" x2="429.31" y2="51.3296" gradientUnits="userSpaceOnUse">
<stop stop-color="#70B2FF"/>
<stop offset="1" stop-color="#127FFF"/>
</linearGradient>
<linearGradient id="paint8_linear_1739_34234" x1="429.31" y1="19.3296" x2="429.31" y2="51.3296" gradientUnits="userSpaceOnUse">
<stop stop-color="#70B2FF"/>
<stop offset="1" stop-color="#127FFF"/>
</linearGradient>
<linearGradient id="paint9_linear_1739_34234" x1="429.31" y1="19.3296" x2="429.31" y2="51.3296" gradientUnits="userSpaceOnUse">
<stop stop-color="#70B2FF"/>
<stop offset="1" stop-color="#127FFF"/>
</linearGradient>
</defs>
</svg>
