<svg width="596" height="54" viewBox="0 0 596 54" fill="none" xmlns="http://www.w3.org/2000/svg">
<path d="M1.0752 10.6069H8.06828V27.1665H30.3343V10.6069H37.3273V50.1039H30.3343V33.2086H8.06828V50.1039H1.0752V10.6069Z" fill="white"/>
<path d="M56.918 32.9848L40.9178 10.6069H49.1417L60.3866 26.6071L71.6315 10.6069H79.7994L63.8551 32.9848V50.1039H56.918V32.9848Z" fill="white"/>
<path d="M83.3532 10.6069H101.2C106.085 10.6069 110.188 11.4834 113.507 13.2363C116.827 14.9893 119.232 17.5627 120.724 20.9567C121.918 23.642 122.514 26.7749 122.514 30.3554C122.514 34.085 121.918 37.2179 120.724 39.7541C119.232 43.1481 116.808 45.7215 113.451 47.4745C110.132 49.2274 106.048 50.1039 101.2 50.1039H83.3532V10.6069ZM100.472 44.1178C107.297 44.1178 111.754 41.8427 113.843 37.2925C114.664 35.4277 115.074 33.1153 115.074 30.3554C115.074 27.5955 114.664 25.2831 113.843 23.4183C111.754 18.8681 107.297 16.593 100.472 16.593H90.3463V44.1178H100.472Z" fill="white"/>
<path d="M140.735 34.1037H135.364V50.1039H128.371V10.6069H147.504C150.824 10.6069 153.583 11.1291 155.784 12.1734C158.022 13.2177 159.588 14.7841 160.483 16.8727C161.155 18.3273 161.49 20.0429 161.49 22.0196C161.49 24.2201 161.136 26.085 160.427 27.6141C159.532 29.6281 158.134 31.1759 156.232 32.2575C154.367 33.3391 152.054 33.9359 149.294 34.0477L164.288 50.1039H155.336L140.735 34.1037ZM135.364 28.3973H145.77C148.008 28.3973 149.779 28.1549 151.085 27.6701C152.427 27.1852 153.341 26.3833 153.826 25.2644C154.199 24.4812 154.385 23.4556 154.385 22.1875C154.385 21.1059 154.218 20.2108 153.882 19.5021C153.36 18.3459 152.427 17.5254 151.085 17.0406C149.742 16.5557 147.97 16.3133 145.77 16.3133H135.364V28.3973Z" fill="white"/>
<path d="M197.657 40.6492H176.622L172.706 50.1039H165.209L182.104 10.6069H192.118L208.958 50.1039H201.573L197.657 40.6492ZM195.195 34.775L187.139 15.3063H187.027L179.027 34.775H195.195Z" fill="white"/>
<path fill-rule="evenodd" clip-rule="evenodd" d="M222.101 0H211V24.4853H222.101C225.056 24.4853 227.573 23.9514 229.635 22.8626C231.725 21.7712 233.242 20.1625 234.174 18.0448C234.92 16.4572 235.284 14.5179 235.284 12.2426C235.284 10.0514 234.919 8.11547 234.176 6.44439C233.245 4.32591 231.739 2.71575 229.67 1.62319C227.607 0.533857 225.078 0 222.101 0ZM229.635 22.8626L229.636 22.8621L229.452 22.5141L229.635 22.8626ZM234.89 12.2426C234.89 12.2426 234.608 9.06817 234.044 7.22824C233.972 6.99559 233.897 6.78428 233.816 6.60342C233.816 6.60342 233.911 6.83462 234.044 7.22824C234.382 8.22784 234.969 10.2749 234.89 12.2426L233.816 17.8819C234.532 16.3602 235 14 234.89 12.2426ZM229.687 16.4049C228.434 19.135 225.76 20.5001 221.665 20.5001H215.589V3.98521H221.665C225.76 3.98521 228.434 5.35026 229.687 8.08035C230.18 9.19925 230.426 10.5867 230.426 12.2426C230.426 13.8986 230.18 15.286 229.687 16.4049ZM236.695 0.39356L246.262 11.5713L235.554 24.0917H240.824L248.846 14.5923L256.869 24.0917H262.072L251.431 11.6049L260.964 0.39356H255.828L248.846 8.65099L241.864 0.39356H236.695ZM241.007 24.4853L248.846 15.2023L256.686 24.4853H262.924L251.948 11.6046L261.815 0H255.646L248.846 8.04145L242.047 0H235.84L245.744 11.5714L234.699 24.4853H241.007Z" fill="url(#paint0_linear_1739_34225)"/>
<path d="M234.89 12.2426C235 14 234.532 16.3602 233.816 17.8819L234.89 12.2426Z" fill="url(#paint1_linear_1739_34225)"/>
<path d="M234.044 7.22824C234.608 9.06817 234.89 12.2426 234.89 12.2426C234.969 10.2749 234.382 8.22784 234.044 7.22824Z" fill="url(#paint2_linear_1739_34225)"/>
<path d="M211.394 0.393555H222.101C225.033 0.393555 227.494 0.919434 229.486 1.97119C231.478 3.02295 232.921 4.56702 233.816 6.60341C234.532 8.21462 234.89 10.0944 234.89 12.2426C234.89 14.4804 234.532 16.3602 233.816 17.8819C232.921 19.9182 231.466 21.4623 229.452 22.5141C227.461 23.5658 225.01 24.0917 222.101 24.0917H211.394V0.393555ZM221.665 20.5001C225.76 20.5001 228.434 19.135 229.687 16.4049C230.18 15.286 230.426 13.8986 230.426 12.2426C230.426 10.5867 230.18 9.19924 229.687 8.08035C228.434 5.35025 225.76 3.9852 221.665 3.9852H215.589V20.5001H221.665Z" fill="url(#paint3_linear_1739_34225)"/>
<path d="M246.262 11.5713L236.695 0.393555H241.864L248.846 8.65099L255.828 0.393555H260.964L251.431 11.6049L262.072 24.0917H256.869L248.846 14.5923L240.824 24.0917H235.554L246.262 11.5713Z" fill="url(#paint4_linear_1739_34225)"/>
<path d="M295.087 51.3374C290.309 51.3374 286.258 50.5161 282.935 48.8734C279.613 47.2307 277.167 44.8787 275.599 41.8174C274.666 40.3241 273.957 38.6254 273.471 36.7214C273.023 34.8174 272.799 32.7641 272.799 30.5614C272.799 26.9401 273.434 23.6921 274.703 20.8174C276.271 17.3081 278.791 14.6014 282.263 12.6974C285.735 10.7561 290.029 9.7854 295.143 9.7854C300.221 9.7854 304.495 10.7374 307.967 12.6414C311.439 14.5454 313.941 17.2147 315.471 20.6494C316.778 23.5987 317.431 26.9027 317.431 30.5614C317.431 34.3321 316.759 37.6734 315.415 40.5854C313.847 44.0201 311.327 46.6707 307.855 48.5374C304.421 50.4041 300.165 51.3374 295.087 51.3374ZM295.143 45.1774C298.466 45.1774 301.266 44.5614 303.543 43.3294C305.858 42.0601 307.538 40.2681 308.583 37.9534C309.517 35.8254 309.983 33.3614 309.983 30.5614C309.983 27.7614 309.517 25.2974 308.583 23.1694C307.538 20.8547 305.858 19.0814 303.543 17.8494C301.266 16.5801 298.466 15.9454 295.143 15.9454C291.783 15.9454 288.946 16.5801 286.631 17.8494C284.354 19.0814 282.711 20.8547 281.703 23.1694C280.77 25.2974 280.303 27.7614 280.303 30.5614C280.303 33.3614 280.77 35.8254 281.703 37.9534C282.711 40.2681 284.354 42.0601 286.631 43.3294C288.946 44.5614 291.783 45.1774 295.143 45.1774Z" fill="url(#paint5_linear_1739_34225)"/>
<path d="M323.317 10.7934H331.941L346.669 40.1374L361.677 10.7934H370.133V50.3294H363.469V20.2574L348.293 50.3294H345.101L329.981 20.2574V50.3294H323.317V10.7934Z" fill="url(#paint6_linear_1739_34225)"/>
<path d="M377.676 10.7934H385.348L408.308 41.3694V10.7934H415.196V50.3294H407.3L384.564 19.9774V50.3294H377.676V10.7934Z" fill="url(#paint7_linear_1739_34225)"/>
<path d="M422.793 10.7934H429.793V50.3294H422.793V10.7934Z" fill="url(#paint8_linear_1739_34225)"/>
<path d="M437.395 10.7934H455.539C462.445 10.7934 466.832 12.8654 468.699 17.0094C469.408 18.5401 469.763 20.4254 469.763 22.6654C469.763 24.9801 469.408 26.8654 468.699 28.3214C466.832 32.5027 462.445 34.5934 455.539 34.5934H444.395V50.3294H437.395V10.7934ZM454.027 28.7134C456.341 28.7134 458.133 28.5081 459.403 28.0974C460.709 27.6494 461.624 26.8467 462.147 25.6894C462.483 24.8307 462.651 23.8601 462.651 22.7774C462.651 21.5081 462.464 20.4814 462.091 19.6974C461.568 18.5401 460.653 17.7374 459.347 17.2894C458.04 16.8414 456.267 16.6174 454.027 16.6174H444.395V28.7134H454.027Z" fill="url(#paint9_linear_1739_34225)"/>
<path d="M494.97 51.3374C490.191 51.3374 486.141 50.5161 482.818 48.8734C479.495 47.2307 477.05 44.8787 475.482 41.8174C474.549 40.3241 473.839 38.6254 473.354 36.7214C472.906 34.8174 472.682 32.7641 472.682 30.5614C472.682 26.9401 473.317 23.6921 474.586 20.8174C476.154 17.3081 478.674 14.6014 482.146 12.6974C485.618 10.7561 489.911 9.7854 495.026 9.7854C500.103 9.7854 504.378 10.7374 507.85 12.6414C511.322 14.5454 513.823 17.2147 515.354 20.6494C516.661 23.5987 517.314 26.9027 517.314 30.5614C517.314 34.3321 516.642 37.6734 515.298 40.5854C513.73 44.0201 511.21 46.6707 507.738 48.5374C504.303 50.4041 500.047 51.3374 494.97 51.3374ZM495.026 45.1774C498.349 45.1774 501.149 44.5614 503.426 43.3294C505.741 42.0601 507.421 40.2681 508.466 37.9534C509.399 35.8254 509.866 33.3614 509.866 30.5614C509.866 27.7614 509.399 25.2974 508.466 23.1694C507.421 20.8547 505.741 19.0814 503.426 17.8494C501.149 16.5801 498.349 15.9454 495.026 15.9454C491.666 15.9454 488.829 16.5801 486.514 17.8494C484.237 19.0814 482.594 20.8547 481.586 23.1694C480.653 25.2974 480.186 27.7614 480.186 30.5614C480.186 33.3614 480.653 35.8254 481.586 37.9534C482.594 40.2681 484.237 42.0601 486.514 43.3294C488.829 44.5614 491.666 45.1774 495.026 45.1774Z" fill="url(#paint10_linear_1739_34225)"/>
<path d="M543.806 51.3374C539.027 51.3374 534.977 50.5161 531.654 48.8734C528.331 47.2307 525.886 44.8787 524.318 41.8174C523.385 40.3241 522.675 38.6254 522.19 36.7214C521.742 34.8174 521.518 32.7641 521.518 30.5614C521.518 26.9401 522.153 23.6921 523.422 20.8174C524.99 17.3081 527.51 14.6014 530.982 12.6974C534.454 10.7561 538.747 9.7854 543.862 9.7854C548.939 9.7854 553.214 10.7374 556.686 12.6414C560.158 14.5454 562.659 17.2147 564.19 20.6494C565.497 23.5987 566.15 26.9027 566.15 30.5614C566.15 34.3321 565.478 37.6734 564.134 40.5854C562.566 44.0201 560.046 46.6707 556.574 48.5374C553.139 50.4041 548.883 51.3374 543.806 51.3374ZM543.862 45.1774C547.185 45.1774 549.985 44.5614 552.262 43.3294C554.577 42.0601 556.257 40.2681 557.302 37.9534C558.235 35.8254 558.702 33.3614 558.702 30.5614C558.702 27.7614 558.235 25.2974 557.302 23.1694C556.257 20.8547 554.577 19.0814 552.262 17.8494C549.985 16.5801 547.185 15.9454 543.862 15.9454C540.502 15.9454 537.665 16.5801 535.35 17.8494C533.073 19.0814 531.43 20.8547 530.422 23.1694C529.489 25.2974 529.022 27.7614 529.022 30.5614C529.022 33.3614 529.489 35.8254 530.422 37.9534C531.43 40.2681 533.073 42.0601 535.35 43.3294C537.665 44.5614 540.502 45.1774 543.862 45.1774Z" fill="url(#paint11_linear_1739_34225)"/>
<path d="M572.035 10.7934H579.035V44.3374H594.099V50.3294H572.035V10.7934Z" fill="url(#paint12_linear_1739_34225)"/>
<defs>
<linearGradient id="paint0_linear_1739_34225" x1="236.063" y1="0.0917135" x2="236.063" y2="56.0917" gradientUnits="userSpaceOnUse">
<stop stop-color="white"/>
<stop offset="0.288821" stop-color="#EAB7FC" stop-opacity="0.21"/>
<stop offset="0.320072" stop-color="#FFD7ED"/>
<stop offset="0.512785" stop-color="#ADBBDF" stop-opacity="0.17"/>
<stop offset="0.757582" stop-color="#00164F" stop-opacity="0"/>
</linearGradient>
<linearGradient id="paint1_linear_1739_34225" x1="236.063" y1="0.0917135" x2="236.063" y2="56.0917" gradientUnits="userSpaceOnUse">
<stop stop-color="white"/>
<stop offset="0.288821" stop-color="#EAB7FC" stop-opacity="0.21"/>
<stop offset="0.320072" stop-color="#FFD7ED"/>
<stop offset="0.512785" stop-color="#ADBBDF" stop-opacity="0.17"/>
<stop offset="0.757582" stop-color="#00164F" stop-opacity="0"/>
</linearGradient>
<linearGradient id="paint2_linear_1739_34225" x1="236.063" y1="0.0917135" x2="236.063" y2="56.0917" gradientUnits="userSpaceOnUse">
<stop stop-color="white"/>
<stop offset="0.288821" stop-color="#EAB7FC" stop-opacity="0.21"/>
<stop offset="0.320072" stop-color="#FFD7ED"/>
<stop offset="0.512785" stop-color="#ADBBDF" stop-opacity="0.17"/>
<stop offset="0.757582" stop-color="#00164F" stop-opacity="0"/>
</linearGradient>
<linearGradient id="paint3_linear_1739_34225" x1="236.527" y1="1.1527" x2="236.527" y2="27.152" gradientUnits="userSpaceOnUse">
<stop stop-color="#FF85C7"/>
<stop offset="1" stop-color="#EC78FF" stop-opacity="0.49"/>
</linearGradient>
<linearGradient id="paint4_linear_1739_34225" x1="236.527" y1="1.1527" x2="236.527" y2="27.152" gradientUnits="userSpaceOnUse">
<stop stop-color="#FF85C7"/>
<stop offset="1" stop-color="#EC78FF" stop-opacity="0.49"/>
</linearGradient>
<linearGradient id="paint5_linear_1739_34225" x1="432.657" y1="19.3293" x2="432.657" y2="51.3293" gradientUnits="userSpaceOnUse">
<stop stop-color="#FF569B"/>
<stop offset="1" stop-color="#FC408C"/>
</linearGradient>
<linearGradient id="paint6_linear_1739_34225" x1="432.657" y1="19.3293" x2="432.657" y2="51.3293" gradientUnits="userSpaceOnUse">
<stop stop-color="#FF569B"/>
<stop offset="1" stop-color="#FC408C"/>
</linearGradient>
<linearGradient id="paint7_linear_1739_34225" x1="432.657" y1="19.3293" x2="432.657" y2="51.3293" gradientUnits="userSpaceOnUse">
<stop stop-color="#FF569B"/>
<stop offset="1" stop-color="#FC408C"/>
</linearGradient>
<linearGradient id="paint8_linear_1739_34225" x1="432.657" y1="19.3293" x2="432.657" y2="51.3293" gradientUnits="userSpaceOnUse">
<stop stop-color="#FF569B"/>
<stop offset="1" stop-color="#FC408C"/>
</linearGradient>
<linearGradient id="paint9_linear_1739_34225" x1="432.657" y1="19.3293" x2="432.657" y2="51.3293" gradientUnits="userSpaceOnUse">
<stop stop-color="#FF569B"/>
<stop offset="1" stop-color="#FC408C"/>
</linearGradient>
<linearGradient id="paint10_linear_1739_34225" x1="432.657" y1="19.3293" x2="432.657" y2="51.3293" gradientUnits="userSpaceOnUse">
<stop stop-color="#FF569B"/>
<stop offset="1" stop-color="#FC408C"/>
</linearGradient>
<linearGradient id="paint11_linear_1739_34225" x1="432.657" y1="19.3293" x2="432.657" y2="51.3293" gradientUnits="userSpaceOnUse">
<stop stop-color="#FF569B"/>
<stop offset="1" stop-color="#FC408C"/>
</linearGradient>
<linearGradient id="paint12_linear_1739_34225" x1="432.657" y1="19.3293" x2="432.657" y2="51.3293" gradientUnits="userSpaceOnUse">
<stop stop-color="#FF569B"/>
<stop offset="1" stop-color="#FC408C"/>
</linearGradient>
</defs>
</svg>
