<svg width="233" height="90" viewBox="0 0 233 90" fill="none" xmlns="http://www.w3.org/2000/svg">
<path d="M40.206 9.64656H45.3399V21.8037H61.6864V9.64656H66.8204V38.6431H61.6864V26.2395H45.3399V38.6431H40.206V9.64656ZM81.2028 26.0752L69.4563 9.64656H75.4938L83.7492 21.393L92.0046 9.64656H98.001L86.2956 26.0752V38.6431H81.2028V26.0752ZM100.61 9.64656H113.712C117.299 9.64656 120.311 10.29 122.748 11.5769C125.184 12.8638 126.951 14.7531 128.046 17.2448C128.922 19.2162 129.36 21.5162 129.36 24.1448C129.36 26.8829 128.922 29.1829 128.046 31.0448C126.951 33.5365 125.171 35.4258 122.707 36.7127C120.27 37.9996 117.271 38.6431 113.712 38.6431H100.61V9.64656ZM113.178 34.2484C118.189 34.2484 121.461 32.5782 122.994 29.2377C123.596 27.8686 123.898 26.171 123.898 24.1448C123.898 22.1186 123.596 20.421 122.994 19.0519C121.461 15.7115 118.189 14.0412 113.178 14.0412H105.744V34.2484H113.178ZM142.737 26.8966H138.794V38.6431H133.66V9.64656H147.706C150.143 9.64656 152.169 10.0299 153.785 10.7966C155.428 11.5632 156.578 12.7132 157.235 14.2466C157.728 15.3144 157.974 16.574 157.974 18.0252C157.974 19.6406 157.714 21.0097 157.194 22.1323C156.537 23.6109 155.51 24.7472 154.113 25.5412C152.744 26.3353 151.047 26.7734 149.021 26.8555L160.028 38.6431H153.456L142.737 26.8966ZM138.794 22.7073H146.433C148.076 22.7073 149.376 22.5293 150.335 22.1734C151.321 21.8174 151.991 21.2287 152.347 20.4073C152.621 19.8323 152.758 19.0793 152.758 18.1484C152.758 17.3543 152.635 16.6972 152.388 16.1769C152.005 15.3281 151.321 14.7257 150.335 14.3698C149.349 14.0138 148.049 13.8359 146.433 13.8359H138.794V22.7073ZM184.526 31.702H169.083L166.208 38.6431H160.704L173.108 9.64656H180.46L192.822 38.6431H187.401L184.526 31.702ZM182.718 27.3895L176.804 13.0966H176.722L170.849 27.3895H182.718Z" fill="white"/>
<path d="M194.845 0.717819H202.706C204.858 0.717819 206.665 1.10389 208.128 1.87604C209.59 2.64818 210.649 3.78176 211.306 5.27676C211.832 6.45962 212.095 7.83962 212.095 9.41677C212.095 11.0596 211.832 12.4396 211.306 13.5568C210.649 15.0518 209.581 16.1854 208.103 16.9575C206.641 17.7297 204.842 18.1157 202.706 18.1157H194.845V0.717819ZM202.386 15.4789C205.392 15.4789 207.355 14.4768 208.275 12.4725C208.637 11.6511 208.818 10.6325 208.818 9.41677C208.818 8.20105 208.637 7.18248 208.275 6.36105C207.355 4.35676 205.392 3.35461 202.386 3.35461H197.925V15.4789H202.386ZM220.443 8.92391L213.42 0.717819H217.215L222.341 6.77998L227.466 0.717819H231.237L224.238 8.94856L232.05 18.1157H228.23L222.341 11.1418L216.451 18.1157H212.582L220.443 8.92391Z" fill="url(#paint0_linear_1133_42282)"/>
<path d="M194.845 0.717819V0.428889H194.556V0.717819H194.845ZM208.128 1.87604L208.262 1.62054L208.128 1.87604ZM211.306 5.27676L211.042 5.39303L211.042 5.39411L211.306 5.27676ZM211.306 13.5568L211.045 13.4337L211.042 13.4405L211.306 13.5568ZM208.103 16.9575L207.969 16.7014L207.968 16.702L208.103 16.9575ZM194.845 18.1157H194.556V18.4047H194.845V18.1157ZM208.275 12.4725L208.538 12.593L208.54 12.5889L208.275 12.4725ZM208.275 6.36105L208.54 6.24467L208.538 6.24052L208.275 6.36105ZM197.925 3.35461V3.06568H197.636V3.35461H197.925ZM197.925 15.4789H197.636V15.7679H197.925V15.4789ZM194.845 1.00675H202.706V0.428889H194.845V1.00675ZM202.706 1.00675C204.825 1.00675 206.583 1.38697 207.993 2.13153L208.262 1.62054C206.748 0.820818 204.892 0.428889 202.706 0.428889V1.00675ZM207.993 2.13153C209.398 2.87363 210.411 3.95853 211.042 5.39303L211.571 5.16049C210.887 3.60498 209.781 2.42273 208.262 1.62054L207.993 2.13153ZM211.042 5.39411C211.549 6.53288 211.806 7.87142 211.806 9.41677H212.384C212.384 7.80783 212.116 6.38636 211.571 5.15941L211.042 5.39411ZM211.806 9.41677C211.806 11.0305 211.548 12.3656 211.045 13.4338L211.568 13.6798C212.117 12.5137 212.384 11.0888 212.384 9.41677H211.806ZM211.042 13.4405C210.412 14.874 209.391 15.9589 207.969 16.7014L208.237 17.2136C209.772 16.4118 210.887 15.2296 211.571 13.673L211.042 13.4405ZM207.968 16.702C206.558 17.4467 204.808 17.8268 202.706 17.8268V18.4047C204.876 18.4047 206.724 18.0126 208.238 17.213L207.968 16.702ZM202.706 17.8268H194.845V18.4047H202.706V17.8268ZM195.134 18.1157V0.717819H194.556V18.1157H195.134ZM202.386 15.7679C205.457 15.7679 207.554 14.7376 208.538 12.593L208.013 12.352C207.157 14.216 205.328 15.19 202.386 15.19V15.7679ZM208.54 12.5889C208.922 11.7202 209.106 10.6592 209.106 9.41677H208.529C208.529 10.6058 208.352 11.5819 208.011 12.3561L208.54 12.5889ZM209.106 9.41677C209.106 8.17439 208.922 7.11334 208.54 6.24468L208.011 6.47741C208.352 7.25162 208.529 8.22772 208.529 9.41677H209.106ZM208.538 6.24052C207.554 4.09593 205.457 3.06568 202.386 3.06568V3.64354C205.328 3.64354 207.157 4.61758 208.013 6.48158L208.538 6.24052ZM202.386 3.06568H197.925V3.64354H202.386V3.06568ZM197.636 3.35461V15.4789H198.214V3.35461H197.636ZM197.925 15.7679H202.386V15.19H197.925V15.7679ZM220.443 8.92391L220.663 9.1117L220.823 8.92384L220.663 8.73604L220.443 8.92391ZM213.42 0.717819V0.428889H212.792L213.2 0.90569L213.42 0.717819ZM217.215 0.717819L217.436 0.531267L217.349 0.428889H217.215V0.717819ZM222.341 6.77998L222.12 6.96653L222.341 7.22747L222.561 6.96653L222.341 6.77998ZM227.466 0.717819V0.428889H227.332L227.246 0.531267L227.466 0.717819ZM231.237 0.717819L231.457 0.904983L231.862 0.428889H231.237V0.717819ZM224.238 8.94856L224.018 8.76139L223.859 8.94876L224.018 9.13596L224.238 8.94856ZM232.05 18.1157V18.4047H232.676L232.27 17.9283L232.05 18.1157ZM228.23 18.1157L228.01 18.3021L228.096 18.4047H228.23V18.1157ZM222.341 11.1418L222.561 10.9554L222.341 10.694L222.12 10.9554L222.341 11.1418ZM216.451 18.1157V18.4047H216.585L216.672 18.3021L216.451 18.1157ZM212.582 18.1157L212.363 17.9279L211.955 18.4047H212.582V18.1157ZM220.663 8.73604L213.64 0.529949L213.2 0.90569L220.224 9.11178L220.663 8.73604ZM213.42 1.00675H217.215V0.428889H213.42V1.00675ZM216.994 0.904372L222.12 6.96653L222.561 6.59343L217.436 0.531267L216.994 0.904372ZM222.561 6.96653L227.687 0.904372L227.246 0.531267L222.12 6.59343L222.561 6.96653ZM227.466 1.00675H231.237V0.428889H227.466V1.00675ZM231.017 0.530656L224.018 8.76139L224.458 9.13572L231.457 0.904983L231.017 0.530656ZM224.018 9.13596L231.83 18.3031L232.27 17.9283L224.458 8.76116L224.018 9.13596ZM232.05 17.8268H228.23V18.4047H232.05V17.8268ZM228.451 17.9293L222.561 10.9554L222.12 11.3282L228.01 18.3021L228.451 17.9293ZM222.12 10.9554L216.23 17.9293L216.672 18.3021L222.561 11.3282L222.12 10.9554ZM216.451 17.8268H212.582V18.4047H216.451V17.8268ZM212.802 18.3035L220.663 9.1117L220.224 8.73612L212.363 17.9279L212.802 18.3035Z" fill="url(#paint1_linear_1133_42282)"/>
<path d="M12.8013 68.3693H8.8584V80.1157H3.72446V51.1192H17.7709C20.2078 51.1192 22.234 51.5026 23.8495 52.2692C25.4924 53.0359 26.6424 54.1859 27.2995 55.7192C27.7924 56.7871 28.0388 58.0466 28.0388 59.4978C28.0388 61.1133 27.7787 62.4823 27.2584 63.605C26.6013 65.0835 25.5745 66.2199 24.1781 67.0139C22.809 67.808 21.1114 68.246 19.0852 68.3282L30.0924 80.1157H23.5209L12.8013 68.3693ZM8.8584 64.18H16.4977C18.1406 64.18 19.4412 64.002 20.3995 63.646C21.3852 63.2901 22.0561 62.7014 22.412 61.88C22.6858 61.305 22.8227 60.552 22.8227 59.621C22.8227 58.827 22.6995 58.1698 22.4531 57.6496C22.0697 56.8008 21.3852 56.1984 20.3995 55.8424C19.4138 55.4865 18.1132 55.3085 16.4977 55.3085H8.8584V64.18ZM47.4355 80.855C43.9307 80.855 40.9599 80.2526 38.523 79.0479C36.086 77.8431 34.2926 76.1181 33.1426 73.8728C32.4581 72.7776 31.9378 71.5318 31.5819 70.1353C31.2533 68.7389 31.089 67.233 31.089 65.6175C31.089 62.9615 31.5545 60.5794 32.4854 58.471C33.6354 55.8972 35.4837 53.9121 38.0301 52.5157C40.5765 51.0918 43.7254 50.3799 47.4766 50.3799C51.2004 50.3799 54.3355 51.0781 56.8819 52.4746C59.4284 53.871 61.2629 55.8288 62.3855 58.3478C63.3439 60.5109 63.823 62.9341 63.823 65.6175C63.823 68.383 63.3302 70.8336 62.3444 72.9693C61.1944 75.4883 59.3462 77.4324 56.7998 78.8014C54.2807 80.1705 51.1593 80.855 47.4355 80.855ZM47.4766 76.3371C49.9135 76.3371 51.967 75.8854 53.6373 74.9818C55.3349 74.0508 56.5671 72.7365 57.3337 71.0389C58.0182 69.4782 58.3605 67.671 58.3605 65.6175C58.3605 63.5639 58.0182 61.7567 57.3337 60.196C56.5671 58.4984 55.3349 57.1978 53.6373 56.2942C51.967 55.3633 49.9135 54.8978 47.4766 54.8978C45.0123 54.8978 42.9313 55.3633 41.2337 56.2942C39.5634 57.1978 38.3587 58.4984 37.6194 60.196C36.9349 61.7567 36.5926 63.5639 36.5926 65.6175C36.5926 67.671 36.9349 69.4782 37.6194 71.0389C38.3587 72.7365 39.5634 74.0508 41.2337 74.9818C42.9313 75.8854 45.0123 76.3371 47.4766 76.3371ZM87.3593 73.1746H71.9164L69.0414 80.1157H63.5378L75.9414 51.1192H83.2932L95.6557 80.1157H90.2343L87.3593 73.1746ZM85.5521 68.8621L79.6378 54.5692H79.5557L73.6824 68.8621H85.5521ZM98.5018 51.1192H111.604C115.191 51.1192 118.202 51.7627 120.639 53.0496C123.076 54.3365 124.842 56.2258 125.938 58.7175C126.814 60.6889 127.252 62.9889 127.252 65.6175C127.252 68.3556 126.814 70.6556 125.938 72.5175C124.842 75.0092 123.063 76.8985 120.598 78.1854C118.161 79.4723 115.163 80.1157 111.604 80.1157H98.5018V51.1192ZM111.07 75.7211C116.08 75.7211 119.352 74.0508 120.886 70.7103C121.488 69.3413 121.789 67.6437 121.789 65.6175C121.789 63.5913 121.488 61.8937 120.886 60.5246C119.352 57.1841 116.08 55.5139 111.07 55.5139H103.636V75.7211H111.07ZM131.552 51.1192H137.877L148.678 72.6407L159.686 51.1192H165.887V80.1157H161V58.0603L149.869 80.1157H147.528L136.439 58.0603V80.1157H131.552V51.1192ZM192.284 73.1746H176.841L173.966 80.1157H168.463L180.866 51.1192H188.218L200.581 80.1157H195.159L192.284 73.1746ZM190.477 68.8621L184.563 54.5692H184.481L178.607 68.8621H190.477ZM203.427 51.1192H216.734C221.799 51.1192 225.017 52.6389 226.386 55.6782C226.906 56.8008 227.166 58.1835 227.166 59.8264C227.166 61.524 226.906 62.9067 226.386 63.9746C225.017 67.0413 221.799 68.5746 216.734 68.5746H208.561V80.1157H203.427V51.1192ZM215.625 64.2621C217.323 64.2621 218.637 64.1115 219.568 63.8103C220.526 63.4818 221.197 62.8931 221.58 62.0442C221.827 61.4145 221.95 60.7026 221.95 59.9085C221.95 58.9776 221.813 58.2246 221.539 57.6496C221.156 56.8008 220.485 56.2121 219.527 55.8835C218.568 55.5549 217.268 55.3907 215.625 55.3907H208.561V64.2621H215.625Z" fill="url(#paint2_linear_1133_42282)"/>
<defs>
<linearGradient id="paint0_linear_1133_42282" x1="235.27" y1="-0.64502" x2="235.27" y2="18.6419" gradientUnits="userSpaceOnUse">
<stop stop-color="white"/>
<stop offset="1" stop-color="#6991AD" stop-opacity="0.18"/>
</linearGradient>
<linearGradient id="paint1_linear_1133_42282" x1="212.956" y1="0.115723" x2="212.956" y2="41.1157" gradientUnits="userSpaceOnUse">
<stop stop-color="white"/>
<stop offset="0.296159" stop-color="#B7CAFC" stop-opacity="0.18"/>
<stop offset="0.312723" stop-color="#BACDFF" stop-opacity="0.76"/>
<stop offset="0.491612" stop-color="#00164F" stop-opacity="0"/>
<stop offset="0.757582" stop-color="#00164F" stop-opacity="0"/>
</linearGradient>
<linearGradient id="paint2_linear_1133_42282" x1="114.5" y1="48.1157" x2="114.5" y2="89.1157" gradientUnits="userSpaceOnUse">
<stop stop-color="#70B2FF"/>
<stop offset="1" stop-color="#127FFF"/>
</linearGradient>
</defs>
</svg>
