<svg width="199" height="49" viewBox="0 0 199 49" fill="none" xmlns="http://www.w3.org/2000/svg">
<path d="M6.206 9.64656H11.3399V21.8037H27.6864V9.64656H32.8204V38.6431H27.6864V26.2395H11.3399V38.6431H6.206V9.64656ZM47.2028 26.0752L35.4563 9.64656H41.4938L49.7492 21.393L58.0046 9.64656H64.001L52.2956 26.0752V38.6431H47.2028V26.0752ZM66.61 9.64656H79.7118C83.2988 9.64656 86.3107 10.29 88.7476 11.5769C91.1845 12.8638 92.9506 14.7531 94.0458 17.2448C94.922 19.2162 95.3601 21.5162 95.3601 24.1448C95.3601 26.8829 94.922 29.1829 94.0458 31.0448C92.9506 33.5365 91.1708 35.4258 88.7065 36.7127C86.2696 37.9996 83.2714 38.6431 79.7118 38.6431H66.61V9.64656ZM79.1779 34.2484C84.1886 34.2484 87.4607 32.5782 88.994 29.2377C89.5964 27.8686 89.8976 26.171 89.8976 24.1448C89.8976 22.1186 89.5964 20.421 88.994 19.0519C87.4607 15.7115 84.1886 14.0412 79.1779 14.0412H71.744V34.2484H79.1779ZM108.737 26.8966H104.794V38.6431H99.6598V9.64656H113.706C116.143 9.64656 118.169 10.0299 119.785 10.7966C121.428 11.5632 122.578 12.7132 123.235 14.2466C123.728 15.3144 123.974 16.574 123.974 18.0252C123.974 19.6406 123.714 21.0097 123.194 22.1323C122.537 23.6109 121.51 24.7472 120.113 25.5412C118.744 26.3353 117.047 26.7734 115.021 26.8555L126.028 38.6431H119.456L108.737 26.8966ZM104.794 22.7073H112.433C114.076 22.7073 115.376 22.5293 116.335 22.1734C117.321 21.8174 117.991 21.2287 118.347 20.4073C118.621 19.8323 118.758 19.0793 118.758 18.1484C118.758 17.3543 118.635 16.6972 118.388 16.1769C118.005 15.3281 117.321 14.7257 116.335 14.3698C115.349 14.0138 114.049 13.8359 112.433 13.8359H104.794V22.7073ZM150.526 31.702H135.083L132.208 38.6431H126.704L139.108 9.64656H146.46L158.822 38.6431H153.401L150.526 31.702ZM148.718 27.3895L142.804 13.0966H142.722L136.849 27.3895H148.718Z" fill="white"/>
<path d="M160.845 0.717819H168.706C170.858 0.717819 172.665 1.10389 174.128 1.87604C175.59 2.64818 176.649 3.78176 177.306 5.27676C177.832 6.45962 178.095 7.83962 178.095 9.41677C178.095 11.0596 177.832 12.4396 177.306 13.5568C176.649 15.0518 175.581 16.1854 174.103 16.9575C172.641 17.7297 170.842 18.1157 168.706 18.1157H160.845V0.717819ZM168.386 15.4789C171.392 15.4789 173.355 14.4768 174.275 12.4725C174.637 11.6511 174.818 10.6325 174.818 9.41677C174.818 8.20105 174.637 7.18248 174.275 6.36105C173.355 4.35676 171.392 3.35461 168.386 3.35461H163.925V15.4789H168.386ZM186.443 8.92391L179.42 0.717819H183.215L188.341 6.77998L193.466 0.717819H197.237L190.238 8.94856L198.05 18.1157H194.23L188.341 11.1418L182.451 18.1157H178.582L186.443 8.92391Z" fill="url(#paint0_linear_1133_42283)"/>
<path d="M160.845 0.717819V0.428889H160.556V0.717819H160.845ZM174.128 1.87604L174.262 1.62054L174.128 1.87604ZM177.306 5.27676L177.042 5.39303L177.042 5.39411L177.306 5.27676ZM177.306 13.5568L177.045 13.4337L177.042 13.4405L177.306 13.5568ZM174.103 16.9575L173.969 16.7014L173.968 16.702L174.103 16.9575ZM160.845 18.1157H160.556V18.4047H160.845V18.1157ZM174.275 12.4725L174.538 12.593L174.54 12.5889L174.275 12.4725ZM174.275 6.36105L174.54 6.24467L174.538 6.24052L174.275 6.36105ZM163.925 3.35461V3.06568H163.636V3.35461H163.925ZM163.925 15.4789H163.636V15.7679H163.925V15.4789ZM160.845 1.00675H168.706V0.428889H160.845V1.00675ZM168.706 1.00675C170.825 1.00675 172.583 1.38697 173.993 2.13153L174.262 1.62054C172.748 0.820818 170.892 0.428889 168.706 0.428889V1.00675ZM173.993 2.13153C175.398 2.87363 176.411 3.95853 177.042 5.39303L177.571 5.16049C176.887 3.60498 175.781 2.42273 174.262 1.62054L173.993 2.13153ZM177.042 5.39411C177.549 6.53288 177.806 7.87142 177.806 9.41677H178.384C178.384 7.80783 178.116 6.38636 177.571 5.15941L177.042 5.39411ZM177.806 9.41677C177.806 11.0305 177.548 12.3656 177.045 13.4338L177.568 13.6798C178.117 12.5137 178.384 11.0888 178.384 9.41677H177.806ZM177.042 13.4405C176.412 14.874 175.391 15.9589 173.969 16.7014L174.237 17.2136C175.772 16.4118 176.887 15.2296 177.571 13.673L177.042 13.4405ZM173.968 16.702C172.558 17.4467 170.808 17.8268 168.706 17.8268V18.4047C170.876 18.4047 172.724 18.0126 174.238 17.213L173.968 16.702ZM168.706 17.8268H160.845V18.4047H168.706V17.8268ZM161.134 18.1157V0.717819H160.556V18.1157H161.134ZM168.386 15.7679C171.457 15.7679 173.554 14.7376 174.538 12.593L174.013 12.352C173.157 14.216 171.328 15.19 168.386 15.19V15.7679ZM174.54 12.5889C174.922 11.7202 175.106 10.6592 175.106 9.41677H174.529C174.529 10.6058 174.352 11.5819 174.011 12.3561L174.54 12.5889ZM175.106 9.41677C175.106 8.17439 174.922 7.11334 174.54 6.24468L174.011 6.47741C174.352 7.25162 174.529 8.22772 174.529 9.41677H175.106ZM174.538 6.24052C173.554 4.09593 171.457 3.06568 168.386 3.06568V3.64354C171.328 3.64354 173.157 4.61758 174.013 6.48158L174.538 6.24052ZM168.386 3.06568H163.925V3.64354H168.386V3.06568ZM163.636 3.35461V15.4789H164.214V3.35461H163.636ZM163.925 15.7679H168.386V15.19H163.925V15.7679ZM186.443 8.92391L186.663 9.1117L186.823 8.92384L186.663 8.73604L186.443 8.92391ZM179.42 0.717819V0.428889H178.792L179.2 0.90569L179.42 0.717819ZM183.215 0.717819L183.436 0.531267L183.349 0.428889H183.215V0.717819ZM188.341 6.77998L188.12 6.96653L188.341 7.22747L188.561 6.96653L188.341 6.77998ZM193.466 0.717819V0.428889H193.332L193.246 0.531267L193.466 0.717819ZM197.237 0.717819L197.457 0.904983L197.862 0.428889H197.237V0.717819ZM190.238 8.94856L190.018 8.76139L189.859 8.94876L190.018 9.13596L190.238 8.94856ZM198.05 18.1157V18.4047H198.676L198.27 17.9283L198.05 18.1157ZM194.23 18.1157L194.01 18.3021L194.096 18.4047H194.23V18.1157ZM188.341 11.1418L188.561 10.9554L188.341 10.694L188.12 10.9554L188.341 11.1418ZM182.451 18.1157V18.4047H182.585L182.672 18.3021L182.451 18.1157ZM178.582 18.1157L178.363 17.9279L177.955 18.4047H178.582V18.1157ZM186.663 8.73604L179.64 0.529949L179.2 0.90569L186.224 9.11178L186.663 8.73604ZM179.42 1.00675H183.215V0.428889H179.42V1.00675ZM182.994 0.904372L188.12 6.96653L188.561 6.59343L183.436 0.531267L182.994 0.904372ZM188.561 6.96653L193.687 0.904372L193.246 0.531267L188.12 6.59343L188.561 6.96653ZM193.466 1.00675H197.237V0.428889H193.466V1.00675ZM197.017 0.530656L190.018 8.76139L190.458 9.13572L197.457 0.904983L197.017 0.530656ZM190.018 9.13596L197.83 18.3031L198.27 17.9283L190.458 8.76116L190.018 9.13596ZM198.05 17.8268H194.23V18.4047H198.05V17.8268ZM194.451 17.9293L188.561 10.9554L188.12 11.3282L194.01 18.3021L194.451 17.9293ZM188.12 10.9554L182.23 17.9293L182.672 18.3021L188.561 11.3282L188.12 10.9554ZM182.451 17.8268H178.582V18.4047H182.451V17.8268ZM178.802 18.3035L186.663 9.1117L186.224 8.73612L178.363 17.9279L178.802 18.3035Z" fill="url(#paint1_linear_1133_42283)"/>
<defs>
<linearGradient id="paint0_linear_1133_42283" x1="201.27" y1="-0.64502" x2="201.27" y2="18.6419" gradientUnits="userSpaceOnUse">
<stop stop-color="white"/>
<stop offset="1" stop-color="#6991AD" stop-opacity="0.18"/>
</linearGradient>
<linearGradient id="paint1_linear_1133_42283" x1="178.956" y1="0.115723" x2="178.956" y2="41.1157" gradientUnits="userSpaceOnUse">
<stop stop-color="white"/>
<stop offset="0.296159" stop-color="#B7CAFC" stop-opacity="0.18"/>
<stop offset="0.312723" stop-color="#BACDFF" stop-opacity="0.76"/>
<stop offset="0.491612" stop-color="#00164F" stop-opacity="0"/>
<stop offset="0.757582" stop-color="#00164F" stop-opacity="0"/>
</linearGradient>
</defs>
</svg>
