<svg width="596" height="54" viewBox="0 0 596 54" fill="none" xmlns="http://www.w3.org/2000/svg">
<path d="M1.0752 10.6069H8.06828V27.1665H30.3343V10.6069H37.3273V50.1039H30.3343V33.2086H8.06828V50.1039H1.0752V10.6069Z" fill="white"/>
<path d="M56.918 32.9848L40.9178 10.6069H49.1417L60.3866 26.6071L71.6315 10.6069H79.7994L63.8551 32.9848V50.1039H56.918V32.9848Z" fill="white"/>
<path d="M83.3532 10.6069H101.2C106.085 10.6069 110.188 11.4834 113.507 13.2363C116.827 14.9893 119.232 17.5627 120.724 20.9567C121.918 23.642 122.514 26.7749 122.514 30.3554C122.514 34.085 121.918 37.2179 120.724 39.7541C119.232 43.1481 116.808 45.7215 113.451 47.4745C110.132 49.2274 106.048 50.1039 101.2 50.1039H83.3532V10.6069ZM100.472 44.1178C107.297 44.1178 111.754 41.8427 113.843 37.2925C114.664 35.4277 115.074 33.1153 115.074 30.3554C115.074 27.5955 114.664 25.2831 113.843 23.4183C111.754 18.8681 107.297 16.593 100.472 16.593H90.3463V44.1178H100.472Z" fill="white"/>
<path d="M140.735 34.1037H135.364V50.1039H128.371V10.6069H147.504C150.824 10.6069 153.583 11.1291 155.784 12.1734C158.022 13.2177 159.588 14.7841 160.483 16.8727C161.155 18.3273 161.49 20.0429 161.49 22.0196C161.49 24.2201 161.136 26.085 160.427 27.6141C159.532 29.6281 158.134 31.1759 156.232 32.2575C154.367 33.3391 152.054 33.9359 149.294 34.0477L164.288 50.1039H155.336L140.735 34.1037ZM135.364 28.3973H145.77C148.008 28.3973 149.779 28.1549 151.085 27.6701C152.427 27.1852 153.341 26.3833 153.826 25.2644C154.199 24.4812 154.385 23.4556 154.385 22.1875C154.385 21.1059 154.218 20.2108 153.882 19.5021C153.36 18.3459 152.427 17.5254 151.085 17.0406C149.742 16.5557 147.97 16.3133 145.77 16.3133H135.364V28.3973Z" fill="white"/>
<path d="M197.657 40.6492H176.622L172.706 50.1039H165.209L182.104 10.6069H192.118L208.958 50.1039H201.573L197.657 40.6492ZM195.195 34.775L187.139 15.3063H187.027L179.027 34.775H195.195Z" fill="white"/>
<path fill-rule="evenodd" clip-rule="evenodd" d="M221.625 0.121094H210.524V24.6064H221.625C224.58 24.6064 227.097 24.0725 229.159 22.9837C231.249 21.8923 232.766 20.2836 233.698 18.1659C234.444 16.5783 234.808 14.639 234.808 12.3637C234.808 10.1725 234.442 8.23656 233.7 6.56549C232.768 4.447 231.262 2.83684 229.194 1.74428C227.131 0.654951 224.602 0.121094 221.625 0.121094ZM229.159 22.9837C229.159 22.9835 229.16 22.9833 229.16 22.9832L228.976 22.6352L229.159 22.9837ZM234.414 12.3637C234.414 10.2155 234.056 8.33572 233.34 6.72451V18.003C234.056 16.4813 234.414 14.6015 234.414 12.3637ZM229.211 16.526C227.958 19.2561 225.284 20.6212 221.189 20.6212H215.113V4.1063H221.189C225.284 4.1063 227.958 5.47135 229.211 8.20145C229.703 9.32034 229.95 10.7078 229.95 12.3637C229.95 14.0197 229.703 15.4071 229.211 16.526ZM236.219 0.514654L245.785 11.6924L235.077 24.2128H240.347L248.37 14.7134L256.392 24.2128H261.595L250.955 11.726L260.488 0.514654H255.352L248.37 8.77209L241.388 0.514654H236.219ZM240.53 24.6064L248.37 15.3234L256.21 24.6064H262.448L251.471 11.7257L261.339 0.121094H255.169L248.37 8.16254L241.571 0.121094H235.364L245.267 11.6925L234.223 24.6064H240.53Z" fill="url(#paint0_linear_1739_34210)"/>
<path d="M210.917 0.514648H221.625C224.557 0.514648 227.018 1.04053 229.01 2.09229C231.001 3.14405 232.445 4.68812 233.34 6.7245C234.056 8.33571 234.414 10.2155 234.414 12.3637C234.414 14.6015 234.056 16.4812 233.34 18.0029C232.445 20.0393 230.99 21.5834 228.976 22.6352C226.985 23.6869 224.534 24.2128 221.625 24.2128H210.917V0.514648ZM221.189 20.6212C225.284 20.6212 227.958 19.2561 229.211 16.526C229.703 15.4071 229.95 14.0197 229.95 12.3637C229.95 10.7078 229.703 9.32034 229.211 8.20144C227.958 5.47134 225.284 4.10629 221.189 4.10629H215.113V20.6212H221.189Z" fill="url(#paint1_linear_1739_34210)"/>
<path d="M245.785 11.6924L236.219 0.514648H241.388L248.37 8.77208L255.352 0.514648H260.488L250.955 11.726L261.595 24.2128H256.392L248.37 14.7134L240.347 24.2128H235.077L245.785 11.6924Z" fill="url(#paint2_linear_1739_34210)"/>
<path d="M295.223 51.3364C290.449 51.3364 286.403 50.5158 283.083 48.8748C279.764 47.2338 277.321 44.8841 275.755 41.8258C274.822 40.3339 274.113 38.6369 273.629 36.7348C273.181 34.8327 272.957 32.7814 272.957 30.5809C272.957 26.9632 273.591 23.7184 274.859 20.8465C276.426 17.3407 278.943 14.6367 282.412 12.7346C285.88 10.7951 290.17 9.82544 295.279 9.82544C300.352 9.82544 304.622 10.7765 308.091 12.6786C311.559 14.5807 314.058 17.2474 315.587 20.6787C316.892 23.6251 317.545 26.9259 317.545 30.5809C317.545 34.3478 316.874 37.6859 315.531 40.595C313.965 44.0263 311.447 46.6743 307.979 48.5391C304.547 50.404 300.296 51.3364 295.223 51.3364ZM295.279 45.1825C298.599 45.1825 301.396 44.5671 303.671 43.3363C305.983 42.0682 307.662 40.278 308.706 37.9656C309.638 35.8397 310.105 33.3781 310.105 30.5809C310.105 27.7837 309.638 25.3221 308.706 23.1962C307.662 20.8838 305.983 19.1122 303.671 17.8815C301.396 16.6134 298.599 15.9794 295.279 15.9794C291.923 15.9794 289.088 16.6134 286.776 17.8815C284.501 19.1122 282.859 20.8838 281.852 23.1962C280.92 25.3221 280.454 27.7837 280.454 30.5809C280.454 33.3781 280.92 35.8397 281.852 37.9656C282.859 40.278 284.501 42.0682 286.776 43.3363C289.088 44.5671 291.923 45.1825 295.279 45.1825Z" fill="url(#paint3_linear_1739_34210)"/>
<path d="M323.425 10.8324H332.04L346.754 40.1474L361.747 10.8324H370.194V50.3294H363.537V20.2871L348.376 50.3294H345.187L330.082 20.2871V50.3294H323.425V10.8324Z" fill="url(#paint4_linear_1739_34210)"/>
<path d="M377.73 10.8324H385.395L408.332 41.3782V10.8324H415.213V50.3294H407.325L384.611 20.0074V50.3294H377.73V10.8324Z" fill="url(#paint5_linear_1739_34210)"/>
<path d="M422.803 10.8324H429.796V50.3294H422.803V10.8324Z" fill="url(#paint6_linear_1739_34210)"/>
<path d="M437.39 10.8324H455.516C462.416 10.8324 466.798 12.9024 468.663 17.0423C469.372 18.5715 469.726 20.4549 469.726 22.6927C469.726 25.0051 469.372 26.8886 468.663 28.3431C466.798 32.5203 462.416 34.6089 455.516 34.6089H444.383V50.3294H437.39V10.8324ZM454.006 28.7347C456.318 28.7347 458.108 28.5296 459.376 28.1193C460.682 27.6718 461.595 26.8699 462.117 25.7137C462.453 24.8559 462.621 23.8862 462.621 22.8046C462.621 21.5365 462.435 20.5109 462.062 19.7276C461.539 18.5715 460.626 17.7696 459.32 17.322C458.015 16.8745 456.243 16.6507 454.006 16.6507H444.383V28.7347H454.006Z" fill="url(#paint7_linear_1739_34210)"/>
<path d="M494.908 51.3364C490.135 51.3364 486.088 50.5158 482.768 48.8748C479.449 47.2338 477.006 44.8841 475.44 41.8258C474.507 40.3339 473.799 38.6369 473.314 36.7348C472.866 34.8327 472.643 32.7814 472.643 30.5809C472.643 26.9632 473.277 23.7184 474.545 20.8465C476.111 17.3407 478.629 14.6367 482.097 12.7346C485.566 10.7951 489.855 9.82544 494.964 9.82544C500.037 9.82544 504.307 10.7765 507.776 12.6786C511.244 14.5807 513.743 17.2474 515.272 20.6787C516.578 23.6251 517.23 26.9259 517.23 30.5809C517.23 34.3478 516.559 37.6859 515.216 40.595C513.65 44.0263 511.132 46.6743 507.664 48.5391C504.233 50.404 499.981 51.3364 494.908 51.3364ZM494.964 45.1825C498.284 45.1825 501.081 44.5671 503.356 43.3363C505.669 42.0682 507.347 40.278 508.391 37.9656C509.324 35.8397 509.79 33.3781 509.79 30.5809C509.79 27.7837 509.324 25.3221 508.391 23.1962C507.347 20.8838 505.669 19.1122 503.356 17.8815C501.081 16.6134 498.284 15.9794 494.964 15.9794C491.608 15.9794 488.773 16.6134 486.461 17.8815C484.186 19.1122 482.545 20.8838 481.538 23.1962C480.605 25.3221 480.139 27.7837 480.139 30.5809C480.139 33.3781 480.605 35.8397 481.538 37.9656C482.545 40.278 484.186 42.0682 486.461 43.3363C488.773 44.5671 491.608 45.1825 494.964 45.1825Z" fill="url(#paint8_linear_1739_34210)"/>
<path d="M543.696 51.3364C538.922 51.3364 534.876 50.5158 531.556 48.8748C528.237 47.2338 525.794 44.8841 524.227 41.8258C523.295 40.3339 522.586 38.6369 522.102 36.7348C521.654 34.8327 521.43 32.7814 521.43 30.5809C521.43 26.9632 522.064 23.7184 523.332 20.8465C524.899 17.3407 527.416 14.6367 530.885 12.7346C534.353 10.7951 538.642 9.82544 543.752 9.82544C548.824 9.82544 553.095 10.7765 556.563 12.6786C560.032 14.5807 562.531 17.2474 564.06 20.6787C565.365 23.6251 566.018 26.9259 566.018 30.5809C566.018 34.3478 565.347 37.6859 564.004 40.595C562.438 44.0263 559.92 46.6743 556.452 48.5391C553.02 50.404 548.768 51.3364 543.696 51.3364ZM543.752 45.1825C547.072 45.1825 549.869 44.5671 552.144 43.3363C554.456 42.0682 556.134 40.278 557.179 37.9656C558.111 35.8397 558.577 33.3781 558.577 30.5809C558.577 27.7837 558.111 25.3221 557.179 23.1962C556.134 20.8838 554.456 19.1122 552.144 17.8815C549.869 16.6134 547.072 15.9794 543.752 15.9794C540.395 15.9794 537.561 16.6134 535.249 17.8815C532.973 19.1122 531.332 20.8838 530.325 23.1962C529.393 25.3221 528.927 27.7837 528.927 30.5809C528.927 33.3781 529.393 35.8397 530.325 37.9656C531.332 40.278 532.973 42.0682 535.249 43.3363C537.561 44.5671 540.395 45.1825 543.752 45.1825Z" fill="url(#paint9_linear_1739_34210)"/>
<path d="M571.897 10.8324H578.891V44.3433H593.94V50.3294H571.897V10.8324Z" fill="url(#paint10_linear_1739_34210)"/>
<defs>
<linearGradient id="paint0_linear_1739_34210" x1="235.587" y1="0.212807" x2="235.587" y2="56.2128" gradientUnits="userSpaceOnUse">
<stop offset="0.111424" stop-color="white"/>
<stop offset="0.296159" stop-color="#B7CAFC" stop-opacity="0.18"/>
<stop offset="0.312723" stop-color="#BACDFF" stop-opacity="0.76"/>
<stop offset="0.491612" stop-color="#C7CFE4" stop-opacity="0"/>
<stop offset="0.757582" stop-color="#00164F" stop-opacity="0"/>
</linearGradient>
<linearGradient id="paint1_linear_1739_34210" x1="265.71" y1="-0.826172" x2="265.71" y2="25.517" gradientUnits="userSpaceOnUse">
<stop stop-color="white"/>
<stop offset="1" stop-color="#86AFCD" stop-opacity="0.32"/>
</linearGradient>
<linearGradient id="paint2_linear_1739_34210" x1="265.71" y1="-0.826172" x2="265.71" y2="25.517" gradientUnits="userSpaceOnUse">
<stop stop-color="white"/>
<stop offset="1" stop-color="#86AFCD" stop-opacity="0.32"/>
</linearGradient>
<linearGradient id="paint3_linear_1739_34210" x1="432.657" y1="19.3293" x2="432.657" y2="51.3293" gradientUnits="userSpaceOnUse">
<stop stop-color="#ADE0FF"/>
<stop offset="1" stop-color="#85D1FF"/>
</linearGradient>
<linearGradient id="paint4_linear_1739_34210" x1="432.657" y1="19.3293" x2="432.657" y2="51.3293" gradientUnits="userSpaceOnUse">
<stop stop-color="#ADE0FF"/>
<stop offset="1" stop-color="#85D1FF"/>
</linearGradient>
<linearGradient id="paint5_linear_1739_34210" x1="432.657" y1="19.3293" x2="432.657" y2="51.3293" gradientUnits="userSpaceOnUse">
<stop stop-color="#ADE0FF"/>
<stop offset="1" stop-color="#85D1FF"/>
</linearGradient>
<linearGradient id="paint6_linear_1739_34210" x1="432.657" y1="19.3293" x2="432.657" y2="51.3293" gradientUnits="userSpaceOnUse">
<stop stop-color="#ADE0FF"/>
<stop offset="1" stop-color="#85D1FF"/>
</linearGradient>
<linearGradient id="paint7_linear_1739_34210" x1="432.657" y1="19.3293" x2="432.657" y2="51.3293" gradientUnits="userSpaceOnUse">
<stop stop-color="#ADE0FF"/>
<stop offset="1" stop-color="#85D1FF"/>
</linearGradient>
<linearGradient id="paint8_linear_1739_34210" x1="432.657" y1="19.3293" x2="432.657" y2="51.3293" gradientUnits="userSpaceOnUse">
<stop stop-color="#ADE0FF"/>
<stop offset="1" stop-color="#85D1FF"/>
</linearGradient>
<linearGradient id="paint9_linear_1739_34210" x1="432.657" y1="19.3293" x2="432.657" y2="51.3293" gradientUnits="userSpaceOnUse">
<stop stop-color="#ADE0FF"/>
<stop offset="1" stop-color="#85D1FF"/>
</linearGradient>
<linearGradient id="paint10_linear_1739_34210" x1="432.657" y1="19.3293" x2="432.657" y2="51.3293" gradientUnits="userSpaceOnUse">
<stop stop-color="#ADE0FF"/>
<stop offset="1" stop-color="#85D1FF"/>
</linearGradient>
</defs>
</svg>
