<svg width="239" height="89" viewBox="0 0 239 89" fill="none" xmlns="http://www.w3.org/2000/svg">
<path d="M45.206 9.53072H50.3399V21.6879H66.6864V9.53072H71.8204V38.5272H66.6864V26.1236H50.3399V38.5272H45.206V9.53072ZM86.2028 25.9593L74.4563 9.53072H80.4938L88.7492 21.2772L97.0046 9.53072H103.001L91.2956 25.9593V38.5272H86.2028V25.9593ZM105.61 9.53072H118.712C122.299 9.53072 125.311 10.1742 127.748 11.4611C130.184 12.748 131.951 14.6373 133.046 17.129C133.922 19.1004 134.36 21.4004 134.36 24.029C134.36 26.7671 133.922 29.0671 133.046 30.929C131.951 33.4207 130.171 35.31 127.707 36.5969C125.27 37.8838 122.271 38.5272 118.712 38.5272H105.61V9.53072ZM118.178 34.1326C123.189 34.1326 126.461 32.4623 127.994 29.1218C128.596 27.7528 128.898 26.0552 128.898 24.029C128.898 22.0028 128.596 20.3052 127.994 18.9361C126.461 15.5956 123.189 13.9254 118.178 13.9254H110.744V34.1326H118.178ZM147.737 26.7808H143.794V38.5272H138.66V9.53072H152.706C155.143 9.53072 157.169 9.91405 158.785 10.6807C160.428 11.4474 161.578 12.5974 162.235 14.1307C162.728 15.1986 162.974 16.4581 162.974 17.9093C162.974 19.5248 162.714 20.8938 162.194 22.0165C161.537 23.495 160.51 24.6314 159.113 25.4254C157.744 26.2195 156.047 26.6575 154.021 26.7397L165.028 38.5272H158.456L147.737 26.7808ZM143.794 22.5915H151.433C153.076 22.5915 154.376 22.4135 155.335 22.0575C156.321 21.7016 156.991 21.1129 157.347 20.2915C157.621 19.7165 157.758 18.9635 157.758 18.0325C157.758 17.2385 157.635 16.5813 157.388 16.0611C157.005 15.2123 156.321 14.6099 155.335 14.2539C154.349 13.898 153.049 13.72 151.433 13.72H143.794V22.5915ZM189.526 31.5861H174.083L171.208 38.5272H165.704L178.108 9.53072H185.46L197.822 38.5272H192.401L189.526 31.5861ZM187.718 27.2736L181.804 12.9807H181.722L175.849 27.2736H187.718Z" fill="white"/>
<path d="M199.845 0.602097H207.706C209.858 0.602097 211.665 0.988169 213.128 1.76031C214.59 2.53246 215.649 3.66603 216.306 5.16104C216.832 6.3439 217.095 7.7239 217.095 9.30105C217.095 10.9439 216.832 12.3239 216.306 13.4411C215.649 14.9361 214.581 16.0696 213.103 16.8418C211.641 17.6139 209.842 18 207.706 18H199.845V0.602097ZM207.386 15.3632C210.392 15.3632 212.355 14.3611 213.275 12.3568C213.637 11.5353 213.818 10.5168 213.818 9.30105C213.818 8.08533 213.637 7.06676 213.275 6.24533C212.355 4.24103 210.392 3.23889 207.386 3.23889H202.925V15.3632H207.386ZM225.443 8.80819L218.42 0.602097H222.215L227.341 6.66426L232.466 0.602097H236.237L229.238 8.83283L237.05 18H233.23L227.341 11.0261L221.451 18H217.582L225.443 8.80819Z" fill="url(#paint0_linear_618_39688)"/>
<path d="M199.845 0.602097H207.706C209.858 0.602097 211.665 0.988169 213.128 1.76031C214.59 2.53246 215.649 3.66603 216.306 5.16104C216.832 6.3439 217.095 7.7239 217.095 9.30105C217.095 10.9439 216.832 12.3239 216.306 13.4411C215.649 14.9361 214.581 16.0696 213.103 16.8418C211.641 17.6139 209.842 18 207.706 18H199.845V0.602097ZM207.386 15.3632C210.392 15.3632 212.355 14.3611 213.275 12.3568C213.637 11.5353 213.818 10.5168 213.818 9.30105C213.818 8.08533 213.637 7.06676 213.275 6.24533C212.355 4.24103 210.392 3.23889 207.386 3.23889H202.925V15.3632H207.386ZM225.443 8.80819L218.42 0.602097H222.215L227.341 6.66426L232.466 0.602097H236.237L229.238 8.83283L237.05 18H233.23L227.341 11.0261L221.451 18H217.582L225.443 8.80819Z" fill="url(#paint1_linear_618_39688)"/>
<path d="M199.845 0.602097V0.313166H199.556V0.602097H199.845ZM213.128 1.76031L213.262 1.50482L213.128 1.76031ZM216.306 5.16104L216.042 5.2773L216.042 5.27838L216.306 5.16104ZM216.306 13.4411L216.045 13.318L216.042 13.3248L216.306 13.4411ZM213.103 16.8418L212.969 16.5857L212.968 16.5863L213.103 16.8418ZM199.845 18H199.556V18.2889H199.845V18ZM213.275 12.3568L213.538 12.4773L213.54 12.4731L213.275 12.3568ZM213.275 6.24533L213.54 6.12895L213.538 6.12479L213.275 6.24533ZM202.925 3.23889V2.94996H202.636V3.23889H202.925ZM202.925 15.3632H202.636V15.6521H202.925V15.3632ZM199.845 0.891028H207.706V0.313166H199.845V0.891028ZM207.706 0.891028C209.825 0.891028 211.583 1.27124 212.993 2.01581L213.262 1.50482C211.748 0.705095 209.892 0.313166 207.706 0.313166V0.891028ZM212.993 2.01581C214.398 2.75791 215.411 3.84281 216.042 5.2773L216.571 5.04477C215.887 3.48926 214.781 2.30701 213.262 1.50482L212.993 2.01581ZM216.042 5.27838C216.549 6.41715 216.806 7.7557 216.806 9.30105H217.384C217.384 7.69211 217.116 6.27064 216.571 5.04369L216.042 5.27838ZM216.806 9.30105C216.806 10.9148 216.548 12.2499 216.045 13.318L216.568 13.5641C217.117 12.3979 217.384 10.973 217.384 9.30105H216.806ZM216.042 13.3248C215.412 14.7583 214.391 15.8432 212.969 16.5857L213.237 17.0979C214.772 16.2961 215.887 15.1138 216.571 13.5573L216.042 13.3248ZM212.968 16.5863C211.558 17.331 209.808 17.7111 207.706 17.7111V18.2889C209.876 18.2889 211.724 17.8969 213.238 17.0973L212.968 16.5863ZM207.706 17.7111H199.845V18.2889H207.706V17.7111ZM200.134 18V0.602097H199.556V18H200.134ZM207.386 15.6521C210.457 15.6521 212.554 14.6219 213.538 12.4773L213.013 12.2362C212.157 14.1002 210.328 15.0743 207.386 15.0743V15.6521ZM213.54 12.4731C213.922 11.6045 214.106 10.5434 214.106 9.30105H213.529C213.529 10.4901 213.352 11.4662 213.011 12.2404L213.54 12.4731ZM214.106 9.30105C214.106 8.05867 213.922 6.99761 213.54 6.12896L213.011 6.36169C213.352 7.1359 213.529 8.112 213.529 9.30105H214.106ZM213.538 6.12479C212.554 3.98021 210.457 2.94996 207.386 2.94996V3.52782C210.328 3.52782 212.157 4.50186 213.013 6.36586L213.538 6.12479ZM207.386 2.94996H202.925V3.52782H207.386V2.94996ZM202.636 3.23889V15.3632H203.214V3.23889H202.636ZM202.925 15.6521H207.386V15.0743H202.925V15.6521ZM225.443 8.80819L225.663 8.99598L225.823 8.80812L225.663 8.62032L225.443 8.80819ZM218.42 0.602097V0.313166H217.792L218.2 0.789967L218.42 0.602097ZM222.215 0.602097L222.436 0.415545L222.349 0.313166H222.215V0.602097ZM227.341 6.66426L227.12 6.85081L227.341 7.11175L227.561 6.85081L227.341 6.66426ZM232.466 0.602097V0.313166H232.332L232.246 0.415545L232.466 0.602097ZM236.237 0.602097L236.457 0.789261L236.862 0.313166H236.237V0.602097ZM229.238 8.83283L229.018 8.64567L228.859 8.83304L229.018 9.02023L229.238 8.83283ZM237.05 18V18.2889H237.676L237.27 17.8126L237.05 18ZM233.23 18L233.01 18.1864L233.096 18.2889H233.23V18ZM227.341 11.0261L227.561 10.8396L227.341 10.5782L227.12 10.8396L227.341 11.0261ZM221.451 18V18.2889H221.585L221.672 18.1864L221.451 18ZM217.582 18L217.363 17.8122L216.955 18.2889H217.582V18ZM225.663 8.62032L218.64 0.414226L218.2 0.789967L225.224 8.99606L225.663 8.62032ZM218.42 0.891028H222.215V0.313166H218.42V0.891028ZM221.994 0.788649L227.12 6.85081L227.561 6.4777L222.436 0.415545L221.994 0.788649ZM227.561 6.85081L232.687 0.788649L232.246 0.415545L227.12 6.4777L227.561 6.85081ZM232.466 0.891028H236.237V0.313166H232.466V0.891028ZM236.017 0.414933L229.018 8.64567L229.458 9.02L236.457 0.789261L236.017 0.414933ZM229.018 9.02023L236.83 18.1874L237.27 17.8126L229.458 8.64543L229.018 9.02023ZM237.05 17.7111H233.23V18.2889H237.05V17.7111ZM233.451 17.8136L227.561 10.8396L227.12 11.2125L233.01 18.1864L233.451 17.8136ZM227.12 10.8396L221.23 17.8136L221.672 18.1864L227.561 11.2125L227.12 10.8396ZM221.451 17.7111H217.582V18.2889H221.451V17.7111ZM217.802 18.1878L225.663 8.99598L225.224 8.6204L217.363 17.8122L217.802 18.1878Z" fill="url(#paint2_linear_618_39688)"/>
<path d="M18.6036 80.7393C15.0988 80.7393 12.128 80.1369 9.69108 78.9321C7.25417 77.7274 5.46071 76.0024 4.31071 73.7571C3.62619 72.6619 3.10595 71.416 2.74999 70.0196C2.42142 68.6232 2.25713 67.1172 2.25713 65.5017C2.25713 62.8458 2.72261 60.4636 3.65357 58.3553C4.80357 55.7815 6.65179 53.7964 9.19822 52.3999C11.7447 50.9761 14.8935 50.2642 18.6447 50.2642C22.3685 50.2642 25.5036 50.9624 28.0501 52.3589C30.5965 53.7553 32.431 55.713 33.5536 58.2321C34.512 60.3952 34.9911 62.8184 34.9911 65.5017C34.9911 68.2672 34.4983 70.7178 33.5126 72.8536C32.3626 75.3726 30.5144 77.3167 27.9679 78.6857C25.4489 80.0548 22.3274 80.7393 18.6036 80.7393ZM18.6447 76.2214C21.0816 76.2214 23.1352 75.7696 24.8054 74.8661C26.503 73.9351 27.7352 72.6208 28.5018 70.9232C29.1864 69.3625 29.5286 67.5553 29.5286 65.5017C29.5286 63.4482 29.1864 61.641 28.5018 60.0803C27.7352 58.3827 26.503 57.0821 24.8054 56.1785C23.1352 55.2476 21.0816 54.7821 18.6447 54.7821C16.1804 54.7821 14.0994 55.2476 12.4018 56.1785C10.7316 57.0821 9.5268 58.3827 8.78751 60.0803C8.10298 61.641 7.76072 63.4482 7.76072 65.5017C7.76072 67.5553 8.10298 69.3625 8.78751 70.9232C9.5268 72.6208 10.7316 73.9351 12.4018 74.8661C14.0994 75.7696 16.1804 76.2214 18.6447 76.2214ZM39.3075 51.0035H45.6325L56.4343 72.525L67.4415 51.0035H73.6433V80H68.7558V57.9446L57.6254 80H55.2843L44.195 57.9446V80H39.3075V51.0035ZM79.1758 51.0035H84.8026L101.642 73.4286V51.0035H106.694V80H100.903L84.2276 57.7392V80H79.1758V51.0035ZM112.266 51.0035H117.4V80H112.266V51.0035ZM122.975 51.0035H136.282C141.347 51.0035 144.565 52.5231 145.934 55.5624C146.454 56.6851 146.714 58.0678 146.714 59.7107C146.714 61.4083 146.454 62.791 145.934 63.8589C144.565 66.9256 141.347 68.4589 136.282 68.4589H128.109V80H122.975V51.0035ZM135.173 64.1464C136.871 64.1464 138.185 63.9958 139.116 63.6946C140.074 63.366 140.745 62.7773 141.128 61.9285C141.375 61.2988 141.498 60.5869 141.498 59.7928C141.498 58.8619 141.361 58.1089 141.087 57.5339C140.704 56.6851 140.033 56.0964 139.075 55.7678C138.116 55.4392 136.816 55.2749 135.173 55.2749H128.109V64.1464H135.173ZM165.202 80.7393C161.697 80.7393 158.726 80.1369 156.289 78.9321C153.852 77.7274 152.059 76.0024 150.909 73.7571C150.224 72.6619 149.704 71.416 149.348 70.0196C149.02 68.6232 148.855 67.1172 148.855 65.5017C148.855 62.8458 149.321 60.4636 150.252 58.3553C151.402 55.7815 153.25 53.7964 155.796 52.3999C158.343 50.9761 161.492 50.2642 165.243 50.2642C168.967 50.2642 172.102 50.9624 174.648 52.3589C177.195 53.7553 179.029 55.713 180.152 58.2321C181.11 60.3952 181.589 62.8184 181.589 65.5017C181.589 68.2672 181.096 70.7178 180.111 72.8536C178.961 75.3726 177.112 77.3167 174.566 78.6857C172.047 80.0548 168.926 80.7393 165.202 80.7393ZM165.243 76.2214C167.68 76.2214 169.733 75.7696 171.404 74.8661C173.101 73.9351 174.333 72.6208 175.1 70.9232C175.784 69.3625 176.127 67.5553 176.127 65.5017C176.127 63.4482 175.784 61.641 175.1 60.0803C174.333 58.3827 173.101 57.0821 171.404 56.1785C169.733 55.2476 167.68 54.7821 165.243 54.7821C162.778 54.7821 160.698 55.2476 159 56.1785C157.33 57.0821 156.125 58.3827 155.386 60.0803C154.701 61.641 154.359 63.4482 154.359 65.5017C154.359 67.5553 154.701 69.3625 155.386 70.9232C156.125 72.6208 157.33 73.9351 159 74.8661C160.698 75.7696 162.778 76.2214 165.243 76.2214ZM201.019 80.7393C197.514 80.7393 194.543 80.1369 192.106 78.9321C189.67 77.7274 187.876 76.0024 186.726 73.7571C186.042 72.6619 185.521 71.416 185.165 70.0196C184.837 68.6232 184.673 67.1172 184.673 65.5017C184.673 62.8458 185.138 60.4636 186.069 58.3553C187.219 55.7815 189.067 53.7964 191.614 52.3999C194.16 50.9761 197.309 50.2642 201.06 50.2642C204.784 50.2642 207.919 50.9624 210.465 52.3589C213.012 53.7553 214.846 55.713 215.969 58.2321C216.927 60.3952 217.407 62.8184 217.407 65.5017C217.407 68.2672 216.914 70.7178 215.928 72.8536C214.778 75.3726 212.93 77.3167 210.383 78.6857C207.864 80.0548 204.743 80.7393 201.019 80.7393ZM201.06 76.2214C203.497 76.2214 205.551 75.7696 207.221 74.8661C208.918 73.9351 210.151 72.6208 210.917 70.9232C211.602 69.3625 211.944 67.5553 211.944 65.5017C211.944 63.4482 211.602 61.641 210.917 60.0803C210.151 58.3827 208.918 57.0821 207.221 56.1785C205.551 55.2476 203.497 54.7821 201.06 54.7821C198.596 54.7821 196.515 55.2476 194.817 56.1785C193.147 57.0821 191.942 58.3827 191.203 60.0803C190.518 61.641 190.176 63.4482 190.176 65.5017C190.176 67.5553 190.518 69.3625 191.203 70.9232C191.942 72.6208 193.147 73.9351 194.817 74.8661C196.515 75.7696 198.596 76.2214 201.06 76.2214ZM221.723 51.0035H226.857V75.6053H237.905V80H221.723V51.0035Z" fill="url(#paint3_linear_618_39688)"/>
<defs>
<linearGradient id="paint0_linear_618_39688" x1="240.27" y1="-0.760742" x2="240.27" y2="18.5262" gradientUnits="userSpaceOnUse">
<stop stop-color="white"/>
<stop offset="1" stop-color="#0094FF" stop-opacity="0"/>
</linearGradient>
<linearGradient id="paint1_linear_618_39688" x1="240.27" y1="-0.760742" x2="240.27" y2="18.5262" gradientUnits="userSpaceOnUse">
<stop stop-color="white"/>
<stop offset="1" stop-color="#86AFCD" stop-opacity="0.32"/>
</linearGradient>
<linearGradient id="paint2_linear_618_39688" x1="217.956" y1="0" x2="217.956" y2="41" gradientUnits="userSpaceOnUse">
<stop stop-color="white"/>
<stop offset="0.296159" stop-color="#B7CAFC" stop-opacity="0.18"/>
<stop offset="0.312723" stop-color="#BACDFF" stop-opacity="0.76"/>
<stop offset="0.491612" stop-color="#00164F" stop-opacity="0"/>
<stop offset="0.757582" stop-color="#00164F" stop-opacity="0"/>
</linearGradient>
<linearGradient id="paint3_linear_618_39688" x1="119.5" y1="48" x2="119.5" y2="89" gradientUnits="userSpaceOnUse">
<stop stop-color="#ADE0FF"/>
<stop offset="1" stop-color="#85D1FF"/>
</linearGradient>
</defs>
</svg>
