<svg width="263" height="81" viewBox="0 0 263 81" fill="none" xmlns="http://www.w3.org/2000/svg">
<path d="M37.1621 9.69686H42.296V21.854H58.6425V9.69686H63.7764V38.6934H58.6425V26.2898H42.296V38.6934H37.1621V9.69686ZM78.1588 26.1255L66.4124 9.69686H72.4499L80.7053 21.4433L88.9606 9.69686H94.9571L83.2517 26.1255V38.6934H78.1588V26.1255ZM97.5661 9.69686H110.668C114.255 9.69686 117.267 10.3403 119.704 11.6272C122.141 12.9141 123.907 14.8034 125.002 17.2951C125.878 19.2665 126.316 21.5665 126.316 24.1951C126.316 26.9332 125.878 29.2332 125.002 31.0951C123.907 33.5868 122.127 35.4761 119.663 36.763C117.226 38.0499 114.227 38.6934 110.668 38.6934H97.5661V9.69686ZM110.134 34.2987C115.145 34.2987 118.417 32.6285 119.95 29.288C120.552 27.9189 120.854 26.2213 120.854 24.1951C120.854 22.1689 120.552 20.4713 119.95 19.1022C118.417 15.7618 115.145 14.0915 110.134 14.0915H102.7V34.2987H110.134ZM139.693 26.9469H135.75V38.6934H130.616V9.69686H144.662C147.099 9.69686 149.125 10.0802 150.741 10.8469C152.384 11.6135 153.534 12.7635 154.191 14.2969C154.684 15.3647 154.93 16.6243 154.93 18.0754C154.93 19.6909 154.67 21.06 154.15 22.1826C153.493 23.6612 152.466 24.7975 151.069 25.5915C149.7 26.3856 148.003 26.8237 145.977 26.9058L156.984 38.6934H150.412L139.693 26.9469ZM135.75 22.7576H143.389C145.032 22.7576 146.333 22.5796 147.291 22.2237C148.277 21.8677 148.947 21.279 149.303 20.4576C149.577 19.8826 149.714 19.1296 149.714 18.1987C149.714 17.4046 149.591 16.7475 149.344 16.2272C148.961 15.3784 148.277 14.776 147.291 14.4201C146.305 14.0641 145.005 13.8862 143.389 13.8862H135.75V22.7576ZM181.482 31.7523H166.039L163.164 38.6934H157.66L170.064 9.69686H177.416L189.778 38.6934H184.357L181.482 31.7523ZM179.674 27.4398L173.76 13.1469H173.678L167.805 27.4398H179.674Z" fill="white"/>
<path d="M191.803 0.768112H199.664C201.816 0.768112 203.623 1.15418 205.085 1.92633C206.547 2.69847 207.607 3.83205 208.264 5.32705C208.79 6.50991 209.053 7.88992 209.053 9.46706C209.053 11.1099 208.79 12.4899 208.264 13.6071C207.607 15.1021 206.539 16.2357 205.061 17.0078C203.599 17.7799 201.8 18.166 199.664 18.166H191.803V0.768112ZM199.343 15.5292C202.35 15.5292 204.313 14.5271 205.233 12.5228C205.595 11.7014 205.775 10.6828 205.775 9.46706C205.775 8.25135 205.595 7.23277 205.233 6.41134C204.313 4.40705 202.35 3.4049 199.343 3.4049H194.883V15.5292H199.343ZM217.401 8.97421L210.378 0.768112H214.173L219.298 6.83027L224.424 0.768112H228.195L221.196 8.99885L229.008 18.166H225.188L219.298 11.1921L213.409 18.166H209.54L217.401 8.97421Z" fill="url(#paint0_linear_924_30611)"/>
<path d="M191.803 0.768112H199.664C201.816 0.768112 203.623 1.15418 205.085 1.92633C206.547 2.69847 207.607 3.83205 208.264 5.32705C208.79 6.50991 209.053 7.88992 209.053 9.46706C209.053 11.1099 208.79 12.4899 208.264 13.6071C207.607 15.1021 206.539 16.2357 205.061 17.0078C203.599 17.7799 201.8 18.166 199.664 18.166H191.803V0.768112ZM199.343 15.5292C202.35 15.5292 204.313 14.5271 205.233 12.5228C205.595 11.7014 205.775 10.6828 205.775 9.46706C205.775 8.25135 205.595 7.23277 205.233 6.41134C204.313 4.40705 202.35 3.4049 199.343 3.4049H194.883V15.5292H199.343ZM217.401 8.97421L210.378 0.768112H214.173L219.298 6.83027L224.424 0.768112H228.195L221.196 8.99885L229.008 18.166H225.188L219.298 11.1921L213.409 18.166H209.54L217.401 8.97421Z" fill="url(#paint1_linear_924_30611)"/>
<path d="M191.803 0.768112V0.479182H191.514V0.768112H191.803ZM205.085 1.92633L205.22 1.67084L205.22 1.67084L205.085 1.92633ZM208.264 5.32705L208 5.44332L208 5.4444L208.264 5.32705ZM208.264 13.6071L208.003 13.484L208 13.4908L208.264 13.6071ZM205.061 17.0078L204.927 16.7517L204.926 16.7523L205.061 17.0078ZM191.803 18.166H191.514V18.4549H191.803V18.166ZM205.233 12.5228L205.496 12.6433L205.498 12.6391L205.233 12.5228ZM205.233 6.41134L205.498 6.29496L205.496 6.29081L205.233 6.41134ZM194.883 3.4049V3.11597H194.594V3.4049H194.883ZM194.883 15.5292H194.594V15.8182H194.883V15.5292ZM191.803 1.05704H199.664V0.479182H191.803V1.05704ZM199.664 1.05704C201.783 1.05704 203.54 1.43726 204.95 2.18182L205.22 1.67084C203.706 0.871111 201.849 0.479182 199.664 0.479182V1.05704ZM204.95 2.18182C206.356 2.92393 207.369 4.00883 208 5.44332L208.529 5.21079C207.845 3.65527 206.739 2.47302 205.22 1.67084L204.95 2.18182ZM208 5.4444C208.506 6.58317 208.764 7.92171 208.764 9.46706H209.342C209.342 7.85812 209.074 6.43666 208.528 5.20971L208 5.4444ZM208.764 9.46706C208.764 11.0808 208.505 12.4159 208.003 13.484L208.526 13.7301C209.074 12.564 209.342 11.1391 209.342 9.46706H208.764ZM208 13.4908C207.37 14.9243 206.349 16.0092 204.927 16.7517L205.194 17.2639C206.73 16.4621 207.845 15.2798 208.529 13.7233L208 13.4908ZM204.926 16.7523C203.516 17.497 201.766 17.8771 199.664 17.8771V18.4549C201.833 18.4549 203.681 18.0629 205.196 17.2633L204.926 16.7523ZM199.664 17.8771H191.803V18.4549H199.664V17.8771ZM192.092 18.166V0.768112H191.514V18.166H192.092ZM199.343 15.8182C202.415 15.8182 204.511 14.7879 205.496 12.6433L204.971 12.4023C204.115 14.2663 202.285 15.2403 199.343 15.2403V15.8182ZM205.498 12.6391C205.88 11.7705 206.064 10.7094 206.064 9.46706H205.486C205.486 10.6561 205.309 11.6322 204.969 12.4064L205.498 12.6391ZM206.064 9.46706C206.064 8.22468 205.88 7.16363 205.498 6.29498L204.969 6.52771C205.309 7.30192 205.486 8.27801 205.486 9.46706H206.064ZM205.496 6.29081C204.511 4.14622 202.415 3.11597 199.343 3.11597V3.69384C202.285 3.69384 204.115 4.66788 204.971 6.53187L205.496 6.29081ZM199.343 3.11597H194.883V3.69384H199.343V3.11597ZM194.594 3.4049V15.5292H195.172V3.4049H194.594ZM194.883 15.8182H199.343V15.2403H194.883V15.8182ZM217.401 8.97421L217.621 9.162L217.781 8.97414L217.62 8.78633L217.401 8.97421ZM210.378 0.768112V0.479182H209.75L210.158 0.955983L210.378 0.768112ZM214.173 0.768112L214.393 0.58156L214.307 0.479182H214.173V0.768112ZM219.298 6.83027L219.078 7.01682L219.298 7.27777L219.519 7.01682L219.298 6.83027ZM224.424 0.768112V0.479182H224.29L224.204 0.58156L224.424 0.768112ZM228.195 0.768112L228.415 0.955276L228.82 0.479182H228.195V0.768112ZM221.196 8.99885L220.976 8.81168L220.817 8.99905L220.976 9.18625L221.196 8.99885ZM229.008 18.166V18.4549H229.634L229.228 17.9786L229.008 18.166ZM225.188 18.166L224.967 18.3524L225.054 18.4549H225.188V18.166ZM219.298 11.1921L219.519 11.0056L219.298 10.7443L219.078 11.0056L219.298 11.1921ZM213.409 18.166V18.4549H213.543L213.63 18.3524L213.409 18.166ZM209.54 18.166L209.32 17.9782L208.913 18.4549H209.54V18.166ZM217.62 8.78633L210.597 0.580242L210.158 0.955983L217.181 9.16208L217.62 8.78633ZM210.378 1.05704H214.173V0.479182H210.378V1.05704ZM213.952 0.954665L219.078 7.01682L219.519 6.64372L214.393 0.58156L213.952 0.954665ZM219.519 7.01682L224.645 0.954665L224.204 0.58156L219.078 6.64372L219.519 7.01682ZM224.424 1.05704H228.195V0.479182H224.424V1.05704ZM227.974 0.580949L220.976 8.81168L221.416 9.18601L228.415 0.955276L227.974 0.580949ZM220.976 9.18625L228.788 18.3534L229.228 17.9786L221.416 8.81145L220.976 9.18625ZM229.008 17.8771H225.188V18.4549H229.008V17.8771ZM225.409 17.9796L219.519 11.0056L219.078 11.3785L224.967 18.3524L225.409 17.9796ZM219.078 11.0056L213.188 17.9796L213.63 18.3524L219.519 11.3785L219.078 11.0056ZM213.409 17.8771H209.54V18.4549H213.409V17.8771ZM209.759 18.3538L217.621 9.162L217.181 8.78641L209.32 17.9782L209.759 18.3538Z" fill="url(#paint2_linear_924_30611)"/>
<path d="M0.814453 46.6354H15.5912C21.2161 46.6354 24.7887 48.3229 26.3089 51.6978C26.8866 52.9444 27.1754 54.4798 27.1754 56.3041C27.1754 58.1892 26.8866 59.7247 26.3089 60.9105C24.7887 64.3158 21.2161 66.0185 15.5912 66.0185H6.51536V78.8341H0.814453V46.6354ZM14.3598 61.2297C16.2449 61.2297 17.7043 61.0625 18.7381 60.728C19.8023 60.3632 20.5472 59.7095 20.9729 58.7669C21.2465 58.0676 21.3833 57.2771 21.3833 56.3953C21.3833 55.3616 21.2313 54.5254 20.9272 53.8869C20.5016 52.9444 19.7567 52.2907 18.6925 51.9258C17.6283 51.561 16.1841 51.3785 14.3598 51.3785H6.51536V61.2297H14.3598Z" fill="#FC408C"/>
<path d="M41.3579 65.7904H36.9796V78.8341H31.2787V46.6354H46.8763C49.5824 46.6354 51.8323 47.0611 53.6262 47.9124C55.4505 48.7637 56.7275 50.0407 57.4572 51.7434C58.0045 52.9292 58.2781 54.3278 58.2781 55.9393C58.2781 57.7331 57.9893 59.2534 57.4116 60.5C56.6819 62.1418 55.5417 63.4036 53.9911 64.2854C52.4708 65.1671 50.5857 65.6536 48.3358 65.7448L60.5585 78.8341H53.2614L41.3579 65.7904ZM36.9796 61.1385H45.4625C47.2868 61.1385 48.731 60.9409 49.7952 60.5456C50.8898 60.1503 51.6347 59.4966 52.03 58.5845C52.334 57.946 52.486 57.1098 52.486 56.0761C52.486 55.1943 52.3492 54.4646 52.0756 53.8869C51.6499 52.9444 50.8898 52.2755 49.7952 51.8802C48.7006 51.485 47.2564 51.2873 45.4625 51.2873H36.9796V61.1385Z" fill="#FC408C"/>
<path d="M79.8169 79.655C75.9251 79.655 72.6261 78.9861 69.9201 77.6483C67.2141 76.3105 65.2226 74.395 63.9456 71.9018C63.1854 70.6856 62.6078 69.3022 62.2125 67.7515C61.8476 66.2009 61.6652 64.5286 61.6652 62.7347C61.6652 59.7855 62.1821 57.1403 63.2158 54.7991C64.4928 51.941 66.5452 49.7367 69.3728 48.186C72.2005 46.605 75.697 45.8145 79.8625 45.8145C83.9975 45.8145 87.4789 46.5898 90.3065 48.1404C93.1342 49.6911 95.1713 51.865 96.4179 54.6623C97.4821 57.0642 98.0142 59.7551 98.0142 62.7347C98.0142 65.8056 97.4669 68.5269 96.3723 70.8984C95.0953 73.6957 93.043 75.8544 90.2153 77.3747C87.4181 78.8949 83.9519 79.655 79.8169 79.655ZM79.8625 74.6382C82.5685 74.6382 84.8489 74.1366 86.7036 73.1332C88.5887 72.0994 89.9569 70.64 90.8082 68.7549C91.5683 67.0218 91.9484 65.0151 91.9484 62.7347C91.9484 60.4544 91.5683 58.4477 90.8082 56.7146C89.9569 54.8295 88.5887 53.3853 86.7036 52.3819C84.8489 51.3481 82.5685 50.8313 79.8625 50.8313C77.1261 50.8313 74.8153 51.3481 72.9302 52.3819C71.0755 53.3853 69.7377 54.8295 68.9167 56.7146C68.1566 58.4477 67.7766 60.4544 67.7766 62.7347C67.7766 65.0151 68.1566 67.0218 68.9167 68.7549C69.7377 70.64 71.0755 72.0994 72.9302 73.1332C74.8153 74.1366 77.1261 74.6382 79.8625 74.6382Z" fill="#FC408C"/>
<path d="M108.536 51.5154H98.9584V46.6354H123.769V51.5154H114.237V78.8341H108.536V51.5154Z" fill="#FC408C"/>
<path d="M142.794 79.655C138.902 79.655 135.603 78.9861 132.897 77.6483C130.191 76.3105 128.2 74.395 126.923 71.9018C126.163 70.6856 125.585 69.3022 125.19 67.7515C124.825 66.2009 124.642 64.5286 124.642 62.7347C124.642 59.7855 125.159 57.1403 126.193 54.7991C127.47 51.941 129.522 49.7367 132.35 48.186C135.178 46.605 138.674 45.8145 142.84 45.8145C146.975 45.8145 150.456 46.5898 153.284 48.1404C156.111 49.6911 158.149 51.865 159.395 54.6623C160.459 57.0642 160.991 59.7551 160.991 62.7347C160.991 65.8056 160.444 68.5269 159.349 70.8984C158.072 73.6957 156.02 75.8544 153.193 77.3747C150.395 78.8949 146.929 79.655 142.794 79.655ZM142.84 74.6382C145.546 74.6382 147.826 74.1366 149.681 73.1332C151.566 72.0994 152.934 70.64 153.785 68.7549C154.546 67.0218 154.926 65.0151 154.926 62.7347C154.926 60.4544 154.546 58.4477 153.785 56.7146C152.934 54.8295 151.566 53.3853 149.681 52.3819C147.826 51.3481 145.546 50.8313 142.84 50.8313C140.103 50.8313 137.792 51.3481 135.907 52.3819C134.053 53.3853 132.715 54.8295 131.894 56.7146C131.134 58.4477 130.754 60.4544 130.754 62.7347C130.754 65.0151 131.134 67.0218 131.894 68.7549C132.715 70.64 134.053 72.0994 135.907 73.1332C137.792 74.1366 140.103 74.6382 142.84 74.6382Z" fill="#FC408C"/>
<path d="M182.612 79.655C178.447 79.655 174.95 78.8797 172.123 77.3291C169.295 75.7784 167.243 73.5589 165.966 70.6704C164.932 68.39 164.415 65.7448 164.415 62.7347C164.415 59.7855 164.932 57.1403 165.966 54.7991C167.243 51.941 169.31 49.7367 172.168 48.186C175.026 46.605 178.508 45.8145 182.612 45.8145C185.258 45.8145 187.705 46.1793 189.955 46.909C192.205 47.6083 194.105 48.6573 195.656 50.0559C196.903 51.2417 197.876 52.6099 198.575 54.1606C199.274 55.6808 199.654 57.3379 199.715 59.1318H193.741C193.528 56.8514 192.631 54.9967 191.05 53.5677C190.046 52.6555 188.815 51.9714 187.356 51.5154C185.927 51.0289 184.33 50.7856 182.567 50.7856C179.861 50.7856 177.565 51.3025 175.68 52.3363C173.825 53.3396 172.472 54.7839 171.621 56.669C170.891 58.3412 170.526 60.3632 170.526 62.7347C170.526 65.1975 170.891 67.2195 171.621 68.8005C172.472 70.716 173.841 72.1754 175.726 73.1788C177.611 74.1822 179.891 74.6838 182.567 74.6838C184.391 74.6838 186.048 74.4558 187.538 73.9997C189.028 73.5133 190.274 72.8139 191.278 71.9018C192.859 70.5336 193.71 68.6637 193.832 66.2921H199.806C199.746 68.1772 199.365 69.8951 198.666 71.4457C197.967 72.966 196.994 74.2886 195.747 75.4136C194.227 76.8122 192.327 77.8763 190.046 78.6061C187.796 79.3054 185.318 79.655 182.612 79.655Z" fill="#FC408C"/>
<path d="M221.226 79.655C217.334 79.655 214.035 78.9861 211.329 77.6483C208.623 76.3105 206.632 74.395 205.355 71.9018C204.595 70.6856 204.017 69.3022 203.622 67.7515C203.257 66.2009 203.074 64.5286 203.074 62.7347C203.074 59.7855 203.591 57.1403 204.625 54.7991C205.902 51.941 207.954 49.7367 210.782 48.186C213.61 46.605 217.106 45.8145 221.272 45.8145C225.407 45.8145 228.888 46.5898 231.716 48.1404C234.543 49.6911 236.58 51.865 237.827 54.6623C238.891 57.0642 239.423 59.7551 239.423 62.7347C239.423 65.8056 238.876 68.5269 237.781 70.8984C236.504 73.6957 234.452 75.8544 231.624 77.3747C228.827 78.8949 225.361 79.655 221.226 79.655ZM221.272 74.6382C223.978 74.6382 226.258 74.1366 228.113 73.1332C229.998 72.0994 231.366 70.64 232.217 68.7549C232.978 67.0218 233.358 65.0151 233.358 62.7347C233.358 60.4544 232.978 58.4477 232.217 56.7146C231.366 54.8295 229.998 53.3853 228.113 52.3819C226.258 51.3481 223.978 50.8313 221.272 50.8313C218.535 50.8313 216.224 51.3481 214.339 52.3819C212.485 53.3853 211.147 54.8295 210.326 56.7146C209.566 58.4477 209.186 60.4544 209.186 62.7347C209.186 65.0151 209.566 67.0218 210.326 68.7549C211.147 70.64 212.485 72.0994 214.339 73.1332C216.224 74.1366 218.535 74.6382 221.272 74.6382Z" fill="#FC408C"/>
<path d="M244.216 46.6354H249.917V73.9541H262.186V78.8341H244.216V46.6354Z" fill="#FC408C"/>
<path fill-rule="evenodd" clip-rule="evenodd" d="M0 46.6353C0 46.1856 0.364626 45.8209 0.814415 45.8209H15.5912C21.346 45.8209 25.3338 47.5552 27.0496 51.3592C27.6893 52.7414 27.9898 54.4002 27.9898 56.3041C27.9898 58.2574 27.6928 59.9227 27.047 61.2547C25.3309 65.0835 21.3455 66.8328 15.5912 66.8328H7.32973V78.8341C7.32973 79.2838 6.96511 79.6485 6.51532 79.6485H0.814415C0.364626 79.6485 0 79.2838 0 78.8341V46.6353ZM6.51532 66.0184H15.5912C21.2161 66.0184 24.7886 64.3158 26.3089 60.9104C26.8866 59.7246 27.1754 58.1892 27.1754 56.3041C27.1754 54.4798 26.8866 52.9443 26.3089 51.6977C24.7886 48.3228 21.2161 46.6353 15.5912 46.6353H0.814415V78.8341H6.51532V66.0184ZM20.1919 54.237L20.185 54.2221C19.8605 53.5035 19.3007 52.9953 18.4283 52.6962C17.4854 52.3729 16.1428 52.1929 14.3598 52.1929H7.32973V60.4152H14.3598C16.208 60.4152 17.5662 60.2498 18.4806 59.9553C19.3416 59.6585 19.8972 59.1572 20.2221 58.4503C20.4479 57.8649 20.5689 57.184 20.5689 56.3953C20.5689 55.4311 20.4255 54.7276 20.1919 54.237ZM20.9728 58.7669C20.5471 59.7094 19.8022 60.3631 18.7381 60.728C17.7043 61.0624 16.2449 61.2297 14.3598 61.2297H6.51532V51.3785H14.3598C16.1841 51.3785 17.6283 51.5609 18.6925 51.9258C19.7566 52.2906 20.5015 52.9443 20.9272 53.8869C21.2313 54.5254 21.3833 55.3615 21.3833 56.3953C21.3833 57.277 21.2465 58.0676 20.9728 58.7669ZM53.2613 78.8341L41.3578 65.7904H36.9795V78.8341H31.2786V46.6353H46.8763C49.5823 46.6353 51.8323 47.061 53.6262 47.9123C55.4505 48.7637 56.7275 50.0407 57.4572 51.7434C58.0045 52.9291 58.2781 54.3278 58.2781 55.9392C58.2781 57.7331 57.9893 59.2533 57.4116 60.4999C56.6819 62.1418 55.5417 63.4036 53.991 64.2853C52.7125 65.0269 51.176 65.4889 49.3814 65.6713C49.0421 65.7058 48.6935 65.7303 48.3357 65.7448L60.5585 78.8341H53.2613ZM50.0698 66.4085L61.1537 78.2782C61.3751 78.5153 61.4347 78.8611 61.3055 79.1585C61.1762 79.456 60.8828 79.6485 60.5585 79.6485H53.2613C53.0324 79.6485 52.8141 79.5521 52.6597 79.383L40.9985 66.6048H37.7939V78.8341C37.7939 79.2838 37.4293 79.6485 36.9795 79.6485H31.2786C30.8288 79.6485 30.4642 79.2838 30.4642 78.8341V46.6353C30.4642 46.1856 30.8288 45.8209 31.2786 45.8209H46.8763C49.6606 45.8209 52.0383 46.2579 53.973 47.1755C55.9568 48.1018 57.3852 49.5149 58.2013 51.4122C58.8049 52.7247 59.0925 54.2412 59.0925 55.9392C59.0925 57.8141 58.7915 59.4564 58.1532 60.8366C57.3537 62.6323 56.0964 64.0242 54.3968 64.9915C53.1513 65.7133 51.7039 66.1799 50.0698 66.4085ZM49.5186 59.7796C50.4412 59.4464 50.992 58.9314 51.2826 58.2606C51.2849 58.2554 51.2872 58.2502 51.2896 58.245C51.2912 58.2414 51.2929 58.2379 51.2946 58.2343C51.5282 57.7437 51.6716 57.0402 51.6716 56.076C51.6716 55.2718 51.5458 54.6711 51.3395 54.2355L51.3333 54.2221C51.01 53.5062 50.4345 52.9769 49.5186 52.6462C48.5472 52.2954 47.2075 52.1017 45.4625 52.1017H37.7939V60.324H45.4625C47.2415 60.324 48.5764 60.1295 49.5116 59.7821L49.5186 59.7796ZM45.4625 61.1384C47.2868 61.1384 48.731 60.9408 49.7952 60.5456C50.8897 60.1503 51.6347 59.4966 52.0299 58.5844C52.334 57.9459 52.486 57.1098 52.486 56.076C52.486 55.1943 52.3492 54.4646 52.0755 53.8869C51.6499 52.9443 50.8897 52.2754 49.7952 51.8802C48.7006 51.4849 47.2564 51.2873 45.4625 51.2873H36.9795V61.1384H45.4625ZM61.4233 67.9527L61.4197 67.938C61.0388 66.3191 60.8507 64.5836 60.8507 62.7347C60.8507 59.6893 61.3848 56.9295 62.4708 54.4701L62.4722 54.4668C63.8237 51.4422 66.0014 49.1067 68.9784 47.4734C71.9569 45.8089 75.5981 45 79.8625 45C84.0967 45 87.7212 45.7938 90.6981 47.4263C93.673 49.0577 95.8387 51.3619 97.1618 54.3307L97.1625 54.3323C98.2785 56.8513 98.8285 59.6566 98.8285 62.7347C98.8285 65.9023 98.2638 68.7428 97.1124 71.2382C95.7584 74.2033 93.5782 76.4908 90.6028 78.091C87.656 79.6921 84.0477 80.4694 79.8168 80.4694C75.8348 80.4694 72.405 79.7853 69.5591 78.3783C66.7204 76.9749 64.6001 74.9499 63.2365 72.3039C62.4362 71.016 61.8338 69.5631 61.4233 67.9527ZM63.9455 71.9018C63.1854 70.6856 62.6077 69.3021 62.2125 67.7515C61.8476 66.2009 61.6652 64.5286 61.6652 62.7347C61.6652 59.7854 62.182 57.1402 63.2158 54.799C64.4928 51.941 66.5451 49.7366 69.3728 48.186C72.2004 46.6049 75.697 45.8144 79.8625 45.8144C83.9975 45.8144 87.4789 46.5897 90.3065 48.1404C93.1342 49.691 95.1713 51.865 96.4179 54.6622C97.4821 57.0642 98.0141 59.755 98.0141 62.7347C98.0141 65.8056 97.4668 68.5268 96.3723 70.8984C95.0953 73.6956 93.0429 75.8544 90.2153 77.3746C87.4181 78.8949 83.9519 79.655 79.8168 79.655C75.925 79.655 72.6261 78.9861 69.9201 77.6483C67.214 76.3105 65.2225 74.395 63.9455 71.9018ZM86.3209 53.1008L86.307 53.0932C84.6024 52.1431 82.467 51.6456 79.8625 51.6456C77.2264 51.6456 75.0584 52.1436 73.3217 53.0959L73.3177 53.0982C71.6186 54.0173 70.4097 55.326 69.6634 57.0397L69.6625 57.0417C68.9559 58.6527 68.591 60.5443 68.591 62.7347C68.591 64.9251 68.9559 66.8167 69.6625 68.4277L69.6634 68.4297C70.4096 70.1432 71.6191 71.4682 73.3197 72.4179C75.0573 73.341 77.2264 73.8238 79.8625 73.8238C82.4693 73.8238 84.6074 73.3406 86.3137 72.4181C88.0482 71.4665 89.2887 70.1386 90.0642 68.4236C90.7696 66.8135 91.134 64.9232 91.134 62.7347C91.134 60.5462 90.7696 58.6559 90.0642 57.0458C89.2894 55.3324 88.0512 54.0218 86.3209 53.1008ZM90.8082 56.7145C91.5683 58.4476 91.9484 60.4543 91.9484 62.7347C91.9484 65.0151 91.5683 67.0218 90.8082 68.7549C89.9569 70.64 88.5886 72.0994 86.7035 73.1332C84.8488 74.1365 82.5685 74.6382 79.8625 74.6382C77.126 74.6382 74.8152 74.1365 72.9301 73.1332C71.0755 72.0994 69.7376 70.64 68.9167 68.7549C68.1566 67.0218 67.7765 65.0151 67.7765 62.7347C67.7765 60.4543 68.1566 58.4476 68.9167 56.7145C69.7376 54.8294 71.0755 53.3852 72.9301 52.3819C74.8152 51.3481 77.126 50.8312 79.8625 50.8312C82.5685 50.8312 84.8488 51.3481 86.7035 52.3819C88.5886 53.3852 89.9569 54.8294 90.8082 56.7145ZM98.9583 52.3297C98.5086 52.3297 98.1439 51.9651 98.1439 51.5153V46.6353C98.1439 46.1856 98.5086 45.8209 98.9583 45.8209H123.769C124.218 45.8209 124.583 46.1856 124.583 46.6353V51.5153C124.583 51.9651 124.218 52.3297 123.769 52.3297H115.051V78.8341C115.051 79.2838 114.687 79.6485 114.237 79.6485H108.536C108.086 79.6485 107.721 79.2838 107.721 78.8341V52.3297H98.9583ZM108.536 51.5153V78.8341H114.237V51.5153H123.769V46.6353H98.9583V51.5153H108.536ZM124.4 67.9527L124.397 67.938C124.016 66.3191 123.828 64.5836 123.828 62.7347C123.828 59.6893 124.362 56.9295 125.448 54.4701L125.449 54.4668C126.801 51.4423 128.978 49.1068 131.955 47.4736C134.934 45.809 138.575 45 142.84 45C147.074 45 150.698 45.7938 153.675 47.4263C156.65 49.0577 158.816 51.3619 160.139 54.3307L160.14 54.3323C161.256 56.8513 161.806 59.6566 161.806 62.7347C161.806 65.9026 161.241 68.7433 160.089 71.2388C158.735 74.204 156.555 76.4916 153.579 78.0916C150.632 79.6923 147.024 80.4694 142.794 80.4694C138.812 80.4694 135.382 79.7853 132.536 78.3783C129.698 76.9749 127.577 74.9498 126.214 72.3038C125.413 71.016 124.811 69.5631 124.4 67.9527ZM126.923 71.9018C126.163 70.6856 125.585 69.3021 125.19 67.7515C124.825 66.2009 124.642 64.5286 124.642 62.7347C124.642 59.7854 125.159 57.1402 126.193 54.799C127.47 51.941 129.522 49.7366 132.35 48.186C135.178 46.6049 138.674 45.8144 142.84 45.8144C146.975 45.8144 150.456 46.5897 153.284 48.1404C156.111 49.691 158.148 51.865 159.395 54.6622C160.459 57.0642 160.991 59.755 160.991 62.7347C160.991 65.8056 160.444 68.5268 159.349 70.8984C158.072 73.6956 156.02 75.8544 153.192 77.3746C150.395 78.8949 146.929 79.655 142.794 79.655C138.902 79.655 135.603 78.9861 132.897 77.6483C130.191 76.3105 128.2 74.395 126.923 71.9018ZM149.298 53.1008L149.284 53.0932C147.58 52.1431 145.444 51.6456 142.84 51.6456C140.204 51.6456 138.036 52.1436 136.299 53.0959L136.295 53.0982C134.596 54.0173 133.387 55.326 132.641 57.0397L132.64 57.0417C131.933 58.6527 131.568 60.5443 131.568 62.7347C131.568 64.9251 131.933 66.8167 132.64 68.4277L132.641 68.4297C133.387 70.1432 134.596 71.4683 136.297 72.418C138.035 73.341 140.204 73.8238 142.84 73.8238C145.447 73.8238 147.585 73.3406 149.291 72.4181C151.026 71.4664 152.266 70.1384 153.042 68.4232C153.747 66.8131 154.111 64.923 154.111 62.7347C154.111 60.5464 153.747 58.6563 153.042 57.0462C152.267 55.3326 151.029 54.0218 149.298 53.1008ZM153.785 56.7145C154.545 58.4476 154.926 60.4543 154.926 62.7347C154.926 65.0151 154.545 67.0218 153.785 68.7549C152.934 70.64 151.566 72.0994 149.681 73.1332C147.826 74.1365 145.546 74.6382 142.84 74.6382C140.103 74.6382 137.792 74.1365 135.907 73.1332C134.053 72.0994 132.715 70.64 131.894 68.7549C131.134 67.0218 130.754 65.0151 130.754 62.7347C130.754 60.4543 131.134 58.4476 131.894 56.7145C132.715 54.8294 134.053 53.3852 135.907 52.3819C137.792 51.3481 140.103 50.8312 142.84 50.8312C145.546 50.8312 147.826 51.3481 149.681 52.3819C151.566 53.3852 152.934 54.8294 153.785 56.7145ZM199.759 67.1065C199.628 68.6749 199.263 70.1213 198.666 71.4457C197.967 72.9659 196.994 74.2885 195.747 75.4135C194.227 76.8121 192.327 77.8763 190.046 78.606C187.796 79.3053 185.318 79.655 182.612 79.655C178.447 79.655 174.95 78.8797 172.123 77.329C169.295 75.7784 167.243 73.5588 165.966 70.6704C164.932 68.39 164.415 65.7448 164.415 62.7347C164.415 59.7854 164.932 57.1402 165.966 54.799C167.243 51.941 169.31 49.7366 172.168 48.186C175.026 46.6049 178.508 45.8144 182.612 45.8144C185.258 45.8144 187.705 46.1793 189.955 46.909C192.205 47.6083 194.105 48.6573 195.656 50.0559C196.903 51.2417 197.876 52.6099 198.575 54.1605C199.167 55.448 199.53 56.8336 199.665 58.3173C199.689 58.5856 199.706 58.857 199.715 59.1317H193.741C193.528 56.8514 192.631 54.9967 191.05 53.5676C190.046 52.6555 188.815 51.9714 187.356 51.5153C185.926 51.0288 184.33 50.7856 182.567 50.7856C179.861 50.7856 177.565 51.3025 175.68 52.3363C173.825 53.3396 172.472 54.7838 171.621 56.6689C170.891 58.3412 170.526 60.3631 170.526 62.7347C170.526 65.1975 170.891 67.2194 171.621 68.8005C172.472 70.716 173.841 72.1754 175.726 73.1788C177.611 74.1821 179.891 74.6838 182.567 74.6838C184.391 74.6838 186.048 74.4558 187.538 73.9997C189.028 73.5132 190.274 72.8139 191.278 71.9018C192.859 70.5335 193.71 68.6636 193.832 66.2921H199.806C199.797 66.5671 199.782 66.8386 199.759 67.1065ZM187.292 73.2232C188.686 72.767 189.825 72.1213 190.73 71.2991L190.745 71.2859C192.135 70.0832 192.906 68.4333 193.018 66.2504C193.041 65.8173 193.398 65.4777 193.832 65.4777H199.806C200.027 65.4777 200.238 65.5671 200.391 65.7255C200.545 65.884 200.627 66.0979 200.62 66.3183C200.556 68.2984 200.156 70.1226 199.409 71.7805L199.406 71.786C198.661 73.4057 197.623 74.8172 196.296 76.0154C194.676 77.5046 192.668 78.6221 190.295 79.3817L190.288 79.3838C187.949 80.1107 185.388 80.4694 182.612 80.4694C178.349 80.4694 174.709 79.676 171.731 78.0431C168.752 76.4092 166.574 74.0575 165.223 71.0037C164.133 68.5993 163.601 65.8365 163.601 62.7347C163.601 59.6893 164.135 56.9295 165.221 54.4701L165.222 54.4668C166.575 51.4396 168.77 49.104 171.777 47.4716C174.782 45.81 178.406 45 182.612 45C185.331 45 187.863 45.3749 190.202 46.1328C192.548 46.8626 194.554 47.965 196.201 49.4511C196.207 49.4559 196.212 49.4608 196.217 49.4658C197.539 50.7226 198.573 52.1764 199.316 53.8231C200.063 55.4478 200.465 57.2112 200.529 59.1041C200.536 59.3248 200.454 59.539 200.301 59.6978C200.147 59.8565 199.936 59.9461 199.715 59.9461H193.741C193.32 59.9461 192.969 59.6261 192.93 59.2074C192.734 57.1136 191.921 55.4533 190.504 54.1718L190.502 54.1703C189.597 53.3475 188.473 52.7179 187.113 52.2927C187.106 52.2906 187.1 52.2885 187.093 52.2863C185.761 51.833 184.256 51.6 182.567 51.6C179.963 51.6 177.81 52.0973 176.072 53.0503L176.068 53.0526C174.368 53.9722 173.142 55.2827 172.365 57C171.693 58.5427 171.341 60.4457 171.341 62.7347C171.341 65.1251 171.696 67.0199 172.36 68.4592L172.365 68.4697C173.141 70.2157 174.38 71.5402 176.108 72.4598C177.849 73.3866 179.991 73.8694 182.567 73.8694C184.321 73.8694 185.893 73.6505 187.292 73.2232ZM202.832 67.9527L202.829 67.938C202.448 66.3191 202.26 64.5836 202.26 62.7347C202.26 59.6893 202.794 56.9295 203.88 54.4701L203.881 54.4668C205.233 51.4423 207.41 49.1068 210.387 47.4736C213.366 45.809 217.007 45 221.272 45C225.506 45 229.13 45.7938 232.107 47.4263C235.082 49.0577 237.248 51.3619 238.571 54.3307L238.572 54.3323C239.688 56.8513 240.238 59.6566 240.238 62.7347C240.238 65.9016 239.673 68.7416 238.522 71.2366C237.168 74.2029 234.987 76.4912 232.011 78.0916C229.064 79.6923 225.456 80.4694 221.226 80.4694C217.244 80.4694 213.814 79.7853 210.968 78.3783C208.13 76.9749 206.009 74.9498 204.646 72.3038C203.845 71.016 203.243 69.5631 202.832 67.9527ZM205.355 71.9018C204.595 70.6856 204.017 69.3021 203.622 67.7515C203.257 66.2009 203.074 64.5286 203.074 62.7347C203.074 59.7854 203.591 57.1402 204.625 54.799C205.902 51.941 207.954 49.7366 210.782 48.186C213.61 46.6049 217.106 45.8144 221.272 45.8144C225.407 45.8144 228.888 46.5897 231.716 48.1404C234.543 49.691 236.58 51.865 237.827 54.6622C238.891 57.0642 239.423 59.755 239.423 62.7347C239.423 65.8056 238.876 68.5268 237.781 70.8984C236.504 73.6956 234.452 75.8544 231.624 77.3746C228.827 78.8949 225.361 79.655 221.226 79.655C217.334 79.655 214.035 78.9861 211.329 77.6483C208.623 76.3105 206.632 74.395 205.355 71.9018ZM227.73 53.1008L227.716 53.0932C226.012 52.1431 223.876 51.6456 221.272 51.6456C218.636 51.6456 216.468 52.1436 214.731 53.0959L214.727 53.0982C213.028 54.0173 211.819 55.326 211.073 57.0397L211.072 57.0417C210.365 58.6527 210 60.5443 210 62.7347C210 64.9251 210.365 66.8167 211.072 68.4277L211.073 68.4297C211.819 70.1431 213.028 71.4681 214.729 72.4178C216.466 73.3409 218.636 73.8238 221.272 73.8238C223.879 73.8238 226.017 73.3404 227.724 72.4177C229.458 71.4661 230.698 70.1385 231.473 68.4241C232.179 66.8138 232.543 64.9234 232.543 62.7347C232.543 60.546 232.179 58.6556 231.473 57.0453C230.698 55.3322 229.46 54.0217 227.73 53.1008ZM232.217 56.7145C232.977 58.4476 233.358 60.4543 233.358 62.7347C233.358 65.0151 232.977 67.0218 232.217 68.7549C231.366 70.64 229.998 72.0994 228.113 73.1332C226.258 74.1365 223.978 74.6382 221.272 74.6382C218.535 74.6382 216.224 74.1365 214.339 73.1332C212.485 72.0994 211.147 70.64 210.326 68.7549C209.566 67.0218 209.186 65.0151 209.186 62.7347C209.186 60.4543 209.566 58.4476 210.326 56.7145C211.147 54.8294 212.485 53.3852 214.339 52.3819C216.224 51.3481 218.535 50.8312 221.272 50.8312C223.978 50.8312 226.258 51.3481 228.113 52.3819C229.998 53.3852 231.366 54.8294 232.217 56.7145ZM243.402 46.6353C243.402 46.1856 243.767 45.8209 244.216 45.8209H249.917C250.367 45.8209 250.732 46.1856 250.732 46.6353V73.1397H262.186C262.635 73.1397 263 73.5043 263 73.9541V78.8341C263 79.2838 262.635 79.6485 262.186 79.6485H244.216C243.767 79.6485 243.402 79.2838 243.402 78.8341V46.6353ZM249.917 73.9541V46.6353H244.216V78.8341H262.186V73.9541H249.917Z" fill="url(#paint3_linear_924_30611)"/>
<defs>
<linearGradient id="paint0_linear_924_30611" x1="232.228" y1="-0.594727" x2="232.228" y2="18.6922" gradientUnits="userSpaceOnUse">
<stop stop-color="white"/>
<stop offset="1" stop-color="#0094FF" stop-opacity="0"/>
</linearGradient>
<linearGradient id="paint1_linear_924_30611" x1="210.257" y1="0.942751" x2="210.257" y2="19.9779" gradientUnits="userSpaceOnUse">
<stop stop-color="#FF95CE"/>
<stop offset="1" stop-color="#9B78FF" stop-opacity="0.35"/>
</linearGradient>
<linearGradient id="paint2_linear_924_30611" x1="209.914" y1="0.166016" x2="209.914" y2="41.166" gradientUnits="userSpaceOnUse">
<stop stop-color="white"/>
<stop offset="0.296159" stop-color="#B7CAFC" stop-opacity="0.18"/>
<stop offset="0.312723" stop-color="#BACDFF" stop-opacity="0.76"/>
<stop offset="0.491612" stop-color="#00164F" stop-opacity="0"/>
<stop offset="0.757582" stop-color="#00164F" stop-opacity="0"/>
</linearGradient>
<linearGradient id="paint3_linear_924_30611" x1="131.5" y1="45" x2="131.5" y2="80.4694" gradientUnits="userSpaceOnUse">
<stop stop-color="#FF7CB1"/>
<stop offset="0.622162" stop-color="#FC408C" stop-opacity="0.34"/>
</linearGradient>
</defs>
</svg>
