<svg width="239" height="90" viewBox="0 0 239 90" fill="none" xmlns="http://www.w3.org/2000/svg">
<path d="M45.206 9.69734H50.3399V21.8545H66.6864V9.69734H71.8204V38.6938H66.6864V26.2902H50.3399V38.6938H45.206V9.69734ZM86.2028 26.126L74.4563 9.69734H80.4938L88.7492 21.4438L97.0046 9.69734H103.001L91.2956 26.126V38.6938H86.2028V26.126ZM105.61 9.69734H118.712C122.299 9.69734 125.311 10.3408 127.748 11.6277C130.184 12.9146 131.951 14.8039 133.046 17.2956C133.922 19.267 134.36 21.567 134.36 24.1956C134.36 26.9337 133.922 29.2337 133.046 31.0956C131.951 33.5873 130.171 35.4766 127.707 36.7635C125.27 38.0504 122.271 38.6938 118.712 38.6938H105.61V9.69734ZM118.178 34.2992C123.189 34.2992 126.461 32.629 127.994 29.2885C128.596 27.9194 128.898 26.2218 128.898 24.1956C128.898 22.1694 128.596 20.4718 127.994 19.1027C126.461 15.7622 123.189 14.092 118.178 14.092H110.744V34.2992H118.178ZM147.737 26.9474H143.794V38.6938H138.66V9.69734H152.706C155.143 9.69734 157.169 10.0807 158.785 10.8473C160.428 11.614 161.578 12.764 162.235 14.2974C162.728 15.3652 162.974 16.6247 162.974 18.0759C162.974 19.6914 162.714 21.0605 162.194 22.1831C161.537 23.6617 160.51 24.798 159.113 25.592C157.744 26.3861 156.047 26.8242 154.021 26.9063L165.028 38.6938H158.456L147.737 26.9474ZM143.794 22.7581H151.433C153.076 22.7581 154.376 22.5801 155.335 22.2242C156.321 21.8682 156.991 21.2795 157.347 20.4581C157.621 19.8831 157.758 19.1301 157.758 18.1992C157.758 17.4051 157.635 16.748 157.388 16.2277C157.005 15.3789 156.321 14.7765 155.335 14.4206C154.349 14.0646 153.049 13.8866 151.433 13.8866H143.794V22.7581ZM189.526 31.7528H174.083L171.208 38.6938H165.704L178.108 9.69734H185.46L197.822 38.6938H192.401L189.526 31.7528ZM187.718 27.4402L181.804 13.1474H181.722L175.849 27.4402H187.718Z" fill="white"/>
<path d="M199.845 0.768601H207.706C209.858 0.768601 211.665 1.15467 213.128 1.92682C214.59 2.69896 215.649 3.83254 216.306 5.32754C216.832 6.5104 217.095 7.89041 217.095 9.46755C217.095 11.1104 216.832 12.4904 216.306 13.6076C215.649 15.1026 214.581 16.2361 213.103 17.0083C211.641 17.7804 209.842 18.1665 207.706 18.1665H199.845V0.768601ZM207.386 15.5297C210.392 15.5297 212.355 14.5276 213.275 12.5233C213.637 11.7018 213.818 10.6833 213.818 9.46755C213.818 8.25183 213.637 7.23326 213.275 6.41183C212.355 4.40754 210.392 3.40539 207.386 3.40539H202.925V15.5297H207.386ZM225.443 8.97469L218.42 0.768601H222.215L227.341 6.83076L232.466 0.768601H236.237L229.238 8.99934L237.05 18.1665H233.23L227.341 11.1926L221.451 18.1665H217.582L225.443 8.97469Z" fill="url(#paint0_linear_618_39676)"/>
<path d="M199.845 0.768601H207.706C209.858 0.768601 211.665 1.15467 213.128 1.92682C214.59 2.69896 215.649 3.83254 216.306 5.32754C216.832 6.5104 217.095 7.89041 217.095 9.46755C217.095 11.1104 216.832 12.4904 216.306 13.6076C215.649 15.1026 214.581 16.2361 213.103 17.0083C211.641 17.7804 209.842 18.1665 207.706 18.1665H199.845V0.768601ZM207.386 15.5297C210.392 15.5297 212.355 14.5276 213.275 12.5233C213.637 11.7018 213.818 10.6833 213.818 9.46755C213.818 8.25183 213.637 7.23326 213.275 6.41183C212.355 4.40754 210.392 3.40539 207.386 3.40539H202.925V15.5297H207.386ZM225.443 8.97469L218.42 0.768601H222.215L227.341 6.83076L232.466 0.768601H236.237L229.238 8.99934L237.05 18.1665H233.23L227.341 11.1926L221.451 18.1665H217.582L225.443 8.97469Z" fill="url(#paint1_linear_618_39676)"/>
<path d="M199.845 0.768601V0.47967H199.556V0.768601H199.845ZM213.128 1.92682L213.262 1.67132L213.128 1.92682ZM216.306 5.32754L216.042 5.44381L216.042 5.44489L216.306 5.32754ZM216.306 13.6076L216.045 13.4845L216.042 13.4913L216.306 13.6076ZM213.103 17.0083L212.969 16.7522L212.968 16.7528L213.103 17.0083ZM199.845 18.1665H199.556V18.4554H199.845V18.1665ZM213.275 12.5233L213.538 12.6438L213.54 12.6396L213.275 12.5233ZM213.275 6.41183L213.54 6.29545L213.538 6.2913L213.275 6.41183ZM202.925 3.40539V3.11646H202.636V3.40539H202.925ZM202.925 15.5297H202.636V15.8186H202.925V15.5297ZM199.845 1.05753H207.706V0.47967H199.845V1.05753ZM207.706 1.05753C209.825 1.05753 211.583 1.43775 212.993 2.18231L213.262 1.67132C211.748 0.871599 209.892 0.47967 207.706 0.47967V1.05753ZM212.993 2.18231C214.398 2.92442 215.411 4.00931 216.042 5.44381L216.571 5.21128C215.887 3.65576 214.781 2.47351 213.262 1.67132L212.993 2.18231ZM216.042 5.44489C216.549 6.58366 216.806 7.9222 216.806 9.46755H217.384C217.384 7.85861 217.116 6.43715 216.571 5.2102L216.042 5.44489ZM216.806 9.46755C216.806 11.0813 216.548 12.4164 216.045 13.4845L216.568 13.7306C217.117 12.5644 217.384 11.1395 217.384 9.46755H216.806ZM216.042 13.4913C215.412 14.9248 214.391 16.0097 212.969 16.7522L213.237 17.2644C214.772 16.4626 215.887 15.2803 216.571 13.7238L216.042 13.4913ZM212.968 16.7528C211.558 17.4975 209.808 17.8776 207.706 17.8776V18.4554C209.876 18.4554 211.724 18.0634 213.238 17.2638L212.968 16.7528ZM207.706 17.8776H199.845V18.4554H207.706V17.8776ZM200.134 18.1665V0.768601H199.556V18.1665H200.134ZM207.386 15.8186C210.457 15.8186 212.554 14.7884 213.538 12.6438L213.013 12.4027C212.157 14.2667 210.328 15.2408 207.386 15.2408V15.8186ZM213.54 12.6396C213.922 11.771 214.106 10.7099 214.106 9.46755H213.529C213.529 10.6566 213.352 11.6327 213.011 12.4069L213.54 12.6396ZM214.106 9.46755C214.106 8.22517 213.922 7.16412 213.54 6.29547L213.011 6.52819C213.352 7.3024 213.529 8.2785 213.529 9.46755H214.106ZM213.538 6.2913C212.554 4.14671 210.457 3.11646 207.386 3.11646V3.69432C210.328 3.69432 212.157 4.66837 213.013 6.53236L213.538 6.2913ZM207.386 3.11646H202.925V3.69432H207.386V3.11646ZM202.636 3.40539V15.5297H203.214V3.40539H202.636ZM202.925 15.8186H207.386V15.2408H202.925V15.8186ZM225.443 8.97469L225.663 9.16249L225.823 8.97462L225.663 8.78682L225.443 8.97469ZM218.42 0.768601V0.47967H217.792L218.2 0.956471L218.42 0.768601ZM222.215 0.768601L222.436 0.582048L222.349 0.47967H222.215V0.768601ZM227.341 6.83076L227.12 7.01731L227.341 7.27825L227.561 7.01731L227.341 6.83076ZM232.466 0.768601V0.47967H232.332L232.246 0.582048L232.466 0.768601ZM236.237 0.768601L236.457 0.955764L236.862 0.47967H236.237V0.768601ZM229.238 8.99934L229.018 8.81217L228.859 8.99954L229.018 9.18674L229.238 8.99934ZM237.05 18.1665V18.4554H237.676L237.27 17.9791L237.05 18.1665ZM233.23 18.1665L233.01 18.3529L233.096 18.4554H233.23V18.1665ZM227.341 11.1926L227.561 11.0061L227.341 10.7448L227.12 11.0061L227.341 11.1926ZM221.451 18.1665V18.4554H221.585L221.672 18.3529L221.451 18.1665ZM217.582 18.1665L217.363 17.9787L216.955 18.4554H217.582V18.1665ZM225.663 8.78682L218.64 0.58073L218.2 0.956471L225.224 9.16256L225.663 8.78682ZM218.42 1.05753H222.215V0.47967H218.42V1.05753ZM221.994 0.955153L227.12 7.01731L227.561 6.64421L222.436 0.582048L221.994 0.955153ZM227.561 7.01731L232.687 0.955153L232.246 0.582048L227.12 6.64421L227.561 7.01731ZM232.466 1.05753H236.237V0.47967H232.466V1.05753ZM236.017 0.581437L229.018 8.81217L229.458 9.1865L236.457 0.955764L236.017 0.581437ZM229.018 9.18674L236.83 18.3539L237.27 17.9791L229.458 8.81194L229.018 9.18674ZM237.05 17.8776H233.23V18.4554H237.05V17.8776ZM233.451 17.9801L227.561 11.0061L227.12 11.379L233.01 18.3529L233.451 17.9801ZM227.12 11.0061L221.23 17.9801L221.672 18.3529L227.561 11.379L227.12 11.0061ZM221.451 17.8776H217.582V18.4554H221.451V17.8776ZM217.802 18.3543L225.663 9.16249L225.224 8.7869L217.363 17.9787L217.802 18.3543Z" fill="url(#paint2_linear_618_39676)"/>
<path d="M18.7793 79.9045C15.2807 79.9045 12.315 79.3032 9.88234 78.1005C7.44967 76.8978 5.65934 75.1758 4.51134 72.9345C3.828 71.8412 3.30867 70.5975 2.95334 69.2035C2.62534 67.8095 2.46134 66.3062 2.46134 64.6935C2.46134 62.0422 2.926 59.6642 3.85534 57.5595C5.00334 54.9902 6.84834 53.0085 9.39034 51.6145C11.9323 50.1932 15.0757 49.4825 18.8203 49.4825C22.5377 49.4825 25.6673 50.1795 28.2093 51.5735C30.7513 52.9675 32.5827 54.9218 33.7033 57.4365C34.66 59.5958 35.1383 62.0148 35.1383 64.6935C35.1383 67.4542 34.6463 69.9005 33.6623 72.0325C32.5143 74.5472 30.6693 76.4878 28.1273 77.8545C25.6127 79.2212 22.4967 79.9045 18.7793 79.9045ZM18.8203 75.3945C21.253 75.3945 23.303 74.9435 24.9703 74.0415C26.665 73.1122 27.895 71.8002 28.6603 70.1055C29.3437 68.5475 29.6853 66.7435 29.6853 64.6935C29.6853 62.6435 29.3437 60.8395 28.6603 59.2815C27.895 57.5868 26.665 56.2885 24.9703 55.3865C23.303 54.4572 21.253 53.9925 18.8203 53.9925C16.3603 53.9925 14.283 54.4572 12.5883 55.3865C10.921 56.2885 9.71834 57.5868 8.98034 59.2815C8.297 60.8395 7.95534 62.6435 7.95534 64.6935C7.95534 66.7435 8.297 68.5475 8.98034 70.1055C9.71834 71.8002 10.921 73.1122 12.5883 74.0415C14.283 74.9435 16.3603 75.3945 18.8203 75.3945ZM39.4472 50.2205H45.7612L56.5442 71.7045L67.5322 50.2205H73.7232V79.1665H68.8442V57.1495L57.7332 79.1665H55.3962L44.3262 57.1495V79.1665H39.4472V50.2205ZM79.246 50.2205H84.863L101.673 72.6065V50.2205H106.716V79.1665H100.935L84.289 56.9445V79.1665H79.246V50.2205ZM112.278 50.2205H117.403V79.1665H112.278V50.2205ZM122.969 50.2205H136.253C141.309 50.2205 144.521 51.7375 145.888 54.7715C146.407 55.8922 146.667 57.2725 146.667 58.9125C146.667 60.6072 146.407 61.9875 145.888 63.0535C144.521 66.1148 141.309 67.6455 136.253 67.6455H128.094V79.1665H122.969V50.2205ZM135.146 63.3405C136.84 63.3405 138.152 63.1902 139.082 62.8895C140.038 62.5615 140.708 61.9738 141.091 61.1265C141.337 60.4978 141.46 59.7872 141.46 58.9945C141.46 58.0652 141.323 57.3135 141.05 56.7395C140.667 55.8922 139.997 55.3045 139.041 54.9765C138.084 54.6485 136.786 54.4845 135.146 54.4845H128.094V63.3405H135.146ZM165.122 79.9045C161.623 79.9045 158.658 79.3032 156.225 78.1005C153.792 76.8978 152.002 75.1758 150.854 72.9345C150.171 71.8412 149.651 70.5975 149.296 69.2035C148.968 67.8095 148.804 66.3062 148.804 64.6935C148.804 62.0422 149.269 59.6642 150.198 57.5595C151.346 54.9902 153.191 53.0085 155.733 51.6145C158.275 50.1932 161.418 49.4825 165.163 49.4825C168.88 49.4825 172.01 50.1795 174.552 51.5735C177.094 52.9675 178.925 54.9218 180.046 57.4365C181.003 59.5958 181.481 62.0148 181.481 64.6935C181.481 67.4542 180.989 69.9005 180.005 72.0325C178.857 74.5472 177.012 76.4878 174.47 77.8545C171.955 79.2212 168.839 79.9045 165.122 79.9045ZM165.163 75.3945C167.596 75.3945 169.646 74.9435 171.313 74.0415C173.008 73.1122 174.238 71.8002 175.003 70.1055C175.686 68.5475 176.028 66.7435 176.028 64.6935C176.028 62.6435 175.686 60.8395 175.003 59.2815C174.238 57.5868 173.008 56.2885 171.313 55.3865C169.646 54.4572 167.596 53.9925 165.163 53.9925C162.703 53.9925 160.626 54.4572 158.931 55.3865C157.264 56.2885 156.061 57.5868 155.323 59.2815C154.64 60.8395 154.298 62.6435 154.298 64.6935C154.298 66.7435 154.64 68.5475 155.323 70.1055C156.061 71.8002 157.264 73.1122 158.931 74.0415C160.626 74.9435 162.703 75.3945 165.163 75.3945ZM200.877 79.9045C197.378 79.9045 194.413 79.3032 191.98 78.1005C189.547 76.8978 187.757 75.1758 186.609 72.9345C185.926 71.8412 185.406 70.5975 185.051 69.2035C184.723 67.8095 184.559 66.3062 184.559 64.6935C184.559 62.0422 185.024 59.6642 185.953 57.5595C187.101 54.9902 188.946 53.0085 191.488 51.6145C194.03 50.1932 197.173 49.4825 200.918 49.4825C204.635 49.4825 207.765 50.1795 210.307 51.5735C212.849 52.9675 214.68 54.9218 215.801 57.4365C216.758 59.5958 217.236 62.0148 217.236 64.6935C217.236 67.4542 216.744 69.9005 215.76 72.0325C214.612 74.5472 212.767 76.4878 210.225 77.8545C207.71 79.2212 204.594 79.9045 200.877 79.9045ZM200.918 75.3945C203.351 75.3945 205.401 74.9435 207.068 74.0415C208.763 73.1122 209.993 71.8002 210.758 70.1055C211.441 68.5475 211.783 66.7435 211.783 64.6935C211.783 62.6435 211.441 60.8395 210.758 59.2815C209.993 57.5868 208.763 56.2885 207.068 55.3865C205.401 54.4572 203.351 53.9925 200.918 53.9925C198.458 53.9925 196.381 54.4572 194.686 55.3865C193.019 56.2885 191.816 57.5868 191.078 59.2815C190.395 60.8395 190.053 62.6435 190.053 64.6935C190.053 66.7435 190.395 68.5475 191.078 70.1055C191.816 71.8002 193.019 73.1122 194.686 74.0415C196.381 74.9435 198.458 75.3945 200.918 75.3945ZM221.545 50.2205H226.67V74.7795H237.699V79.1665H221.545V50.2205Z" fill="#FC408C"/>
<path d="M9.88234 78.1005L10.3255 77.2041L9.88234 78.1005ZM4.51134 72.9345L5.40138 72.4786C5.38842 72.4533 5.3744 72.4286 5.35933 72.4045L4.51134 72.9345ZM2.95334 69.2035L1.97992 69.4325C1.98133 69.4385 1.9828 69.4445 1.98432 69.4505L2.95334 69.2035ZM3.85534 57.5595L2.94232 57.1516L2.94055 57.1556L3.85534 57.5595ZM9.39034 51.6145L9.87119 52.4913L9.87837 52.4873L9.39034 51.6145ZM33.7033 57.4365L34.6176 57.0314L34.6167 57.0294L33.7033 57.4365ZM33.6623 72.0325L32.7544 71.6134L32.7527 71.6172L33.6623 72.0325ZM28.1273 77.8545L27.6538 76.9737L27.6498 76.9759L28.1273 77.8545ZM24.9703 74.0415L25.4462 74.9211L25.4512 74.9183L24.9703 74.0415ZM28.6603 70.1055L29.5718 70.5171L29.5761 70.5072L28.6603 70.1055ZM28.6603 59.2815L29.5762 58.8798L29.5717 58.8699L28.6603 59.2815ZM24.9703 55.3865L24.4835 56.26C24.4891 56.2631 24.4948 56.2662 24.5005 56.2692L24.9703 55.3865ZM12.5883 55.3865L13.0642 56.2661L13.0692 56.2633L12.5883 55.3865ZM8.98034 59.2815L9.89613 59.6832L9.89717 59.6808L8.98034 59.2815ZM8.98034 70.1055L9.89717 69.7062L9.89612 69.7038L8.98034 70.1055ZM12.5883 74.0415L12.1015 74.915C12.1071 74.9181 12.1128 74.9212 12.1185 74.9243L12.5883 74.0415ZM18.7793 78.9045C15.3914 78.9045 12.5864 78.3218 10.3255 77.2041L9.43916 78.9969C12.0436 80.2845 15.1699 80.9045 18.7793 80.9045V78.9045ZM10.3255 77.2041C8.06938 76.0887 6.4438 74.5138 5.40138 72.4786L3.62129 73.3904C4.87488 75.8379 6.82996 77.707 9.43916 78.9969L10.3255 77.2041ZM5.35933 72.4045C4.73663 71.4082 4.25511 70.2619 3.92235 68.9565L1.98432 69.4505C2.36223 70.9331 2.91938 72.2742 3.66334 73.4645L5.35933 72.4045ZM3.92675 68.9745C3.61847 67.6643 3.46134 66.2386 3.46134 64.6935H1.46134C1.46134 66.3738 1.6322 67.9547 1.97992 69.4325L3.92675 68.9745ZM3.46134 64.6935C3.46134 62.1602 3.90491 59.9229 4.77012 57.9634L2.94055 57.1556C1.9471 59.4054 1.46134 61.9241 1.46134 64.6935H3.46134ZM4.76834 57.9674C5.82446 55.6038 7.51431 53.7838 9.87117 52.4913L8.9095 50.7377C6.18236 52.2332 4.18221 54.3766 2.94233 57.1516L4.76834 57.9674ZM9.87837 52.4873C12.2345 51.1699 15.1989 50.4825 18.8203 50.4825V48.4825C14.9525 48.4825 11.6302 49.2164 8.9023 50.7417L9.87837 52.4873ZM18.8203 50.4825C22.4159 50.4825 25.3697 51.1568 27.7285 52.4503L28.6902 50.6967C25.9649 49.2022 22.6595 48.4825 18.8203 48.4825V50.4825ZM27.7285 52.4503C30.0897 53.7452 31.7632 55.5396 32.7899 57.8436L34.6167 57.0294C33.4022 54.3041 31.4129 52.1898 28.6902 50.6967L27.7285 52.4503ZM32.789 57.8416C33.6821 59.8573 34.1383 62.1357 34.1383 64.6935H36.1383C36.1383 61.894 35.6379 59.3344 34.6176 57.0314L32.789 57.8416ZM34.1383 64.6935C34.1383 67.3347 33.668 69.6339 32.7544 71.6134L34.5703 72.4516C35.6247 70.1671 36.1383 67.5737 36.1383 64.6935H34.1383ZM32.7527 71.6172C31.6995 73.9241 30.0126 75.7056 27.6538 76.9737L28.6009 78.7353C31.3261 77.2701 33.3292 75.1703 34.572 72.4478L32.7527 71.6172ZM27.6498 76.9759C25.319 78.2426 22.3783 78.9045 18.7793 78.9045V80.9045C22.6151 80.9045 25.9063 80.1997 28.6049 78.7331L27.6498 76.9759ZM18.8203 76.3945C21.3733 76.3945 23.5971 75.9214 25.4462 74.921L24.4945 73.162C23.0089 73.9656 21.1327 74.3945 18.8203 74.3945V76.3945ZM25.4512 74.9183C27.328 73.8891 28.7134 72.4176 29.5717 70.5171L27.749 69.6939C27.0766 71.1827 26.002 72.3352 24.4895 73.1647L25.4512 74.9183ZM29.5761 70.5072C30.3252 68.7994 30.6853 66.854 30.6853 64.6935H28.6853C28.6853 66.633 28.3622 68.2956 27.7446 69.7038L29.5761 70.5072ZM30.6853 64.6935C30.6853 62.533 30.3252 60.5876 29.5761 58.8798L27.7446 59.6832C28.3622 61.0914 28.6853 62.754 28.6853 64.6935H30.6853ZM29.5717 58.8699C28.7122 56.9668 27.3233 55.506 25.4402 54.5038L24.5005 56.2692C26.0068 57.071 27.0778 58.2069 27.749 59.6931L29.5717 58.8699ZM25.4572 54.513C23.6056 53.481 21.3776 52.9925 18.8203 52.9925V54.9925C21.1284 54.9925 23.0004 55.4334 24.4835 56.26L25.4572 54.513ZM18.8203 52.9925C16.2371 52.9925 13.9844 53.4804 12.1075 54.5097L13.0692 56.2633C14.5816 55.4339 16.4836 54.9925 18.8203 54.9925V52.9925ZM12.1125 54.507C10.2541 55.5123 8.89316 56.9771 8.0635 58.8822L9.89717 59.6808C10.5435 58.1966 11.5879 57.0647 13.0642 56.266L12.1125 54.507ZM8.06455 58.8798C7.31551 60.5876 6.95534 62.533 6.95534 64.6935H8.95534C8.95534 62.754 9.2785 61.0914 9.89612 59.6832L8.06455 58.8798ZM6.95534 64.6935C6.95534 66.854 7.31551 68.7994 8.06455 70.5072L9.89612 69.7038C9.2785 68.2956 8.95534 66.633 8.95534 64.6935H6.95534ZM8.0635 70.5048C8.89203 72.4073 10.2495 73.8827 12.1015 74.915L13.0752 73.168C11.5925 72.3416 10.5446 71.193 9.89717 69.7062L8.0635 70.5048ZM12.1185 74.9243C13.9928 75.9219 16.2414 76.3945 18.8203 76.3945V74.3945C16.4793 74.3945 14.5732 73.9651 13.0582 73.1588L12.1185 74.9243ZM39.4472 50.2205V49.2205C38.8949 49.2205 38.4472 49.6682 38.4472 50.2205H39.4472ZM45.7612 50.2205L46.6549 49.7719C46.4853 49.4339 46.1394 49.2205 45.7612 49.2205V50.2205ZM56.5442 71.7045L55.6504 72.1531C55.8195 72.4899 56.1635 72.7031 56.5404 72.7045C56.9172 72.7059 57.2629 72.4954 57.4345 72.1599L56.5442 71.7045ZM67.5322 50.2205V49.2205C67.1567 49.2205 66.8129 49.4308 66.6419 49.7652L67.5322 50.2205ZM73.7232 50.2205H74.7232C74.7232 49.6682 74.2755 49.2205 73.7232 49.2205V50.2205ZM73.7232 79.1665V80.1665C74.2755 80.1665 74.7232 79.7188 74.7232 79.1665H73.7232ZM68.8442 79.1665H67.8442C67.8442 79.7188 68.2919 80.1665 68.8442 80.1665V79.1665ZM68.8442 57.1495H69.8442C69.8442 56.6864 69.5262 56.2839 69.0757 56.1767C68.6252 56.0695 68.1601 56.2855 67.9514 56.699L68.8442 57.1495ZM57.7332 79.1665V80.1665C58.1106 80.1665 58.4559 79.954 58.6259 79.617L57.7332 79.1665ZM55.3962 79.1665L54.5028 79.6157C54.6725 79.9534 55.0182 80.1665 55.3962 80.1665V79.1665ZM44.3262 57.1495L45.2196 56.7003C45.0115 56.2863 44.5462 56.0696 44.0953 56.1765C43.6445 56.2835 43.3262 56.6861 43.3262 57.1495H44.3262ZM44.3262 79.1665V80.1665C44.8785 80.1665 45.3262 79.7188 45.3262 79.1665H44.3262ZM39.4472 79.1665H38.4472C38.4472 79.7188 38.8949 80.1665 39.4472 80.1665V79.1665ZM39.4472 51.2205H45.7612V49.2205H39.4472V51.2205ZM44.8674 50.6691L55.6504 72.1531L57.4379 71.2559L46.6549 49.7719L44.8674 50.6691ZM57.4345 72.1599L68.4225 50.6759L66.6419 49.7652L55.6539 71.2492L57.4345 72.1599ZM67.5322 51.2205H73.7232V49.2205H67.5322V51.2205ZM72.7232 50.2205V79.1665H74.7232V50.2205H72.7232ZM73.7232 78.1665H68.8442V80.1665H73.7232V78.1665ZM69.8442 79.1665V57.1495H67.8442V79.1665H69.8442ZM67.9514 56.699L56.8404 78.716L58.6259 79.617L69.7369 57.6L67.9514 56.699ZM57.7332 78.1665H55.3962V80.1665H57.7332V78.1665ZM56.2896 78.7173L45.2196 56.7003L43.4328 57.5987L54.5028 79.6157L56.2896 78.7173ZM43.3262 57.1495V79.1665H45.3262V57.1495H43.3262ZM44.3262 78.1665H39.4472V80.1665H44.3262V78.1665ZM40.4472 79.1665V50.2205H38.4472V79.1665H40.4472ZM79.246 50.2205V49.2205C78.6937 49.2205 78.246 49.6682 78.246 50.2205H79.246ZM84.863 50.2205L85.6627 49.62C85.4738 49.3685 85.1776 49.2205 84.863 49.2205V50.2205ZM101.673 72.6065L100.873 73.207C101.132 73.5511 101.581 73.6913 101.99 73.5551C102.398 73.4189 102.673 73.0368 102.673 72.6065H101.673ZM101.673 50.2205V49.2205C101.121 49.2205 100.673 49.6682 100.673 50.2205H101.673ZM106.716 50.2205H107.716C107.716 49.6682 107.268 49.2205 106.716 49.2205V50.2205ZM106.716 79.1665V80.1665C107.268 80.1665 107.716 79.7188 107.716 79.1665H106.716ZM100.935 79.1665L100.135 79.766C100.323 80.0181 100.62 80.1665 100.935 80.1665V79.1665ZM84.289 56.9445L85.0894 56.345C84.8312 56.0004 84.3815 55.8597 83.9731 55.9957C83.5646 56.1318 83.289 56.514 83.289 56.9445H84.289ZM84.289 79.1665V80.1665C84.8413 80.1665 85.289 79.7188 85.289 79.1665H84.289ZM79.246 79.1665H78.246C78.246 79.7188 78.6937 80.1665 79.246 80.1665V79.1665ZM79.246 51.2205H84.863V49.2205H79.246V51.2205ZM84.0634 50.821L100.873 73.207L102.473 72.006L85.6627 49.62L84.0634 50.821ZM102.673 72.6065V50.2205H100.673V72.6065H102.673ZM101.673 51.2205H106.716V49.2205H101.673V51.2205ZM105.716 50.2205V79.1665H107.716V50.2205H105.716ZM106.716 78.1665H100.935V80.1665H106.716V78.1665ZM101.735 78.567L85.0894 56.345L83.4887 57.544L100.135 79.766L101.735 78.567ZM83.289 56.9445V79.1665H85.289V56.9445H83.289ZM84.289 78.1665H79.246V80.1665H84.289V78.1665ZM80.246 79.1665V50.2205H78.246V79.1665H80.246ZM112.278 50.2205V49.2205C111.726 49.2205 111.278 49.6682 111.278 50.2205H112.278ZM117.403 50.2205H118.403C118.403 49.6682 117.956 49.2205 117.403 49.2205V50.2205ZM117.403 79.1665V80.1665C117.956 80.1665 118.403 79.7188 118.403 79.1665H117.403ZM112.278 79.1665H111.278C111.278 79.7188 111.726 80.1665 112.278 80.1665V79.1665ZM112.278 51.2205H117.403V49.2205H112.278V51.2205ZM116.403 50.2205V79.1665H118.403V50.2205H116.403ZM117.403 78.1665H112.278V80.1665H117.403V78.1665ZM113.278 79.1665V50.2205H111.278V79.1665H113.278ZM122.969 50.2205V49.2205C122.416 49.2205 121.969 49.6682 121.969 50.2205H122.969ZM145.888 54.7715L144.976 55.1822L144.98 55.192L145.888 54.7715ZM145.888 63.0535L144.989 62.6155C144.984 62.6256 144.979 62.6357 144.975 62.6459L145.888 63.0535ZM128.094 67.6455V66.6455C127.541 66.6455 127.094 67.0932 127.094 67.6455H128.094ZM128.094 79.1665V80.1665C128.646 80.1665 129.094 79.7188 129.094 79.1665H128.094ZM122.969 79.1665H121.969C121.969 79.7188 122.416 80.1665 122.969 80.1665V79.1665ZM139.082 62.8895L139.389 63.8409C139.395 63.8392 139.4 63.8373 139.406 63.8354L139.082 62.8895ZM141.091 61.1265L142.002 61.5381C142.009 61.5225 142.016 61.5068 142.022 61.4909L141.091 61.1265ZM141.05 56.7395L140.138 57.1511C140.141 57.1572 140.144 57.1633 140.147 57.1694L141.05 56.7395ZM139.041 54.9765L138.716 55.9224L139.041 54.9765ZM128.094 54.4845V53.4845C127.541 53.4845 127.094 53.9322 127.094 54.4845H128.094ZM128.094 63.3405H127.094C127.094 63.8928 127.541 64.3405 128.094 64.3405V63.3405ZM122.969 51.2205H136.253V49.2205H122.969V51.2205ZM136.253 51.2205C141.147 51.2205 143.848 52.6785 144.976 55.1822L146.799 54.3608C145.194 50.7965 141.471 49.2205 136.253 49.2205V51.2205ZM144.98 55.192C145.422 56.1451 145.667 57.3724 145.667 58.9125H147.667C147.667 57.1726 147.392 55.6392 146.795 54.351L144.98 55.192ZM145.667 58.9125C145.667 60.516 145.419 61.7316 144.989 62.6155L146.787 63.4915C147.395 62.2434 147.667 60.6983 147.667 58.9125H145.667ZM144.975 62.6459C143.845 65.1768 141.143 66.6455 136.253 66.6455V68.6455C141.476 68.6455 145.197 67.0529 146.801 63.4612L144.975 62.6459ZM136.253 66.6455H128.094V68.6455H136.253V66.6455ZM127.094 67.6455V79.1665H129.094V67.6455H127.094ZM128.094 78.1665H122.969V80.1665H128.094V78.1665ZM123.969 79.1665V50.2205H121.969V79.1665H123.969ZM135.146 64.3405C136.88 64.3405 138.314 64.189 139.389 63.8409L138.774 61.9381C137.991 62.1913 136.801 62.3405 135.146 62.3405V64.3405ZM139.406 63.8354C140.598 63.4267 141.495 62.6605 142.002 61.5381L140.179 60.7149C139.921 61.2872 139.478 61.6963 138.757 61.9436L139.406 63.8354ZM142.022 61.4909C142.321 60.7278 142.46 59.8905 142.46 58.9945H140.46C140.46 59.6838 140.353 60.2679 140.159 60.7621L142.022 61.4909ZM142.46 58.9945C142.46 57.9797 142.312 57.0652 141.953 56.3096L140.147 57.1694C140.334 57.5618 140.46 58.1506 140.46 58.9945H142.46ZM141.961 56.3279C141.454 55.2055 140.557 54.4393 139.365 54.0306L138.716 55.9224C139.437 56.1697 139.88 56.5788 140.138 57.1511L141.961 56.3279ZM139.365 54.0306C138.259 53.6515 136.836 53.4845 135.146 53.4845V55.4845C136.735 55.4845 137.909 55.6455 138.716 55.9224L139.365 54.0306ZM135.146 53.4845H128.094V55.4845H135.146V53.4845ZM127.094 54.4845V63.3405H129.094V54.4845H127.094ZM128.094 64.3405H135.146V62.3405H128.094V64.3405ZM156.225 78.1005L156.668 77.2041L156.225 78.1005ZM150.854 72.9345L151.744 72.4786C151.731 72.4533 151.717 72.4286 151.702 72.4045L150.854 72.9345ZM149.296 69.2035L148.323 69.4325C148.324 69.4385 148.326 69.4445 148.327 69.4505L149.296 69.2035ZM150.198 57.5595L149.285 57.1516L149.283 57.1556L150.198 57.5595ZM155.733 51.6145L156.214 52.4913L156.221 52.4873L155.733 51.6145ZM180.046 57.4365L180.96 57.0314L180.96 57.0294L180.046 57.4365ZM180.005 72.0325L179.097 71.6134L179.095 71.6172L180.005 72.0325ZM174.47 77.8545L173.997 76.9737L173.993 76.9759L174.47 77.8545ZM171.313 74.0415L171.789 74.9211L171.794 74.9183L171.313 74.0415ZM175.003 70.1055L175.915 70.5171L175.919 70.5072L175.003 70.1055ZM175.003 59.2815L175.919 58.8798L175.914 58.8699L175.003 59.2815ZM171.313 55.3865L170.826 56.26C170.832 56.2631 170.838 56.2662 170.843 56.2692L171.313 55.3865ZM158.931 55.3865L159.407 56.2661L159.412 56.2633L158.931 55.3865ZM155.323 59.2815L156.239 59.6832L156.24 59.6808L155.323 59.2815ZM155.323 70.1055L156.24 69.7062L156.239 69.7038L155.323 70.1055ZM158.931 74.0415L158.444 74.915C158.45 74.9181 158.456 74.9212 158.461 74.9243L158.931 74.0415ZM165.122 78.9045C161.734 78.9045 158.929 78.3218 156.668 77.2041L155.782 78.9969C158.386 80.2845 161.513 80.9045 165.122 80.9045V78.9045ZM156.668 77.2041C154.412 76.0887 152.787 74.5138 151.744 72.4786L149.964 73.3904C151.218 75.8379 153.173 77.707 155.782 78.9969L156.668 77.2041ZM151.702 72.4045C151.079 71.4082 150.598 70.2619 150.265 68.9565L148.327 69.4505C148.705 70.9331 149.262 72.2742 150.006 73.4645L151.702 72.4045ZM150.27 68.9745C149.961 67.6643 149.804 66.2386 149.804 64.6935H147.804C147.804 66.3738 147.975 67.9547 148.323 69.4325L150.27 68.9745ZM149.804 64.6935C149.804 62.1602 150.248 59.9229 151.113 57.9634L149.283 57.1556C148.29 59.4054 147.804 61.9241 147.804 64.6935H149.804ZM151.111 57.9674C152.167 55.6038 153.857 53.7838 156.214 52.4913L155.252 50.7377C152.525 52.2332 150.525 54.3766 149.285 57.1516L151.111 57.9674ZM156.221 52.4873C158.577 51.1699 161.542 50.4825 165.163 50.4825V48.4825C161.295 48.4825 157.973 49.2164 155.245 50.7417L156.221 52.4873ZM165.163 50.4825C168.759 50.4825 171.713 51.1568 174.071 52.4503L175.033 50.6967C172.308 49.2022 169.002 48.4825 165.163 48.4825V50.4825ZM174.071 52.4503C176.432 53.7452 178.106 55.5396 179.133 57.8436L180.96 57.0294C179.745 54.3041 177.756 52.1898 175.033 50.6967L174.071 52.4503ZM179.132 57.8416C180.025 59.8573 180.481 62.1357 180.481 64.6935H182.481C182.481 61.894 181.981 59.3344 180.96 57.0314L179.132 57.8416ZM180.481 64.6935C180.481 67.3347 180.011 69.6339 179.097 71.6134L180.913 72.4516C181.967 70.1671 182.481 67.5737 182.481 64.6935H180.481ZM179.095 71.6172C178.042 73.9241 176.355 75.7056 173.997 76.9737L174.944 78.7353C177.669 77.2701 179.672 75.1703 180.915 72.4478L179.095 71.6172ZM173.993 76.9759C171.662 78.2426 168.721 78.9045 165.122 78.9045V80.9045C168.958 80.9045 172.249 80.1997 174.948 78.7331L173.993 76.9759ZM165.163 76.3945C167.716 76.3945 169.94 75.9214 171.789 74.921L170.837 73.162C169.352 73.9656 167.475 74.3945 165.163 74.3945V76.3945ZM171.794 74.9183C173.671 73.8891 175.056 72.4176 175.914 70.5171L174.092 69.6939C173.419 71.1827 172.345 72.3352 170.832 73.1647L171.794 74.9183ZM175.919 70.5072C176.668 68.7994 177.028 66.854 177.028 64.6935H175.028C175.028 66.633 174.705 68.2956 174.087 69.7038L175.919 70.5072ZM177.028 64.6935C177.028 62.533 176.668 60.5876 175.919 58.8798L174.087 59.6832C174.705 61.0914 175.028 62.754 175.028 64.6935H177.028ZM175.914 58.8699C175.055 56.9668 173.666 55.506 171.783 54.5038L170.843 56.2692C172.35 57.071 173.421 58.2069 174.092 59.6931L175.914 58.8699ZM171.8 54.513C169.948 53.481 167.72 52.9925 165.163 52.9925V54.9925C167.471 54.9925 169.343 55.4334 170.826 56.26L171.8 54.513ZM165.163 52.9925C162.58 52.9925 160.327 53.4804 158.45 54.5097L159.412 56.2633C160.924 55.4339 162.826 54.9925 165.163 54.9925V52.9925ZM158.455 54.507C156.597 55.5123 155.236 56.9771 154.406 58.8822L156.24 59.6808C156.886 58.1966 157.931 57.0647 159.407 56.266L158.455 54.507ZM154.407 58.8798C153.658 60.5876 153.298 62.533 153.298 64.6935H155.298C155.298 62.754 155.621 61.0914 156.239 59.6832L154.407 58.8798ZM153.298 64.6935C153.298 66.854 153.658 68.7994 154.407 70.5072L156.239 69.7038C155.621 68.2956 155.298 66.633 155.298 64.6935H153.298ZM154.406 70.5048C155.235 72.4073 156.592 73.8827 158.444 74.915L159.418 73.168C157.935 72.3416 156.887 71.193 156.24 69.7062L154.406 70.5048ZM158.461 74.9243C160.336 75.9219 162.584 76.3945 165.163 76.3945V74.3945C162.822 74.3945 160.916 73.9651 159.401 73.1588L158.461 74.9243ZM191.98 78.1005L192.423 77.2041L191.98 78.1005ZM186.609 72.9345L187.499 72.4786C187.486 72.4533 187.472 72.4286 187.457 72.4045L186.609 72.9345ZM185.051 69.2035L184.078 69.4325C184.079 69.4385 184.08 69.4445 184.082 69.4505L185.051 69.2035ZM185.953 57.5595L185.04 57.1516L185.038 57.1556L185.953 57.5595ZM191.488 51.6145L191.969 52.4913L191.976 52.4873L191.488 51.6145ZM215.801 57.4365L216.715 57.0314L216.714 57.0294L215.801 57.4365ZM215.76 72.0325L214.852 71.6134L214.85 71.6172L215.76 72.0325ZM210.225 77.8545L209.751 76.9737L209.747 76.9759L210.225 77.8545ZM207.068 74.0415L207.544 74.9211L207.549 74.9183L207.068 74.0415ZM210.758 70.1055L211.669 70.5171L211.674 70.5072L210.758 70.1055ZM210.758 59.2815L211.674 58.8798L211.669 58.8699L210.758 59.2815ZM207.068 55.3865L206.581 56.26C206.587 56.2631 206.592 56.2662 206.598 56.2692L207.068 55.3865ZM194.686 55.3865L195.162 56.2661L195.167 56.2633L194.686 55.3865ZM191.078 59.2815L191.994 59.6832L191.995 59.6808L191.078 59.2815ZM191.078 70.1055L191.995 69.7062L191.994 69.7038L191.078 70.1055ZM194.686 74.0415L194.199 74.915C194.205 74.9181 194.21 74.9212 194.216 74.9243L194.686 74.0415ZM200.877 78.9045C197.489 78.9045 194.684 78.3218 192.423 77.2041L191.537 78.9969C194.141 80.2845 197.268 80.9045 200.877 80.9045V78.9045ZM192.423 77.2041C190.167 76.0887 188.541 74.5138 187.499 72.4786L185.719 73.3904C186.973 75.8379 188.928 77.707 191.537 78.9969L192.423 77.2041ZM187.457 72.4045C186.834 71.4082 186.353 70.2619 186.02 68.9565L184.082 69.4505C184.46 70.9331 185.017 72.2742 185.761 73.4645L187.457 72.4045ZM186.024 68.9745C185.716 67.6643 185.559 66.2386 185.559 64.6935H183.559C183.559 66.3738 183.73 67.9547 184.078 69.4325L186.024 68.9745ZM185.559 64.6935C185.559 62.1602 186.003 59.9229 186.868 57.9634L185.038 57.1556C184.045 59.4054 183.559 61.9241 183.559 64.6935H185.559ZM186.866 57.9674C187.922 55.6038 189.612 53.7838 191.969 52.4913L191.007 50.7377C188.28 52.2332 186.28 54.3766 185.04 57.1516L186.866 57.9674ZM191.976 52.4873C194.332 51.1699 197.297 50.4825 200.918 50.4825V48.4825C197.05 48.4825 193.728 49.2164 191 50.7417L191.976 52.4873ZM200.918 50.4825C204.514 50.4825 207.467 51.1568 209.826 52.4503L210.788 50.6967C208.063 49.2022 204.757 48.4825 200.918 48.4825V50.4825ZM209.826 52.4503C212.187 53.7452 213.861 55.5396 214.888 57.8436L216.714 57.0294C215.5 54.3041 213.511 52.1898 210.788 50.6967L209.826 52.4503ZM214.887 57.8416C215.78 59.8573 216.236 62.1357 216.236 64.6935H218.236C218.236 61.894 217.736 59.3344 216.715 57.0314L214.887 57.8416ZM216.236 64.6935C216.236 67.3347 215.766 69.6339 214.852 71.6134L216.668 72.4516C217.722 70.1671 218.236 67.5737 218.236 64.6935H216.236ZM214.85 71.6172C213.797 73.9241 212.11 75.7056 209.751 76.9737L210.699 78.7353C213.424 77.2701 215.427 75.1703 216.67 72.4478L214.85 71.6172ZM209.747 76.9759C207.417 78.2426 204.476 78.9045 200.877 78.9045V80.9045C204.713 80.9045 208.004 80.1997 210.703 78.7331L209.747 76.9759ZM200.918 76.3945C203.471 76.3945 205.695 75.9214 207.544 74.921L206.592 73.162C205.107 73.9656 203.23 74.3945 200.918 74.3945V76.3945ZM207.549 74.9183C209.426 73.8891 210.811 72.4176 211.669 70.5171L209.847 69.6939C209.174 71.1827 208.1 72.3352 206.587 73.1647L207.549 74.9183ZM211.674 70.5072C212.423 68.7994 212.783 66.854 212.783 64.6935H210.783C210.783 66.633 210.46 68.2956 209.842 69.7038L211.674 70.5072ZM212.783 64.6935C212.783 62.533 212.423 60.5876 211.674 58.8798L209.842 59.6832C210.46 61.0914 210.783 62.754 210.783 64.6935H212.783ZM211.669 58.8699C210.81 56.9668 209.421 55.506 207.538 54.5038L206.598 56.2692C208.104 57.071 209.175 58.2069 209.847 59.6931L211.669 58.8699ZM207.555 54.513C205.703 53.481 203.475 52.9925 200.918 52.9925V54.9925C203.226 54.9925 205.098 55.4334 206.581 56.26L207.555 54.513ZM200.918 52.9925C198.335 52.9925 196.082 53.4804 194.205 54.5097L195.167 56.2633C196.679 55.4339 198.581 54.9925 200.918 54.9925V52.9925ZM194.21 54.507C192.352 55.5123 190.991 56.9771 190.161 58.8822L191.995 59.6808C192.641 58.1966 193.686 57.0647 195.162 56.266L194.21 54.507ZM190.162 58.8798C189.413 60.5876 189.053 62.533 189.053 64.6935H191.053C191.053 62.754 191.376 61.0914 191.994 59.6832L190.162 58.8798ZM189.053 64.6935C189.053 66.854 189.413 68.7994 190.162 70.5072L191.994 69.7038C191.376 68.2956 191.053 66.633 191.053 64.6935H189.053ZM190.161 70.5048C190.99 72.4073 192.347 73.8827 194.199 74.915L195.173 73.168C193.69 72.3416 192.642 71.193 191.995 69.7062L190.161 70.5048ZM194.216 74.9243C196.09 75.9219 198.339 76.3945 200.918 76.3945V74.3945C198.577 74.3945 196.671 73.9651 195.156 73.1588L194.216 74.9243ZM221.545 50.2205V49.2205C220.993 49.2205 220.545 49.6682 220.545 50.2205H221.545ZM226.67 50.2205H227.67C227.67 49.6682 227.222 49.2205 226.67 49.2205V50.2205ZM226.67 74.7795H225.67C225.67 75.3318 226.118 75.7795 226.67 75.7795V74.7795ZM237.699 74.7795H238.699C238.699 74.2272 238.251 73.7795 237.699 73.7795V74.7795ZM237.699 79.1665V80.1665C238.251 80.1665 238.699 79.7188 238.699 79.1665H237.699ZM221.545 79.1665H220.545C220.545 79.7188 220.993 80.1665 221.545 80.1665V79.1665ZM221.545 51.2205H226.67V49.2205H221.545V51.2205ZM225.67 50.2205V74.7795H227.67V50.2205H225.67ZM226.67 75.7795H237.699V73.7795H226.67V75.7795ZM236.699 74.7795V79.1665H238.699V74.7795H236.699ZM237.699 78.1665H221.545V80.1665H237.699V78.1665ZM222.545 79.1665V50.2205H220.545V79.1665H222.545Z" fill="url(#paint3_linear_618_39676)"/>
<defs>
<linearGradient id="paint0_linear_618_39676" x1="240.27" y1="-0.594238" x2="240.27" y2="18.6927" gradientUnits="userSpaceOnUse">
<stop stop-color="white"/>
<stop offset="1" stop-color="#0094FF" stop-opacity="0"/>
</linearGradient>
<linearGradient id="paint1_linear_618_39676" x1="218.299" y1="0.94324" x2="218.299" y2="19.9784" gradientUnits="userSpaceOnUse">
<stop stop-color="#FF95CE"/>
<stop offset="1" stop-color="#9B78FF" stop-opacity="0.35"/>
</linearGradient>
<linearGradient id="paint2_linear_618_39676" x1="217.956" y1="0.166504" x2="217.956" y2="41.1665" gradientUnits="userSpaceOnUse">
<stop stop-color="white"/>
<stop offset="0.296159" stop-color="#B7CAFC" stop-opacity="0.18"/>
<stop offset="0.312723" stop-color="#BACDFF" stop-opacity="0.76"/>
<stop offset="0.491612" stop-color="#00164F" stop-opacity="0"/>
<stop offset="0.757582" stop-color="#00164F" stop-opacity="0"/>
</linearGradient>
<linearGradient id="paint3_linear_618_39676" x1="119.5" y1="48.1665" x2="119.5" y2="89.1665" gradientUnits="userSpaceOnUse">
<stop stop-color="#FF7CB1"/>
<stop offset="0.622162" stop-color="#FC408C" stop-opacity="0.34"/>
</linearGradient>
</defs>
</svg>
