<svg width="608" height="54" viewBox="0 0 608 54" fill="none" xmlns="http://www.w3.org/2000/svg">
<path d="M1.07522 10.6068H8.0683V27.1665H30.3343V10.6068H37.3273V50.1038H30.3343V33.2085H8.0683V50.1038H1.07522V10.6068ZM56.918 32.9847L40.9179 10.6068H49.1417L60.3866 26.607L71.6315 10.6068H79.7994L63.8552 32.9847V50.1038H56.918V32.9847ZM83.3532 10.6068H101.2C106.085 10.6068 110.188 11.4833 113.507 13.2362C116.827 14.9892 119.232 17.5626 120.724 20.9566C121.918 23.6419 122.514 26.7748 122.514 30.3553C122.514 34.0849 121.918 37.2178 120.724 39.754C119.232 43.148 116.808 45.7214 113.451 47.4744C110.132 49.2273 106.048 50.1038 101.2 50.1038H83.3532V10.6068ZM100.472 44.1177C107.297 44.1177 111.754 41.8426 113.843 37.2924C114.664 35.4276 115.074 33.1152 115.074 30.3553C115.074 27.5954 114.664 25.283 113.843 23.4182C111.754 18.868 107.297 16.5929 100.472 16.5929H90.3463V44.1177H100.472ZM140.735 34.1036H135.364V50.1038H128.371V10.6068H147.504C150.824 10.6068 153.584 11.129 155.784 12.1733C158.022 13.2176 159.588 14.784 160.483 16.8726C161.155 18.3272 161.49 20.0428 161.49 22.0195C161.49 24.22 161.136 26.0849 160.427 27.614C159.532 29.628 158.134 31.1758 156.232 32.2574C154.367 33.339 152.054 33.9358 149.294 34.0476L164.288 50.1038H155.336L140.735 34.1036ZM135.364 28.3972H145.77C148.008 28.3972 149.779 28.1548 151.085 27.67C152.427 27.1851 153.341 26.3832 153.826 25.2643C154.199 24.4811 154.385 23.4555 154.385 22.1874C154.385 21.1058 154.218 20.2107 153.882 19.502C153.36 18.3458 152.427 17.5253 151.085 17.0405C149.742 16.5556 147.97 16.3132 145.77 16.3132H135.364V28.3972ZM197.657 40.6491H176.622L172.706 50.1038H165.209L182.104 10.6068H192.118L208.958 50.1038H201.573L197.657 40.6491ZM195.195 34.7749L187.139 15.3062H187.027L179.027 34.7749H195.195Z" fill="white"/>
<path fill-rule="evenodd" clip-rule="evenodd" d="M210.524 0.121094H221.625C224.602 0.121094 227.131 0.654951 229.193 1.74428C231.262 2.83684 232.768 4.447 233.7 6.56549C234.442 8.23656 234.807 10.1725 234.807 12.3637C234.807 14.639 234.444 16.5783 233.698 18.1659C232.766 20.2836 231.249 21.8923 229.159 22.9837L229.16 22.9832L228.976 22.6352L229.159 22.9837C227.097 24.0725 224.58 24.6064 221.625 24.6064H210.524V0.121094ZM221.189 4.1063L215.113 4.10629L215.113 20.6212V4.1063H221.189ZM233.34 6.72451C234.056 8.33572 234.414 10.2155 234.414 12.3637C234.414 14.6015 234.056 16.4813 233.34 18.003C232.445 20.0393 230.99 21.5834 228.976 22.6352C226.984 23.6869 224.534 24.2128 221.625 24.2128H210.917V0.514648H221.625C224.556 0.514648 227.018 1.04053 229.01 2.09229C231.001 3.14405 232.445 4.68812 233.34 6.72451ZM245.785 11.6924L236.219 0.514654H241.388L248.37 8.77209L255.352 0.514654H260.487L250.954 11.726L261.595 24.2128H256.392L248.37 14.7134L240.347 24.2128H235.077L245.785 11.6924ZM248.37 15.3234L240.53 24.6064H234.223L245.267 11.6925L235.364 0.121094H241.571L248.37 8.16254L255.169 0.121094H261.339L251.471 11.7257L262.448 24.6064H256.209L248.37 15.3234Z" fill="url(#paint0_linear_2230_39807)"/>
<path d="M210.917 0.514648H221.625C224.556 0.514648 227.018 1.04053 229.01 2.09229C231.001 3.14405 232.445 4.68812 233.34 6.7245C234.056 8.33571 234.414 10.2155 234.414 12.3637C234.414 14.6015 234.056 16.4812 233.34 18.0029C232.445 20.0393 230.99 21.5834 228.976 22.6352C226.984 23.6869 224.534 24.2128 221.625 24.2128H210.917V0.514648ZM221.189 20.6212C225.284 20.6212 227.958 19.2561 229.211 16.526C229.703 15.4071 229.949 14.0197 229.949 12.3637C229.949 10.7078 229.703 9.32034 229.211 8.20144C227.958 5.47134 225.284 4.10629 221.189 4.10629H215.113V20.6212H221.189Z" fill="url(#paint1_linear_2230_39807)"/>
<path d="M245.785 11.6924L236.219 0.514648H241.388L248.37 8.77208L255.352 0.514648H260.487L250.954 11.726L261.595 24.2128H256.392L248.37 14.7134L240.347 24.2128H235.077L245.785 11.6924Z" fill="url(#paint2_linear_2230_39807)"/>
<path d="M283.048 10.7934H301.192C308.098 10.7934 312.485 12.8654 314.352 17.0094C315.061 18.5401 315.416 20.4254 315.416 22.6654C315.416 24.9801 315.061 26.8654 314.352 28.3214C312.485 32.5027 308.098 34.5934 301.192 34.5934H290.048V50.3294H283.048V10.7934ZM299.68 28.7134C301.994 28.7134 303.786 28.5081 305.056 28.0974C306.362 27.6494 307.277 26.8467 307.8 25.6894C308.136 24.8307 308.304 23.8601 308.304 22.7774C308.304 21.5081 308.117 20.4814 307.744 19.6974C307.221 18.5401 306.306 17.7374 305 17.2894C303.693 16.8414 301.92 16.6174 299.68 16.6174H290.048V28.7134H299.68Z" fill="#FC408C"/>
<path d="M332.83 34.3134H327.454V50.3294H320.454V10.7934H339.606C342.929 10.7934 345.691 11.3161 347.894 12.3614C350.134 13.4067 351.702 14.9747 352.598 17.0654C353.27 18.5214 353.606 20.2387 353.606 22.2174C353.606 24.4201 353.251 26.2867 352.542 27.8174C351.646 29.8334 350.246 31.3827 348.342 32.4654C346.475 33.5481 344.161 34.1454 341.398 34.2574L356.406 50.3294H347.446L332.83 34.3134ZM327.454 28.6014H337.87C340.11 28.6014 341.883 28.3587 343.19 27.8734C344.534 27.3881 345.449 26.5854 345.934 25.4654C346.307 24.6814 346.494 23.6547 346.494 22.3854C346.494 21.3027 346.326 20.4067 345.99 19.6974C345.467 18.5401 344.534 17.7187 343.19 17.2334C341.846 16.7481 340.073 16.5054 337.87 16.5054H327.454V28.6014Z" fill="#FC408C"/>
<path d="M380.053 51.3374C375.274 51.3374 371.224 50.5161 367.901 48.8734C364.578 47.2307 362.133 44.8787 360.565 41.8174C359.632 40.3241 358.922 38.6254 358.437 36.7214C357.989 34.8174 357.765 32.7641 357.765 30.5614C357.765 26.9401 358.4 23.6921 359.669 20.8174C361.237 17.3081 363.757 14.6014 367.229 12.6974C370.701 10.7561 374.994 9.7854 380.109 9.7854C385.186 9.7854 389.461 10.7374 392.933 12.6414C396.405 14.5454 398.906 17.2147 400.437 20.6494C401.744 23.5987 402.397 26.9027 402.397 30.5614C402.397 34.3321 401.725 37.6734 400.381 40.5854C398.813 44.0201 396.293 46.6707 392.821 48.5374C389.386 50.4041 385.13 51.3374 380.053 51.3374ZM380.109 45.1774C383.432 45.1774 386.232 44.5614 388.509 43.3294C390.824 42.0601 392.504 40.2681 393.549 37.9534C394.482 35.8254 394.949 33.3614 394.949 30.5614C394.949 27.7614 394.482 25.2974 393.549 23.1694C392.504 20.8547 390.824 19.0814 388.509 17.8494C386.232 16.5801 383.432 15.9454 380.109 15.9454C376.749 15.9454 373.912 16.5801 371.597 17.8494C369.32 19.0814 367.677 20.8547 366.669 23.1694C365.736 25.2974 365.269 27.7614 365.269 30.5614C365.269 33.3614 365.736 35.8254 366.669 37.9534C367.677 40.2681 369.32 42.0601 371.597 43.3294C373.912 44.5614 376.749 45.1774 380.109 45.1774Z" fill="#FC408C"/>
<path d="M415.316 16.7854H403.556V10.7934H434.02V16.7854H422.316V50.3294H415.316V16.7854Z" fill="#FC408C"/>
<path d="M457.381 51.3374C452.602 51.3374 448.552 50.5161 445.229 48.8734C441.906 47.2307 439.461 44.8787 437.893 41.8174C436.96 40.3241 436.25 38.6254 435.765 36.7214C435.317 34.8174 435.093 32.7641 435.093 30.5614C435.093 26.9401 435.728 23.6921 436.997 20.8174C438.565 17.3081 441.085 14.6014 444.557 12.6974C448.029 10.7561 452.322 9.7854 457.437 9.7854C462.514 9.7854 466.789 10.7374 470.261 12.6414C473.733 14.5454 476.234 17.2147 477.765 20.6494C479.072 23.5987 479.725 26.9027 479.725 30.5614C479.725 34.3321 479.053 37.6734 477.709 40.5854C476.141 44.0201 473.621 46.6707 470.149 48.5374C466.714 50.4041 462.458 51.3374 457.381 51.3374ZM457.437 45.1774C460.76 45.1774 463.56 44.5614 465.837 43.3294C468.152 42.0601 469.832 40.2681 470.877 37.9534C471.81 35.8254 472.277 33.3614 472.277 30.5614C472.277 27.7614 471.81 25.2974 470.877 23.1694C469.832 20.8547 468.152 19.0814 465.837 17.8494C463.56 16.5801 460.76 15.9454 457.437 15.9454C454.077 15.9454 451.24 16.5801 448.925 17.8494C446.648 19.0814 445.005 20.8547 443.997 23.1694C443.064 25.2974 442.597 27.7614 442.597 30.5614C442.597 33.3614 443.064 35.8254 443.997 37.9534C445.005 40.2681 446.648 42.0601 448.925 43.3294C451.24 44.5614 454.077 45.1774 457.437 45.1774Z" fill="#FC408C"/>
<path d="M506.273 51.3374C501.158 51.3374 496.865 50.3854 493.393 48.4814C489.921 46.5774 487.401 43.8521 485.833 40.3054C484.564 37.5054 483.929 34.2574 483.929 30.5614C483.929 26.9401 484.564 23.6921 485.833 20.8174C487.401 17.3081 489.94 14.6014 493.449 12.6974C496.958 10.7561 501.233 9.7854 506.273 9.7854C509.521 9.7854 512.526 10.2334 515.289 11.1294C518.052 11.9881 520.385 13.2761 522.289 14.9934C523.82 16.4494 525.014 18.1294 525.873 20.0334C526.732 21.9001 527.198 23.9347 527.273 26.1374H519.937C519.676 23.3374 518.574 21.0601 516.633 19.3054C515.401 18.1854 513.889 17.3454 512.097 16.7854C510.342 16.1881 508.382 15.8894 506.217 15.8894C502.894 15.8894 500.076 16.5241 497.761 17.7934C495.484 19.0254 493.822 20.7987 492.777 23.1134C491.881 25.1667 491.433 27.6494 491.433 30.5614C491.433 33.5854 491.881 36.0681 492.777 38.0094C493.822 40.3614 495.502 42.1534 497.817 43.3854C500.132 44.6174 502.932 45.2334 506.217 45.2334C508.457 45.2334 510.492 44.9534 512.321 44.3934C514.15 43.7961 515.681 42.9374 516.913 41.8174C518.854 40.1374 519.9 37.8414 520.049 34.9294H527.385C527.31 37.2441 526.844 39.3534 525.985 41.2574C525.126 43.1241 523.932 44.7481 522.401 46.1294C520.534 47.8467 518.201 49.1534 515.401 50.0494C512.638 50.9081 509.596 51.3374 506.273 51.3374Z" fill="#FC408C"/>
<path d="M553.686 51.3374C548.907 51.3374 544.856 50.5161 541.534 48.8734C538.211 47.2307 535.766 44.8787 534.198 41.8174C533.264 40.3241 532.555 38.6254 532.07 36.7214C531.622 34.8174 531.398 32.7641 531.398 30.5614C531.398 26.9401 532.032 23.6921 533.302 20.8174C534.87 17.3081 537.39 14.6014 540.862 12.6974C544.334 10.7561 548.627 9.7854 553.742 9.7854C558.819 9.7854 563.094 10.7374 566.566 12.6414C570.038 14.5454 572.539 17.2147 574.07 20.6494C575.376 23.5987 576.03 26.9027 576.03 30.5614C576.03 34.3321 575.358 37.6734 574.014 40.5854C572.446 44.0201 569.926 46.6707 566.454 48.5374C563.019 50.4041 558.763 51.3374 553.686 51.3374ZM553.742 45.1774C557.064 45.1774 559.864 44.5614 562.142 43.3294C564.456 42.0601 566.136 40.2681 567.182 37.9534C568.115 35.8254 568.582 33.3614 568.582 30.5614C568.582 27.7614 568.115 25.2974 567.182 23.1694C566.136 20.8547 564.456 19.0814 562.142 17.8494C559.864 16.5801 557.064 15.9454 553.742 15.9454C550.382 15.9454 547.544 16.5801 545.23 17.8494C542.952 19.0814 541.31 20.8547 540.302 23.1694C539.368 25.2974 538.902 27.7614 538.902 30.5614C538.902 33.3614 539.368 35.8254 540.302 37.9534C541.31 40.2681 542.952 42.0601 545.23 43.3294C547.544 44.5614 550.382 45.1774 553.742 45.1774Z" fill="#FC408C"/>
<path d="M581.915 10.7934H588.915V44.3374H603.979V50.3294H581.915V10.7934Z" fill="#FC408C"/>
<path fill-rule="evenodd" clip-rule="evenodd" d="M282.048 10.7934C282.048 10.2411 282.495 9.7934 283.048 9.7934H301.192C308.258 9.7934 313.154 11.9229 315.261 16.5937C316.047 18.2909 316.416 20.3277 316.416 22.6654C316.416 25.0638 316.051 27.1086 315.258 28.7442C313.151 33.4454 308.257 35.5934 301.192 35.5934H291.048V50.3294C291.048 50.8817 290.6 51.3294 290.048 51.3294H283.048C282.495 51.3294 282.048 50.8817 282.048 50.3294V10.7934ZM290.048 34.5934H301.192C308.098 34.5934 312.485 32.5027 314.352 28.3214C315.061 26.8654 315.416 24.9801 315.416 22.6654C315.416 20.4254 315.061 18.5401 314.352 17.0094C312.485 12.8654 308.098 10.7934 301.192 10.7934H283.048V50.3294H290.048V34.5934ZM306.841 20.1273L306.832 20.109C306.434 19.2267 305.747 18.6026 304.675 18.2353C303.518 17.8384 301.869 17.6174 299.68 17.6174H291.048V27.7134H299.68C301.949 27.7134 303.617 27.5102 304.74 27.1486C305.797 26.7842 306.479 26.1687 306.878 25.3007C307.155 24.5819 307.304 23.7458 307.304 22.7774C307.304 21.5935 307.128 20.7297 306.841 20.1273ZM307.8 25.6894C307.277 26.8467 306.362 27.6494 305.056 28.0974C303.786 28.5081 301.994 28.7134 299.68 28.7134H290.048V16.6174H299.68C301.92 16.6174 303.693 16.8414 305 17.2894C306.306 17.7374 307.221 18.5401 307.744 19.6974C308.117 20.4814 308.304 21.5081 308.304 22.7774C308.304 23.8601 308.136 24.8307 307.8 25.6894ZM347.446 50.3294L332.83 34.3134H327.454V50.3294H320.454V10.7934H339.606C342.929 10.7934 345.691 11.3161 347.894 12.3614C350.134 13.4067 351.702 14.9747 352.598 17.0654C353.27 18.5214 353.606 20.2387 353.606 22.2174C353.606 24.4201 353.251 26.2867 352.542 27.8174C351.646 29.8334 350.246 31.3827 348.342 32.4654C346.772 33.3759 344.885 33.9432 342.682 34.1672C342.265 34.2095 341.837 34.2396 341.398 34.2574L356.406 50.3294H347.446ZM343.527 35.0724L357.137 49.6469C357.409 49.938 357.482 50.3626 357.323 50.7278C357.165 51.0931 356.804 51.3294 356.406 51.3294H347.446C347.165 51.3294 346.897 51.2111 346.707 51.0035L332.389 35.3134H328.454V50.3294C328.454 50.8817 328.006 51.3294 327.454 51.3294H320.454C319.902 51.3294 319.454 50.8817 319.454 50.3294V10.7934C319.454 10.2411 319.902 9.7934 320.454 9.7934H339.606C343.025 9.7934 345.944 10.3299 348.32 11.4566C350.756 12.5941 352.51 14.3291 353.512 16.6588C354.253 18.2703 354.606 20.1324 354.606 22.2174C354.606 24.5196 354.236 26.536 353.453 28.2308C352.471 30.4356 350.927 32.1448 348.84 33.3325C347.311 34.2187 345.534 34.7917 343.527 35.0724ZM342.85 26.9328C343.983 26.5237 344.66 25.8915 345.016 25.0678C345.019 25.0614 345.022 25.055 345.025 25.0487C345.027 25.0442 345.029 25.0398 345.031 25.0355C345.318 24.4331 345.494 23.5693 345.494 22.3854C345.494 21.3979 345.34 20.6603 345.086 20.1255L345.079 20.109C344.682 19.2299 343.975 18.5801 342.85 18.174C341.658 17.7433 340.013 17.5054 337.87 17.5054H328.454V27.6014H337.87C340.054 27.6014 341.693 27.3625 342.842 26.936L342.85 26.9328ZM337.87 28.6014C340.11 28.6014 341.883 28.3587 343.19 27.8734C344.534 27.3881 345.449 26.5854 345.934 25.4654C346.307 24.6814 346.494 23.6547 346.494 22.3854C346.494 21.3027 346.326 20.4067 345.99 19.6974C345.467 18.5401 344.534 17.7187 343.19 17.2334C341.846 16.7481 340.073 16.5054 337.87 16.5054H327.454V28.6014H337.87ZM357.468 36.9684L357.463 36.9504C356.996 34.9626 356.765 32.8317 356.765 30.5614C356.765 26.822 357.421 23.4333 358.754 20.4135L358.756 20.4095C360.415 16.6956 363.089 13.8279 366.745 11.8224C370.402 9.77863 374.873 8.7854 380.109 8.7854C385.308 8.7854 389.758 9.76011 393.414 11.7646C397.066 13.7677 399.726 16.597 401.35 20.2423L401.351 20.2443C402.721 23.3373 403.397 26.7819 403.397 30.5614C403.397 34.4508 402.703 37.9386 401.29 41.0026C399.627 44.6434 396.95 47.4522 393.297 49.417C389.678 51.3829 385.248 52.3374 380.053 52.3374C375.163 52.3374 370.952 51.4974 367.458 49.7698C363.972 48.0466 361.369 45.5601 359.694 42.3112C358.712 40.7298 357.972 38.9459 357.468 36.9684ZM360.565 41.8174C359.632 40.3241 358.922 38.6254 358.437 36.7214C357.989 34.8174 357.765 32.7641 357.765 30.5614C357.765 26.9401 358.4 23.6921 359.669 20.8174C361.237 17.3081 363.757 14.6014 367.229 12.6974C370.701 10.7561 374.994 9.7854 380.109 9.7854C385.186 9.7854 389.461 10.7374 392.933 12.6414C396.405 14.5454 398.906 17.2147 400.437 20.6494C401.744 23.5987 402.397 26.9027 402.397 30.5614C402.397 34.3321 401.725 37.6734 400.381 40.5854C398.813 44.0201 396.293 46.6707 392.821 48.5374C389.386 50.4041 385.13 51.3374 380.053 51.3374C375.274 51.3374 371.224 50.5161 367.901 48.8734C364.578 47.2307 362.133 44.8787 360.565 41.8174ZM388.039 18.7321L388.022 18.7229C385.929 17.5563 383.307 16.9454 380.109 16.9454C376.872 16.9454 374.21 17.5568 372.078 18.7262L372.073 18.729C369.986 19.8576 368.502 21.4645 367.586 23.5687L367.585 23.5711C366.717 25.5493 366.269 27.8719 366.269 30.5614C366.269 33.2509 366.717 35.5735 367.585 37.5517L367.586 37.5541C368.502 39.6581 369.987 41.2851 372.075 42.4512C374.209 43.5846 376.872 44.1774 380.109 44.1774C383.31 44.1774 385.935 43.5841 388.03 42.4514C390.16 41.283 391.683 39.6525 392.635 37.5467C393.501 35.5696 393.949 33.2486 393.949 30.5614C393.949 27.8742 393.501 25.5532 392.635 23.5761C391.684 21.4723 390.164 19.863 388.039 18.7321ZM393.549 23.1694C394.482 25.2974 394.949 27.7614 394.949 30.5614C394.949 33.3614 394.482 35.8254 393.549 37.9534C392.504 40.2681 390.824 42.0601 388.509 43.3294C386.232 44.5614 383.432 45.1774 380.109 45.1774C376.749 45.1774 373.912 44.5614 371.597 43.3294C369.32 42.0601 367.677 40.2681 366.669 37.9534C365.736 35.8254 365.269 33.3614 365.269 30.5614C365.269 27.7614 365.736 25.2974 366.669 23.1694C367.677 20.8547 369.32 19.0814 371.597 17.8494C373.912 16.5801 376.749 15.9454 380.109 15.9454C383.432 15.9454 386.232 16.5801 388.509 17.8494C390.824 19.0814 392.504 20.8547 393.549 23.1694ZM403.556 17.7854C403.004 17.7854 402.556 17.3377 402.556 16.7854V10.7934C402.556 10.2411 403.004 9.7934 403.556 9.7934H434.02C434.573 9.7934 435.02 10.2411 435.02 10.7934V16.7854C435.02 17.3377 434.573 17.7854 434.02 17.7854H423.316V50.3294C423.316 50.8817 422.869 51.3294 422.316 51.3294H415.316C414.764 51.3294 414.316 50.8817 414.316 50.3294V17.7854H403.556ZM415.316 16.7854V50.3294H422.316V16.7854H434.02V10.7934H403.556V16.7854H415.316ZM434.796 36.9684L434.792 36.9504C434.324 34.9626 434.093 32.8317 434.093 30.5614C434.093 26.822 434.749 23.4333 436.082 20.4135L436.084 20.4095C437.743 16.6958 440.417 13.8281 444.072 11.8227C447.73 9.7787 452.201 8.7854 457.437 8.7854C462.636 8.7854 467.087 9.76011 470.742 11.7646C474.395 13.7677 477.054 16.597 478.678 20.2423L478.679 20.2443C480.05 23.3373 480.725 26.7819 480.725 30.5614C480.725 34.4511 480.031 37.9392 478.617 41.0034C476.955 44.6443 474.277 47.4531 470.623 49.4178C467.005 51.3832 462.575 52.3374 457.381 52.3374C452.492 52.3374 448.28 51.4974 444.786 49.7698C441.3 48.0466 438.697 45.56 437.022 42.3111C436.04 40.7297 435.3 38.9458 434.796 36.9684ZM437.893 41.8174C436.96 40.3241 436.25 38.6254 435.765 36.7214C435.317 34.8174 435.093 32.7641 435.093 30.5614C435.093 26.9401 435.728 23.6921 436.997 20.8174C438.565 17.3081 441.085 14.6014 444.557 12.6974C448.029 10.7561 452.322 9.7854 457.437 9.7854C462.514 9.7854 466.789 10.7374 470.261 12.6414C473.733 14.5454 476.234 17.2147 477.765 20.6494C479.072 23.5987 479.725 26.9027 479.725 30.5614C479.725 34.3321 479.053 37.6734 477.709 40.5854C476.141 44.0201 473.621 46.6707 470.149 48.5374C466.714 50.4041 462.458 51.3374 457.381 51.3374C452.602 51.3374 448.552 50.5161 445.229 48.8734C441.906 47.2307 439.461 44.8787 437.893 41.8174ZM465.367 18.7321L465.35 18.7229C463.257 17.5563 460.635 16.9454 457.437 16.9454C454.2 16.9454 451.538 17.5568 449.406 18.7262L449.401 18.729C447.315 19.8576 445.83 21.4645 444.914 23.5687L444.913 23.5711C444.045 25.5493 443.597 27.8719 443.597 30.5614C443.597 33.2509 444.045 35.5735 444.913 37.5517L444.914 37.5541C445.83 39.6581 447.315 41.2852 449.403 42.4512C451.537 43.5846 454.2 44.1774 457.437 44.1774C460.638 44.1774 463.263 43.5841 465.358 42.4514C467.488 41.2829 469.011 39.6522 469.964 37.5462C470.83 35.5692 471.277 33.2484 471.277 30.5614C471.277 27.8744 470.83 25.5536 469.964 23.5766C469.012 21.4726 467.492 19.8631 465.367 18.7321ZM470.877 23.1694C471.81 25.2974 472.277 27.7614 472.277 30.5614C472.277 33.3614 471.81 35.8254 470.877 37.9534C469.832 40.2681 468.152 42.0601 465.837 43.3294C463.56 44.5614 460.76 45.1774 457.437 45.1774C454.077 45.1774 451.24 44.5614 448.925 43.3294C446.648 42.0601 445.005 40.2681 443.997 37.9534C443.064 35.8254 442.597 33.3614 442.597 30.5614C442.597 27.7614 443.064 25.2974 443.997 23.1694C445.005 20.8547 446.648 19.0814 448.925 17.8494C451.24 16.5801 454.077 15.9454 457.437 15.9454C460.76 15.9454 463.56 16.5801 465.837 17.8494C468.152 19.0814 469.832 20.8547 470.877 23.1694ZM527.327 35.9294C527.166 37.8552 526.718 39.6312 525.985 41.2574C525.126 43.1241 523.932 44.7481 522.401 46.1294C520.534 47.8467 518.201 49.1534 515.401 50.0494C512.638 50.9081 509.596 51.3374 506.273 51.3374C501.158 51.3374 496.865 50.3854 493.393 48.4814C489.921 46.5774 487.401 43.8521 485.833 40.3054C484.564 37.5054 483.929 34.2574 483.929 30.5614C483.929 26.9401 484.564 23.6921 485.833 20.8174C487.401 17.3081 489.94 14.6014 493.449 12.6974C496.958 10.7561 501.233 9.7854 506.273 9.7854C509.521 9.7854 512.526 10.2334 515.289 11.1294C518.052 11.9881 520.385 13.2761 522.289 14.9934C523.82 16.4494 525.014 18.1294 525.873 20.0334C526.6 21.6142 527.046 23.3156 527.211 25.1374C527.241 25.4668 527.261 25.8001 527.273 26.1374H519.937C519.676 23.3374 518.574 21.0601 516.633 19.3054C515.401 18.1854 513.889 17.3454 512.097 16.7854C510.342 16.1881 508.382 15.8894 506.217 15.8894C502.894 15.8894 500.076 16.5241 497.761 17.7934C495.484 19.0254 493.822 20.7987 492.777 23.1134C491.881 25.1667 491.433 27.6494 491.433 30.5614C491.433 33.5854 491.881 36.0681 492.777 38.0094C493.822 40.3614 495.502 42.1534 497.817 43.3854C500.132 44.6174 502.932 45.2334 506.217 45.2334C508.457 45.2334 510.492 44.9534 512.321 44.3934C514.15 43.7961 515.681 42.9374 516.913 41.8174C518.854 40.1374 519.9 37.8414 520.049 34.9294H527.385C527.374 35.2671 527.355 35.6004 527.327 35.9294ZM512.019 43.4399C513.731 42.8798 515.13 42.087 516.24 41.0775L516.259 41.0612C517.965 39.5844 518.913 37.5586 519.05 34.8782C519.077 34.3465 519.517 33.9294 520.049 33.9294H527.385C527.656 33.9294 527.915 34.0392 528.103 34.2338C528.292 34.4283 528.393 34.691 528.384 34.9616C528.306 37.3929 527.815 39.6328 526.897 41.6685L526.893 41.6753C525.979 43.6641 524.704 45.3973 523.075 46.8684C521.086 48.697 518.621 50.0691 515.706 51.0018L515.698 51.0044C512.826 51.8969 509.682 52.3374 506.273 52.3374C501.038 52.3374 496.568 51.3632 492.912 49.3582C489.254 47.3519 486.579 44.4644 484.921 40.7147C483.583 37.7623 482.929 34.37 482.929 30.5614C482.929 26.822 483.585 23.4333 484.918 20.4135L484.92 20.4095C486.581 16.6924 489.276 13.8246 492.969 11.8203C496.659 9.77993 501.108 8.7854 506.273 8.7854C509.611 8.7854 512.72 9.24567 515.592 10.1763C518.472 11.0724 520.936 12.4261 522.959 14.2508C522.965 14.2567 522.972 14.2628 522.978 14.2688C524.601 15.8121 525.871 17.5971 526.783 19.619C527.7 21.614 528.194 23.7792 528.272 26.1035C528.282 26.3745 528.18 26.6375 527.992 26.8324C527.803 27.0273 527.544 27.1374 527.273 27.1374H519.937C519.421 27.1374 518.989 26.7444 518.941 26.2303C518.701 23.6594 517.703 21.6208 515.962 20.0473L515.96 20.0453C514.849 19.0351 513.47 18.262 511.799 17.7399C511.791 17.7374 511.783 17.7348 511.775 17.7321C510.14 17.1754 508.291 16.8894 506.217 16.8894C503.02 16.8894 500.376 17.5 498.242 18.6702L498.237 18.673C496.15 19.8021 494.644 21.4113 493.691 23.5199C492.865 25.4142 492.433 27.7508 492.433 30.5614C492.433 33.4965 492.869 35.8231 493.685 37.5903L493.691 37.6033C494.644 39.7472 496.165 41.3734 498.287 42.5027C500.425 43.6406 503.055 44.2334 506.217 44.2334C508.37 44.2334 510.302 43.9646 512.019 43.4399ZM531.101 36.9684L531.096 36.9504C530.629 34.9626 530.398 32.8317 530.398 30.5614C530.398 26.822 531.053 23.4333 532.387 20.4135L532.389 20.4095C534.048 16.6958 536.722 13.8281 540.377 11.8227C544.034 9.7787 548.505 8.7854 553.742 8.7854C558.941 8.7854 563.391 9.76011 567.046 11.7646C570.699 13.7677 573.358 16.597 574.983 20.2423L574.984 20.2443C576.354 23.3373 577.03 26.7819 577.03 30.5614C577.03 34.45 576.337 37.9371 574.923 41.0007C573.261 44.6429 570.583 47.4526 566.928 49.4178C563.31 51.3832 558.88 52.3374 553.686 52.3374C548.796 52.3374 544.585 51.4974 541.09 49.7698C537.605 48.0466 535.001 45.56 533.327 42.3111C532.344 40.7297 531.605 38.9458 531.101 36.9684ZM534.198 41.8174C533.264 40.3241 532.555 38.6254 532.07 36.7214C531.622 34.8174 531.398 32.7641 531.398 30.5614C531.398 26.9401 532.032 23.6921 533.302 20.8174C534.87 17.3081 537.39 14.6014 540.862 12.6974C544.334 10.7561 548.627 9.7854 553.742 9.7854C558.819 9.7854 563.094 10.7374 566.566 12.6414C570.038 14.5454 572.539 17.2147 574.07 20.6494C575.376 23.5987 576.03 26.9027 576.03 30.5614C576.03 34.3321 575.358 37.6734 574.014 40.5854C572.446 44.0201 569.926 46.6707 566.454 48.5374C563.019 50.4041 558.763 51.3374 553.686 51.3374C548.907 51.3374 544.856 50.5161 541.534 48.8734C538.211 47.2307 535.766 44.8787 534.198 41.8174ZM561.672 18.7321L561.655 18.7229C559.562 17.5563 556.94 16.9454 553.742 16.9454C550.505 16.9454 547.843 17.5568 545.71 18.7262L545.705 18.729C543.619 19.8576 542.135 21.4645 541.219 23.5687L541.217 23.5711C540.35 25.5493 539.902 27.8719 539.902 30.5614C539.902 33.2509 540.35 35.5735 541.217 37.5517L541.219 37.5541C542.135 39.658 543.62 41.285 545.708 42.451C547.841 43.5845 550.505 44.1774 553.742 44.1774C556.943 44.1774 559.569 43.5839 561.664 42.4509C563.793 41.2825 565.316 39.6524 566.268 37.5473C567.134 35.57 567.582 33.2489 567.582 30.5614C567.582 27.8739 567.134 25.5528 566.268 23.5756C565.316 21.472 563.796 19.8629 561.672 18.7321ZM567.182 23.1694C568.115 25.2974 568.582 27.7614 568.582 30.5614C568.582 33.3614 568.115 35.8254 567.182 37.9534C566.136 40.2681 564.456 42.0601 562.142 43.3294C559.864 44.5614 557.064 45.1774 553.742 45.1774C550.382 45.1774 547.544 44.5614 545.23 43.3294C542.952 42.0601 541.31 40.2681 540.302 37.9534C539.368 35.8254 538.902 33.3614 538.902 30.5614C538.902 27.7614 539.368 25.2974 540.302 23.1694C541.31 20.8547 542.952 19.0814 545.23 17.8494C547.544 16.5801 550.382 15.9454 553.742 15.9454C557.064 15.9454 559.864 16.5801 562.142 17.8494C564.456 19.0814 566.136 20.8547 567.182 23.1694ZM580.915 10.7934C580.915 10.2411 581.363 9.7934 581.915 9.7934H588.915C589.467 9.7934 589.915 10.2411 589.915 10.7934V43.3374H603.979C604.531 43.3374 604.979 43.7851 604.979 44.3374V50.3294C604.979 50.8817 604.531 51.3294 603.979 51.3294H581.915C581.363 51.3294 580.915 50.8817 580.915 50.3294V10.7934ZM588.915 44.3374V10.7934H581.915V50.3294H603.979V44.3374H588.915Z" fill="url(#paint3_linear_2230_39807)"/>
<defs>
<linearGradient id="paint0_linear_2230_39807" x1="235.587" y1="0.212807" x2="235.587" y2="56.2128" gradientUnits="userSpaceOnUse">
<stop stop-color="white"/>
<stop offset="0.288821" stop-color="#EAB7FC" stop-opacity="0.21"/>
<stop offset="0.320072" stop-color="#FFD7ED"/>
<stop offset="0.512785" stop-color="#ADBBDF" stop-opacity="0.17"/>
<stop offset="0.757582" stop-color="#00164F" stop-opacity="0"/>
</linearGradient>
<linearGradient id="paint1_linear_2230_39807" x1="236.05" y1="1.2738" x2="236.05" y2="27.2731" gradientUnits="userSpaceOnUse">
<stop stop-color="#FF95CE"/>
<stop offset="1" stop-color="#9B78FF" stop-opacity="0.35"/>
</linearGradient>
<linearGradient id="paint2_linear_2230_39807" x1="236.05" y1="1.2738" x2="236.05" y2="27.2731" gradientUnits="userSpaceOnUse">
<stop stop-color="#FF95CE"/>
<stop offset="1" stop-color="#9B78FF" stop-opacity="0.35"/>
</linearGradient>
<linearGradient id="paint3_linear_2230_39807" x1="443.513" y1="8.7854" x2="443.513" y2="52.3374" gradientUnits="userSpaceOnUse">
<stop stop-color="#FF7CB1"/>
<stop offset="0.622162" stop-color="#FC408C" stop-opacity="0.34"/>
</linearGradient>
</defs>
</svg>
