<svg width="66" height="66" viewBox="0 0 66 66" fill="none" xmlns="http://www.w3.org/2000/svg">
<path d="M58.0168 48.5949C57.6562 48.5949 57.3668 48.8869 57.3668 49.2449V57.7001H37.831V51.7434C48.0048 49.3719 55.3355 40.1728 55.3355 29.6688C55.3355 17.1693 45.1662 7 32.6667 7C20.1672 7 9.998 17.1693 9.998 29.6688C9.998 40.1728 17.328 49.3716 27.5025 51.7434V57.7001H7.96675V49.2449C7.96675 48.8869 7.6773 48.5949 7.31675 48.5949C6.9562 48.5949 6.66675 48.8869 6.66675 49.2449V58.3501C6.66675 58.7081 6.9562 59.0001 7.31675 59.0001H28.1525C28.513 59.0001 28.8025 58.7081 28.8025 58.3501V51.2228C28.8025 50.9156 28.5867 50.649 28.2845 50.5855C18.4429 48.534 11.2981 39.7383 11.2981 29.6685C11.2981 17.8847 20.8856 8.29976 32.6668 8.29976C44.4481 8.29976 54.0356 17.8847 54.0356 29.6685C54.0356 39.7383 46.8908 48.5335 37.0491 50.5855C36.747 50.649 36.5312 50.9131 36.5312 51.2228L36.5337 58.3501C36.5337 58.7081 36.8231 59.0001 37.1837 59.0001H58.0168C58.3774 59.0001 58.6668 58.7081 58.6668 58.3501V49.2449C58.6668 48.8843 58.3774 48.5949 58.0168 48.5949H58.0168Z" fill="#A6DDFF"/>
</svg>
