<svg width="66" height="66" viewBox="0 0 66 66" fill="none" xmlns="http://www.w3.org/2000/svg">
<path d="M14.4401 40.107C14.4401 50.5246 22.9155 58.9999 33.333 58.9999C43.7506 58.9999 52.2259 50.5246 52.2259 40.107C52.2259 34.2113 49.5091 28.9374 45.2638 25.4716C45.2485 25.4564 45.2409 25.4386 45.2231 25.4259L44.8524 25.1466C44.7077 25.0349 44.563 24.9257 44.4157 24.8191L22.382 8.3H45.0761C45.4367 8.3 45.7261 8.00801 45.7261 7.65C45.7261 7.29199 45.4367 7 45.0761 7H20.4294C20.1501 7 19.9013 7.17774 19.8124 7.44433C19.7235 7.7084 19.815 8.00293 20.0384 8.17051L38.3424 21.894C36.7479 21.4522 35.0695 21.2135 33.3328 21.2135C22.9153 21.2135 14.4399 29.6888 14.4399 40.1064L14.4401 40.107ZM44.0938 26.2029C48.2476 29.4249 50.9266 34.4572 50.9266 40.107C50.9266 49.8089 43.0349 57.6999 33.3337 57.6999C23.6324 57.6999 15.7408 49.8083 15.7408 40.107C15.7408 30.4051 23.6324 22.5141 33.3337 22.5141C37.1727 22.5141 40.7274 23.7532 43.6219 25.8479L44.0938 26.2029Z" fill="#A6DDFF"/>
</svg>
