<svg width="66" height="66" viewBox="0 0 66 66" fill="none" xmlns="http://www.w3.org/2000/svg">
<path d="M7.69115 8.34405H9.86147C12.0241 8.34405 13.7834 10.1033 13.7834 12.266V18.0212C13.7834 28.6071 22.1841 37.4543 32.5301 37.7994V58.0221H26.4864C26.1264 58.0221 25.8327 58.3157 25.8327 58.6758C25.8327 59.0358 26.1264 59.3294 26.4864 59.3294H39.881C40.2411 59.3294 40.5347 59.0358 40.5347 58.6758C40.5347 58.3157 40.2411 58.0221 39.881 58.0221H33.8373V37.7974C38.6784 37.6391 43.2133 35.7216 46.711 32.318C50.4976 28.6336 52.5837 23.6931 52.5837 18.4102L52.5862 12.2669C52.5862 10.1043 54.3455 8.34503 56.5081 8.34503H58.6427C59.0027 8.34503 59.2964 8.0514 59.2964 7.69138C59.2964 7.33136 59.0027 7.03773 58.6427 7.03773H56.5081C53.6254 7.03773 51.2789 9.38421 51.2789 12.2669V18.4128C51.2789 23.3407 49.3333 27.947 45.802 31.3839C42.5491 34.5449 38.3386 36.3271 33.8369 36.4905V8.3449H39.8807C40.2407 8.3449 40.5343 8.05127 40.5343 7.69125C40.5343 7.33123 40.2407 7.0376 39.8807 7.0376H26.486C26.126 7.0376 25.8324 7.33123 25.8324 7.69125C25.8324 8.05127 26.126 8.3449 26.486 8.3449H32.5297V36.4905C22.8988 36.1458 15.0903 27.8937 15.0903 18.0222V12.267C15.0903 9.38428 12.7438 7.03779 9.86108 7.03779H7.69076C7.33074 7.03779 7.03711 7.33143 7.03711 7.69145C7.03711 8.05147 7.33074 8.3451 7.69076 8.3451L7.69115 8.34405Z" fill="#A6DDFF"/>
</svg>
