<svg width="54" height="54" viewBox="0 0 54 54" fill="none" xmlns="http://www.w3.org/2000/svg">
<mask id="path-1-outside-1_516_26446" maskUnits="userSpaceOnUse" x="0.45752" y="7.69141" width="54" height="39" fill="black">
<rect fill="white" x="0.45752" y="7.69141" width="54" height="39"/>
<path fill-rule="evenodd" clip-rule="evenodd" d="M38.7462 44.6265C38.7462 44.6265 37.2306 42.8381 35.9677 41.2578C41.4825 39.719 43.5875 36.3087 43.5875 36.3087C41.8614 37.4316 40.2196 38.2218 38.7462 38.7624C36.6413 39.6358 34.6205 40.218 32.6419 40.5507C28.6005 41.2993 24.8959 41.0914 21.7385 40.5092C19.3389 40.0517 17.2761 39.3863 15.5501 38.7208C14.5818 38.3465 13.5293 37.8891 12.4769 37.3068C12.4137 37.2652 12.3506 37.234 12.2875 37.2028L12.2874 37.2028C12.2243 37.1716 12.1611 37.1404 12.098 37.0989C12.0138 37.0573 11.9717 37.0157 11.9296 36.9741C11.1718 36.5582 10.7509 36.2671 10.7509 36.2671C10.7509 36.2671 12.7716 39.5942 18.118 41.1746C16.8551 42.755 15.2975 44.6265 15.2975 44.6265C5.99377 44.3353 2.45752 38.3049 2.45752 38.3049C2.45752 24.9133 8.51966 14.0586 8.51966 14.0586C14.5818 9.56699 20.3493 9.69175 20.3493 9.69175L20.7702 10.1908C13.1926 12.3534 9.69841 15.639 9.69841 15.639C9.69841 15.639 10.6246 15.1399 12.1822 14.4329C16.6867 12.4782 20.2651 11.9376 21.7385 11.8128L21.8329 11.797C22.0452 11.7613 22.2337 11.7296 22.4542 11.7296C25.0222 11.3969 27.9269 11.3137 30.958 11.6464C34.9573 12.1039 39.2513 13.2684 43.6296 15.639C43.6296 15.639 40.3038 12.5198 33.1471 10.3572L33.7365 9.69175C33.7365 9.69175 39.5039 9.56699 45.5661 14.0586C45.5661 14.0586 51.6282 24.9133 51.6282 38.3049C51.6282 38.3049 48.0499 44.3353 38.7462 44.6265ZM20.3574 25.9622C17.9767 25.9622 16.0972 28.1032 16.0972 30.7152C16.0972 33.3272 18.0184 35.4682 20.3574 35.4682C22.7381 35.4682 24.6175 33.3272 24.6175 30.7152C24.6593 28.1032 22.7381 25.9622 20.3574 25.9622ZM31.3405 30.7152C31.3405 28.1032 33.22 25.9622 35.6007 25.9622C37.9814 25.9622 39.8609 28.1032 39.8609 30.7152C39.8609 33.3272 37.9814 35.4682 35.6007 35.4682C33.2618 35.4682 31.3405 33.3272 31.3405 30.7152Z"/>
</mask>
<path d="M35.9677 41.2578L35.4302 39.3313L32.5175 40.1441L34.4053 42.5063L35.9677 41.2578ZM38.7462 44.6265L37.2204 45.9195L37.8442 46.6557L38.8087 46.6255L38.7462 44.6265ZM43.5875 36.3087L45.2894 37.3591L42.4968 34.6322L43.5875 36.3087ZM38.7462 38.7624L38.0572 36.8848L38.0181 36.8992L37.9797 36.9151L38.7462 38.7624ZM32.6419 40.5507L32.3103 38.5784L32.2939 38.5812L32.2777 38.5842L32.6419 40.5507ZM21.7385 40.5092L21.3639 42.4738L21.3758 42.476L21.7385 40.5092ZM15.5501 38.7208L14.8289 40.5863L14.8306 40.587L15.5501 38.7208ZM12.4769 37.3068L11.3768 38.9771L11.4412 39.0195L11.5087 39.0569L12.4769 37.3068ZM12.2875 37.2028L11.393 38.9917L11.4017 38.996L12.2875 37.2028ZM12.2874 37.2028L13.1819 35.4139L13.1732 35.4096L12.2874 37.2028ZM12.098 37.0989L13.1981 35.4286L13.0947 35.3605L12.9837 35.3057L12.098 37.0989ZM11.9296 36.9741L13.3352 35.5513L13.1366 35.3551L12.8919 35.2208L11.9296 36.9741ZM10.7509 36.2671L11.8884 34.6221L9.04144 37.3053L10.7509 36.2671ZM18.118 41.1746L19.6804 42.4231L21.5372 40.0997L18.685 39.2566L18.118 41.1746ZM15.2975 44.6265L15.2349 46.6255L16.2104 46.656L16.8347 45.9059L15.2975 44.6265ZM2.45752 38.3049H0.45752V38.8481L0.732272 39.3166L2.45752 38.3049ZM8.51966 14.0586L7.32901 12.4516L6.98331 12.7078L6.77352 13.0834L8.51966 14.0586ZM20.3493 9.69175L21.878 8.4022L21.2956 7.71176L20.3925 7.69222L20.3493 9.69175ZM20.7702 10.1908L21.3191 12.114L24.2931 11.2653L22.299 8.90127L20.7702 10.1908ZM9.69841 15.639L8.32836 14.1819L10.6471 17.3996L9.69841 15.639ZM12.1822 14.4329L11.3861 12.5982L11.3708 12.6048L11.3556 12.6117L12.1822 14.4329ZM21.7385 11.8128L21.9072 13.8057L21.988 13.7988L22.0679 13.7855L21.7385 11.8128ZM21.8329 11.797L22.1623 13.7697L22.1646 13.7693L21.8329 11.797ZM22.4542 11.7296V13.7296H22.5832L22.7111 13.713L22.4542 11.7296ZM30.958 11.6464L31.1853 9.65937L31.1762 9.65837L30.958 11.6464ZM43.6296 15.639L42.6773 17.3977L44.9977 14.1802L43.6296 15.639ZM33.1471 10.3572L31.6499 9.03111L29.5797 11.3685L32.5686 12.2717L33.1471 10.3572ZM33.7365 9.69175L33.6932 7.69222L32.819 7.71113L32.2393 8.36568L33.7365 9.69175ZM45.5661 14.0586L47.3122 13.0834L47.1024 12.7078L46.7567 12.4516L45.5661 14.0586ZM51.6282 38.3049L53.3482 39.3256L53.6282 38.8537V38.3049H51.6282ZM24.6175 30.7152L22.6178 30.6832L22.6175 30.6992V30.7152H24.6175ZM34.4053 42.5063C35.0488 43.3116 35.753 44.1653 36.2936 44.8145C36.5645 45.1399 36.7956 45.4154 36.9592 45.6099C37.041 45.7071 37.1059 45.7841 37.1506 45.837C37.173 45.8635 37.1902 45.8839 37.202 45.8978C37.2079 45.9048 37.2124 45.9101 37.2155 45.9137C37.217 45.9155 37.2182 45.9169 37.219 45.9179C37.2194 45.9184 37.2197 45.9188 37.22 45.919C37.2201 45.9192 37.2202 45.9193 37.2202 45.9194C37.2203 45.9194 37.2203 45.9194 37.2203 45.9195C37.2204 45.9195 37.2204 45.9195 38.7462 44.6265C40.272 43.3334 40.272 43.3334 40.272 43.3334C40.272 43.3334 40.272 43.3334 40.2719 43.3334C40.2719 43.3334 40.2719 43.3333 40.2718 43.3332C40.2717 43.3331 40.2714 43.3328 40.2711 43.3324C40.2705 43.3317 40.2694 43.3305 40.2681 43.3288C40.2653 43.3256 40.2612 43.3207 40.2557 43.3142C40.2446 43.3011 40.2281 43.2816 40.2065 43.256C40.1634 43.205 40.1001 43.1299 40.0201 43.0348C39.86 42.8446 39.6333 42.5743 39.3675 42.255C38.8345 41.6149 38.1495 40.7844 37.5301 40.0092L34.4053 42.5063ZM43.5875 36.3087C41.8855 35.2582 41.886 35.2574 41.8865 35.2566C41.8867 35.2564 41.8871 35.2556 41.8874 35.2551C41.888 35.2542 41.8886 35.2532 41.8892 35.2524C41.8902 35.2506 41.8912 35.2491 41.8921 35.2477C41.8937 35.245 41.895 35.2431 41.8957 35.242C41.8971 35.2397 41.8966 35.2406 41.8942 35.2443C41.8892 35.2518 41.8764 35.2709 41.8554 35.3005C41.8133 35.3598 41.7388 35.4605 41.6294 35.5931C41.4106 35.8584 41.0542 36.2492 40.5419 36.6895C39.5218 37.5664 37.8731 38.6497 35.4302 39.3313L36.5052 43.1842C39.5772 42.327 41.7383 40.9358 43.1494 39.7228C43.8527 39.1182 44.3672 38.5603 44.7154 38.1381C44.8895 37.9269 45.0225 37.7492 45.1171 37.6159C45.1644 37.5492 45.2022 37.4936 45.2308 37.4504C45.2451 37.4288 45.2571 37.4103 45.2668 37.395C45.2717 37.3874 45.276 37.3806 45.2798 37.3746C45.2816 37.3716 45.2834 37.3688 45.285 37.3662C45.2858 37.3649 45.2866 37.3637 45.2873 37.3625C45.2876 37.3619 45.2882 37.3611 45.2884 37.3608C45.2889 37.36 45.2894 37.3591 43.5875 36.3087ZM39.4351 40.64C41.0489 40.0479 42.8255 39.1904 44.6781 37.9851L42.4968 34.6322C40.8974 35.6728 39.3903 36.3957 38.0572 36.8848L39.4351 40.64ZM32.9736 42.5231C35.1116 42.1635 37.2779 41.537 39.5126 40.6097L37.9797 36.9151C36.0046 37.7346 34.1294 38.2725 32.3103 38.5784L32.9736 42.5231ZM21.3758 42.476C24.7246 43.0936 28.6801 43.3186 33.0062 42.5173L32.2777 38.5842C28.5209 39.2801 25.0671 39.0893 22.1012 38.5423L21.3758 42.476ZM14.8306 40.587C16.6396 41.2844 18.8198 41.9887 21.3639 42.4738L22.113 38.5445C19.858 38.1146 17.9125 37.4881 16.2695 36.8547L14.8306 40.587ZM11.5087 39.0569C12.6649 39.6965 13.8061 40.1909 14.8289 40.5863L16.2712 36.8554C15.3575 36.5022 14.3938 36.0816 13.4451 35.5568L11.5087 39.0569ZM11.4017 38.996C11.4099 39.0001 11.416 39.003 11.4217 39.0059C11.4272 39.0086 11.4312 39.0106 11.4343 39.0122C11.4407 39.0154 11.4413 39.0158 11.4386 39.0143C11.4327 39.0112 11.4092 38.9984 11.3768 38.9771L13.5769 35.6365C13.3951 35.5168 13.2236 35.4346 13.1732 35.4097L11.4017 38.996ZM11.393 38.9917L11.393 38.9917L13.1819 35.414L13.1818 35.414L11.393 38.9917ZM10.9979 38.7691C11.1797 38.8889 11.3513 38.9711 11.4017 38.996L13.1732 35.4096C13.165 35.4056 13.1589 35.4026 13.1532 35.3998C13.1477 35.397 13.1437 35.395 13.1405 35.3935C13.1342 35.3903 13.1336 35.3899 13.1363 35.3913C13.1422 35.3945 13.1657 35.4073 13.1981 35.4286L10.9979 38.7691ZM10.524 38.3969C10.6082 38.48 10.8342 38.7053 11.2123 38.892L12.9837 35.3057C13.0673 35.3469 13.1545 35.4012 13.2381 35.4674C13.3101 35.5243 13.362 35.5778 13.3352 35.5513L10.524 38.3969ZM10.7509 36.2671C9.61331 37.9121 9.61345 37.9122 9.61359 37.9123C9.61364 37.9123 9.61379 37.9124 9.61389 37.9125C9.61408 37.9126 9.61429 37.9127 9.6145 37.9129C9.61493 37.9132 9.61538 37.9135 9.61586 37.9138C9.61681 37.9145 9.61787 37.9152 9.61903 37.916C9.62136 37.9176 9.6241 37.9195 9.62726 37.9217C9.63358 37.926 9.64156 37.9314 9.65117 37.9379C9.67041 37.9509 9.69622 37.9682 9.72843 37.9894C9.79283 38.0318 9.88292 38.09 9.99737 38.1614C10.2261 38.3042 10.553 38.5 10.9673 38.7274L12.8919 35.2208C12.5484 35.0323 12.2859 34.8746 12.1148 34.7678C12.0293 34.7145 11.9667 34.6739 11.9285 34.6488C11.9094 34.6362 11.8964 34.6275 11.8897 34.6229C11.8863 34.6206 11.8845 34.6194 11.8843 34.6193C11.8842 34.6192 11.8845 34.6194 11.8852 34.6199C11.8855 34.6201 11.8859 34.6204 11.8865 34.6208C11.8868 34.621 11.8871 34.6212 11.8874 34.6214C11.8875 34.6215 11.8877 34.6216 11.8879 34.6217C11.888 34.6218 11.8881 34.6219 11.8881 34.6219C11.8883 34.622 11.8884 34.6221 10.7509 36.2671ZM18.685 39.2566C16.3211 38.5579 14.7304 37.486 13.7484 36.6246C13.2553 36.1921 12.913 35.8102 12.7035 35.5519C12.5989 35.4228 12.5277 35.3251 12.4878 35.2679C12.4679 35.2394 12.4558 35.2211 12.4513 35.2141C12.449 35.2107 12.4487 35.2101 12.4502 35.2125C12.4509 35.2137 12.4522 35.2156 12.4538 35.2184C12.4547 35.2197 12.4556 35.2213 12.4567 35.223C12.4573 35.2239 12.4578 35.2248 12.4584 35.2258C12.4587 35.2263 12.4592 35.2271 12.4593 35.2273C12.4598 35.2281 12.4603 35.2289 10.7509 36.2671C9.04144 37.3053 9.04194 37.3061 9.04245 37.3069C9.04262 37.3072 9.04314 37.3081 9.0435 37.3087C9.04421 37.3098 9.04496 37.3111 9.04575 37.3124C9.04731 37.3149 9.04901 37.3177 9.05085 37.3206C9.05452 37.3266 9.05872 37.3333 9.06346 37.3409C9.07294 37.356 9.08459 37.3742 9.09844 37.3955C9.12615 37.4381 9.1627 37.4928 9.20846 37.5583C9.29995 37.6893 9.42844 37.8638 9.59675 38.0714C9.93319 38.4863 10.4303 39.0349 11.1107 39.6317C12.4756 40.829 14.5686 42.2109 17.5511 43.0925L18.685 39.2566ZM15.2975 44.6265C16.8347 45.9059 16.8347 45.9059 16.8347 45.9058C16.8348 45.9058 16.8348 45.9058 16.8348 45.9058C16.8349 45.9057 16.835 45.9056 16.8351 45.9054C16.8353 45.9052 16.8356 45.9048 16.836 45.9043C16.8368 45.9034 16.838 45.9019 16.8395 45.9001C16.8426 45.8963 16.8472 45.8908 16.8532 45.8837C16.8651 45.8693 16.8827 45.8481 16.9055 45.8207C16.9511 45.7658 17.0174 45.6858 17.1009 45.585C17.2678 45.3835 17.5035 45.0984 17.7788 44.7636C18.3286 44.0952 19.0405 43.224 19.6804 42.4231L16.5557 39.926C15.9327 40.7056 15.2343 41.5603 14.6895 42.2227C14.4175 42.5534 14.1848 42.8349 14.0203 43.0337C13.938 43.133 13.8728 43.2116 13.8282 43.2653C13.8059 43.2921 13.7888 43.3127 13.7774 43.3265C13.7716 43.3334 13.7673 43.3386 13.7644 43.342C13.763 43.3438 13.7619 43.345 13.7612 43.3459C13.7609 43.3463 13.7606 43.3466 13.7604 43.3468C13.7604 43.3469 13.7603 43.347 13.7603 43.347C13.7603 43.347 13.7602 43.347 13.7602 43.347C13.7602 43.347 13.7602 43.347 15.2975 44.6265ZM2.45752 38.3049C0.732272 39.3166 0.732843 39.3176 0.733428 39.3186C0.733642 39.319 0.734243 39.32 0.734671 39.3207C0.735528 39.3222 0.736442 39.3237 0.737414 39.3254C0.739357 39.3286 0.741531 39.3323 0.743936 39.3363C0.748747 39.3444 0.754484 39.3539 0.761157 39.3648C0.774502 39.3866 0.791598 39.4142 0.81252 39.447C0.854353 39.5127 0.911551 39.5998 0.984719 39.7052C1.13096 39.9158 1.34162 40.2007 1.62161 40.5353C2.18099 41.2037 3.02196 42.0766 4.18426 42.9533C6.52599 44.7195 10.1281 46.4657 15.2349 46.6255L15.36 42.6274C11.1632 42.4961 8.34527 41.0815 6.59296 39.7598C5.70823 39.0925 5.08365 38.4396 4.68925 37.9682C4.49235 37.7329 4.35405 37.5444 4.27056 37.4241C4.22886 37.364 4.201 37.3212 4.18649 37.2985C4.17924 37.2871 4.17534 37.2807 4.17474 37.2797C4.17444 37.2792 4.17496 37.2801 4.1763 37.2823C4.17697 37.2834 4.17784 37.2849 4.17892 37.2867C4.17946 37.2876 4.18005 37.2886 4.18069 37.2897C4.18101 37.2903 4.18153 37.2912 4.18169 37.2914C4.18222 37.2923 4.18277 37.2933 2.45752 38.3049ZM8.51966 14.0586C6.77352 13.0834 6.77324 13.0839 6.77295 13.0844C6.77282 13.0847 6.7725 13.0852 6.77224 13.0857C6.77172 13.0866 6.77111 13.0877 6.77041 13.089C6.769 13.0915 6.76723 13.0947 6.7651 13.0986C6.76084 13.1063 6.75514 13.1166 6.74805 13.1296C6.73386 13.1555 6.7141 13.1918 6.68914 13.2384C6.63921 13.3314 6.56845 13.4653 6.47985 13.6379C6.30269 13.9831 6.05398 14.4837 5.7577 15.1232C5.16551 16.4016 4.38123 18.2399 3.59818 20.5069C2.03603 25.0295 0.45752 31.3194 0.45752 38.3049H4.45752C4.45752 31.8989 5.91008 26.0655 7.379 21.8129C8.11149 19.6922 8.84274 17.9799 9.3872 16.8045C9.65925 16.2172 9.88414 15.7651 10.0385 15.4644C10.1157 15.3141 10.1751 15.2016 10.214 15.1292C10.2335 15.0929 10.2477 15.0667 10.2565 15.0507C10.2609 15.0427 10.2639 15.0373 10.2654 15.0345C10.2662 15.033 10.2666 15.0323 10.2667 15.0322C10.2667 15.0321 10.2667 15.0322 10.2665 15.0325C10.2665 15.0326 10.2663 15.0329 10.2662 15.033C10.266 15.0334 10.2658 15.0338 8.51966 14.0586ZM20.3493 9.69175C20.3925 7.69222 20.3917 7.6922 20.3909 7.69219C20.3906 7.69218 20.3897 7.69216 20.3891 7.69215C20.3879 7.69212 20.3866 7.6921 20.3852 7.69207C20.3824 7.69202 20.3792 7.69197 20.3757 7.69191C20.3687 7.69181 20.3602 7.6917 20.3504 7.69161C20.3307 7.69143 20.3054 7.69134 20.2746 7.69146C20.2132 7.69172 20.13 7.69289 20.0264 7.69616C19.8192 7.70271 19.5301 7.71772 19.1701 7.75086C18.4505 7.81709 17.4437 7.95611 16.2391 8.24652C13.8296 8.82736 10.6142 10.0176 7.32901 12.4516L9.71031 15.6656C12.4873 13.608 15.1867 12.6148 17.1765 12.1351C18.1714 11.8953 18.9854 11.7848 19.5367 11.734C19.812 11.7087 20.0209 11.6983 20.1528 11.6942C20.2187 11.6921 20.2654 11.6915 20.2914 11.6914C20.3044 11.6914 20.3122 11.6914 20.3147 11.6915C20.3159 11.6915 20.3158 11.6915 20.3144 11.6914C20.3137 11.6914 20.3126 11.6914 20.3112 11.6914C20.3105 11.6914 20.3097 11.6914 20.3089 11.6913C20.3084 11.6913 20.3077 11.6913 20.3075 11.6913C20.3068 11.6913 20.306 11.6913 20.3493 9.69175ZM22.299 8.90127L21.878 8.4022L18.8205 10.9813L19.2415 11.4804L22.299 8.90127ZM9.69841 15.639C11.0685 17.096 11.0679 17.0965 11.0674 17.097C11.0673 17.0971 11.0668 17.0976 11.0665 17.0979C11.0659 17.0985 11.0653 17.099 11.0648 17.0994C11.0638 17.1004 11.063 17.1011 11.0624 17.1017C11.0612 17.1028 11.0608 17.1031 11.0613 17.1027C11.0623 17.1018 11.0666 17.0979 11.0743 17.091C11.0896 17.0772 11.1184 17.0518 11.1608 17.0156C11.2456 16.9433 11.3848 16.8284 11.5794 16.6792C11.9686 16.3809 12.5796 15.9458 13.4212 15.4412C15.1034 14.4325 17.711 13.1437 21.3191 12.114L20.2214 8.26761C16.2517 9.40051 13.3235 10.8358 11.3642 12.0106C10.3851 12.5977 9.64887 13.1191 9.14615 13.5044C8.89479 13.6971 8.70176 13.8557 8.56589 13.9715C8.49794 14.0295 8.44428 14.0767 8.40475 14.1121C8.38498 14.1298 8.36874 14.1446 8.35602 14.1563C8.34966 14.1621 8.34417 14.1672 8.33956 14.1715C8.33726 14.1736 8.33517 14.1755 8.33331 14.1773C8.33237 14.1782 8.3315 14.179 8.33067 14.1798C8.33026 14.1801 8.32968 14.1807 8.32948 14.1809C8.32891 14.1814 8.32836 14.1819 9.69841 15.639ZM11.3556 12.6117C10.5515 12.9767 9.90786 13.2891 9.4617 13.5122C9.23854 13.6238 9.06456 13.7132 8.9444 13.7757C8.88431 13.807 8.83765 13.8315 8.80501 13.8488C8.78869 13.8575 8.77587 13.8643 8.76662 13.8692C8.762 13.8717 8.75827 13.8737 8.75544 13.8752C8.75403 13.876 8.75284 13.8766 8.75188 13.8771C8.75139 13.8774 8.75097 13.8776 8.7506 13.8778C8.75042 13.8779 8.75025 13.878 8.75009 13.8781C8.75002 13.8781 8.74991 13.8782 8.74987 13.8782C8.74977 13.8783 8.74967 13.8783 9.69841 15.639C10.6471 17.3996 10.6471 17.3997 10.647 17.3997C10.6469 17.3997 10.6469 17.3998 10.6468 17.3998C10.6467 17.3999 10.6466 17.3999 10.6466 17.3999C10.6464 17.4 10.6463 17.4001 10.6463 17.4001C10.6462 17.4001 10.6464 17.4 10.6468 17.3998C10.6476 17.3994 10.6492 17.3985 10.6518 17.3972C10.6568 17.3944 10.6654 17.3899 10.6775 17.3835C10.7016 17.3707 10.7394 17.3508 10.7905 17.3242C10.8927 17.271 11.0476 17.1914 11.2507 17.0899C11.657 16.8867 12.2552 16.5961 13.0088 16.2541L11.3556 12.6117ZM21.5697 9.81992C19.91 9.96046 16.1156 10.5459 11.3861 12.5982L12.9784 16.2676C17.2578 14.4106 20.6201 13.9146 21.9072 13.8057L21.5697 9.81992ZM21.5034 9.82435L21.4091 9.84011L22.0679 13.7855L22.1623 13.7697L21.5034 9.82435ZM22.4542 9.72961C22.0433 9.72961 21.6982 9.79158 21.5011 9.82474L22.1646 13.7693C22.3922 13.731 22.424 13.7296 22.4542 13.7296V9.72961ZM31.1762 9.65837C27.9745 9.30693 24.9097 9.39475 22.1972 9.74619L22.7111 13.713C25.1346 13.399 27.8793 13.3205 30.7398 13.6345L31.1762 9.65837ZM44.5818 13.8802C39.9556 11.3753 35.411 10.1428 31.1853 9.65939L30.7307 13.6335C34.5036 14.0651 38.5471 15.1615 42.6773 17.3977L44.5818 13.8802ZM32.5686 12.2717C35.9727 13.3003 38.4393 14.5483 40.0326 15.5177C40.8296 16.0026 41.4088 16.4182 41.7778 16.7024C41.9623 16.8445 42.0943 16.9537 42.1746 17.0222C42.2147 17.0565 42.2419 17.0805 42.2564 17.0935C42.2636 17.0999 42.2676 17.1036 42.2684 17.1043C42.2688 17.1047 42.2685 17.1044 42.2673 17.1033C42.2667 17.1027 42.2659 17.102 42.2649 17.1011C42.2644 17.1006 42.2639 17.1001 42.2633 17.0996C42.263 17.0993 42.2625 17.0988 42.2624 17.0987C42.2619 17.0982 42.2614 17.0978 43.6296 15.639C44.9977 14.1802 44.9972 14.1797 44.9967 14.1792C44.9965 14.179 44.9959 14.1785 44.9955 14.1781C44.9947 14.1773 44.9939 14.1766 44.993 14.1757C44.9912 14.174 44.9892 14.1722 44.9869 14.1701C44.9825 14.166 44.9773 14.1612 44.9712 14.1556C44.959 14.1444 44.9434 14.1303 44.9245 14.1134C44.8868 14.0795 44.8356 14.0345 44.7708 13.9792C44.6413 13.8687 44.4574 13.7173 44.2183 13.5332C43.7401 13.165 43.0406 12.6656 42.1116 12.1004C40.2528 10.9695 37.4782 9.57664 33.7256 8.44268L32.5686 12.2717ZM32.2393 8.36568L31.6499 9.03111L34.6443 11.6832L35.2337 11.0178L32.2393 8.36568ZM46.7567 12.4516C43.4716 10.0176 40.2561 8.82736 37.8467 8.24652C36.642 7.95611 35.6353 7.81709 34.9157 7.75086C34.5556 7.71772 34.2665 7.70271 34.0593 7.69616C33.9557 7.69289 33.8725 7.69172 33.8111 7.69146C33.7804 7.69134 33.7551 7.69143 33.7354 7.69161C33.7255 7.6917 33.7171 7.69181 33.71 7.69191C33.7065 7.69197 33.7034 7.69202 33.7006 7.69207C33.6992 7.6921 33.6978 7.69212 33.6966 7.69215C33.696 7.69216 33.6952 7.69218 33.6949 7.69219C33.694 7.6922 33.6932 7.69222 33.7365 9.69175C33.7797 11.6913 33.779 11.6913 33.7782 11.6913C33.778 11.6913 33.7773 11.6913 33.7769 11.6913C33.776 11.6914 33.7752 11.6914 33.7745 11.6914C33.7731 11.6914 33.772 11.6914 33.7713 11.6914C33.7699 11.6915 33.7698 11.6915 33.771 11.6915C33.7735 11.6914 33.7814 11.6914 33.7944 11.6914C33.8204 11.6915 33.867 11.6921 33.9329 11.6942C34.0649 11.6983 34.2737 11.7087 34.5491 11.734C35.1003 11.7848 35.9143 11.8953 36.9093 12.1351C38.8991 12.6148 41.5984 13.608 44.3754 15.6656L46.7567 12.4516ZM53.6282 38.3049C53.6282 31.3194 52.0497 25.0295 50.4875 20.5069C49.7045 18.2399 48.9202 16.4016 48.328 15.1232C48.0318 14.4837 47.783 13.9831 47.6059 13.6379C47.5173 13.4653 47.4465 13.3314 47.3966 13.2384C47.3716 13.1918 47.3519 13.1555 47.3377 13.1296C47.3306 13.1166 47.3249 13.1063 47.3206 13.0986C47.3185 13.0947 47.3167 13.0915 47.3153 13.089C47.3146 13.0877 47.314 13.0866 47.3135 13.0857C47.3132 13.0852 47.3129 13.0847 47.3128 13.0844C47.3125 13.0839 47.3122 13.0834 45.5661 14.0586C43.8199 15.0338 43.8197 15.0334 43.8195 15.033C43.8195 15.0329 43.8193 15.0326 43.8192 15.0325C43.8191 15.0322 43.819 15.0321 43.819 15.0322C43.8191 15.0323 43.8195 15.033 43.8203 15.0345C43.8219 15.0373 43.8249 15.0427 43.8292 15.0507C43.838 15.0667 43.8523 15.0929 43.8717 15.1292C43.9106 15.2016 43.9701 15.3141 44.0472 15.4644C44.2016 15.7651 44.4265 16.2172 44.6985 16.8045C45.243 17.9799 45.9742 19.6922 46.7067 21.8129C48.1756 26.0655 49.6282 31.8989 49.6282 38.3049H53.6282ZM38.8087 46.6255C43.9151 46.4657 47.5261 44.72 49.8765 42.9562C51.0433 42.0806 51.8892 41.2089 52.4523 40.5415C52.7342 40.2074 52.9465 39.9231 53.0938 39.7128C53.1676 39.6077 53.2253 39.5208 53.2674 39.4553C53.2885 39.4226 53.3057 39.3952 53.3192 39.3734C53.3259 39.3625 53.3316 39.3531 53.3365 39.3451C53.3389 39.3411 53.3411 39.3375 53.343 39.3342C53.344 39.3326 53.3449 39.331 53.3458 39.3296C53.3462 39.3289 53.3468 39.3279 53.347 39.3275C53.3476 39.3265 53.3482 39.3256 51.6282 38.3049C49.9082 37.2843 49.9088 37.2834 49.9093 37.2825C49.9095 37.2822 49.91 37.2814 49.9103 37.2808C49.9109 37.2798 49.9115 37.2788 49.9121 37.2779C49.9132 37.2761 49.914 37.2746 49.9147 37.2735C49.916 37.2714 49.9165 37.2705 49.9162 37.2711C49.9155 37.2722 49.9115 37.2786 49.9041 37.2901C49.8893 37.3131 49.861 37.3561 49.8187 37.4164C49.7341 37.5371 49.5941 37.7262 49.3951 37.962C48.9966 38.4344 48.3664 39.0885 47.4757 39.7568C45.711 41.0811 42.881 42.4961 38.6836 42.6274L38.8087 46.6255ZM18.0972 30.7152C18.0972 28.9835 19.2928 27.9622 20.3574 27.9622V23.9622C16.6605 23.9622 14.0972 27.2228 14.0972 30.7152H18.0972ZM20.3574 33.4682C19.3226 33.4682 18.0972 32.4335 18.0972 30.7152H14.0972C14.0972 34.221 16.7142 37.4682 20.3574 37.4682V33.4682ZM22.6175 30.7152C22.6175 32.4469 21.4219 33.4682 20.3574 33.4682V37.4682C24.0542 37.4682 26.6175 34.2076 26.6175 30.7152H22.6175ZM20.3574 27.9622C21.4485 27.9622 22.6446 29.0076 22.6178 30.6832L26.6173 30.7472C26.674 27.1988 24.0276 23.9622 20.3574 23.9622V27.9622ZM35.6007 23.9622C31.9039 23.9622 29.3405 27.2228 29.3405 30.7152H33.3405C33.3405 28.9836 34.5362 27.9622 35.6007 27.9622V23.9622ZM41.8609 30.7152C41.8609 27.2228 39.2976 23.9622 35.6007 23.9622V27.9622C36.6652 27.9622 37.8609 28.9836 37.8609 30.7152H41.8609ZM35.6007 37.4682C39.2976 37.4682 41.8609 34.2076 41.8609 30.7152H37.8609C37.8609 32.4469 36.6652 33.4682 35.6007 33.4682V37.4682ZM29.3405 30.7152C29.3405 34.221 31.9576 37.4682 35.6007 37.4682V33.4682C34.566 33.4682 33.3405 32.4335 33.3405 30.7152H29.3405Z" fill="white" mask="url(#path-1-outside-1_516_26446)"/>
</svg>
