<svg width="15" height="15" viewBox="0 0 15 15" fill="none" xmlns="http://www.w3.org/2000/svg">
<g clip-path="url(#clip0_2683_55989)">
<path d="M12.4668 5.06438C12.3811 5.19269 12.3353 5.34355 12.3353 5.49787C12.3353 5.70482 12.4175 5.90328 12.5638 6.04961C12.7102 6.19594 12.9086 6.27815 13.1155 6.27815C13.2698 6.27815 13.4206 6.23239 13.5489 6.14665C13.6772 6.06091 13.7772 5.93905 13.8363 5.79647C13.8953 5.6539 13.9108 5.49701 13.8807 5.34565C13.8506 5.19429 13.7763 5.05526 13.6672 4.94614C13.5581 4.83701 13.419 4.7627 13.2677 4.73259C13.1164 4.70248 12.9595 4.71794 12.8169 4.77699C12.6744 4.83605 12.5525 4.93606 12.4668 5.06438Z" fill="#000107" fill-opacity="0.4"/>
<path d="M11.9886 3.80582C11.8603 3.89156 11.7095 3.93732 11.5552 3.93732C11.3483 3.93732 11.1498 3.85512 11.0035 3.70879C10.8572 3.56246 10.775 3.36399 10.775 3.15705C10.775 3.00272 10.8208 2.85186 10.9065 2.72355C10.9922 2.59523 11.1141 2.49522 11.2566 2.43617C11.3992 2.37711 11.556 2.36166 11.7074 2.39176C11.8587 2.42187 11.9977 2.49619 12.1068 2.60531C12.2159 2.71443 12.2902 2.85346 12.3203 3.00482C12.3505 3.15618 12.335 3.31307 12.276 3.45565C12.2169 3.59822 12.1169 3.72008 11.9886 3.80582Z" fill="#000107" fill-opacity="0.4"/>
<path d="M13.0396 7.70011C13.1448 7.61098 13.2811 7.56727 13.4185 7.57861C13.4869 7.58402 13.5535 7.6029 13.6146 7.63418C13.6756 7.66545 13.7299 7.7085 13.7742 7.76084C13.8186 7.81318 13.8522 7.87377 13.873 7.93914C13.8938 8.00451 13.9015 8.07335 13.8957 8.14171C13.7852 9.42655 13.3101 10.6531 12.5262 11.677C11.7424 12.701 10.6825 13.4798 9.47119 13.9217C8.25988 14.3637 6.94755 14.4504 5.68861 14.1717C4.42967 13.8931 3.27649 13.2606 2.36475 12.3488C1.453 11.4369 0.820622 10.2835 0.542005 9.02443C0.263387 7.76531 0.350124 6.4528 0.79201 5.24131C1.2339 4.02983 2.01255 2.96976 3.03636 2.18584C4.06017 1.40191 5.28655 0.926737 6.57121 0.81622C6.63951 0.810585 6.70825 0.818459 6.77351 0.839394C6.83877 0.860329 6.89927 0.893915 6.95155 0.938233C7.00383 0.982552 7.04687 1.03674 7.07821 1.09769C7.10956 1.15864 7.12859 1.22518 7.13423 1.29349C7.13986 1.3618 7.13199 1.43055 7.11106 1.49582C7.09012 1.56109 7.05654 1.6216 7.01223 1.67388C6.96792 1.72617 6.91374 1.76922 6.8528 1.80057C6.79185 1.83192 6.72533 1.85095 6.65702 1.85659C5.56975 1.95036 4.53188 2.35278 3.66552 3.01647C2.79916 3.68017 2.14036 4.57755 1.76664 5.60301C1.39291 6.62847 1.31981 7.73936 1.55593 8.80497C1.79206 9.87057 2.32758 10.8466 3.09949 11.6181C3.87141 12.3896 4.8476 12.9246 5.9132 13.1601C6.97881 13.3956 8.08949 13.3218 9.11458 12.9474C10.1397 12.5729 11.0365 11.9135 11.6996 11.0466C12.3626 10.1797 12.7643 9.14141 12.8574 8.05393C12.8688 7.9165 12.9343 7.78924 13.0396 7.70011Z" fill="#000107" fill-opacity="0.4"/>
<path d="M9.64811 2.24527C9.51981 2.33101 9.36897 2.37677 9.21467 2.37677C9.00776 2.37677 8.80932 2.29456 8.66301 2.14823C8.5167 2.0019 8.4345 1.80344 8.4345 1.5965C8.4345 1.44217 8.48026 1.29131 8.56599 1.163C8.65171 1.03468 8.77356 0.934673 8.91611 0.875615C9.05867 0.816558 9.21554 0.801106 9.36687 0.831213C9.51821 0.86132 9.65722 0.935634 9.76633 1.04476C9.87544 1.15388 9.94974 1.29291 9.97985 1.44427C10.0099 1.59563 9.9945 1.75252 9.93545 1.89509C9.8764 2.03767 9.77641 2.15953 9.64811 2.24527Z" fill="#000107" fill-opacity="0.4"/>
<path d="M7.12991 2.89722C8.05573 2.89722 8.96075 3.17179 9.73054 3.68622C10.5003 4.20064 11.1003 4.93182 11.4546 5.78728C11.8089 6.64274 11.9016 7.58406 11.721 8.49222C11.5404 9.40037 11.0945 10.2346 10.4399 10.8893C9.78523 11.544 8.95116 11.9899 8.04313 12.1706C7.13511 12.3512 6.19391 12.2585 5.33857 11.9042C4.48323 11.5498 3.75216 10.9498 3.2378 10.1799C2.72345 9.40996 2.44891 8.50481 2.44891 7.57887C2.45029 6.33764 2.94391 5.14764 3.82147 4.26996C4.69903 3.39228 5.88886 2.89859 7.12991 2.89722ZM6.6098 7.57887C6.6098 7.71683 6.6646 7.84914 6.76214 7.9467C6.85968 8.04425 6.99197 8.09905 7.12991 8.09905H10.2506C10.3885 8.09905 10.5208 8.04425 10.6184 7.9467C10.7159 7.84914 10.7707 7.71683 10.7707 7.57887C10.7707 7.44091 10.7159 7.3086 10.6184 7.21105C10.5208 7.11349 10.3885 7.05869 10.2506 7.05869H7.65002V4.45777C7.65002 4.31981 7.59523 4.1875 7.49769 4.08994C7.40015 3.99239 7.26786 3.93758 7.12991 3.93758C6.99197 3.93758 6.85968 3.99239 6.76214 4.08994C6.6646 4.1875 6.6098 4.31981 6.6098 4.45777V7.57887Z" fill="#00020E"/>
</g>
<defs>
<clipPath id="clip0_2683_55989">
<rect width="14" height="14" fill="white" transform="translate(0.170898 0.350342)"/>
</clipPath>
</defs>
</svg>
