<svg width="104" height="84" viewBox="0 0 104 84" fill="none" xmlns="http://www.w3.org/2000/svg">
<path fill-rule="evenodd" clip-rule="evenodd" d="M51.3148 56.2092C49.4078 58.334 45.2025 63.7364 45.2025 70.0586C45.2025 76.3808 49.4078 81.7832 51.3148 83.908C38.9801 83.2713 29.1128 70.0586 29.1128 70.0586C29.1128 70.0586 38.9801 56.846 51.3148 56.2092ZM53.1551 56.2092C65.4898 56.846 75.3572 70.0586 75.3572 70.0586C75.3572 70.0586 65.4898 83.2713 53.1551 83.908C55.0621 81.7832 59.2674 76.3808 59.2674 70.0586C59.2674 63.7364 55.0621 58.334 53.1551 56.2092Z" fill="white"/>
<path fill-rule="evenodd" clip-rule="evenodd" d="M51.3148 0C49.4078 2.1248 45.2025 7.5272 45.2025 13.8494C45.2025 20.1715 49.4078 25.574 51.3148 27.6988C38.9801 27.0621 29.1128 13.8494 29.1128 13.8494C29.1128 13.8494 38.9801 0.636729 51.3148 0ZM53.1551 0C65.4898 0.636729 75.3572 13.8494 75.3572 13.8494C75.3572 13.8494 65.4898 27.0621 53.1551 27.6988C55.0621 25.574 59.2674 20.1715 59.2674 13.8494C59.2674 7.5272 55.0621 2.1248 53.1551 0Z" fill="white"/>
<path fill-rule="evenodd" clip-rule="evenodd" d="M24.998 28.0599C37.3239 28.7118 47.1791 41.9083 47.1791 41.9083C47.1791 41.9083 37.3239 55.1047 24.998 55.7566C26.9168 53.614 31.1005 48.2186 31.1005 41.9083C31.1005 35.5979 26.9168 30.2025 24.998 28.0599ZM23.1158 28.0599C21.197 30.2025 17.0133 35.5979 17.0133 41.9083C17.0133 48.2186 21.197 53.614 23.1158 55.7566C10.7899 55.1047 0.934692 41.9083 0.934692 41.9083C0.934692 41.9083 10.7899 28.7118 23.1158 28.0599Z" fill="white"/>
<path fill-rule="evenodd" clip-rule="evenodd" d="M79.5049 28.0599C77.5861 30.2025 73.4024 35.5979 73.4024 41.9083C73.4024 48.2186 77.5861 53.614 79.5049 55.7566C67.179 55.1047 57.3239 41.9083 57.3239 41.9083C57.3239 41.9083 67.179 28.7118 79.5049 28.0599ZM81.3872 28.0599C93.713 28.7118 103.568 41.9083 103.568 41.9083C103.568 41.9083 93.713 55.1047 81.3872 55.7566C83.3059 53.614 87.4896 48.2186 87.4896 41.9083C87.4896 35.5979 83.3059 30.2025 81.3872 28.0599Z" fill="white"/>
</svg>
