<svg width="81" height="18" viewBox="0 0 81 18" fill="none" xmlns="http://www.w3.org/2000/svg">
<g clip-path="url(#clip0_1312_43157)">
<path d="M25.2037 2.74805C24.2573 2.74805 23.3453 2.86695 22.9739 2.96747C22.4333 3.11947 22.2985 3.35605 22.1967 3.84638L20.0516 13.7449C20.0172 13.9471 19.9841 14.1163 19.9841 14.2855C19.9841 14.7758 20.3053 15.0957 20.8287 15.0957C21.4036 15.0957 21.6402 14.7243 21.7579 14.1494L22.3659 11.3288C22.7876 11.379 23.3453 11.4305 24.1397 11.4305C27.6369 11.4305 29.8152 9.53908 29.8152 6.68415C29.8152 4.18348 28.0746 2.74805 25.2037 2.74805ZM24.0551 9.80876C23.5145 9.80876 23.0916 9.7916 22.7042 9.74134L23.8357 4.48748C24.1899 4.43722 24.7146 4.36858 25.2552 4.36858C27.1135 4.36858 28.0598 5.24749 28.0598 6.70009C28.0586 8.55843 26.7065 9.80876 24.0551 9.80876Z" fill="white"/>
<path d="M80.2371 11.8351C79.9502 11.8351 79.7639 12.0042 79.4096 12.3928C78.7845 13.0352 78.3959 13.3894 77.9068 13.3894C77.4679 13.3894 77.2314 13.0352 77.2314 12.4602C77.2314 12.1391 77.2988 11.7505 77.3834 11.3288L78.0085 8.3893H79.884C80.4749 8.3893 80.8304 8.05097 80.8304 7.44297C80.8304 7.10464 80.6109 6.85212 80.1047 6.85212H78.3456L78.6496 5.48411C78.6839 5.28185 78.717 5.09552 78.717 4.92636C78.717 4.45319 78.3959 4.11487 77.8725 4.11487C77.3147 4.11487 77.0622 4.48629 76.9433 5.0612L76.5547 6.85212H75.7604C75.1524 6.85212 74.7981 7.19045 74.7981 7.79845C74.7981 8.13678 75.0347 8.3893 75.5409 8.3893H76.2335L75.6084 11.2945C75.5409 11.6157 75.4564 12.1391 75.4564 12.6797C75.4564 14.0477 76.1661 15.0443 77.6861 15.0443C78.565 15.0443 79.341 14.6054 79.9331 14.0808C80.508 13.5745 80.9297 12.9493 80.9297 12.5436C80.9297 12.1562 80.6256 11.8351 80.2371 11.8351Z" fill="white"/>
<path d="M41.3858 3.7446C41.3858 3.25427 41.0475 2.93311 40.524 2.93311C39.9663 2.93311 39.7138 3.30453 39.5949 3.87944L37.484 13.6933C37.4337 13.8956 37.3994 14.0648 37.3994 14.2339C37.3994 14.7243 37.7377 15.0442 38.244 15.0442C38.8189 15.0442 39.0714 14.6728 39.1903 14.0979L41.3012 4.28518C41.3355 4.0817 41.3858 3.91376 41.3858 3.7446Z" fill="white"/>
<path d="M71.5373 6.68289C68.8344 6.68289 66.9932 9.36866 66.9932 11.9196C66.9932 11.9674 66.9944 12.0152 66.9956 12.0618C66.5715 12.7053 66.0297 13.3722 65.6583 13.3722C65.3886 13.3722 65.2868 13.1184 65.2868 12.7299C65.2868 12.2567 65.4217 11.4624 65.5737 10.7698L66.976 4.28274C67.0103 4.08048 67.0434 3.91132 67.0434 3.74216C67.0434 3.25183 66.7223 2.93066 66.1988 2.93066C65.6239 2.93066 65.3886 3.30209 65.2697 3.877L64.5097 7.39019C64.1039 6.96851 63.5118 6.68044 62.617 6.68044C60.8224 6.68044 59.0167 8.06194 58.3131 10.1814C57.5384 12.1844 56.8458 13.3697 56.2991 13.3697C56.0968 13.3697 55.9779 13.2006 55.9779 12.9137C55.9779 12.0691 56.4511 10.0085 56.6534 9.01195C56.7208 8.64053 56.7551 8.48853 56.7551 8.2691C56.7551 7.52626 55.5219 6.64735 53.9173 6.64735C52.0614 6.64735 50.3808 7.82291 49.5387 9.56847C48.2871 11.7798 47.1385 13.3697 46.5698 13.3697C46.316 13.3697 46.2314 13.0486 46.164 12.7446L45.7436 10.4167L48.3276 8.30588C48.5642 8.10362 48.8682 7.81555 48.8682 7.44413C48.8682 6.98812 48.5642 6.68412 48.1082 6.68412C47.7698 6.68412 47.483 6.88638 47.1961 7.12296L43.3115 10.3322L44.6121 4.28519C44.6464 4.08293 44.6967 3.91377 44.6967 3.74461C44.6967 3.25428 44.3584 2.93312 43.8349 2.93312C43.2772 2.93312 43.0247 3.30454 42.9058 3.87945L40.7949 13.6934C40.7446 13.8956 40.7103 14.0648 40.7103 14.2339C40.7103 14.7243 41.0487 15.0442 41.5549 15.0442C42.1298 15.0442 42.3823 14.6728 42.5013 14.0979L42.7722 12.8316L44.3596 11.5482L44.7482 13.507C44.9002 14.2842 45.3059 15.0442 46.3528 15.0442C47.3947 15.0442 48.2148 14.093 49.0361 12.8071C49.285 14.1543 50.2435 15.0442 51.5736 15.0442C52.9085 15.0442 53.8205 14.2499 54.4113 13.1859V13.2202C54.4113 14.3185 54.9691 15.0442 55.9485 15.0442C56.8348 15.0442 57.5703 14.5097 58.2273 13.3746C58.6 14.3639 59.4335 15.0442 60.5932 15.0442C61.9612 15.0442 62.9406 14.2168 63.5658 13.0682V13.1699C63.5658 14.3859 64.1738 15.0454 65.1704 15.0454C66.0505 15.0454 66.7983 14.5343 67.4369 13.7032C67.9223 14.5343 68.7927 15.0454 69.9682 15.0454C72.6712 15.0454 74.5124 12.3597 74.5124 9.79157C74.5111 7.98349 73.4128 6.68289 71.5373 6.68289ZM54.697 10.1127C54.2066 12.2236 53.1598 13.4237 51.9769 13.4237C51.1825 13.4237 50.7437 12.8157 50.7437 11.9037C50.7437 10.1127 52.0443 8.18697 53.7837 8.18697C54.3071 8.18697 54.7129 8.33898 55.0672 8.5584L54.697 10.1127ZM64.1051 9.21789C63.5645 11.7014 62.3314 13.4237 60.9805 13.4237C60.2377 13.4237 59.7976 12.8488 59.7976 11.9037C59.7976 10.0968 61.0479 8.2213 62.72 8.2213C63.3623 8.2213 63.8514 8.44072 64.2069 8.72756L64.1051 9.21789ZM70.1693 13.4237C69.1898 13.4237 68.7841 12.7139 68.7841 11.8191C68.7841 10.1802 69.9155 8.30588 71.335 8.30588C72.3145 8.30588 72.7202 9.01563 72.7202 9.91047C72.7202 11.5653 71.5888 13.4237 70.1693 13.4237Z" fill="white"/>
<path d="M34.0211 6.68298C31.3181 6.68298 29.4769 9.36875 29.4769 11.9197C29.4769 13.7437 30.5753 15.0443 32.4495 15.0443C35.1525 15.0443 36.9937 12.3585 36.9937 9.79043C36.9937 7.98358 35.8953 6.68298 34.0211 6.68298ZM32.653 13.4238C31.6736 13.4238 31.2679 12.714 31.2679 11.8192C31.2679 10.1802 32.3993 8.30597 33.8188 8.30597C34.7982 8.30597 35.204 9.01572 35.204 9.91056C35.2027 11.5654 34.0713 13.4238 32.653 13.4238Z" fill="white"/>
<path d="M8.22859 3.79492C9.95021 3.79492 11.3459 2.98322 11.3459 1.98193C11.3459 0.980647 9.95021 0.168945 8.22859 0.168945C6.50698 0.168945 5.11133 0.980647 5.11133 1.98193C5.11133 2.98322 6.50698 3.79492 8.22859 3.79492Z" fill="#E6007A"/>
<path d="M8.22859 17.4554C9.95021 17.4554 11.3459 16.6437 11.3459 15.6425C11.3459 14.6412 9.95021 13.8295 8.22859 13.8295C6.50698 13.8295 5.11133 14.6412 5.11133 15.6425C5.11133 16.6437 6.50698 17.4554 8.22859 17.4554Z" fill="#E6007A"/>
<path d="M3.88445 6.30449C4.74526 4.81357 4.73967 3.19882 3.87197 2.69784C3.00427 2.19686 1.60304 2.99936 0.742226 4.49028C-0.118583 5.98119 -0.112996 7.59594 0.754705 8.09693C1.62241 8.59791 3.02364 7.7954 3.88445 6.30449Z" fill="#E6007A"/>
<path d="M15.7135 13.1339C16.5743 11.643 16.5692 10.0286 15.7021 9.52791C14.835 9.02727 13.4342 9.83005 12.5734 11.321C11.7126 12.8119 11.7177 14.4264 12.5848 14.927C13.4519 15.4276 14.8527 14.6249 15.7135 13.1339Z" fill="#E6007A"/>
<path d="M3.87234 14.9266C4.74004 14.4256 4.74562 12.8108 3.88482 11.3199C3.02401 9.82899 1.62277 9.02648 0.755071 9.52746C-0.112629 10.0284 -0.118217 11.6432 0.742592 13.1341C1.6034 14.625 3.00464 15.4275 3.87234 14.9266Z" fill="#E6007A"/>
<path d="M15.7028 8.09733C16.5699 7.59669 16.575 5.98221 15.7142 4.49129C14.8534 3.00038 13.4527 2.1976 12.5856 2.69824C11.7184 3.19889 11.7133 4.81336 12.5741 6.30428C13.4349 7.7952 14.8357 8.59797 15.7028 8.09733Z" fill="#E6007A"/>
</g>
<defs>
<clipPath id="clip0_1312_43157">
<rect width="80.8282" height="17.2877" fill="white" transform="translate(0.101318 0.168945)"/>
</clipPath>
</defs>
</svg>
