<svg width="25" height="25" viewBox="0 0 25 25" fill="none" xmlns="http://www.w3.org/2000/svg">
<path fill-rule="evenodd" clip-rule="evenodd" d="M12.4999 0.916992C19.0705 0.916992 24.3956 6.24209 24.3956 12.8126C24.3956 19.3832 19.0705 24.7083 12.4999 24.7083C5.92935 24.7083 0.604248 19.3832 0.604248 12.8126C0.604248 6.24209 5.92935 0.916992 12.4999 0.916992Z" fill="#E60079"/>
<path d="M12.4998 4.29871C14.1964 4.29871 15.5695 5.09875 15.5695 6.08603C15.5695 7.07332 14.1935 7.87336 12.4998 7.87336C10.8033 7.87336 9.43018 7.07332 9.43018 6.08603C9.43018 5.09875 10.8061 4.29871 12.4998 4.29871Z" fill="white"/>
<path d="M12.4998 17.7548C14.1964 17.7548 15.5695 18.5548 15.5695 19.5421C15.5695 20.5294 14.1935 21.3294 12.4998 21.3294C10.8033 21.3294 9.43018 20.5294 9.43018 19.5421C9.43018 18.5548 10.8061 17.7548 12.4998 17.7548Z" fill="white"/>
<path d="M5.12645 8.55422C5.97472 7.08464 7.35351 6.29594 8.2103 6.78959C9.06424 7.28323 9.06991 8.8748 8.22164 10.3415C7.37337 11.8111 5.99458 12.5998 5.1378 12.1062C4.28385 11.6125 4.27818 10.021 5.12645 8.55422Z" fill="white"/>
<path d="M16.781 15.2837C17.6293 13.8141 19.0081 13.0254 19.862 13.5162C20.7159 14.0099 20.7216 15.5986 19.8733 17.0682C19.0251 18.5378 17.6463 19.3265 16.7923 18.8356C15.9384 18.342 15.9327 16.7533 16.781 15.2837Z" fill="white"/>
<path d="M5.1378 13.5162C5.99174 13.0226 7.37337 13.8141 8.22164 15.2809C9.06991 16.7505 9.06424 18.3392 8.2103 18.8328C7.35635 19.3265 5.97472 18.5349 5.12645 17.0682C4.27818 15.5986 4.28385 14.0099 5.1378 13.5162Z" fill="white"/>
<path d="M16.7923 6.78953C17.6463 6.29589 19.0251 7.08742 19.8733 8.557C20.7216 10.0266 20.7159 11.6153 19.862 12.109C19.0081 12.6026 17.6293 11.8111 16.781 10.3415C15.9327 8.87191 15.9384 7.28317 16.7923 6.78953Z" fill="white"/>
</svg>
