<svg width="30" height="30" viewBox="0 0 30 30" fill="none" xmlns="http://www.w3.org/2000/svg">
<mask id="path-1-inside-1_370_18373" fill="white">
<path fill-rule="evenodd" clip-rule="evenodd" d="M21.3158 25C21.3158 25 20.4482 23.9762 19.7252 23.0714C22.8824 22.1905 24.0874 20.2381 24.0874 20.2381C23.0993 20.881 22.1593 21.3334 21.3158 21.6429C20.1108 22.1429 18.9539 22.4762 17.8212 22.6667C15.5075 23.0953 13.3866 22.9762 11.5791 22.6429C10.2053 22.381 9.02439 22 8.03625 21.6191C7.48193 21.4048 6.87941 21.1429 6.27689 20.8096C6.24074 20.7858 6.20459 20.7679 6.16844 20.75C6.13229 20.7322 6.09614 20.7143 6.05998 20.6905C6.01178 20.6667 5.98768 20.6429 5.96358 20.6191C5.52977 20.381 5.28876 20.2143 5.28876 20.2143C5.28876 20.2143 6.4456 22.1191 9.5064 23.0238C8.78338 23.9286 7.89165 25 7.89165 25C2.56536 24.8333 0.540894 21.381 0.540894 21.381C0.540894 13.7144 4.01141 7.50017 4.01141 7.50017C7.48193 4.92877 10.7837 5.0002 10.7837 5.0002L11.0248 5.28591C6.68661 6.52399 4.68624 8.40493 4.68624 8.40493C4.68624 8.40493 5.21645 8.11921 6.10819 7.71446C8.68697 6.59542 10.7355 6.2859 11.5791 6.21447L11.6331 6.20545C11.7547 6.185 11.8625 6.16685 11.9888 6.16685C13.4589 5.97638 15.1219 5.92876 16.8572 6.11923C19.1467 6.38114 21.605 7.0478 24.1115 8.40493C24.1115 8.40493 22.2075 6.61923 18.1104 5.38115L18.4478 5.0002C18.4478 5.0002 21.7496 4.92877 25.2201 7.50017C25.2201 7.50017 28.6907 13.7144 28.6907 21.381C28.6907 21.381 26.6421 24.8333 21.3158 25ZM10.7883 14.3151C9.42542 14.3151 8.34943 15.5408 8.34943 17.0362C8.34943 18.5315 9.44933 19.7572 10.7883 19.7572C12.1513 19.7572 13.2273 18.5315 13.2273 17.0362C13.2512 15.5408 12.1513 14.3151 10.7883 14.3151ZM17.0761 17.0362C17.0761 15.5408 18.1521 14.3151 19.515 14.3151C20.878 14.3151 21.954 15.5408 21.954 17.0362C21.954 18.5315 20.878 19.7572 19.515 19.7572C18.176 19.7572 17.0761 18.5315 17.0761 17.0362Z"/>
</mask>
<path fill-rule="evenodd" clip-rule="evenodd" d="M21.3158 25C21.3158 25 20.4482 23.9762 19.7252 23.0714C22.8824 22.1905 24.0874 20.2381 24.0874 20.2381C23.0993 20.881 22.1593 21.3334 21.3158 21.6429C20.1108 22.1429 18.9539 22.4762 17.8212 22.6667C15.5075 23.0953 13.3866 22.9762 11.5791 22.6429C10.2053 22.381 9.02439 22 8.03625 21.6191C7.48193 21.4048 6.87941 21.1429 6.27689 20.8096C6.24074 20.7858 6.20459 20.7679 6.16844 20.75C6.13229 20.7322 6.09614 20.7143 6.05998 20.6905C6.01178 20.6667 5.98768 20.6429 5.96358 20.6191C5.52977 20.381 5.28876 20.2143 5.28876 20.2143C5.28876 20.2143 6.4456 22.1191 9.5064 23.0238C8.78338 23.9286 7.89165 25 7.89165 25C2.56536 24.8333 0.540894 21.381 0.540894 21.381C0.540894 13.7144 4.01141 7.50017 4.01141 7.50017C7.48193 4.92877 10.7837 5.0002 10.7837 5.0002L11.0248 5.28591C6.68661 6.52399 4.68624 8.40493 4.68624 8.40493C4.68624 8.40493 5.21645 8.11921 6.10819 7.71446C8.68697 6.59542 10.7355 6.2859 11.5791 6.21447L11.6331 6.20545C11.7547 6.185 11.8625 6.16685 11.9888 6.16685C13.4589 5.97638 15.1219 5.92876 16.8572 6.11923C19.1467 6.38114 21.605 7.0478 24.1115 8.40493C24.1115 8.40493 22.2075 6.61923 18.1104 5.38115L18.4478 5.0002C18.4478 5.0002 21.7496 4.92877 25.2201 7.50017C25.2201 7.50017 28.6907 13.7144 28.6907 21.381C28.6907 21.381 26.6421 24.8333 21.3158 25ZM10.7883 14.3151C9.42542 14.3151 8.34943 15.5408 8.34943 17.0362C8.34943 18.5315 9.44933 19.7572 10.7883 19.7572C12.1513 19.7572 13.2273 18.5315 13.2273 17.0362C13.2512 15.5408 12.1513 14.3151 10.7883 14.3151ZM17.0761 17.0362C17.0761 15.5408 18.1521 14.3151 19.515 14.3151C20.878 14.3151 21.954 15.5408 21.954 17.0362C21.954 18.5315 20.878 19.7572 19.515 19.7572C18.176 19.7572 17.0761 18.5315 17.0761 17.0362Z" fill="url(#paint0_linear_370_18373)"/>
<path d="M19.7252 23.0714L19.5908 22.5898L18.8626 22.793L19.3346 23.3836L19.7252 23.0714ZM21.3158 25L20.9344 25.3233L21.0903 25.5073L21.3314 25.4998L21.3158 25ZM24.0874 20.2381L24.5129 20.5008L23.8147 19.819L24.0874 20.2381ZM21.3158 21.6429L21.1436 21.1735L21.1338 21.1771L21.1242 21.1811L21.3158 21.6429ZM17.8212 22.6667L17.7383 22.1735L17.7301 22.1751L17.8212 22.6667ZM11.5791 22.6429L11.4854 23.134L11.4884 23.1346L11.5791 22.6429ZM8.03625 21.6191L7.85597 22.0854L7.85639 22.0856L8.03625 21.6191ZM6.27689 20.8096L6.00188 21.2271L6.01798 21.2377L6.03485 21.2471L6.27689 20.8096ZM6.05998 20.6905L6.335 20.2729L6.30916 20.2559L6.28142 20.2422L6.05998 20.6905ZM5.96358 20.6191L6.31498 20.2634L6.26533 20.2143L6.20415 20.1808L5.96358 20.6191ZM5.28876 20.2143L5.57315 19.8031L4.8614 20.4739L5.28876 20.2143ZM9.5064 23.0238L9.897 23.336L10.3612 22.7551L9.64814 22.5443L9.5064 23.0238ZM7.89165 25L7.87601 25.4998L8.11987 25.5074L8.27595 25.3199L7.89165 25ZM0.540894 21.381H0.0408936V21.5168L0.109582 21.6339L0.540894 21.381ZM4.01141 7.50017L3.71375 7.09843L3.62732 7.16247L3.57488 7.25638L4.01141 7.50017ZM10.7837 5.0002L11.1659 4.67781L11.0203 4.5052L10.7946 4.50031L10.7837 5.0002ZM11.0248 5.28591L11.162 5.76671L11.9055 5.55452L11.4069 4.96352L11.0248 5.28591ZM4.68624 8.40493L4.34372 8.04067L4.92342 8.84509L4.68624 8.40493ZM6.10819 7.71446L5.90912 7.25572L5.90153 7.25916L6.10819 7.71446ZM11.5791 6.21447L11.6213 6.71269L11.6414 6.71098L11.6614 6.70764L11.5791 6.21447ZM11.6331 6.20545L11.7155 6.69862L11.716 6.69852L11.6331 6.20545ZM11.9888 6.16685V6.66685H12.021L12.053 6.66271L11.9888 6.16685ZM16.8572 6.11923L16.914 5.62247L16.9117 5.62222L16.8572 6.11923ZM24.1115 8.40493L23.8734 8.84461L24.4536 8.04023L24.1115 8.40493ZM18.1104 5.38115L17.7361 5.04963L17.2185 5.63397L17.9658 5.85977L18.1104 5.38115ZM18.4478 5.0002L18.437 4.50031L18.2185 4.50504L18.0735 4.66868L18.4478 5.0002ZM25.2201 7.50017L25.6567 7.25638L25.6042 7.16247L25.5178 7.09843L25.2201 7.50017ZM28.6907 21.381L29.1207 21.6361L29.1907 21.5182V21.381H28.6907ZM13.2273 17.0362L12.7273 17.0282V17.0362H13.2273ZM19.3346 23.3836C19.6991 23.8397 20.0991 24.3248 20.4074 24.6949C20.5617 24.8802 20.6933 25.0371 20.7863 25.1478C20.8329 25.2031 20.8698 25.2469 20.8951 25.2769C20.9078 25.2919 20.9176 25.3034 20.9242 25.3112C20.9275 25.3151 20.93 25.3181 20.9317 25.3201C20.9326 25.3212 20.9332 25.3219 20.9337 25.3224C20.9339 25.3227 20.9341 25.3229 20.9342 25.323C20.9342 25.3231 20.9343 25.3232 20.9343 25.3232C20.9343 25.3232 20.9343 25.3232 20.9343 25.3232C20.9344 25.3233 20.9344 25.3233 21.3158 25C21.6973 24.6767 21.6973 24.6767 21.6973 24.6767C21.6972 24.6767 21.6972 24.6767 21.6972 24.6767C21.6972 24.6767 21.6972 24.6766 21.6971 24.6766C21.697 24.6765 21.6969 24.6763 21.6967 24.6761C21.6963 24.6756 21.6957 24.6749 21.6949 24.6739C21.6933 24.672 21.6908 24.6691 21.6876 24.6653C21.6812 24.6577 21.6716 24.6464 21.6591 24.6316C21.6342 24.6021 21.5977 24.5588 21.5516 24.504C21.4594 24.3944 21.3289 24.2388 21.1759 24.0551C20.8695 23.6872 20.4743 23.2079 20.1158 22.7593L19.3346 23.3836ZM24.0874 20.2381C23.6619 19.9755 23.662 19.9753 23.6622 19.9751C23.6622 19.9751 23.6623 19.9749 23.6624 19.9748C23.6625 19.9746 23.6626 19.9744 23.6627 19.9743C23.6629 19.974 23.663 19.9738 23.6631 19.9737C23.6631 19.9736 23.6629 19.9739 23.6625 19.9746C23.6615 19.9762 23.6593 19.9795 23.656 19.9845C23.6494 19.9946 23.638 20.0114 23.6217 20.0343C23.5892 20.0802 23.5371 20.1503 23.464 20.2388C23.3179 20.416 23.0884 20.6667 22.7643 20.9453C22.1173 21.5015 21.0907 22.1713 19.5908 22.5898L19.8595 23.5531C21.5168 23.0906 22.6714 22.3438 23.4162 21.7036C23.788 21.384 24.0571 21.0915 24.2355 20.8751C24.3248 20.7669 24.3915 20.6775 24.4372 20.6132C24.46 20.581 24.4776 20.555 24.4902 20.536C24.4965 20.5266 24.5015 20.5188 24.5052 20.5129C24.5071 20.5099 24.5087 20.5074 24.51 20.5054C24.5106 20.5044 24.5112 20.5035 24.5117 20.5027C24.5119 20.5023 24.5121 20.502 24.5123 20.5017C24.5124 20.5015 24.5126 20.5013 24.5126 20.5012C24.5128 20.501 24.5129 20.5008 24.0874 20.2381ZM21.488 22.1123C22.3667 21.7899 23.3403 21.3207 24.3601 20.6573L23.8147 19.819C22.8583 20.4413 21.952 20.8768 21.1436 21.1735L21.488 22.1123ZM17.9041 23.1598C19.0767 22.9626 20.2699 22.6182 21.5074 22.1047L21.1242 21.1811C19.9516 21.6676 18.8312 21.9898 17.7383 22.1736L17.9041 23.1598ZM11.4884 23.1346C13.3438 23.4767 15.5274 23.6001 17.9123 23.1583L17.7301 22.1751C15.4876 22.5904 13.4294 22.4757 11.6697 22.1512L11.4884 23.1346ZM7.85639 22.0856C8.86527 22.4746 10.0756 22.8652 11.4854 23.134L11.6727 22.1517C10.3351 21.8967 9.1835 21.5255 8.21611 21.1526L7.85639 22.0856ZM6.03485 21.2471C6.6633 21.5948 7.288 21.8659 7.85597 22.0854L8.21654 21.1527C7.67586 20.9437 7.09552 20.691 6.51893 20.3721L6.03485 21.2471ZM5.94701 21.1983C5.96621 21.2078 5.97703 21.2132 5.98676 21.2184C5.99547 21.2231 5.99979 21.2258 6.00188 21.2271L6.55191 20.392C6.48608 20.3486 6.42284 20.318 6.38987 20.3017L5.94701 21.1983ZM5.78497 21.1081C5.85079 21.1514 5.91403 21.182 5.94701 21.1983L6.38987 20.3017C6.37067 20.2923 6.35985 20.2869 6.35012 20.2817C6.34141 20.277 6.33709 20.2743 6.335 20.2729L5.78497 21.1081ZM5.61218 20.9748C5.6468 21.009 5.71687 21.0787 5.83855 21.1388L6.28142 20.2422C6.28435 20.2437 6.28914 20.2462 6.29518 20.25C6.30132 20.2539 6.30729 20.2582 6.31277 20.2625C6.32229 20.27 6.32846 20.2767 6.31498 20.2634L5.61218 20.9748ZM5.28876 20.2143C5.00437 20.6256 5.0044 20.6256 5.00444 20.6256C5.00446 20.6256 5.00449 20.6257 5.00452 20.6257C5.00457 20.6257 5.00463 20.6258 5.00469 20.6258C5.00482 20.6259 5.00495 20.626 5.00511 20.6261C5.00541 20.6263 5.00577 20.6265 5.0062 20.6268C5.00704 20.6274 5.00812 20.6282 5.00944 20.6291C5.01207 20.6309 5.01565 20.6333 5.02015 20.6363C5.02915 20.6424 5.04185 20.6509 5.05818 20.6617C5.09083 20.6832 5.13796 20.7137 5.19881 20.7516C5.32049 20.8275 5.49725 20.9335 5.72301 21.0574L6.20415 20.1808C5.9961 20.0666 5.83544 19.9702 5.72816 19.9032C5.67454 19.8698 5.63431 19.8437 5.60821 19.8265C5.59516 19.8179 5.58565 19.8116 5.57977 19.8076C5.57684 19.8056 5.57481 19.8042 5.5737 19.8035C5.57314 19.8031 5.57282 19.8029 5.57273 19.8028C5.57268 19.8028 5.57269 19.8028 5.57276 19.8028C5.5728 19.8028 5.57285 19.8029 5.57291 19.8029C5.57294 19.8029 5.57298 19.803 5.57302 19.803C5.57304 19.803 5.57307 19.803 5.57308 19.803C5.57311 19.8031 5.57315 19.8031 5.28876 20.2143ZM9.64814 22.5443C8.19506 22.1148 7.20344 21.4512 6.57949 20.9039C6.26699 20.6298 6.0461 20.3843 5.90569 20.2111C5.8355 20.1246 5.78552 20.0563 5.75436 20.0116C5.73878 19.9893 5.72792 19.973 5.7216 19.9633C5.71844 19.9584 5.71642 19.9552 5.71551 19.9538C5.71506 19.9531 5.71488 19.9528 5.71498 19.9529C5.71503 19.953 5.71515 19.9532 5.71534 19.9535C5.71544 19.9537 5.71555 19.9539 5.71568 19.9541C5.71574 19.9542 5.71585 19.9543 5.71588 19.9544C5.71599 19.9546 5.71611 19.9548 5.28876 20.2143C4.8614 20.4739 4.86153 20.4741 4.86166 20.4743C4.86171 20.4744 4.86185 20.4746 4.86195 20.4748C4.86214 20.4751 4.86236 20.4755 4.8626 20.4758C4.86307 20.4766 4.86361 20.4775 4.86423 20.4785C4.86547 20.4805 4.867 20.483 4.86883 20.4859C4.87248 20.4917 4.87733 20.4993 4.88339 20.5086C4.89551 20.5272 4.91249 20.5527 4.93453 20.5842C4.97858 20.6473 5.0429 20.7349 5.12899 20.841C5.30114 21.0533 5.56075 21.3405 5.92007 21.6557C6.63974 22.2869 7.75694 23.0281 9.36467 23.5033L9.64814 22.5443ZM7.89165 25C8.27595 25.3199 8.27596 25.3198 8.27597 25.3198C8.27598 25.3198 8.27599 25.3198 8.27601 25.3198C8.27604 25.3198 8.27608 25.3197 8.27614 25.3196C8.27625 25.3195 8.27642 25.3193 8.27665 25.319C8.27709 25.3185 8.27775 25.3177 8.27862 25.3167C8.28036 25.3146 8.28293 25.3115 8.28632 25.3074C8.29308 25.2993 8.30308 25.2872 8.31604 25.2716C8.34196 25.2404 8.37976 25.1949 8.42736 25.1374C8.52255 25.0224 8.65698 24.8598 8.81406 24.6688C9.12798 24.2871 9.53336 23.791 9.897 23.336L9.1158 22.7117C8.75642 23.1614 8.35442 23.6534 8.04172 24.0336C7.88549 24.2235 7.7518 24.3853 7.6572 24.4995C7.6099 24.5566 7.57238 24.6019 7.54671 24.6328C7.53388 24.6482 7.52401 24.6601 7.51736 24.6681C7.51403 24.6721 7.51152 24.6751 7.50983 24.6771C7.50899 24.6782 7.50836 24.6789 7.50795 24.6794C7.50774 24.6797 7.50758 24.6799 7.50748 24.68C7.50743 24.68 7.50739 24.6801 7.50737 24.6801C7.50736 24.6801 7.50735 24.6801 7.50734 24.6801C7.50734 24.6801 7.50734 24.6801 7.89165 25ZM0.540894 21.381C0.109582 21.6339 0.109729 21.6342 0.109884 21.6344C0.109946 21.6345 0.110109 21.6348 0.110234 21.635C0.110483 21.6354 0.110763 21.6359 0.111076 21.6364C0.111702 21.6375 0.112455 21.6388 0.113336 21.6402C0.115098 21.6432 0.117373 21.647 0.120166 21.6515C0.125751 21.6607 0.13341 21.673 0.143183 21.6884C0.162727 21.7191 0.190742 21.7618 0.227555 21.8148C0.30116 21.9208 0.41009 22.0684 0.556985 22.2439C0.850625 22.5948 1.29718 23.059 1.91783 23.5272C3.16341 24.4667 5.09912 25.4129 7.87601 25.4998L7.90728 24.5002C5.35789 24.4205 3.61823 23.5572 2.52 22.7288C1.96875 22.313 1.57629 21.9038 1.3239 21.6021C1.19777 21.4514 1.10693 21.3279 1.04902 21.2445C1.02007 21.2028 0.999388 21.1712 0.986676 21.1512C0.980321 21.1413 0.975962 21.1342 0.973561 21.1303C0.972361 21.1283 0.971651 21.1271 0.971427 21.1267C0.971314 21.1266 0.971324 21.1266 0.971453 21.1268C0.971518 21.1269 0.971614 21.1271 0.971739 21.1273C0.971802 21.1274 0.971918 21.1276 0.97195 21.1276C0.972074 21.1278 0.972205 21.1281 0.540894 21.381ZM4.01141 7.50017C3.57488 7.25638 3.5748 7.25651 3.57471 7.25667C3.57467 7.25676 3.57456 7.25694 3.57447 7.25711C3.57428 7.25745 3.57404 7.25788 3.57374 7.25841C3.57316 7.25947 3.57236 7.26091 3.57136 7.26272C3.56935 7.26634 3.56653 7.27147 3.5629 7.27809C3.55566 7.29132 3.54523 7.3105 3.53183 7.33548C3.50503 7.38544 3.46634 7.45862 3.41746 7.55385C3.31971 7.7443 3.18117 8.02305 3.01546 8.38077C2.68413 9.09603 2.24369 10.1281 1.80355 11.4024C0.924266 13.948 0.0408936 17.4753 0.0408936 21.381H1.04089C1.04089 17.6201 1.89278 14.207 2.74875 11.7289C3.17625 10.4912 3.60344 9.49059 3.92283 8.8011C4.08248 8.45645 4.21507 8.18981 4.30712 8.01047C4.35314 7.92081 4.38901 7.853 4.41305 7.80819C4.42507 7.78578 4.43412 7.76913 4.44001 7.75838C4.44296 7.753 4.44511 7.7491 4.44644 7.74669C4.4471 7.74549 4.44757 7.74466 4.44782 7.74421C4.44794 7.74398 4.44802 7.74384 4.44804 7.7438C4.44805 7.74379 4.44803 7.74383 4.44803 7.74382C4.448 7.74388 4.44795 7.74397 4.01141 7.50017ZM10.7837 5.0002C10.7946 4.50031 10.7944 4.50031 10.7941 4.50031C10.794 4.5003 10.7938 4.5003 10.7936 4.5003C10.7933 4.50029 10.7929 4.50028 10.7924 4.50027C10.7915 4.50025 10.7903 4.50023 10.789 4.50021C10.7863 4.50017 10.7829 4.50013 10.7786 4.50009C10.7701 4.50002 10.7585 4.49997 10.7437 4.50003C10.7143 4.50015 10.6725 4.50072 10.6193 4.5024C10.5128 4.50577 10.3603 4.5136 10.1678 4.53132C9.78297 4.56674 9.2377 4.64173 8.58185 4.79983C7.27012 5.11605 5.51253 5.76567 3.71375 7.09843L4.30908 7.90192C5.98082 6.66328 7.60939 6.06291 8.8162 5.77199C9.41962 5.62652 9.91671 5.55866 10.2594 5.52711C10.4307 5.51134 10.5632 5.50467 10.6509 5.5019C10.6947 5.50052 10.7273 5.50011 10.7479 5.50002C10.7582 5.49998 10.7655 5.50001 10.7697 5.50005C10.7718 5.50007 10.7731 5.50009 10.7737 5.5001C10.7739 5.5001 10.774 5.5001 10.7739 5.5001C10.7738 5.5001 10.7737 5.5001 10.7736 5.50009C10.7735 5.50009 10.7733 5.50009 10.7733 5.50009C10.7731 5.50008 10.7729 5.50008 10.7837 5.0002ZM11.4069 4.96352L11.1659 4.67781L10.4016 5.32259L10.6426 5.6083L11.4069 4.96352ZM4.68624 8.40493C5.02875 8.76919 5.02862 8.76931 5.0285 8.76942C5.02847 8.76945 5.02836 8.76955 5.0283 8.76961C5.02818 8.76972 5.0281 8.7698 5.02804 8.76985C5.02792 8.76996 5.02793 8.76996 5.02805 8.76984C5.02831 8.7696 5.02904 8.76892 5.03027 8.7678C5.03271 8.76555 5.03711 8.76155 5.04345 8.75586C5.05614 8.74449 5.07664 8.7264 5.10503 8.7022C5.16182 8.65379 5.25017 8.58094 5.37073 8.48853C5.61187 8.30372 5.98182 8.04071 6.48581 7.73852C7.49354 7.13429 9.03809 6.37286 11.162 5.76671L10.8875 4.80511C8.67327 5.43705 7.04856 6.23512 5.97157 6.88088C5.4332 7.20368 5.03193 7.48828 4.76242 7.69484C4.62767 7.79811 4.52585 7.88189 4.4563 7.94118C4.42152 7.97082 4.39481 7.99435 4.37607 8.01114C4.36671 8.01953 4.35933 8.02624 4.35395 8.03119C4.35125 8.03366 4.34905 8.0357 4.34735 8.03728C4.3465 8.03807 4.34577 8.03875 4.34517 8.03931C4.34487 8.0396 4.34459 8.03985 4.34435 8.04008C4.34423 8.04019 4.34408 8.04034 4.34402 8.04039C4.34387 8.04053 4.34372 8.04067 4.68624 8.40493ZM5.90153 7.25916C5.44936 7.4644 5.08819 7.63976 4.83919 7.76427C4.71467 7.82654 4.61814 7.87612 4.55225 7.9104C4.5193 7.92754 4.49401 7.94086 4.4767 7.95003C4.46805 7.95461 4.46139 7.95816 4.45677 7.96063C4.45446 7.96186 4.45265 7.96283 4.45137 7.96352C4.45072 7.96386 4.45021 7.96414 4.44982 7.96435C4.44963 7.96445 4.44947 7.96454 4.44934 7.96461C4.44928 7.96464 4.44922 7.96467 4.44917 7.9647C4.44915 7.96471 4.44912 7.96473 4.44911 7.96473C4.44908 7.96475 4.44905 7.96476 4.68624 8.40493C4.92342 8.84509 4.9234 8.8451 4.92338 8.84511C4.92338 8.84511 4.92336 8.84512 4.92335 8.84513C4.92333 8.84514 4.92333 8.84514 4.92333 8.84514C4.92333 8.84514 4.92336 8.84512 4.92343 8.84509C4.92356 8.84502 4.92382 8.84488 4.9242 8.84467C4.92498 8.84425 4.92626 8.84357 4.92805 8.84261C4.93163 8.8407 4.93723 8.83771 4.94482 8.83369C4.95999 8.82566 4.98309 8.81349 5.01378 8.79752C5.07517 8.76558 5.16694 8.71844 5.28644 8.65868C5.52548 8.53915 5.87529 8.36927 6.31484 8.16975L5.90153 7.25916ZM11.5369 5.71625C10.6468 5.79163 8.5442 6.11233 5.90915 7.25578L6.30722 8.17313C8.82975 7.07851 10.8243 6.78017 11.6213 6.71269L11.5369 5.71625ZM11.5507 5.71228L11.4967 5.7213L11.6614 6.70764L11.7155 6.69862L11.5507 5.71228ZM11.9888 5.66685C11.815 5.66685 11.6679 5.69257 11.5502 5.71238L11.716 6.69852C11.8414 6.67743 11.9101 6.66685 11.9888 6.66685V5.66685ZM16.9117 5.62222C15.1338 5.42706 13.4308 5.47584 11.9245 5.671L12.053 6.66271C13.487 6.47692 15.11 6.43046 16.8026 6.61625L16.9117 5.62222ZM24.3496 7.96524C21.7811 6.57453 19.2602 5.89085 16.914 5.62247L16.8003 6.616C19.0333 6.87142 21.429 7.52106 23.8734 8.84461L24.3496 7.96524ZM17.9658 5.85977C19.9708 6.46565 21.4326 7.20348 22.3875 7.78447C22.8651 8.07503 23.2161 8.32647 23.4449 8.50272C23.5594 8.59084 23.6433 8.66015 23.6972 8.70615C23.7241 8.72915 23.7436 8.74631 23.7556 8.75708C23.7616 8.76246 23.7658 8.76625 23.7681 8.76836C23.7692 8.76942 23.7699 8.77006 23.7702 8.77027C23.7703 8.77038 23.7703 8.77038 23.7702 8.77027C23.7701 8.77022 23.77 8.77014 23.7699 8.77003C23.7698 8.76998 23.7697 8.76987 23.7697 8.76985C23.7696 8.76974 23.7695 8.76963 24.1115 8.40493C24.4536 8.04023 24.4534 8.0401 24.4533 8.03996C24.4532 8.03991 24.4531 8.03977 24.4529 8.03966C24.4527 8.03944 24.4525 8.0392 24.4522 8.03893C24.4516 8.03839 24.4509 8.03774 24.4501 8.03698C24.4484 8.03547 24.4463 8.03353 24.4438 8.03117C24.4386 8.02645 24.4316 8.02006 24.4226 8.01206C24.4048 7.99607 24.3793 7.97366 24.3462 7.94541C24.28 7.88891 24.1831 7.80905 24.0551 7.71042C23.7989 7.51315 23.4178 7.24079 22.9073 6.93016C21.8859 6.30878 20.3472 5.53473 18.255 4.90252L17.9658 5.85977ZM18.0735 4.66868L17.7361 5.04963L18.4847 5.71266L18.8221 5.33172L18.0735 4.66868ZM25.5178 7.09843C23.719 5.76567 21.9614 5.11605 20.6497 4.79983C19.9939 4.64173 19.4486 4.56674 19.0638 4.53132C18.8713 4.5136 18.7187 4.50577 18.6123 4.5024C18.559 4.50072 18.5173 4.50015 18.4878 4.50003C18.4731 4.49997 18.4614 4.50002 18.4529 4.50009C18.4487 4.50013 18.4452 4.50017 18.4426 4.50021C18.4412 4.50023 18.4401 4.50025 18.4392 4.50027C18.4387 4.50028 18.4383 4.50029 18.4379 4.5003C18.4377 4.5003 18.4375 4.5003 18.4374 4.50031C18.4372 4.50031 18.437 4.50031 18.4478 5.0002C18.4586 5.50008 18.4584 5.50008 18.4583 5.50009C18.4582 5.50009 18.4581 5.50009 18.458 5.50009C18.4578 5.5001 18.4577 5.5001 18.4577 5.5001C18.4575 5.5001 18.4576 5.5001 18.4579 5.5001C18.4584 5.50009 18.4597 5.50007 18.4618 5.50005C18.4661 5.50001 18.4734 5.49998 18.4837 5.50002C18.5042 5.50011 18.5368 5.50052 18.5807 5.5019C18.6683 5.50467 18.8008 5.51134 18.9721 5.52711C19.3148 5.55866 19.8119 5.62652 20.4154 5.77199C21.6222 6.06291 23.2507 6.66328 24.9225 7.90192L25.5178 7.09843ZM29.1907 21.381C29.1907 17.4753 28.3073 13.948 27.428 11.4024C26.9879 10.1281 26.5474 9.09603 26.2161 8.38077C26.0504 8.02305 25.9118 7.7443 25.8141 7.55385C25.7652 7.45862 25.7265 7.38544 25.6997 7.33548C25.6863 7.3105 25.6759 7.29132 25.6687 7.27809C25.665 7.27147 25.6622 7.26634 25.6602 7.26272C25.6592 7.26091 25.6584 7.25947 25.6578 7.25841C25.6575 7.25788 25.6573 7.25745 25.6571 7.25711C25.657 7.25694 25.6569 7.25676 25.6568 7.25667C25.6568 7.25651 25.6567 7.25638 25.2201 7.50017C24.7836 7.74397 24.7836 7.74388 24.7835 7.74382C24.7835 7.74383 24.7835 7.74379 24.7835 7.7438C24.7835 7.74384 24.7836 7.74398 24.7837 7.74421C24.784 7.74466 24.7845 7.74549 24.7851 7.74669C24.7865 7.7491 24.7886 7.753 24.7915 7.75838C24.7974 7.76913 24.8065 7.78578 24.8185 7.80819C24.8425 7.853 24.8784 7.92081 24.9244 8.01047C25.0165 8.18981 25.1491 8.45645 25.3087 8.8011C25.6281 9.49059 26.0553 10.4912 26.4828 11.7289C27.3388 14.207 28.1907 17.6201 28.1907 21.381H29.1907ZM21.3314 25.4998C24.1082 25.4129 26.0496 24.4668 27.3007 23.5279C27.9242 23.0601 28.3736 22.5961 28.6695 22.2455C28.8175 22.07 28.9274 21.9226 29.0016 21.8167C29.0388 21.7637 29.067 21.7211 29.0868 21.6905C29.0966 21.6751 29.1044 21.6628 29.11 21.6537C29.1128 21.6491 29.1151 21.6454 29.1169 21.6424C29.1178 21.641 29.1185 21.6397 29.1192 21.6387C29.1195 21.6381 29.1198 21.6377 29.12 21.6372C29.1201 21.637 29.1203 21.6368 29.1204 21.6367C29.1205 21.6364 29.1207 21.6361 28.6907 21.381C28.2607 21.1258 28.2608 21.1256 28.2609 21.1254C28.261 21.1254 28.2611 21.1252 28.2611 21.1251C28.2613 21.1248 28.2614 21.1247 28.2614 21.1246C28.2615 21.1244 28.2616 21.1244 28.2614 21.1245C28.2612 21.1249 28.2605 21.1261 28.2593 21.1281C28.2568 21.1321 28.2524 21.1391 28.2459 21.1491C28.2331 21.1692 28.2121 21.2009 28.1828 21.2426C28.1243 21.3261 28.0325 21.4497 27.9052 21.6006C27.6505 21.9025 27.2549 22.312 26.7005 22.7281C25.5958 23.5571 23.8497 24.4205 21.3002 24.5002L21.3314 25.4998ZM8.84943 17.0362C8.84943 15.7609 9.75447 14.8151 10.7883 14.8151V13.8151C9.09638 13.8151 7.84943 15.3207 7.84943 17.0362H8.84943ZM10.7883 19.2572C9.77538 19.2572 8.84943 18.3081 8.84943 17.0362H7.84943C7.84943 18.755 9.12328 20.2572 10.7883 20.2572V19.2572ZM12.7273 17.0362C12.7273 18.3114 11.8222 19.2572 10.7883 19.2572V20.2572C12.4803 20.2572 13.7273 18.7516 13.7273 17.0362H12.7273ZM10.7883 14.8151C11.8289 14.8151 12.7475 15.7669 12.7273 17.0282L13.7272 17.0442C13.7548 15.3147 12.4737 13.8151 10.7883 13.8151V14.8151ZM19.515 13.8151C17.8231 13.8151 16.5761 15.3207 16.5761 17.0362H17.5761C17.5761 15.7609 18.4812 14.8151 19.515 14.8151V13.8151ZM22.454 17.0362C22.454 15.3207 21.207 13.8151 19.515 13.8151V14.8151C20.5489 14.8151 21.454 15.7609 21.454 17.0362H22.454ZM19.515 20.2572C21.207 20.2572 22.454 18.7516 22.454 17.0362H21.454C21.454 18.3114 20.5489 19.2572 19.515 19.2572V20.2572ZM16.5761 17.0362C16.5761 18.755 17.85 20.2572 19.515 20.2572V19.2572C18.5021 19.2572 17.5761 18.3081 17.5761 17.0362H16.5761Z" fill="url(#paint1_linear_370_18373)" mask="url(#path-1-inside-1_370_18373)"/>
<defs>
<linearGradient id="paint0_linear_370_18373" x1="14.6158" y1="5" x2="14.6158" y2="25" gradientUnits="userSpaceOnUse">
<stop stop-color="#DBF0FF" stop-opacity="0.54"/>
<stop offset="1" stop-color="#CEEAFF" stop-opacity="0.32"/>
</linearGradient>
<linearGradient id="paint1_linear_370_18373" x1="14.6158" y1="5" x2="14.6158" y2="25" gradientUnits="userSpaceOnUse">
<stop stop-color="white" stop-opacity="0.46"/>
<stop offset="1" stop-color="white" stop-opacity="0"/>
</linearGradient>
</defs>
</svg>
