<svg width="30" height="30" viewBox="0 0 30 30" fill="none" xmlns="http://www.w3.org/2000/svg">
<path fill-rule="evenodd" clip-rule="evenodd" d="M21.3159 25C21.3159 25 20.4483 23.9762 19.7253 23.0714C22.8825 22.1905 24.0875 20.2381 24.0875 20.2381C23.0994 20.881 22.1595 21.3334 21.3159 21.6429C20.1109 22.1429 18.9541 22.4762 17.8213 22.6667C15.5076 23.0953 13.3868 22.9762 11.5792 22.6429C10.2054 22.381 9.02451 22 8.03637 21.6191C7.48205 21.4048 6.87953 21.1429 6.27701 20.8096C6.24086 20.7858 6.20471 20.7679 6.16856 20.75C6.13241 20.7322 6.09626 20.7143 6.06011 20.6905C6.0119 20.6667 5.9878 20.6429 5.9637 20.6191C5.52989 20.381 5.28888 20.2143 5.28888 20.2143C5.28888 20.2143 6.44572 22.1191 9.50653 23.0238C8.7835 23.9286 7.89177 25 7.89177 25C2.56549 24.8333 0.541016 21.381 0.541016 21.381C0.541016 13.7144 4.01154 7.50017 4.01154 7.50017C7.48205 4.92877 10.7839 5.0002 10.7839 5.0002L11.0249 5.28591C6.68673 6.52399 4.68636 8.40493 4.68636 8.40493C4.68636 8.40493 5.21658 8.11921 6.10831 7.71446C8.6871 6.59542 10.7357 6.2859 11.5792 6.21447L11.6332 6.20545C11.7548 6.185 11.8627 6.16685 11.9889 6.16685C13.4591 5.97638 15.122 5.92876 16.8573 6.11923C19.1469 6.38114 21.6051 7.0478 24.1116 8.40493C24.1116 8.40493 22.2077 6.61923 18.1105 5.38115L18.4479 5.0002C18.4479 5.0002 21.7497 4.92877 25.2203 7.50017C25.2203 7.50017 28.6908 13.7144 28.6908 21.381C28.6908 21.381 26.6422 24.8333 21.3159 25ZM10.7885 14.3151C9.42554 14.3151 8.34955 15.5408 8.34955 17.0362C8.34955 18.5315 9.44946 19.7572 10.7885 19.7572C12.1514 19.7572 13.2274 18.5315 13.2274 17.0362C13.2513 15.5408 12.1514 14.3151 10.7885 14.3151ZM17.0763 17.0362C17.0763 15.5408 18.1522 14.3151 19.5152 14.3151C20.8781 14.3151 21.9541 15.5408 21.9541 17.0362C21.9541 18.5315 20.8781 19.7572 19.5152 19.7572C18.1762 19.7572 17.0763 18.5315 17.0763 17.0362Z" fill="white"/>
</svg>
