<svg width="55" height="55" viewBox="0 0 55 55" fill="none" xmlns="http://www.w3.org/2000/svg">
<rect x="1.28674" y="1.33594" width="53" height="53" rx="26.5" fill="#1C2038" fill-opacity="0.8" stroke="url(#paint0_linear_979_144504)"/>
<path fill-rule="evenodd" clip-rule="evenodd" d="M34.1026 37.8359C34.1026 37.8359 33.2349 36.8121 32.5119 35.9074C35.6691 35.0264 36.8741 33.0741 36.8741 33.0741C35.886 33.7169 34.9461 34.1693 34.1026 34.4788C32.8975 34.9788 31.7407 35.3122 30.6079 35.5026C28.2943 35.9312 26.1734 35.8121 24.3658 35.4788C22.9921 35.2169 21.8111 34.836 20.823 34.455C20.2687 34.2407 19.6662 33.9788 19.0636 33.6455C19.0275 33.6217 18.9913 33.6038 18.9552 33.586C18.919 33.5681 18.8829 33.5503 18.8467 33.5265C18.7985 33.5026 18.7744 33.4788 18.7503 33.455C18.3165 33.2169 18.0755 33.0503 18.0755 33.0503C18.0755 33.0503 19.2323 34.955 22.2931 35.8598C21.5701 36.7645 20.6784 37.8359 20.6784 37.8359C15.3521 37.6693 13.3276 34.2169 13.3276 34.2169C13.3276 26.5503 16.7982 20.3361 16.7982 20.3361C20.2687 17.7647 23.5705 17.8361 23.5705 17.8361L23.8115 18.1218C19.4733 19.3599 17.473 21.2409 17.473 21.2409C17.473 21.2409 18.0032 20.9552 18.8949 20.5504C21.4737 19.4314 23.5223 19.1218 24.3658 19.0504L24.4198 19.0414C24.5414 19.0209 24.6493 19.0028 24.7755 19.0028C26.2457 18.8123 27.9086 18.7647 29.6439 18.9552C31.9335 19.2171 34.3918 19.8837 36.8982 21.2409C36.8982 21.2409 34.9943 19.4552 30.8971 18.2171L31.2346 17.8361C31.2346 17.8361 34.5364 17.7647 38.0069 20.3361C38.0069 20.3361 41.4774 26.5503 41.4774 34.2169C41.4774 34.2169 39.4288 37.6693 34.1026 37.8359ZM23.5751 27.1511C22.2122 27.1511 21.1362 28.3768 21.1362 29.8721C21.1362 31.3675 22.2361 32.5932 23.5751 32.5932C24.938 32.5932 26.014 31.3675 26.014 29.8721C26.0379 28.3768 24.938 27.1511 23.5751 27.1511ZM29.8629 29.8721C29.8629 28.3768 30.9389 27.1511 32.3018 27.1511C33.6647 27.1511 34.7407 28.3768 34.7407 29.8721C34.7407 31.3675 33.6647 32.5932 32.3018 32.5932C30.9628 32.5932 29.8629 31.3675 29.8629 29.8721Z" fill="white"/>
<defs>
<linearGradient id="paint0_linear_979_144504" x1="27.7867" y1="0.835937" x2="27.7867" y2="54.8359" gradientUnits="userSpaceOnUse">
<stop stop-color="#333750" stop-opacity="0.42"/>
<stop offset="1" stop-color="#333750" stop-opacity="0"/>
</linearGradient>
</defs>
</svg>
