<svg width="55" height="55" viewBox="0 0 55 55" fill="none" xmlns="http://www.w3.org/2000/svg">
<rect x="1.28674" y="1.33594" width="53" height="53" rx="26.5" fill="#1C2038" fill-opacity="0.8" stroke="url(#paint0_linear_979_144505)"/>
<path d="M28.0326 16.1489C21.5422 16.1489 16.2791 21.5008 16.2791 28.1032C16.2791 33.385 19.6468 37.866 24.3169 39.4467C24.9043 39.5574 25.1199 39.1874 25.1199 38.8716C25.1199 38.5866 25.109 37.6449 25.104 36.646C21.8341 37.3691 21.1441 35.2355 21.1441 35.2355C20.6095 33.8537 19.8391 33.4863 19.8391 33.4863C18.7727 32.7444 19.9195 32.7596 19.9195 32.7596C21.0998 32.8437 21.7212 33.9915 21.7212 33.9915C22.7695 35.8191 24.4708 35.2907 25.1415 34.9853C25.247 34.2128 25.5516 33.6851 25.8878 33.3868C23.2771 33.0845 20.5328 32.0594 20.5328 27.4788C20.5328 26.1737 20.9919 25.1072 21.7438 24.2701C21.6218 23.9688 21.2195 22.7531 21.8577 21.1065C21.8577 21.1065 22.8447 20.7852 25.0907 22.3318C26.0283 22.067 27.0338 21.9341 28.0326 21.9296C29.0315 21.9341 30.0378 22.067 30.9771 22.3318C33.2204 20.7852 34.2061 21.1065 34.2061 21.1065C34.8458 22.7531 34.4433 23.9688 34.3213 24.2701C35.0749 25.1072 35.5309 26.1737 35.5309 27.4788C35.5309 32.0703 32.7813 33.0813 30.1641 33.3772C30.5857 33.7482 30.9613 34.4757 30.9613 35.591C30.9613 37.1904 30.9477 38.4777 30.9477 38.8716C30.9477 39.1898 31.1593 39.5625 31.755 39.4451C36.4226 37.8626 39.786 33.3832 39.786 28.1032C39.786 21.5008 34.5237 16.1489 28.0326 16.1489Z" fill="white"/>
<path d="M20.7308 33.312C20.7049 33.3716 20.613 33.3893 20.5293 33.3485C20.4441 33.3095 20.3962 33.2285 20.4239 33.1689C20.4492 33.1077 20.5412 33.0909 20.6263 33.1315C20.7117 33.1707 20.7604 33.2525 20.7308 33.312Z" fill="white"/>
<path d="M21.207 33.853C21.1509 33.9058 21.0413 33.8813 20.967 33.7977C20.8901 33.7144 20.8757 33.6029 20.9325 33.5493C20.9903 33.4964 21.0966 33.5212 21.1737 33.6045C21.2506 33.6888 21.2656 33.7995 21.207 33.853Z" fill="white"/>
<path d="M21.6704 34.5407C21.5984 34.5916 21.4806 34.5439 21.4078 34.4376C21.3358 34.3313 21.3358 34.2038 21.4094 34.1527C21.4824 34.1017 21.5984 34.1476 21.6721 34.2531C21.744 34.361 21.744 34.4887 21.6704 34.5407Z" fill="white"/>
<path d="M22.3052 35.2061C22.2408 35.2783 22.1036 35.2589 22.0032 35.1603C21.9004 35.0639 21.8718 34.9272 21.9364 34.8549C22.0016 34.7824 22.1396 34.8028 22.2408 34.9006C22.3428 34.9968 22.3739 35.1346 22.3052 35.2061Z" fill="white"/>
<path d="M23.1811 35.5922C23.1527 35.6858 23.0205 35.7284 22.8874 35.6886C22.7545 35.6476 22.6675 35.5379 22.6943 35.4433C22.722 35.3491 22.8547 35.3047 22.9888 35.3473C23.1215 35.3881 23.2087 35.4969 23.1811 35.5922Z" fill="white"/>
<path d="M24.1429 35.6637C24.1462 35.7623 24.0333 35.8441 23.8936 35.8457C23.753 35.849 23.6394 35.7692 23.6378 35.6722C23.6378 35.5727 23.7482 35.4917 23.8887 35.4893C24.0284 35.4866 24.1429 35.5657 24.1429 35.6637Z" fill="white"/>
<path d="M25.038 35.5088C25.0547 35.605 24.9576 35.7037 24.8188 35.7299C24.6824 35.7554 24.5561 35.696 24.5388 35.6006C24.5218 35.502 24.6207 35.4032 24.7569 35.3777C24.8959 35.3532 25.0203 35.411 25.038 35.5088Z" fill="white"/>
<defs>
<linearGradient id="paint0_linear_979_144505" x1="27.7867" y1="0.835937" x2="27.7867" y2="54.8359" gradientUnits="userSpaceOnUse">
<stop stop-color="#333750" stop-opacity="0.42"/>
<stop offset="1" stop-color="#333750" stop-opacity="0"/>
</linearGradient>
</defs>
</svg>
