<svg width="54" height="55" viewBox="0 0 54 55" fill="none" xmlns="http://www.w3.org/2000/svg">
<rect y="0.5" width="54" height="54" rx="27" fill="#1C2038" fill-opacity="0.8"/>
<path fill-rule="evenodd" clip-rule="evenodd" d="M38.7461 32.4087C38.7461 34.425 38.0448 36.1782 36.8176 37.4055C35.5903 38.6328 33.8371 39.2464 31.9085 39.2464H22.3533C20.4247 39.2464 18.6715 38.6328 17.4442 37.4055C16.1293 36.1782 15.5156 34.425 15.5156 32.4087V22.7659C15.5156 18.7334 18.2332 15.9282 22.3533 15.9282H31.9961C34.0124 15.9282 35.678 16.6295 36.9052 17.8568C38.1325 19.0841 38.7461 20.7497 38.7461 22.7659V32.4087ZM33.3108 22.6778C32.5218 22.6778 31.9082 22.0641 31.9082 21.2752C31.9082 20.4862 32.5218 19.8726 33.3108 19.8726C34.0998 19.8726 34.7134 20.4862 34.7134 21.2752C34.7134 22.0641 34.0998 22.6778 33.3108 22.6778ZM27.087 33.4607C23.7558 33.4607 21.126 30.7431 21.126 27.4996C21.126 24.1684 23.8435 21.5386 27.087 21.5386C30.3305 21.5386 33.1357 24.1684 33.1357 27.4996C33.1357 30.8308 30.4182 33.4607 27.087 33.4607ZM27.086 31.3576C29.2163 31.3576 30.9432 29.6307 30.9432 27.5004C30.9432 25.3702 29.2163 23.6433 27.086 23.6433C24.9558 23.6433 23.2289 25.3702 23.2289 27.5004C23.2289 29.6307 24.9558 31.3576 27.086 31.3576Z" fill="white"/>
</svg>
