<svg width="30" height="30" viewBox="0 0 30 30" fill="none" xmlns="http://www.w3.org/2000/svg">
<mask id="path-1-inside-1_370_18378" fill="white">
<path fill-rule="evenodd" clip-rule="evenodd" d="M21.0589 14.3942C21.5006 13.9714 22.1043 13.7106 22.7668 13.7106C24.1129 13.7106 25.2171 14.7938 25.2171 16.1609C25.2171 17.1642 24.6135 18.0286 23.7701 18.4093C23.81 18.6512 23.831 18.912 23.831 19.1518C23.831 22.9482 19.4331 26 14.013 26C8.59075 26 4.19281 22.9271 4.19281 19.1518C4.19281 18.893 4.21174 18.6512 4.2538 18.4093C3.74283 18.1799 3.32606 17.7821 3.07311 17.2824C2.82016 16.7827 2.74637 16.2113 2.86406 15.6637C2.98176 15.1161 3.2838 14.6255 3.71973 14.2739C4.15567 13.9222 4.69908 13.7308 5.25917 13.7316C5.91959 13.7316 6.52113 13.9924 6.96282 14.4131C8.67067 13.189 11.0221 12.4066 13.6302 12.3266L14.8753 6.46272C14.8827 6.40528 14.9028 6.35021 14.9341 6.30147C14.9654 6.25273 15.0071 6.21154 15.0562 6.18088C15.1033 6.15039 15.156 6.1295 15.2112 6.11939C15.2665 6.10929 15.3231 6.11017 15.378 6.12199L19.4541 6.98433C19.5967 6.69023 19.8189 6.44204 20.0956 6.26803C20.3722 6.09401 20.6922 6.00114 21.019 6C21.3607 6.00038 21.6947 6.10102 21.9798 6.28946C22.2648 6.4779 22.4883 6.74584 22.6225 7.06008C22.7567 7.37432 22.7957 7.72103 22.7347 8.05724C22.6738 8.39345 22.5155 8.70437 22.2795 8.95147C22.0434 9.19856 21.7401 9.37097 21.4071 9.4473C21.074 9.52364 20.7259 9.50056 20.4058 9.38092C20.0857 9.26128 19.8078 9.05034 19.6065 8.77425C19.4052 8.49816 19.2893 8.16906 19.2733 7.82774L15.6178 7.04533L14.4946 12.3056C17.0627 12.4066 19.3742 13.189 21.0589 14.3942ZM8.90222 16.6727C9.22949 16.3454 9.67319 16.1613 10.136 16.1608C10.5888 16.1765 11.0178 16.3674 11.3325 16.6933C11.6473 17.0191 11.8232 17.4545 11.8232 17.9075C11.8232 18.3606 11.6473 18.796 11.3325 19.1218C11.0178 19.4477 10.5888 19.6386 10.136 19.6543C9.17271 19.6732 8.3903 18.8719 8.3903 17.9065C8.39085 17.4437 8.57496 17 8.90222 16.6727ZM18.1684 22.5463C16.9632 23.7515 14.6749 23.8314 14.0123 23.8314V23.8293C13.3288 23.8293 11.0404 23.7305 9.85418 22.5463C9.81105 22.5045 9.77676 22.4545 9.75334 22.3993C9.72993 22.344 9.71786 22.2845 9.71786 22.2245C9.71786 22.1645 9.72993 22.1051 9.75334 22.0498C9.77676 21.9945 9.81105 21.9445 9.85418 21.9027C9.89594 21.8596 9.94595 21.8253 10.0012 21.8019C10.0565 21.7785 10.1159 21.7664 10.176 21.7664C10.236 21.7664 10.2954 21.7785 10.3507 21.8019C10.406 21.8253 10.456 21.8596 10.4978 21.9027C11.2613 22.6662 12.8661 22.927 14.0123 22.927C15.1565 22.927 16.7823 22.6662 17.5248 21.9027C17.5666 21.8596 17.6166 21.8253 17.6719 21.8019C17.7271 21.7785 17.7866 21.7664 17.8466 21.7664C17.9066 21.7664 17.9661 21.7785 18.0213 21.8019C18.0766 21.8253 18.1266 21.8596 18.1684 21.9027C18.2465 21.9917 18.2896 22.1061 18.2896 22.2245C18.2896 22.3429 18.2465 22.4573 18.1684 22.5463ZM17.8466 19.6732C16.8833 19.6732 16.0988 18.8908 16.0988 17.9275H16.1009C16.1229 17.4794 16.3164 17.0568 16.6414 16.7474C16.9664 16.438 17.3979 16.2654 17.8466 16.2654C18.2953 16.2654 18.7268 16.438 19.0518 16.7474C19.3768 17.0568 19.5703 17.4794 19.5923 17.9275C19.5923 18.8719 18.8099 19.6732 17.8466 19.6732Z"/>
</mask>
<path fill-rule="evenodd" clip-rule="evenodd" d="M21.0589 14.3942C21.5006 13.9714 22.1043 13.7106 22.7668 13.7106C24.1129 13.7106 25.2171 14.7938 25.2171 16.1609C25.2171 17.1642 24.6135 18.0286 23.7701 18.4093C23.81 18.6512 23.831 18.912 23.831 19.1518C23.831 22.9482 19.4331 26 14.013 26C8.59075 26 4.19281 22.9271 4.19281 19.1518C4.19281 18.893 4.21174 18.6512 4.2538 18.4093C3.74283 18.1799 3.32606 17.7821 3.07311 17.2824C2.82016 16.7827 2.74637 16.2113 2.86406 15.6637C2.98176 15.1161 3.2838 14.6255 3.71973 14.2739C4.15567 13.9222 4.69908 13.7308 5.25917 13.7316C5.91959 13.7316 6.52113 13.9924 6.96282 14.4131C8.67067 13.189 11.0221 12.4066 13.6302 12.3266L14.8753 6.46272C14.8827 6.40528 14.9028 6.35021 14.9341 6.30147C14.9654 6.25273 15.0071 6.21154 15.0562 6.18088C15.1033 6.15039 15.156 6.1295 15.2112 6.11939C15.2665 6.10929 15.3231 6.11017 15.378 6.12199L19.4541 6.98433C19.5967 6.69023 19.8189 6.44204 20.0956 6.26803C20.3722 6.09401 20.6922 6.00114 21.019 6C21.3607 6.00038 21.6947 6.10102 21.9798 6.28946C22.2648 6.4779 22.4883 6.74584 22.6225 7.06008C22.7567 7.37432 22.7957 7.72103 22.7347 8.05724C22.6738 8.39345 22.5155 8.70437 22.2795 8.95147C22.0434 9.19856 21.7401 9.37097 21.4071 9.4473C21.074 9.52364 20.7259 9.50056 20.4058 9.38092C20.0857 9.26128 19.8078 9.05034 19.6065 8.77425C19.4052 8.49816 19.2893 8.16906 19.2733 7.82774L15.6178 7.04533L14.4946 12.3056C17.0627 12.4066 19.3742 13.189 21.0589 14.3942ZM8.90222 16.6727C9.22949 16.3454 9.67319 16.1613 10.136 16.1608C10.5888 16.1765 11.0178 16.3674 11.3325 16.6933C11.6473 17.0191 11.8232 17.4545 11.8232 17.9075C11.8232 18.3606 11.6473 18.796 11.3325 19.1218C11.0178 19.4477 10.5888 19.6386 10.136 19.6543C9.17271 19.6732 8.3903 18.8719 8.3903 17.9065C8.39085 17.4437 8.57496 17 8.90222 16.6727ZM18.1684 22.5463C16.9632 23.7515 14.6749 23.8314 14.0123 23.8314V23.8293C13.3288 23.8293 11.0404 23.7305 9.85418 22.5463C9.81105 22.5045 9.77676 22.4545 9.75334 22.3993C9.72993 22.344 9.71786 22.2845 9.71786 22.2245C9.71786 22.1645 9.72993 22.1051 9.75334 22.0498C9.77676 21.9945 9.81105 21.9445 9.85418 21.9027C9.89594 21.8596 9.94595 21.8253 10.0012 21.8019C10.0565 21.7785 10.1159 21.7664 10.176 21.7664C10.236 21.7664 10.2954 21.7785 10.3507 21.8019C10.406 21.8253 10.456 21.8596 10.4978 21.9027C11.2613 22.6662 12.8661 22.927 14.0123 22.927C15.1565 22.927 16.7823 22.6662 17.5248 21.9027C17.5666 21.8596 17.6166 21.8253 17.6719 21.8019C17.7271 21.7785 17.7866 21.7664 17.8466 21.7664C17.9066 21.7664 17.9661 21.7785 18.0213 21.8019C18.0766 21.8253 18.1266 21.8596 18.1684 21.9027C18.2465 21.9917 18.2896 22.1061 18.2896 22.2245C18.2896 22.3429 18.2465 22.4573 18.1684 22.5463ZM17.8466 19.6732C16.8833 19.6732 16.0988 18.8908 16.0988 17.9275H16.1009C16.1229 17.4794 16.3164 17.0568 16.6414 16.7474C16.9664 16.438 17.3979 16.2654 17.8466 16.2654C18.2953 16.2654 18.7268 16.438 19.0518 16.7474C19.3768 17.0568 19.5703 17.4794 19.5923 17.9275C19.5923 18.8719 18.8099 19.6732 17.8466 19.6732Z" fill="url(#paint0_linear_370_18378)"/>
<path d="M21.0589 14.3942L20.768 14.8008L21.1052 15.042L21.4047 14.7554L21.0589 14.3942ZM23.7701 18.4093L23.5644 17.9536L23.2141 18.1117L23.2767 18.4908L23.7701 18.4093ZM4.2538 18.4093L4.74641 18.495L4.81297 18.1122L4.45857 17.9531L4.2538 18.4093ZM3.07311 17.2824L2.627 17.5082L3.07311 17.2824ZM3.71973 14.2739L4.03367 14.663L4.03367 14.663L3.71973 14.2739ZM5.25917 13.7316L5.25843 14.2316H5.25917V13.7316ZM6.96282 14.4131L6.61799 14.7752L6.9177 15.0606L7.2541 14.8195L6.96282 14.4131ZM13.6302 12.3266L13.6455 12.8264L14.0378 12.8144L14.1193 12.4305L13.6302 12.3266ZM14.8753 6.46272L15.3644 6.56657L15.3686 6.54677L15.3712 6.52669L14.8753 6.46272ZM14.9341 6.30147L14.5133 6.0314V6.0314L14.9341 6.30147ZM15.0562 6.18088L15.3209 6.60512L15.3278 6.6007L15.0562 6.18088ZM15.2112 6.11939L15.3012 6.61122L15.3012 6.61122L15.2112 6.11939ZM15.378 6.12199L15.2727 6.61078L15.2745 6.61116L15.378 6.12199ZM19.4541 6.98433L19.3507 7.4735L19.7334 7.55449L19.9041 7.2024L19.4541 6.98433ZM20.0956 6.26803L19.8293 5.84479V5.8448L20.0956 6.26803ZM21.019 6L21.0195 5.49999L21.0172 5.5L21.019 6ZM21.9798 6.28946L22.2555 5.87237L22.2555 5.87237L21.9798 6.28946ZM22.6225 7.06008L22.1627 7.25646V7.25646L22.6225 7.06008ZM22.7347 8.05724L22.2428 7.96801V7.96801L22.7347 8.05724ZM21.4071 9.4473L21.5188 9.93467V9.93467L21.4071 9.4473ZM20.4058 9.38092L20.5809 8.91257V8.91257L20.4058 9.38092ZM19.6065 8.77425L19.2025 9.06884L19.6065 8.77425ZM19.2733 7.82774L19.7727 7.80425L19.7546 7.41944L19.3779 7.33882L19.2733 7.82774ZM15.6178 7.04533L15.7224 6.5564L15.2333 6.4517L15.1288 6.94092L15.6178 7.04533ZM14.4946 12.3056L14.0056 12.2012L13.8817 12.7819L14.475 12.8052L14.4946 12.3056ZM10.136 16.1608L10.1534 15.6611L10.1444 15.6608L10.1354 15.6608L10.136 16.1608ZM8.90222 16.6727L8.54867 16.3192L8.54867 16.3192L8.90222 16.6727ZM11.3325 16.6933L11.6922 16.3459L11.3325 16.6933ZM10.136 19.6543L10.1458 20.1543L10.1534 20.154L10.136 19.6543ZM8.3903 17.9065L7.8903 17.9059V17.9065H8.3903ZM14.0123 23.8314H13.5123V24.3314H14.0123V23.8314ZM18.1684 22.5463L18.522 22.8999L18.5335 22.8883L18.5443 22.8761L18.1684 22.5463ZM14.0123 23.8293H14.5123V23.3293H14.0123V23.8293ZM9.85418 22.5463L10.2075 22.1924L10.202 22.1872L9.85418 22.5463ZM9.75334 22.0498L10.2137 22.2448L10.2137 22.2448L9.75334 22.0498ZM9.85418 21.9027L10.202 22.2619L10.2078 22.2563L10.2133 22.2506L9.85418 21.9027ZM10.0012 21.8019L10.1963 22.2623L10.1963 22.2623L10.0012 21.8019ZM10.3507 21.8019L10.1557 22.2623L10.1557 22.2623L10.3507 21.8019ZM10.4978 21.9027L10.1386 22.2506L10.1442 22.2563L10.4978 21.9027ZM17.5248 21.9027L17.8833 22.2513L17.884 22.2506L17.5248 21.9027ZM17.6719 21.8019L17.8669 22.2623L17.8669 22.2623L17.6719 21.8019ZM18.0213 21.8019L17.8263 22.2623L17.8263 22.2623L18.0213 21.8019ZM18.1684 21.9027L18.5443 21.573L18.5361 21.5637L18.5276 21.5548L18.1684 21.9027ZM16.0988 17.9275V17.4275H15.5988V17.9275H16.0988ZM16.1009 17.9275V18.4275H16.5769L16.6003 17.9521L16.1009 17.9275ZM16.6414 16.7474L16.9862 17.1095L16.9862 17.1095L16.6414 16.7474ZM19.0518 16.7474L18.707 17.1095L18.707 17.1095L19.0518 16.7474ZM19.5923 17.9275H20.0923V17.9153L20.0917 17.903L19.5923 17.9275ZM22.7668 13.2106C21.9711 13.2106 21.2448 13.5242 20.7132 14.0329L21.4047 14.7554C21.7565 14.4186 22.2374 14.2106 22.7668 14.2106V13.2106ZM25.7171 16.1609C25.7171 14.5148 24.3862 13.2106 22.7668 13.2106V14.2106C23.8395 14.2106 24.7171 15.0727 24.7171 16.1609H25.7171ZM23.9758 18.865C24.9917 18.4065 25.7171 17.3679 25.7171 16.1609H24.7171C24.7171 16.9604 24.2353 17.6507 23.5644 17.9536L23.9758 18.865ZM24.331 19.1518C24.331 18.8849 24.3078 18.5968 24.2634 18.3278L23.2767 18.4908C23.3122 18.7055 23.331 18.9391 23.331 19.1518H24.331ZM14.013 26.5C16.8122 26.5 19.3694 25.7128 21.2403 24.4098C23.1099 23.1078 24.331 21.2585 24.331 19.1518H23.331C23.331 20.8414 22.3532 22.4162 20.6688 23.5892C18.9858 24.7613 16.6339 25.5 14.013 25.5V26.5ZM3.69281 19.1518C3.69281 21.2484 4.91448 23.0976 6.78344 24.4017C8.65429 25.7071 11.212 26.5 14.013 26.5V25.5C11.3917 25.5 9.03935 24.7564 7.35568 23.5816C5.6701 22.4054 4.69281 20.8304 4.69281 19.1518H3.69281ZM3.7612 18.3236C3.71365 18.597 3.69281 18.8678 3.69281 19.1518H4.69281C4.69281 18.9183 4.70983 18.7053 4.74641 18.495L3.7612 18.3236ZM2.627 17.5082C2.93165 18.1101 3.43362 18.5892 4.04904 18.8654L4.45857 17.9531C4.05204 17.7707 3.72046 17.4542 3.51922 17.0566L2.627 17.5082ZM2.37523 15.5587C2.23348 16.2182 2.32235 16.9064 2.627 17.5082L3.51922 17.0566C3.31797 16.659 3.25927 16.2044 3.3529 15.7688L2.37523 15.5587ZM3.4058 13.8847C2.88076 14.3082 2.51698 14.8991 2.37523 15.5587L3.3529 15.7688C3.44654 15.3331 3.68684 14.9428 4.03367 14.663L3.4058 13.8847ZM5.2599 13.2316C4.58533 13.2306 3.93084 13.4612 3.4058 13.8847L4.03367 14.663C4.38049 14.3832 4.81282 14.231 5.25843 14.2316L5.2599 13.2316ZM7.30764 14.051C6.77694 13.5456 6.05334 13.2316 5.25917 13.2316V14.2316C5.78585 14.2316 6.26532 14.4393 6.61799 14.7752L7.30764 14.051ZM13.6149 11.8269C10.9207 11.9094 8.47011 12.7176 6.67153 14.0067L7.2541 14.8195C8.87123 13.6604 11.1235 12.9037 13.6455 12.8264L13.6149 11.8269ZM14.3862 6.35887L13.1411 12.2228L14.1193 12.4305L15.3644 6.56657L14.3862 6.35887ZM14.5133 6.0314C14.442 6.14244 14.3963 6.2679 14.3794 6.39875L15.3712 6.52669C15.3692 6.54266 15.3636 6.55798 15.3549 6.57153L14.5133 6.0314ZM14.7915 5.7567C14.6796 5.82655 14.5845 5.92038 14.5133 6.0314L15.3549 6.57153C15.3462 6.58508 15.3346 6.59653 15.3209 6.60506L14.7915 5.7567ZM15.1212 5.62756C15.0013 5.6495 14.887 5.69486 14.7846 5.76106L15.3278 6.6007C15.3197 6.60592 15.3107 6.6095 15.3012 6.61122L15.1212 5.62756ZM15.4833 5.6332C15.3641 5.60754 15.2411 5.60562 15.1212 5.62756L15.3012 6.61122C15.2918 6.61295 15.2821 6.6128 15.2727 6.61078L15.4833 5.6332ZM19.5576 6.49516L15.4815 5.63282L15.2745 6.61116L19.3507 7.4735L19.5576 6.49516ZM19.8293 5.8448C19.4735 6.06866 19.1876 6.38792 19.0042 6.76626L19.9041 7.2024C20.0058 6.99253 20.1644 6.81543 20.3618 6.69126L19.8293 5.8448ZM21.0172 5.5C20.5968 5.50147 20.1852 5.62093 19.8293 5.84479L20.3618 6.69126C20.5592 6.56708 20.7875 6.50081 21.0207 6.5L21.0172 5.5ZM22.2555 5.87237C21.8888 5.62996 21.4591 5.50049 21.0195 5.5L21.0184 6.5C21.2622 6.50027 21.5006 6.57209 21.704 6.70656L22.2555 5.87237ZM23.0823 6.8637C22.9097 6.45947 22.6222 6.11478 22.2555 5.87237L21.704 6.70655C21.9074 6.84102 22.0669 7.03222 22.1627 7.25646L23.0823 6.8637ZM23.2267 8.14647C23.3052 7.71396 23.2549 7.26795 23.0823 6.8637L22.1627 7.25646C22.2584 7.48069 22.2863 7.7281 22.2428 7.96801L23.2267 8.14647ZM22.641 9.29681C22.9446 8.97895 23.1483 8.57897 23.2267 8.14647L22.2428 7.96801C22.1993 8.20793 22.0863 8.4298 21.9179 8.60612L22.641 9.29681ZM21.5188 9.93467C21.9472 9.83646 22.3374 9.61468 22.641 9.29681L21.9179 8.60612C21.7495 8.78244 21.533 8.90547 21.2954 8.95994L21.5188 9.93467ZM20.2307 9.84927C20.6425 10.0032 21.0903 10.0329 21.5188 9.93467L21.2954 8.95994C21.0577 9.01442 20.8093 8.99794 20.5809 8.91257L20.2307 9.84927ZM19.2025 9.06884C19.4615 9.42401 19.819 9.69536 20.2307 9.84927L20.5809 8.91257C20.3525 8.8272 20.1542 8.67667 20.0105 8.47966L19.2025 9.06884ZM18.7738 7.85123C18.7945 8.29031 18.9435 8.71367 19.2025 9.06884L20.0105 8.47966C19.8668 8.28265 19.7842 8.04781 19.7727 7.80425L18.7738 7.85123ZM15.5131 7.53425L19.1686 8.31667L19.3779 7.33882L15.7224 6.5564L15.5131 7.53425ZM14.9836 12.41L16.1068 7.14973L15.1288 6.94092L14.0056 12.2012L14.9836 12.41ZM21.3498 13.9875C19.5762 12.7187 17.1676 11.9103 14.5143 11.806L14.475 12.8052C16.9579 12.9028 19.1722 13.6592 20.768 14.8008L21.3498 13.9875ZM10.1354 15.6608C9.54019 15.6615 8.96955 15.8983 8.54867 16.3192L9.25577 17.0263C9.48942 16.7926 9.80619 16.6612 10.1366 16.6608L10.1354 15.6608ZM11.6922 16.3459C11.2874 15.9268 10.7357 15.6813 10.1534 15.6611L10.1187 16.6605C10.4419 16.6717 10.7482 16.808 10.9729 17.0406L11.6922 16.3459ZM12.3232 17.9075C12.3232 17.3249 12.097 16.765 11.6922 16.3459L10.9729 17.0406C11.1976 17.2733 11.3232 17.5841 11.3232 17.9075H12.3232ZM11.6922 19.4692C12.097 19.0501 12.3232 18.4902 12.3232 17.9075H11.3232C11.3232 18.231 11.1976 18.5418 10.9729 18.7745L11.6922 19.4692ZM10.1534 20.154C10.7357 20.1338 11.2874 19.8883 11.6922 19.4692L10.9729 18.7745C10.7482 19.0071 10.4419 19.1434 10.1187 19.1546L10.1534 20.154ZM7.8903 17.9065C7.8903 19.1385 8.8894 20.1789 10.1458 20.1542L10.1262 19.1544C9.45603 19.1676 8.8903 18.6053 8.8903 17.9065H7.8903ZM8.54867 16.3192C8.12778 16.74 7.89101 17.3107 7.8903 17.9059L8.8903 17.9071C8.8907 17.5767 9.02213 17.2599 9.25578 17.0263L8.54867 16.3192ZM14.0123 24.3314C14.3606 24.3314 15.137 24.3107 15.9905 24.1299C16.8331 23.9515 17.8187 23.6032 18.522 22.8999L17.8149 22.1928C17.313 22.6946 16.5518 22.9889 15.7833 23.1517C15.0257 23.3121 14.3267 23.3314 14.0123 23.3314V24.3314ZM13.5123 23.8293V23.8314H14.5123V23.8293H13.5123ZM9.50094 22.9002C10.1948 23.5928 11.1756 23.9404 12.017 24.1208C12.8698 24.3036 13.6511 24.3293 14.0123 24.3293V23.3293C13.69 23.3293 12.9853 23.3056 12.2266 23.143C11.4563 22.9779 10.6998 22.684 10.2074 22.1924L9.50094 22.9002ZM9.29295 22.5943C9.3425 22.7113 9.41506 22.8171 9.50631 22.9055L10.202 22.1872C10.207 22.192 10.211 22.1978 10.2137 22.2042L9.29295 22.5943ZM9.21786 22.2245C9.21786 22.3515 9.24339 22.4773 9.29295 22.5943L10.2137 22.2042C10.2165 22.2106 10.2179 22.2175 10.2179 22.2245H9.21786ZM9.29295 21.8547C9.24339 21.9717 9.21786 22.0975 9.21786 22.2245H10.2179C10.2179 22.2315 10.2165 22.2384 10.2137 22.2448L9.29295 21.8547ZM9.50632 21.5436C9.41506 21.6319 9.3425 21.7378 9.29295 21.8547L10.2137 22.2448C10.211 22.2512 10.207 22.257 10.202 22.2619L9.50632 21.5436ZM9.80621 21.3415C9.68924 21.391 9.58341 21.4636 9.49502 21.5549L10.2133 22.2506C10.2085 22.2556 10.2027 22.2596 10.1963 22.2623L9.80621 21.3415ZM10.176 21.2664C10.0489 21.2664 9.92318 21.2919 9.80621 21.3415L10.1963 22.2623C10.1898 22.265 10.1829 22.2664 10.176 22.2664V21.2664ZM10.5457 21.3415C10.4288 21.2919 10.303 21.2664 10.176 21.2664V22.2664C10.169 22.2664 10.1621 22.265 10.1557 22.2623L10.5457 21.3415ZM10.8569 21.5549C10.7685 21.4636 10.6627 21.391 10.5457 21.3415L10.1557 22.2623C10.1493 22.2596 10.1435 22.2556 10.1386 22.2506L10.8569 21.5549ZM14.0123 22.427C13.4725 22.427 12.8265 22.3651 12.2332 22.2162C11.6284 22.0644 11.1393 21.8372 10.8513 21.5492L10.1442 22.2563C10.6197 22.7317 11.3147 23.0167 11.9898 23.1861C12.6764 23.3585 13.4059 23.427 14.0123 23.427V22.427ZM17.1663 21.5541C16.8913 21.837 16.4069 22.0638 15.7979 22.2161C15.2022 22.3651 14.5513 22.427 14.0123 22.427V23.427C14.6176 23.427 15.3517 23.3585 16.0405 23.1862C16.7161 23.0173 17.4158 22.732 17.8833 22.2513L17.1663 21.5541ZM17.4768 21.3415C17.3599 21.391 17.254 21.4636 17.1656 21.5549L17.884 22.2506C17.8791 22.2556 17.8733 22.2596 17.8669 22.2623L17.4768 21.3415ZM17.8466 21.2664C17.7196 21.2664 17.5938 21.2919 17.4768 21.3415L17.8669 22.2623C17.8605 22.265 17.8536 22.2664 17.8466 22.2664V21.2664ZM18.2164 21.3415C18.0994 21.2919 17.9736 21.2664 17.8466 21.2664V22.2664C17.8396 22.2664 17.8327 22.265 17.8263 22.2623L18.2164 21.3415ZM18.5276 21.5548C18.4392 21.4636 18.3333 21.391 18.2164 21.3415L17.8263 22.2623C17.8199 22.2596 17.8141 22.2556 17.8092 22.2506L18.5276 21.5548ZM18.7896 22.2245C18.7896 21.9848 18.7024 21.7532 18.5443 21.573L17.7925 22.2325C17.7906 22.2303 17.7896 22.2274 17.7896 22.2245H18.7896ZM18.5443 22.8761C18.7024 22.6958 18.7896 22.4643 18.7896 22.2245H17.7896C17.7896 22.2216 17.7906 22.2188 17.7925 22.2166L18.5443 22.8761ZM15.5988 17.9275C15.5988 19.1678 16.6079 20.1732 17.8466 20.1732V19.1732C17.1587 19.1732 16.5988 18.6139 16.5988 17.9275H15.5988ZM16.1009 17.4275H16.0988V18.4275H16.1009V17.4275ZM16.2966 16.3853C15.8787 16.7832 15.6298 17.3266 15.6015 17.903L16.6003 17.9521C16.616 17.6321 16.7542 17.3304 16.9862 17.1095L16.2966 16.3853ZM17.8466 15.7654C17.2695 15.7654 16.7146 15.9874 16.2966 16.3853L16.9862 17.1095C17.2182 16.8886 17.5263 16.7654 17.8466 16.7654V15.7654ZM19.3966 16.3853C18.9786 15.9874 18.4237 15.7654 17.8466 15.7654V16.7654C18.167 16.7654 18.475 16.8886 18.707 17.1095L19.3966 16.3853ZM20.0917 17.903C20.0634 17.3266 19.8145 16.7832 19.3966 16.3853L18.707 17.1095C18.939 17.3304 19.0772 17.6321 19.0929 17.9521L20.0917 17.903ZM17.8466 20.1732C19.0896 20.1732 20.0923 19.1445 20.0923 17.9275H19.0923C19.0923 18.5993 18.5302 19.1732 17.8466 19.1732V20.1732Z" fill="url(#paint1_linear_370_18378)" mask="url(#path-1-inside-1_370_18378)"/>
<defs>
<linearGradient id="paint0_linear_370_18378" x1="14.0133" y1="6" x2="14.0133" y2="26" gradientUnits="userSpaceOnUse">
<stop stop-color="#DBF0FF" stop-opacity="0.54"/>
<stop offset="1" stop-color="#CEEAFF" stop-opacity="0.32"/>
</linearGradient>
<linearGradient id="paint1_linear_370_18378" x1="14.0133" y1="6" x2="14.0133" y2="26" gradientUnits="userSpaceOnUse">
<stop stop-color="white" stop-opacity="0.46"/>
<stop offset="1" stop-color="white" stop-opacity="0"/>
</linearGradient>
</defs>
</svg>
