<svg width="30" height="30" viewBox="0 0 30 30" fill="none" xmlns="http://www.w3.org/2000/svg">
<path fill-rule="evenodd" clip-rule="evenodd" d="M21.0589 14.3942C21.5006 13.9714 22.1043 13.7106 22.7668 13.7106C24.1129 13.7106 25.2171 14.7938 25.2171 16.1609C25.2171 17.1642 24.6135 18.0286 23.7701 18.4093C23.81 18.6512 23.831 18.912 23.831 19.1518C23.831 22.9482 19.4331 26 14.013 26C8.59075 26 4.19281 22.9271 4.19281 19.1518C4.19281 18.893 4.21174 18.6512 4.2538 18.4093C3.74283 18.1799 3.32606 17.7821 3.07311 17.2824C2.82016 16.7827 2.74637 16.2113 2.86406 15.6637C2.98176 15.1161 3.2838 14.6255 3.71973 14.2739C4.15567 13.9222 4.69908 13.7308 5.25917 13.7316C5.91959 13.7316 6.52113 13.9924 6.96282 14.4131C8.67067 13.189 11.0221 12.4066 13.6302 12.3266L14.8753 6.46272C14.8827 6.40528 14.9028 6.35021 14.9341 6.30147C14.9654 6.25273 15.0071 6.21154 15.0562 6.18088C15.1033 6.15039 15.156 6.1295 15.2112 6.11939C15.2665 6.10929 15.3231 6.11017 15.378 6.12199L19.4541 6.98433C19.5967 6.69023 19.8189 6.44204 20.0956 6.26803C20.3722 6.09401 20.6922 6.00114 21.019 6C21.3607 6.00038 21.6947 6.10102 21.9798 6.28946C22.2648 6.4779 22.4883 6.74584 22.6225 7.06008C22.7567 7.37432 22.7957 7.72103 22.7347 8.05724C22.6738 8.39345 22.5155 8.70437 22.2795 8.95147C22.0434 9.19856 21.7401 9.37097 21.4071 9.4473C21.074 9.52364 20.7259 9.50056 20.4058 9.38092C20.0857 9.26128 19.8078 9.05034 19.6065 8.77425C19.4052 8.49816 19.2893 8.16906 19.2733 7.82774L15.6178 7.04533L14.4946 12.3056C17.0627 12.4066 19.3742 13.189 21.0589 14.3942ZM8.90222 16.6727C9.22949 16.3454 9.67319 16.1613 10.136 16.1608C10.5888 16.1765 11.0178 16.3674 11.3325 16.6933C11.6473 17.0191 11.8232 17.4545 11.8232 17.9075C11.8232 18.3606 11.6473 18.796 11.3325 19.1218C11.0178 19.4477 10.5888 19.6386 10.136 19.6543C9.17271 19.6732 8.3903 18.8719 8.3903 17.9065C8.39085 17.4437 8.57496 17 8.90222 16.6727ZM18.1684 22.5463C16.9632 23.7515 14.6749 23.8314 14.0123 23.8314V23.8293C13.3288 23.8293 11.0404 23.7305 9.85418 22.5463C9.81105 22.5045 9.77676 22.4545 9.75334 22.3993C9.72993 22.344 9.71786 22.2845 9.71786 22.2245C9.71786 22.1645 9.72993 22.1051 9.75334 22.0498C9.77676 21.9945 9.81105 21.9445 9.85418 21.9027C9.89594 21.8596 9.94595 21.8253 10.0012 21.8019C10.0565 21.7785 10.1159 21.7664 10.176 21.7664C10.236 21.7664 10.2954 21.7785 10.3507 21.8019C10.406 21.8253 10.456 21.8596 10.4978 21.9027C11.2613 22.6662 12.8661 22.927 14.0123 22.927C15.1565 22.927 16.7823 22.6662 17.5248 21.9027C17.5666 21.8596 17.6166 21.8253 17.6719 21.8019C17.7271 21.7785 17.7866 21.7664 17.8466 21.7664C17.9066 21.7664 17.9661 21.7785 18.0213 21.8019C18.0766 21.8253 18.1266 21.8596 18.1684 21.9027C18.2465 21.9917 18.2896 22.1061 18.2896 22.2245C18.2896 22.3429 18.2465 22.4573 18.1684 22.5463ZM17.8466 19.6732C16.8833 19.6732 16.0988 18.8908 16.0988 17.9275H16.1009C16.1229 17.4794 16.3164 17.0568 16.6414 16.7474C16.9664 16.438 17.3979 16.2654 17.8466 16.2654C18.2953 16.2654 18.7268 16.438 19.0518 16.7474C19.3768 17.0568 19.5703 17.4794 19.5923 17.9275C19.5923 18.8719 18.8099 19.6732 17.8466 19.6732Z" fill="white"/>
</svg>
