<svg width="30" height="30" viewBox="0 0 30 30" fill="none" xmlns="http://www.w3.org/2000/svg">
<path d="M24.724 6.42006L24.7245 6.42029L24.7241 6.42019L20.8636 22.3311L20.8636 22.3311C20.7201 22.9233 20.0552 23.2288 19.5106 22.9476L19.5106 22.9475L14.6284 20.427L14.4217 20.3203L14.3004 20.5188L11.9918 24.2959L11.9917 24.2961C11.4946 25.1106 10.2373 24.7558 10.2373 23.8056V19.5971C10.2373 19.3421 10.344 19.0961 10.5315 18.9143C10.5317 18.9142 10.5319 18.914 10.532 18.9138L20.0454 9.83178L20.13 9.75102L20.1222 9.63432C20.1132 9.49823 20.0379 9.37118 19.921 9.2996C19.791 9.21999 19.6238 9.21835 19.4814 9.31627L19.4802 9.31708L8.24977 17.1335L4.56883 15.2346C4.56878 15.2345 4.56873 15.2345 4.56868 15.2345C4.56867 15.2345 4.56866 15.2345 4.56864 15.2345C3.86078 14.8684 3.89372 13.845 4.62176 13.5287L4.62203 13.5286L23.4318 5.3309L23.432 5.33081C24.1435 5.01993 24.9096 5.66007 24.724 6.42006Z" fill="url(#paint0_linear_370_18375)" stroke="url(#paint1_linear_370_18375)" stroke-width="0.5"/>
<defs>
<linearGradient id="paint0_linear_370_18375" x1="14.4044" y1="5" x2="14.4044" y2="25" gradientUnits="userSpaceOnUse">
<stop stop-color="#DBF0FF" stop-opacity="0.54"/>
<stop offset="1" stop-color="#CEEAFF" stop-opacity="0.32"/>
</linearGradient>
<linearGradient id="paint1_linear_370_18375" x1="14.4044" y1="5" x2="14.4044" y2="25" gradientUnits="userSpaceOnUse">
<stop stop-color="white" stop-opacity="0.46"/>
<stop offset="1" stop-color="white" stop-opacity="0"/>
</linearGradient>
</defs>
</svg>
