<svg width="30" height="30" viewBox="0 0 30 30" fill="none" xmlns="http://www.w3.org/2000/svg">
<path d="M14.6442 10.3041L14.6442 10.3041L14.7006 11.1691L14.72 11.4673L14.4231 11.4338L13.4838 11.3279L13.4823 11.3277C10.0109 10.9154 6.97537 9.51594 4.40099 7.16839L4.39963 7.16715L4.39963 7.16715L3.43243 6.27201L3.24485 6.76975C2.60077 8.57088 3.01482 10.4592 4.34733 11.7281L4.35055 11.7312L4.35052 11.7312C4.53929 11.9175 4.68686 12.0795 4.77246 12.2115C4.81298 12.274 4.85864 12.3578 4.86942 12.4512C4.87534 12.5025 4.87179 12.5659 4.84222 12.6298C4.81181 12.6955 4.763 12.7421 4.71128 12.7721C4.62017 12.8249 4.51677 12.8288 4.44509 12.826C4.36433 12.8229 4.2719 12.8083 4.17198 12.7865C3.97188 12.743 3.70838 12.6635 3.38338 12.5529C3.16724 12.4852 2.96978 12.4276 2.82142 12.392C2.82247 12.3988 2.82358 12.4057 2.82475 12.4127C2.852 12.5779 2.90452 12.8003 2.97357 13.0436C3.11297 13.5349 3.30857 14.0726 3.47237 14.3643L3.47314 14.3657C3.93038 15.192 4.87977 16.024 5.93179 16.5189L6.84956 16.9238L6.75272 17.4025L5.66311 17.4201L5.65906 17.4202V17.4201C5.39474 17.4201 5.20153 17.4213 5.05916 17.4284C4.99291 17.4317 4.94392 17.4361 4.90808 17.4407C4.91158 17.4531 4.9157 17.4672 4.92057 17.4832C5.08884 17.9947 5.51529 18.5483 6.11852 19.0449C6.71901 19.5392 7.47524 19.9606 8.2711 20.2156C8.27123 20.2157 8.27136 20.2157 8.2715 20.2157L9.43581 20.5863L9.98672 20.7617L9.48161 21.043L8.46715 21.6079L8.46437 21.6095L8.46436 21.6094C6.92532 22.4411 5.12019 22.9098 3.31575 22.9459M14.6442 10.3041L3.31075 22.6959M14.6442 10.3041L14.644 10.3015C14.4848 8.19023 15.881 6.23688 18.137 5.47312C18.5379 5.34232 19.0933 5.26482 19.6723 5.25192C20.2498 5.23905 20.8303 5.29091 21.2805 5.40665C21.6235 5.50409 22.3114 5.84173 22.8093 6.15358C22.8095 6.15369 22.8097 6.15381 22.8098 6.15393L23.7294 6.73591L23.8253 6.79657L23.934 6.76439L24.9454 6.46516C24.9459 6.46501 24.9464 6.46487 24.947 6.46472C25.5136 6.30488 26.282 6.03564 26.6442 5.84709C26.6648 5.83687 26.6851 5.827 26.7051 5.8175M14.6442 10.3041L26.7051 5.8175M3.31575 22.9459L3.31075 22.6959M3.31575 22.9459C3.31582 22.9459 3.3159 22.9459 3.31597 22.9459L3.31075 22.6959M3.31575 22.9459C3.00409 22.9524 2.71414 22.9662 2.47399 22.9834M3.31075 22.6959C2.80433 22.7065 2.35184 22.7361 2.07039 22.7695C2.12057 22.8001 2.18567 22.8366 2.26531 22.8783C2.32807 22.9112 2.39797 22.9464 2.47399 22.9834M2.47399 22.9834C2.39221 22.9893 2.3162 22.9956 2.24707 23.0022C2.15597 23.0108 2.07901 23.0197 2.0177 23.0283C1.99784 23.0171 1.97903 23.0062 1.96133 22.9956M2.47399 22.9834C2.67377 23.0807 2.91581 23.1906 3.18164 23.3048C3.91584 23.6202 4.8116 23.9601 5.46509 24.1504M1.96133 22.9956C1.98967 22.9633 2.02026 22.9112 2.02026 22.8371C2.02026 22.8139 2.0168 22.7936 2.01209 22.7768L1.96133 22.9956ZM1.96133 22.9956L5.39605 24.3907M5.46509 24.1504C5.46504 24.1504 5.465 24.1504 5.46496 24.1504L5.39605 24.3907M5.46509 24.1504C5.46537 24.1505 5.46565 24.1506 5.46594 24.1507L5.39605 24.3907M5.46509 24.1504C9.40539 25.2804 14.0901 24.7919 17.5996 22.8652M5.39605 24.3907C9.39756 25.5382 14.1505 25.0439 17.7199 23.0843C20.2561 21.6896 22.7923 18.9179 23.9758 16.2345C24.6146 14.8045 25.2533 12.1917 25.2533 10.9382C25.2533 10.1261 25.3097 10.0202 26.3617 9.04921C26.9817 8.48427 27.564 7.86638 27.6768 7.68984M17.5996 22.8652C17.5996 22.8652 17.5995 22.8652 17.5995 22.8652L17.7197 23.0838L17.5996 22.8652ZM17.5996 22.8652C20.0873 21.4971 22.5855 18.7672 23.7471 16.1336L23.7476 16.1325C24.0585 15.4363 24.3736 14.4415 24.6111 13.4613C24.8494 12.4778 25.0033 11.5345 25.0033 10.9382C25.0033 10.5333 25.014 10.2409 25.1971 9.92724C25.3658 9.63824 25.6766 9.34128 26.1921 8.8655L26.1933 8.86442C26.499 8.58591 26.7955 8.29412 27.0291 8.05078C27.1198 7.95618 27.1984 7.87162 27.2633 7.79954M27.2633 7.79954C27.3598 7.76997 27.4407 7.74593 27.5083 7.7272C27.5725 7.70944 27.6206 7.69767 27.6561 7.69068C27.6624 7.68945 27.6679 7.68844 27.6728 7.68761L27.6768 7.68984M27.2633 7.79954C27.1768 7.82604 27.0778 7.85697 26.9644 7.89248C26.5646 8.02505 26.2434 8.12254 25.9994 8.1805C25.8774 8.20948 25.7688 8.23005 25.676 8.23936C25.5897 8.24802 25.4895 8.25024 25.3996 8.22126C25.3513 8.20568 25.2937 8.17718 25.2458 8.12413C25.1951 8.06808 25.1699 8.00066 25.1644 7.93439C25.1551 7.81967 25.2054 7.71823 25.2431 7.6542C25.3257 7.51403 25.4805 7.34082 25.6771 7.14293L25.6804 7.13962L25.6804 7.13965C25.9563 6.872 26.265 6.48896 26.5046 6.13511C26.5807 6.0228 26.6484 5.91543 26.7051 5.8175M27.2633 7.79954C27.3664 7.68503 27.4349 7.60204 27.4627 7.56043C27.4844 7.52166 27.5004 7.49239 27.512 7.46883C27.5123 7.4683 27.5125 7.46778 27.5128 7.46727M27.6768 7.68984L27.6732 7.68754C27.6751 7.68722 27.6768 7.68692 27.6785 7.68665C27.6779 7.68771 27.6773 7.68877 27.6768 7.68984ZM9.35998 20.8246L9.28416 21.0628L9.0602 20.9915L9.35998 20.8246ZM9.35998 20.8246L9.23835 20.6062L9.03302 20.7205L9.35998 20.8246ZM6.74867 17.1525L6.64777 17.3812L6.15116 17.1622L6.74867 17.1525ZM6.74867 17.1525L6.74462 16.9025L6.20191 16.9113L6.74867 17.1525ZM14.4511 11.1854L14.2016 11.2016L14.1987 11.1569L14.4511 11.1854ZM14.4511 11.1854L14.4791 10.9369L14.4346 10.9319L14.4511 11.1854ZM27.5128 7.46727C27.3747 7.5025 27.1728 7.56523 26.8877 7.65453C25.2909 8.18415 25.0654 8.11354 25.8545 7.3191C26.3246 6.86306 26.8682 6.10792 27.0602 5.67587L27.5128 7.46727ZM27.5128 7.46727L26.7051 5.8175M27.6575 7.67404C27.6526 7.67225 27.6473 7.67006 27.6417 7.66744L27.5972 7.63902C27.5866 7.63019 27.576 7.61965 27.5661 7.60708C27.5218 7.55097 27.5187 7.49442 27.5208 7.46523C27.8342 7.3863 27.8083 7.4544 27.6817 7.681C27.6749 7.67959 27.6667 7.67741 27.6575 7.67404ZM4.56944 6.98367L4.56944 6.98367L4.56944 6.98367Z" fill="url(#paint0_linear_370_18374)" stroke="url(#paint1_linear_370_18374)" stroke-width="0.5"/>
<defs>
<linearGradient id="paint0_linear_370_18374" x1="14.7703" y1="5" x2="14.7703" y2="25" gradientUnits="userSpaceOnUse">
<stop stop-color="#DBF0FF" stop-opacity="0.54"/>
<stop offset="1" stop-color="#CEEAFF" stop-opacity="0.32"/>
</linearGradient>
<linearGradient id="paint1_linear_370_18374" x1="14.7703" y1="5" x2="14.7703" y2="25" gradientUnits="userSpaceOnUse">
<stop stop-color="white" stop-opacity="0.46"/>
<stop offset="1" stop-color="white" stop-opacity="0"/>
</linearGradient>
</defs>
</svg>
