<svg width="54" height="55" viewBox="0 0 54 55" fill="none" xmlns="http://www.w3.org/2000/svg">
<rect y="0.5" width="54" height="54" rx="27" fill="#1C2038" fill-opacity="0.8"/>
<path d="M41.1342 16.2335C39.9596 17.0621 38.659 17.6958 37.2827 18.1102C36.5439 17.2608 35.5621 16.6588 34.4701 16.3855C33.378 16.1123 32.2284 16.181 31.1767 16.5824C30.125 16.9839 29.222 17.6986 28.5897 18.63C27.9574 19.5613 27.6265 20.6644 27.6416 21.79V23.0166C25.486 23.0725 23.35 22.5945 21.4239 21.625C19.4978 20.6555 17.8414 18.3471 16.6021 16.5824C16.6021 16.5824 11.6957 28.4996 22.7351 33.406C20.209 35.1207 17.1997 35.9805 14.1489 35.8592C25.1884 41.9922 38.681 35.8592 38.681 21.7532C38.6799 21.4116 38.647 21.0707 38.5829 20.7352C39.8347 19.5006 40.7182 17.9418 41.1342 16.2335Z" fill="white"/>
</svg>
