<svg width="30" height="30" viewBox="0 0 30 30" fill="none" xmlns="http://www.w3.org/2000/svg">
<path d="M14.3947 10.3203L14.4511 11.1854L13.5118 11.0794C10.0927 10.6734 7.10561 9.29637 4.56944 6.98367L3.32954 5.83614L3.01017 6.68355C2.33386 8.57255 2.76594 10.5675 4.17493 11.9092C4.92638 12.6507 4.75731 12.7566 3.46104 12.3152C3.01017 12.174 2.61565 12.0681 2.57808 12.121C2.44658 12.2446 2.89745 13.8512 3.25439 14.4867C3.74284 15.3694 4.73852 16.2345 5.82813 16.7464L6.74867 17.1525L5.65906 17.1701C4.60702 17.1701 4.56944 17.1878 4.68216 17.5585C5.05789 18.7061 6.54202 19.9242 8.19522 20.4538L9.35998 20.8246L8.34552 21.3895C6.8426 22.2016 5.07668 22.6606 3.31075 22.6959C2.46536 22.7136 1.77026 22.7842 1.77026 22.8371C1.77026 23.0137 4.06221 24.0023 5.39605 24.3907C9.39756 25.5382 14.1505 25.0439 17.7199 23.0843C20.2561 21.6896 22.7923 18.9179 23.9758 16.2345C24.6146 14.8045 25.2533 12.1917 25.2533 10.9382C25.2533 10.1261 25.3097 10.0202 26.3617 9.04921C26.9817 8.48427 27.564 7.86638 27.6768 7.68984C27.8646 7.35441 27.8458 7.35441 26.8877 7.65453C25.2909 8.18415 25.0654 8.11354 25.8545 7.3191C26.4368 6.75416 27.1319 5.73022 27.1319 5.4301C27.1319 5.37713 26.8502 5.4654 26.5308 5.62429C26.1926 5.80083 25.4412 6.06565 24.8776 6.22454L23.8631 6.52466L22.9426 5.94207C22.4353 5.62429 21.7215 5.27121 21.3457 5.16528C20.3876 4.91812 18.9223 4.95343 18.0581 5.2359C15.7098 6.03034 14.2257 8.07823 14.3947 10.3203Z" fill="white"/>
</svg>
