<svg width="54" height="55" viewBox="0 0 54 55" fill="none" xmlns="http://www.w3.org/2000/svg">
<rect y="0.5" width="54" height="54" rx="27" fill="#1C2038" fill-opacity="0.8"/>
<path fill-rule="evenodd" clip-rule="evenodd" d="M40.9894 17.8506C41.4681 18.3442 41.8081 18.9553 41.9751 19.6223C42.4209 22.094 42.6373 24.6016 42.6216 27.1131C42.6304 29.5871 42.4141 32.0567 41.9751 34.4915C41.8081 35.1585 41.4681 35.7696 40.9894 36.2631C40.5107 36.7567 39.9102 37.1151 39.2486 37.3023C36.8313 37.9488 27.1621 37.9488 27.1621 37.9488C27.1621 37.9488 17.4929 37.9488 15.0756 37.3023C14.4274 37.125 13.836 36.7834 13.3584 36.3108C12.8807 35.8381 12.5331 35.2502 12.3491 34.6039C11.9032 32.1322 11.6868 29.6246 11.7026 27.1131C11.6903 24.6203 11.9067 22.1317 12.3491 19.6785C12.516 19.0115 12.856 18.4004 13.3348 17.9068C13.8135 17.4133 14.414 17.0549 15.0756 16.8677C17.4929 16.2212 27.1621 16.2212 27.1621 16.2212C27.1621 16.2212 36.8313 16.2212 39.2486 16.8115C39.9102 16.9986 40.5107 17.3571 40.9894 17.8506ZM32.0798 27.1128L23.9987 31.7085V22.5171L32.0798 27.1128Z" fill="white"/>
</svg>
